# generated by step_to_parts.py -- 658 verts, 1312 tris
v -0.280403 -0.237545 -0.034947
v -0.280402 -0.237450 -0.034943
v -0.224674 -0.020139 0.104462
v -0.223837 -0.020317 0.104452
v -0.224106 -0.020219 0.104446
v -0.224388 -0.020159 0.104450
v -0.279915 -0.109275 0.119219
v -0.250004 -0.110545 -0.039540
v -0.278645 -0.110545 -0.039540
v -0.278645 -0.237545 -0.039540
v -0.263984 -0.237545 -0.039540
v -0.250004 -0.236187 -0.039540
v -0.254632 -0.236940 -0.039540
v -0.259298 -0.237393 -0.039540
v -0.139515 -0.200715 0.119219
v -0.139515 -0.200715 0.045559
v -0.278645 -0.199445 0.120489
v -0.139515 -0.199445 0.120489
v -0.278645 -0.110545 0.120489
v -0.139515 -0.110545 0.120489
v -0.139515 -0.200699 0.045360
v -0.139515 -0.200652 0.045167
v -0.139515 -0.200576 0.044983
v -0.139515 -0.200472 0.044813
v -0.139515 -0.200343 0.044661
v -0.139515 -0.200191 0.044532
v -0.139515 -0.200021 0.044428
v -0.139515 -0.199837 0.044351
v -0.139515 -0.199643 0.044305
v -0.139515 -0.199445 0.044289
v -0.139515 -0.094035 0.044289
v -0.139515 -0.093814 0.044308
v -0.139515 -0.093600 0.044366
v -0.139515 -0.093400 0.044459
v -0.139515 -0.093218 0.044586
v -0.139515 -0.093062 0.044743
v -0.139515 -0.092935 0.044924
v -0.139515 -0.092841 0.045125
v -0.139515 -0.092784 0.045339
v -0.139515 -0.092765 0.045559
v -0.139515 -0.092765 0.062069
v -0.139515 -0.092780 0.062268
v -0.139515 -0.092827 0.062462
v -0.139515 -0.109337 0.119612
v -0.139515 -0.109413 0.119796
v -0.139515 -0.109517 0.119966
v -0.139515 -0.109647 0.120117
v -0.139515 -0.109798 0.120247
v -0.139515 -0.109968 0.120351
v -0.139515 -0.110152 0.120427
v -0.139515 -0.110346 0.120474
v -0.139515 -0.199665 0.120470
v -0.139515 -0.199879 0.120413
v -0.139515 -0.200080 0.120319
v -0.139515 -0.200261 0.120192
v -0.139515 -0.200417 0.120036
v -0.139515 -0.200544 0.119854
v -0.139515 -0.200638 0.119654
v -0.139515 -0.200695 0.119440
v -0.278645 -0.238815 -0.038270
v -0.263984 -0.238815 -0.038270
v -0.263984 -0.238815 0.017485
v -0.269997 -0.238815 0.005452
v -0.274555 -0.238815 -0.007203
v -0.277594 -0.238815 -0.020307
v -0.279073 -0.238815 -0.033677
v -0.237579 -0.233938 0.048325
v -0.245567 -0.236484 0.041149
v -0.253226 -0.238028 0.032814
v -0.258898 -0.238640 0.025402
v -0.259216 -0.238661 -0.038270
v -0.254468 -0.238200 -0.038270
v -0.249760 -0.237433 -0.038270
v -0.248807 -0.237240 -0.026884
v -0.246634 -0.236750 -0.016846
v -0.243308 -0.235864 -0.007282
v -0.238927 -0.234439 0.001692
v -0.279915 -0.110545 -0.038270
v -0.279915 -0.199445 0.119219
v -0.279915 -0.062275 0.103217
v -0.279915 -0.062275 0.095089
v -0.206811 -0.028186 0.095089
v -0.213165 -0.023736 0.095089
v -0.220195 -0.020458 0.095089
v -0.227687 -0.018451 0.095089
v -0.235415 -0.017775 0.095089
v -0.243142 -0.018451 0.095089
v -0.250634 -0.020458 0.095089
v -0.257665 -0.023736 0.095089
v -0.264019 -0.028186 0.095089
v -0.269504 -0.033671 0.095089
v -0.273953 -0.040025 0.095089
v -0.277231 -0.047055 0.095089
v -0.279239 -0.054547 0.095089
v -0.279239 -0.054547 0.103217
v -0.277231 -0.047055 0.103217
v -0.273953 -0.040025 0.103217
v -0.269504 -0.033671 0.103217
v -0.264019 -0.028186 0.103217
v -0.257665 -0.023736 0.103217
v -0.250634 -0.020458 0.103217
v -0.243142 -0.018451 0.103217
v -0.235415 -0.017775 0.103217
v -0.227687 -0.018451 0.103217
v -0.220195 -0.020458 0.103217
v -0.213165 -0.023736 0.103217
v -0.206811 -0.028186 0.103217
v -0.201326 -0.033671 0.103217
v -0.256830 -0.024396 0.104455
v -0.257139 -0.024531 0.104446
v -0.257423 -0.024716 0.104451
v -0.279350 -0.055309 0.094890
v -0.278399 -0.051001 0.094697
v -0.278160 -0.049958 0.094890
v -0.277216 -0.047060 0.094890
v -0.273939 -0.040032 0.094890
v -0.273899 -0.040056 0.094697
v -0.269492 -0.033681 0.094890
v -0.269456 -0.033710 0.094697
v -0.268458 -0.032832 0.094343
v -0.264009 -0.028198 0.094890
v -0.263979 -0.028233 0.094697
v -0.263930 -0.028292 0.094513
v -0.258531 -0.024534 0.094343
v -0.257808 -0.023838 0.094890
v -0.257784 -0.023878 0.094697
v -0.257746 -0.023944 0.094513
v -0.256910 -0.023469 0.094513
v -0.250707 -0.020502 0.094890
v -0.250691 -0.020545 0.094697
v -0.250665 -0.020617 0.094513
v -0.244391 -0.018937 0.094343
v -0.243139 -0.018466 0.094890
v -0.243131 -0.018512 0.094697
v -0.243118 -0.018587 0.094513
v -0.243100 -0.018690 0.094343
v -0.237953 -0.018220 0.094191
v -0.235415 -0.017790 0.094890
v -0.235415 -0.017837 0.094697
v -0.235415 -0.017913 0.094513
v -0.235415 -0.018017 0.094343
v -0.231486 -0.018322 0.094191
v -0.227690 -0.018466 0.094890
v -0.227698 -0.018512 0.094697
v -0.227711 -0.018587 0.094513
v -0.227729 -0.018690 0.094343
v -0.225049 -0.019141 0.094513
v -0.225074 -0.019242 0.094343
v -0.223877 -0.019361 0.094697
v -0.223897 -0.019434 0.094513
v -0.223924 -0.019535 0.094343
v -0.222789 -0.019619 0.094890
v -0.222803 -0.019664 0.094697
v -0.222824 -0.019737 0.094513
v -0.222854 -0.019837 0.094343
v -0.220200 -0.020473 0.094890
v -0.220216 -0.020517 0.094697
v -0.220242 -0.020588 0.094513
v -0.220278 -0.020686 0.094343
v -0.216840 -0.022246 0.094191
v -0.213172 -0.023750 0.094890
v -0.213196 -0.023790 0.094697
v -0.213234 -0.023856 0.094513
v -0.206821 -0.028198 0.094890
v -0.206850 -0.028233 0.094697
v -0.279895 -0.110324 -0.038270
v -0.278865 -0.237545 -0.039521
v -0.279079 -0.237545 -0.039464
v -0.279280 -0.237545 -0.039370
v -0.279461 -0.237545 -0.039243
v -0.279617 -0.237545 -0.039087
v -0.279744 -0.237545 -0.038905
v -0.279838 -0.237545 -0.038705
v -0.279895 -0.237545 -0.038491
v -0.278865 -0.110545 -0.039521
v -0.279079 -0.110545 -0.039464
v -0.279280 -0.110545 -0.039370
v -0.279461 -0.110545 -0.039243
v -0.279617 -0.110545 -0.039087
v -0.279744 -0.110545 -0.038905
v -0.279838 -0.110545 -0.038705
v -0.279895 -0.110545 -0.038491
v -0.278645 -0.110324 -0.039521
v -0.278645 -0.110110 -0.039464
v -0.278645 -0.109910 -0.039370
v -0.278645 -0.109728 -0.039243
v -0.278645 -0.109572 -0.039087
v -0.278645 -0.109445 -0.038905
v -0.279315 -0.109552 -0.038691
v -0.279613 -0.109753 -0.038491
v -0.279204 -0.109552 -0.038830
v -0.279539 -0.109753 -0.038701
v -0.279782 -0.109994 -0.038398
v -0.279066 -0.109552 -0.038941
v -0.279421 -0.109753 -0.038889
v -0.279725 -0.109994 -0.038648
v -0.278906 -0.109552 -0.039018
v -0.279264 -0.109753 -0.039047
v -0.279613 -0.109994 -0.038879
v -0.279852 -0.110262 -0.038546
v -0.278733 -0.109552 -0.039057
v -0.279075 -0.109753 -0.039165
v -0.279454 -0.109994 -0.039079
v -0.279760 -0.110262 -0.038807
v -0.278866 -0.109753 -0.039238
v -0.279253 -0.109994 -0.039239
v -0.279613 -0.110262 -0.039042
v -0.279022 -0.109994 -0.039350
v -0.279417 -0.110262 -0.039238
v -0.278773 -0.109994 -0.039407
v -0.279182 -0.110262 -0.039386
v -0.278920 -0.110262 -0.039477
v -0.249724 -0.119307 -0.039508
v -0.250004 -0.110324 -0.039521
v -0.250004 -0.110110 -0.039464
v -0.250004 -0.109910 -0.039370
v -0.250004 -0.109728 -0.039243
v -0.250004 -0.109572 -0.039087
v -0.250004 -0.109445 -0.038905
v -0.249195 -0.110545 -0.039248
v -0.249375 -0.110545 -0.039373
v -0.249574 -0.110545 -0.039465
v -0.249786 -0.110545 -0.039521
v -0.249219 -0.110112 -0.039169
v -0.249458 -0.109734 -0.039081
v -0.249219 -0.110323 -0.039243
v -0.249458 -0.109935 -0.039241
v -0.249724 -0.109576 -0.039043
v -0.249458 -0.110166 -0.039352
v -0.249724 -0.109772 -0.039239
v -0.249458 -0.110416 -0.039410
v -0.249724 -0.110007 -0.039386
v -0.249724 -0.110269 -0.039478
v -0.279895 -0.062275 0.103438
v -0.279701 -0.058786 0.103652
v -0.279758 -0.058782 0.103438
v -0.279198 -0.055334 0.103852
v -0.279290 -0.055319 0.103652
v -0.279347 -0.055310 0.103438
v -0.278394 -0.051946 0.104034
v -0.278517 -0.051917 0.103852
v -0.278608 -0.051895 0.103652
v -0.278664 -0.051882 0.103438
v -0.278154 -0.050994 0.104034
v -0.278277 -0.050962 0.103852
v -0.278367 -0.050938 0.103652
v -0.278423 -0.050924 0.103438
v -0.277731 -0.050051 0.104190
v -0.277881 -0.050008 0.104034
v -0.278003 -0.049973 0.103852
v -0.278093 -0.049947 0.103652
v -0.278148 -0.049931 0.103438
v -0.276952 -0.047156 0.104034
v -0.277071 -0.047113 0.103852
v -0.277159 -0.047081 0.103652
v -0.277213 -0.047061 0.103438
v -0.275204 -0.043811 0.104317
v -0.275369 -0.043735 0.104190
v -0.275511 -0.043669 0.104034
v -0.275626 -0.043615 0.103852
v -0.275711 -0.043576 0.103652
v -0.275763 -0.043552 0.103438
v -0.273560 -0.040251 0.104190
v -0.273695 -0.040173 0.104034
v -0.273805 -0.040110 0.103852
v -0.273886 -0.040063 0.103652
v -0.273936 -0.040034 0.103438
v -0.271911 -0.038303 0.104411
v -0.272078 -0.038193 0.104317
v -0.272230 -0.038094 0.104190
v -0.272361 -0.038008 0.104034
v -0.272467 -0.037938 0.103852
v -0.272545 -0.037887 0.103652
v -0.272593 -0.037855 0.103438
v -0.269156 -0.033962 0.104190
v -0.269276 -0.033862 0.104034
v -0.269373 -0.033780 0.103852
v -0.269445 -0.033720 0.103652
v -0.268015 -0.033226 0.104411
v -0.269489 -0.033683 0.103438
v -0.268165 -0.033093 0.104317
v -0.268300 -0.032972 0.104190
v -0.268417 -0.032868 0.104034
v -0.268512 -0.032784 0.103852
v -0.268582 -0.032721 0.103652
v -0.268624 -0.032683 0.103438
v -0.263481 -0.028826 0.104411
v -0.263610 -0.028672 0.104317
v -0.263727 -0.028533 0.104190
v -0.263828 -0.028413 0.104034
v -0.263909 -0.028316 0.103852
v -0.263969 -0.028244 0.103652
v -0.264006 -0.028200 0.103438
v -0.258221 -0.025040 0.104411
v -0.258326 -0.024869 0.104317
v -0.258421 -0.024714 0.104190
v -0.258502 -0.024581 0.104034
v -0.258569 -0.024472 0.103852
v -0.258618 -0.024392 0.103652
v -0.257247 -0.024460 0.104411
v -0.258648 -0.024344 0.103438
v -0.257347 -0.024286 0.104317
v -0.257438 -0.024129 0.104190
v -0.257516 -0.023994 0.104034
v -0.256228 -0.024169 0.104473
v -0.257579 -0.023884 0.103852
v -0.256345 -0.023954 0.104411
v -0.257626 -0.023803 0.103652
v -0.256441 -0.023778 0.104317
v -0.257655 -0.023753 0.103438
v -0.256528 -0.023619 0.104190
v -0.256603 -0.023481 0.104034
v -0.256664 -0.023370 0.103852
v -0.256709 -0.023288 0.103652
v -0.256737 -0.023237 0.103438
v -0.250341 -0.021501 0.104473
v -0.250425 -0.021272 0.104411
v -0.250494 -0.021083 0.104317
v -0.250557 -0.020913 0.104190
v -0.250611 -0.020766 0.104034
v -0.250654 -0.020647 0.103852
v -0.250686 -0.020559 0.103652
v -0.250706 -0.020505 0.103438
v -0.244221 -0.019758 0.104473
v -0.244271 -0.019518 0.104411
v -0.244312 -0.019321 0.104317
v -0.244348 -0.019144 0.104190
v -0.244380 -0.018991 0.104034
v -0.244406 -0.018866 0.103852
v -0.244425 -0.018775 0.103652
v -0.244437 -0.018718 0.103438
v -0.243063 -0.018897 0.104190
v -0.243090 -0.018743 0.104034
v -0.243112 -0.018618 0.103852
v -0.243129 -0.018526 0.103652
v -0.243139 -0.018470 0.103438
v -0.237912 -0.018927 0.104473
v -0.237926 -0.018683 0.104411
v -0.237938 -0.018482 0.104317
v -0.237948 -0.018301 0.104190
v -0.237957 -0.018145 0.104034
v -0.237964 -0.018018 0.103852
v -0.237970 -0.017925 0.103652
v -0.237973 -0.017868 0.103438
v -0.235415 -0.018228 0.104190
v -0.235415 -0.018072 0.104034
v -0.235415 -0.017945 0.103852
v -0.235415 -0.017851 0.103652
v -0.235415 -0.017794 0.103438
v -0.231549 -0.019027 0.104473
v -0.231527 -0.018784 0.104411
v -0.231510 -0.018584 0.104317
v -0.231493 -0.018403 0.104190
v -0.231480 -0.018247 0.104034
v -0.231468 -0.018121 0.103852
v -0.231460 -0.018028 0.103652
v -0.231455 -0.017970 0.103438
v -0.227739 -0.018743 0.104034
v -0.227717 -0.018618 0.103852
v -0.227701 -0.018526 0.103652
v -0.227691 -0.018470 0.103438
v -0.225269 -0.020057 0.104473
v -0.225212 -0.019819 0.104411
v -0.225165 -0.019624 0.104317
v -0.225123 -0.019447 0.104190
v -0.225086 -0.019295 0.104034
v -0.225057 -0.019172 0.103852
v -0.225035 -0.019081 0.103652
v -0.224076 -0.020108 0.104411
v -0.225022 -0.019025 0.103438
v -0.224024 -0.019914 0.104317
v -0.223977 -0.019739 0.104190
v -0.223936 -0.019588 0.104034
v -0.223903 -0.019465 0.103852
v -0.223022 -0.020406 0.104411
v -0.223879 -0.019375 0.103652
v -0.222965 -0.020213 0.104317
v -0.223864 -0.019320 0.103438
v -0.222914 -0.020039 0.104190
v -0.222869 -0.019889 0.104034
v -0.222833 -0.019768 0.103852
v -0.222807 -0.019678 0.103652
v -0.222790 -0.019623 0.103438
v -0.220296 -0.020737 0.104034
v -0.220253 -0.020618 0.103852
v -0.220221 -0.020530 0.103652
v -0.220201 -0.020476 0.103438
v -0.217035 -0.022667 0.104411
v -0.216951 -0.022485 0.104317
v -0.216875 -0.022320 0.104190
v -0.216809 -0.022178 0.104034
v -0.216755 -0.022063 0.103852
v -0.216716 -0.021978 0.103652
v -0.216692 -0.021926 0.103438
v -0.213391 -0.024129 0.104190
v -0.213313 -0.023994 0.104034
v -0.213250 -0.023884 0.103852
v -0.213203 -0.023803 0.103652
v -0.213174 -0.023753 0.103438
v -0.211443 -0.025779 0.104411
v -0.211333 -0.025611 0.104317
v -0.211234 -0.025459 0.104190
v -0.211148 -0.025328 0.104034
v -0.211078 -0.025222 0.103852
v -0.211027 -0.025144 0.103652
v -0.210995 -0.025096 0.103438
v -0.207102 -0.028533 0.104190
v -0.207001 -0.028413 0.104034
v -0.206920 -0.028316 0.103852
v -0.206860 -0.028244 0.103652
v -0.206823 -0.028200 0.103438
v -0.206112 -0.029389 0.104190
v -0.206008 -0.029272 0.104034
v -0.205924 -0.029177 0.103852
v -0.205861 -0.029108 0.103652
v -0.205823 -0.029065 0.103438
v -0.201456 -0.033780 0.103852
v -0.201384 -0.033720 0.103652
v -0.201340 -0.033683 0.103438
v -0.278645 -0.200638 0.119654
v -0.278645 -0.200544 0.119854
v -0.278645 -0.200417 0.120036
v -0.278645 -0.200261 0.120192
v -0.278645 -0.200080 0.120319
v -0.278645 -0.199879 0.120413
v -0.278645 -0.199665 0.120470
v -0.279895 -0.199665 0.119219
v -0.279838 -0.199879 0.119219
v -0.279895 -0.199445 0.119440
v -0.279838 -0.199445 0.119654
v -0.279744 -0.199445 0.119854
v -0.279617 -0.199445 0.120036
v -0.279461 -0.199445 0.120192
v -0.279280 -0.199445 0.120319
v -0.279079 -0.199445 0.120413
v -0.278865 -0.199445 0.120470
v -0.278927 -0.200613 0.119628
v -0.278927 -0.200493 0.119878
v -0.279196 -0.200560 0.119474
v -0.278927 -0.200320 0.120095
v -0.279196 -0.200475 0.119716
v -0.278927 -0.200103 0.120268
v -0.279196 -0.200339 0.119933
v -0.279436 -0.200382 0.119547
v -0.278927 -0.199854 0.120388
v -0.279196 -0.200158 0.120114
v -0.279436 -0.200285 0.119747
v -0.279637 -0.200217 0.119395
v -0.278927 -0.199583 0.120450
v -0.279196 -0.199941 0.120250
v -0.279436 -0.200147 0.119921
v -0.279637 -0.200158 0.119563
v -0.279196 -0.199699 0.120335
v -0.279436 -0.199973 0.120060
v -0.279637 -0.200064 0.119713
v -0.279789 -0.199965 0.119401
v -0.279436 -0.199773 0.120156
v -0.279637 -0.199938 0.119838
v -0.279789 -0.199911 0.119512
v -0.279883 -0.199720 0.119282
v -0.279436 -0.199556 0.120206
v -0.279637 -0.199788 0.119933
v -0.279789 -0.199834 0.119609
v -0.279883 -0.199699 0.119342
v -0.279637 -0.199621 0.119991
v -0.279789 -0.199738 0.119686
v -0.279883 -0.199666 0.119395
v -0.279789 -0.199627 0.119739
v -0.279883 -0.199621 0.119440
v -0.279789 -0.199506 0.119767
v -0.279883 -0.199567 0.119474
v -0.279883 -0.199507 0.119495
v -0.279905 -0.109284 0.119372
v -0.279876 -0.109313 0.119529
v -0.279825 -0.109364 0.119687
v -0.279752 -0.109437 0.119840
v -0.279657 -0.109532 0.119985
v -0.279543 -0.109647 0.120117
v -0.279411 -0.109778 0.120232
v -0.279266 -0.109923 0.120327
v -0.279112 -0.110077 0.120400
v -0.278955 -0.110235 0.120451
v -0.278797 -0.110392 0.120480
v -0.264175 -0.238795 0.017595
v -0.264360 -0.238738 0.017702
v -0.264534 -0.238644 0.017802
v -0.261878 -0.238713 0.021732
v -0.257149 -0.238321 0.028925
v -0.250962 -0.237554 0.036223
v -0.247075 -0.236746 0.040376
v -0.243868 -0.235912 0.043515
v -0.245485 -0.236352 0.041963
v -0.239853 -0.234647 0.047120
v -0.262049 -0.238628 0.021838
v -0.261964 -0.238675 0.021786
v -0.260109 -0.238543 0.024790
v -0.258969 -0.238550 0.026147
v -0.254736 -0.238134 0.031761
v -0.253876 -0.238020 0.032818
v -0.252880 -0.237874 0.034013
v -0.246017 -0.236339 0.041818
v -0.238514 -0.234007 0.048616
v -0.237343 -0.233726 0.049211
v -0.263984 -0.238608 0.018856
v -0.253380 -0.237949 0.033417
v -0.253213 -0.237788 0.034014
v -0.246162 -0.236524 0.041295
v -0.259256 -0.238552 0.025810
v -0.279369 -0.238783 -0.033958
v -0.279657 -0.238686 -0.034233
v -0.279877 -0.238557 -0.034443
v -0.280005 -0.238452 -0.034565
v -0.280136 -0.238310 -0.034690
v -0.280238 -0.238158 -0.034789
v -0.280314 -0.238002 -0.034861
v -0.280364 -0.237849 -0.034909
v -0.280392 -0.237703 -0.034936
v -0.280400 -0.237624 -0.034944
v -0.269596 -0.238644 0.007936
v -0.269413 -0.238738 0.007853
v -0.269219 -0.238795 0.007765
v -0.270813 -0.238452 0.005802
v -0.270581 -0.238644 0.005702
v -0.270396 -0.238738 0.005623
v -0.270200 -0.238795 0.005539
v -0.273923 -0.238452 -0.002290
v -0.273684 -0.238644 -0.002372
v -0.273494 -0.238738 -0.002437
v -0.273291 -0.238795 -0.002506
v -0.275407 -0.238452 -0.006952
v -0.275164 -0.238644 -0.007024
v -0.274971 -0.238738 -0.007080
v -0.274766 -0.238795 -0.007141
v -0.277128 -0.238310 -0.012938
v -0.277005 -0.238452 -0.012967
v -0.276759 -0.238644 -0.013026
v -0.276564 -0.238738 -0.013072
v -0.276356 -0.238795 -0.013121
v -0.278470 -0.238452 -0.020157
v -0.278220 -0.238644 -0.020200
v -0.278022 -0.238738 -0.020234
v -0.277812 -0.238795 -0.020270
v -0.279347 -0.237979 -0.023850
v -0.279266 -0.238158 -0.023861
v -0.279169 -0.238310 -0.023875
v -0.279044 -0.238452 -0.023892
v -0.278793 -0.238644 -0.023926
v -0.278595 -0.238738 -0.023953
v -0.278383 -0.238795 -0.023982
v -0.280086 -0.238310 -0.033625
v -0.279960 -0.238452 -0.033631
v -0.279708 -0.238644 -0.033644
v -0.279507 -0.238738 -0.033654
v -0.279294 -0.238795 -0.033665
v -0.278865 -0.238795 -0.038270
v -0.279079 -0.238738 -0.038270
v -0.279280 -0.238644 -0.038270
v -0.279617 -0.238361 -0.038270
v -0.278645 -0.238795 -0.038491
v -0.278645 -0.238738 -0.038705
v -0.278645 -0.238644 -0.038905
v -0.278645 -0.238517 -0.039087
v -0.278645 -0.238361 -0.039243
v -0.278645 -0.238180 -0.039370
v -0.278645 -0.237979 -0.039464
v -0.278645 -0.237765 -0.039521
v -0.278927 -0.237683 -0.039501
v -0.278927 -0.237954 -0.039439
v -0.278927 -0.238203 -0.039319
v -0.279196 -0.237799 -0.039386
v -0.278927 -0.238420 -0.039146
v -0.279196 -0.238041 -0.039301
v -0.279436 -0.237656 -0.039257
v -0.278927 -0.238593 -0.038929
v -0.279196 -0.238258 -0.039165
v -0.279436 -0.237873 -0.039207
v -0.278927 -0.238713 -0.038679
v -0.279196 -0.238439 -0.038984
v -0.279436 -0.238073 -0.039111
v -0.279637 -0.237721 -0.039042
v -0.278927 -0.238775 -0.038409
v -0.279196 -0.238575 -0.038767
v -0.279436 -0.238247 -0.038972
v -0.279637 -0.237888 -0.038984
v -0.279789 -0.237606 -0.038818
v -0.279196 -0.238660 -0.038525
v -0.279436 -0.238385 -0.038798
v -0.279637 -0.238038 -0.038889
v -0.279789 -0.237727 -0.038790
v -0.279436 -0.238482 -0.038598
v -0.279637 -0.238164 -0.038764
v -0.279789 -0.237838 -0.038737
v -0.279883 -0.237607 -0.038546
v -0.279436 -0.238531 -0.038381
v -0.279637 -0.238258 -0.038614
v -0.279789 -0.237934 -0.038660
v -0.279883 -0.237667 -0.038525
v -0.279637 -0.238317 -0.038446
v -0.279789 -0.238011 -0.038563
v -0.279883 -0.237721 -0.038491
v -0.279789 -0.238065 -0.038452
v -0.279883 -0.237766 -0.038446
v -0.279883 -0.237799 -0.038393
v -0.263984 -0.238795 -0.038491
v -0.263984 -0.238738 -0.038705
v -0.263984 -0.238644 -0.038905
v -0.263984 -0.238517 -0.039087
v -0.263984 -0.238361 -0.039243
v -0.263984 -0.238180 -0.039370
v -0.263984 -0.237979 -0.039464
v -0.263984 -0.237765 -0.039521
v -0.249786 -0.236187 -0.039521
v -0.249574 -0.236187 -0.039465
v -0.249375 -0.236187 -0.039373
v -0.249195 -0.236187 -0.039248
v -0.249764 -0.237414 -0.038491
v -0.249775 -0.237358 -0.038705
v -0.249793 -0.237266 -0.038905
v -0.249817 -0.237142 -0.039087
v -0.249847 -0.236988 -0.039243
v -0.249882 -0.236810 -0.039370
v -0.249921 -0.236613 -0.039464
v -0.249962 -0.236403 -0.039521
v -0.259284 -0.237613 -0.039521
v -0.259270 -0.237827 -0.039464
v -0.259257 -0.238027 -0.039370
v -0.259245 -0.238208 -0.039243
v -0.259235 -0.238364 -0.039087
v -0.259227 -0.238491 -0.038905
v -0.259221 -0.238584 -0.038705
v -0.259217 -0.238641 -0.038491
v -0.254603 -0.237159 -0.039521
v -0.254576 -0.237371 -0.039464
v -0.254550 -0.237570 -0.039370
v -0.254527 -0.237750 -0.039243
v -0.254507 -0.237905 -0.039087
v -0.254490 -0.238031 -0.038905
v -0.254478 -0.238124 -0.038705
v -0.254471 -0.238180 -0.038491
v -0.249550 -0.237373 -0.038274
v -0.249219 -0.236409 -0.039243
v -0.249219 -0.236620 -0.039169
v -0.249458 -0.236315 -0.039410
v -0.249219 -0.236809 -0.039050
v -0.249458 -0.236566 -0.039352
v -0.249219 -0.236967 -0.038892
v -0.249458 -0.236797 -0.039241
v -0.249724 -0.236463 -0.039478
v -0.249219 -0.237086 -0.038703
v -0.249458 -0.236998 -0.039081
v -0.249724 -0.236725 -0.039386
v -0.249458 -0.237158 -0.038880
v -0.249724 -0.236959 -0.039239
v -0.249458 -0.237269 -0.038649
v -0.249724 -0.237156 -0.039043
v -0.249458 -0.237326 -0.038399
v -0.249724 -0.237303 -0.038808
v -0.249724 -0.237395 -0.038546
f 502 58 57
f 502 420 493
f 420 491 493
f 478 477 432
f 1 79 7
f 7 80 1
f 78 81 112
f 1 80 2
f 80 81 2
f 2 78 1
f 2 81 78
f 17 19 483
f 483 20 51
f 19 20 483
f 68 75 76
f 68 493 491
f 1 78 182
f 15 59 67
f 59 493 67
f 67 68 76
f 493 68 67
f 503 59 58
f 503 493 59
f 503 58 502
f 502 493 503
f 394 83 84
f 350 51 362
f 228 160 36
f 82 83 406
f 42 419 43
f 419 44 43
f 421 420 502
f 502 57 421
f 479 434 480
f 480 434 481
f 482 481 435
f 435 481 434
f 482 483 337
f 337 51 350
f 337 483 51
f 492 68 491
f 492 491 420
f 649 24 23
f 114 93 115
f 192 119 120
f 120 122 192
f 77 16 15
f 15 67 77
f 76 16 77
f 77 67 76
f 640 16 76
f 76 75 640
f 75 73 640
f 74 68 69
f 69 73 74
f 75 68 74
f 74 73 75
f 72 73 69
f 534 539 535
f 431 476 470
f 432 477 431
f 477 476 431
f 105 394 84
f 406 83 106
f 83 394 106
f 142 146 228
f 201 137 188
f 228 146 148
f 159 160 228
f 228 155 159
f 37 36 160
f 163 37 160
f 42 41 416
f 416 41 40
f 40 82 416
f 445 426 449
f 121 122 120
f 490 68 507
f 68 492 507
f 507 492 501
f 21 640 656
f 16 640 21
f 615 30 29
f 26 644 642
f 228 36 225
f 36 35 225
f 225 35 227
f 25 644 26
f 23 22 654
f 654 649 23
f 22 21 654
f 654 21 656
f 24 649 646
f 646 25 24
f 644 25 646
f 94 114 113
f 189 192 122
f 70 72 69
f 71 72 70
f 485 504 486
f 470 476 475
f 469 429 79
f 469 463 466
f 466 463 458
f 458 462 466
f 454 462 458
f 434 479 433
f 433 461 434
f 433 479 478
f 433 478 432
f 432 461 433
f 465 461 432
f 432 431 465
f 465 431 470
f 454 446 450
f 517 460 427
f 517 516 460
f 451 446 454
f 454 458 451
f 456 428 543
f 456 543 544
f 448 534 535
f 539 534 448
f 544 539 448
f 448 456 544
f 141 142 219
f 141 219 188
f 188 137 141
f 186 201 187
f 187 201 188
f 128 89 129
f 129 89 88
f 124 122 126
f 151 155 228
f 228 148 151
f 162 163 160
f 37 163 162
f 160 159 158
f 418 44 419
f 107 82 406
f 107 416 82
f 108 419 42
f 42 416 108
f 108 416 419
f 111 481 110
f 110 300 111
f 423 424 442
f 442 424 445
f 445 450 442
f 442 450 446
f 425 426 445
f 445 424 425
f 436 426 17
f 436 449 426
f 17 483 436
f 436 483 482
f 482 435 436
f 435 449 436
f 482 316 305
f 305 481 482
f 482 337 324
f 324 316 482
f 26 642 27
f 27 642 28
f 641 29 28
f 28 642 641
f 615 29 641
f 33 226 224
f 32 31 220
f 220 226 32
f 32 226 33
f 227 35 34
f 33 224 34
f 34 224 227
f 228 225 230
f 230 225 227
f 658 654 656
f 656 640 658
f 649 654 652
f 652 646 649
f 166 113 114
f 94 113 166
f 166 182 78
f 166 112 94
f 78 112 166
f 123 122 124
f 124 189 123
f 123 189 122
f 489 68 490
f 69 68 489
f 61 71 62
f 71 70 62
f 62 484 521
f 521 63 62
f 487 485 484
f 484 62 487
f 487 62 70
f 508 496 487
f 487 497 508
f 487 70 497
f 525 63 521
f 470 475 430
f 474 430 475
f 79 427 467
f 467 469 79
f 463 469 467
f 457 462 454
f 461 465 457
f 457 465 462
f 454 450 457
f 518 79 1
f 518 427 79
f 518 517 427
f 176 212 175
f 421 422 438
f 439 523 519
f 519 486 439
f 486 504 439
f 439 504 494
f 494 496 439
f 439 496 508
f 443 451 447
f 446 451 443
f 447 441 443
f 441 438 443
f 455 458 463
f 447 451 455
f 455 451 458
f 399 106 394
f 406 106 399
f 357 104 85
f 357 85 86
f 354 353 358
f 358 353 352
f 139 144 142
f 137 201 136
f 130 131 128
f 128 129 130
f 130 132 131
f 130 129 132
f 132 129 133
f 133 88 87
f 133 129 88
f 336 102 331
f 88 101 331
f 87 88 331
f 331 102 87
f 88 89 315
f 315 89 100
f 315 101 88
f 125 89 128
f 128 126 125
f 125 121 90
f 127 126 128
f 124 126 127
f 84 156 152
f 378 383 152
f 152 105 84
f 152 383 105
f 37 162 38
f 44 418 45
f 413 47 414
f 416 107 411
f 411 107 406
f 110 481 109
f 481 305 109
f 217 230 216
f 227 224 229
f 229 224 226
f 216 230 232
f 232 230 227
f 232 229 233
f 227 229 232
f 615 641 614
f 223 214 233
f 616 640 73
f 616 658 640
f 262 92 93
f 478 479 257
f 199 207 204
f 203 207 199
f 192 189 195
f 195 199 192
f 203 199 195
f 182 166 200
f 200 166 114
f 181 182 200
f 200 204 181
f 200 114 115
f 115 193 200
f 485 487 495
f 494 504 495
f 504 485 495
f 495 496 494
f 495 487 496
f 429 469 471
f 471 469 466
f 470 430 468
f 462 465 468
f 466 462 468
f 468 465 470
f 468 471 466
f 430 471 468
f 429 474 473
f 473 7 79
f 79 429 473
f 80 7 473
f 473 234 80
f 472 474 429
f 430 474 472
f 429 471 472
f 472 471 430
f 427 460 464
f 464 467 427
f 460 428 464
f 428 456 464
f 453 457 450
f 453 435 434
f 434 461 453
f 461 457 453
f 453 449 435
f 445 449 453
f 453 450 445
f 545 539 544
f 181 204 180
f 180 207 179
f 204 207 180
f 171 170 573
f 593 182 181
f 210 212 208
f 420 421 437
f 421 438 437
f 437 489 490
f 490 507 437
f 437 438 441
f 437 507 501
f 441 439 437
f 437 492 420
f 501 492 437
f 497 488 437
f 508 497 437
f 437 439 508
f 423 442 440
f 440 422 423
f 440 438 422
f 440 442 446
f 440 443 438
f 446 443 440
f 444 522 523
f 523 439 444
f 526 522 444
f 444 530 526
f 535 530 444
f 444 448 535
f 444 441 447
f 444 439 441
f 459 455 463
f 463 467 459
f 467 464 459
f 459 464 456
f 105 383 387
f 394 105 387
f 400 401 395
f 104 357 361
f 103 357 86
f 140 141 137
f 137 139 140
f 142 141 140
f 140 139 142
f 134 139 137
f 132 133 134
f 101 315 323
f 323 331 101
f 160 158 157
f 157 162 160
f 144 147 145
f 146 142 145
f 142 144 145
f 143 147 144
f 164 38 165
f 165 38 162
f 39 38 164
f 164 82 39
f 39 82 40
f 50 49 401
f 401 400 50
f 48 47 413
f 401 49 407
f 49 48 407
f 46 45 418
f 46 414 47
f 307 300 110
f 110 109 307
f 307 109 305
f 218 142 228
f 219 142 218
f 231 229 226
f 233 229 231
f 613 648 612
f 216 232 215
f 215 232 233
f 233 214 215
f 214 223 8
f 623 648 622
f 12 612 623
f 623 612 648
f 645 641 642
f 658 616 639
f 657 652 654
f 478 257 258
f 209 207 203
f 203 206 209
f 209 177 178
f 198 206 203
f 203 195 198
f 190 117 119
f 119 192 190
f 196 199 204
f 196 200 193
f 204 200 196
f 192 199 196
f 196 190 192
f 117 190 196
f 69 489 500
f 489 437 500
f 542 65 538
f 533 538 64
f 64 538 65
f 579 575 583
f 544 543 550
f 550 545 544
f 173 593 181
f 1 182 174
f 182 593 174
f 174 518 1
f 517 518 600
f 175 212 183
f 183 9 175
f 578 575 571
f 583 575 578
f 559 577 560
f 555 559 60
f 60 66 555
f 498 437 488
f 499 437 498
f 498 488 497
f 497 70 498
f 498 70 69
f 69 499 498
f 456 448 452
f 455 459 452
f 452 459 456
f 447 455 452
f 448 444 452
f 452 444 447
f 390 389 395
f 390 384 389
f 391 384 390
f 104 361 370
f 85 104 370
f 378 152 370
f 344 102 336
f 87 102 344
f 86 87 344
f 344 103 86
f 137 136 135
f 135 134 137
f 135 136 132
f 132 134 135
f 149 143 85
f 85 370 149
f 149 370 152
f 147 143 149
f 149 150 147
f 153 149 152
f 375 50 388
f 388 50 400
f 395 389 388
f 388 400 395
f 51 50 4
f 4 50 375
f 401 407 402
f 395 401 402
f 412 48 413
f 412 407 48
f 417 46 418
f 414 46 417
f 221 226 220
f 221 231 226
f 222 223 233
f 233 231 222
f 231 221 222
f 643 614 641
f 641 645 643
f 613 614 643
f 643 648 613
f 643 645 648
f 647 642 644
f 647 645 642
f 622 648 651
f 648 645 651
f 645 647 651
f 654 658 617
f 617 657 654
f 96 262 93
f 93 114 96
f 114 252 96
f 243 114 94
f 120 119 118
f 118 121 120
f 269 479 480
f 177 209 211
f 212 176 211
f 176 177 211
f 211 206 208
f 208 212 211
f 211 209 206
f 208 206 202
f 206 198 202
f 506 437 499
f 506 500 437
f 529 64 63
f 63 525 529
f 533 64 529
f 553 509 548
f 539 545 546
f 580 171 573
f 172 171 580
f 573 170 169
f 571 575 569
f 516 517 602
f 517 600 602
f 518 174 597
f 597 600 518
f 597 174 593
f 593 173 597
f 212 210 184
f 184 183 212
f 184 210 185
f 574 578 571
f 583 578 587
f 554 555 66
f 509 555 554
f 358 352 364
f 389 384 377
f 345 352 353
f 345 351 352
f 3 362 51
f 3 363 362
f 351 345 338
f 338 345 339
f 613 612 213
f 213 612 223
f 223 222 213
f 213 222 613
f 646 652 650
f 644 646 650
f 650 647 644
f 637 657 638
f 657 617 638
f 658 639 638
f 638 617 658
f 622 651 621
f 247 252 114
f 114 243 247
f 286 99 90
f 90 91 286
f 91 98 286
f 310 315 100
f 301 310 100
f 100 89 301
f 90 99 301
f 301 125 90
f 89 125 301
f 116 193 115
f 116 196 193
f 117 196 116
f 280 286 98
f 205 201 186
f 205 186 185
f 185 210 205
f 205 210 208
f 208 202 205
f 194 202 198
f 505 506 499
f 500 506 505
f 505 499 69
f 69 500 505
f 551 550 512
f 589 597 173
f 576 580 573
f 570 169 168
f 573 169 570
f 570 576 573
f 567 566 568
f 568 570 567
f 567 570 168
f 513 514 598
f 512 550 513
f 550 514 513
f 515 514 550
f 515 550 543
f 543 428 515
f 460 516 515
f 515 428 460
f 561 560 577
f 577 574 561
f 549 548 509
f 509 554 549
f 549 66 65
f 549 65 542
f 549 554 66
f 581 555 509
f 509 556 581
f 581 577 559
f 559 555 581
f 553 552 510
f 510 509 553
f 510 556 509
f 365 366 358
f 358 364 365
f 339 345 340
f 340 332 339
f 103 344 349
f 357 103 349
f 6 3 51
f 363 3 6
f 6 369 363
f 339 332 326
f 326 332 327
f 262 96 256
f 256 96 252
f 95 243 94
f 95 239 243
f 94 112 95
f 112 239 95
f 236 239 112
f 236 81 80
f 236 112 81
f 80 234 236
f 234 473 236
f 236 473 474
f 237 475 476
f 99 286 293
f 293 301 99
f 262 267 97
f 92 262 97
f 128 131 191
f 131 194 191
f 191 127 128
f 191 198 195
f 191 195 189
f 191 194 198
f 191 189 124
f 124 127 191
f 201 205 197
f 197 205 202
f 202 194 197
f 197 136 201
f 132 136 197
f 131 132 197
f 197 194 131
f 564 569 568
f 585 589 173
f 585 180 172
f 181 180 585
f 585 173 181
f 172 580 585
f 580 589 585
f 600 597 592
f 597 589 592
f 568 569 572
f 572 569 575
f 572 570 568
f 575 579 572
f 579 576 572
f 576 570 572
f 10 566 167
f 566 567 167
f 167 567 168
f 582 574 577
f 578 574 582
f 582 587 578
f 582 590 587
f 558 513 598
f 512 513 594
f 513 558 594
f 598 590 594
f 594 558 598
f 511 510 552
f 552 551 511
f 511 551 512
f 512 594 511
f 379 377 384
f 369 6 5
f 375 369 5
f 5 4 375
f 51 4 5
f 5 6 51
f 258 259 253
f 478 258 253
f 477 478 253
f 235 474 475
f 235 236 474
f 480 481 287
f 287 279 480
f 268 269 480
f 480 279 268
f 92 97 274
f 274 91 92
f 274 97 267
f 274 98 91
f 274 280 98
f 269 270 263
f 263 257 479
f 479 269 263
f 263 258 257
f 568 566 565
f 565 564 568
f 596 602 600
f 600 592 596
f 562 574 571
f 562 561 574
f 556 510 557
f 510 511 557
f 557 511 594
f 618 657 637
f 477 253 248
f 249 248 253
f 249 244 477
f 477 248 249
f 241 237 476
f 475 237 238
f 238 235 475
f 294 287 481
f 294 111 300
f 481 111 294
f 275 270 269
f 588 579 583
f 588 596 592
f 595 590 598
f 587 590 595
f 601 515 516
f 514 515 601
f 601 595 598
f 598 514 601
f 563 562 571
f 571 569 563
f 569 564 563
f 556 557 586
f 586 581 556
f 590 582 586
f 577 581 586
f 586 582 577
f 586 594 590
f 586 557 594
f 380 379 384
f 653 620 621
f 653 621 651
f 653 651 647
f 647 650 653
f 619 620 653
f 652 657 655
f 657 618 655
f 655 618 619
f 655 650 652
f 655 653 650
f 619 653 655
f 240 241 476
f 240 476 477
f 477 244 240
f 282 275 281
f 281 275 269
f 580 576 584
f 584 576 579
f 579 588 584
f 584 589 580
f 584 592 589
f 584 588 592
f 591 588 583
f 583 587 591
f 587 595 591
f 596 588 591
f 603 601 516
f 516 602 603
f 602 596 599
f 601 603 599
f 599 603 602
f 595 601 599
f 599 591 595
f 596 591 599
f 20 19 17
f 17 18 20
f 523 524 520
f 519 523 520
f 82 161 83
f 164 161 82
f 615 220 31
f 31 30 615
f 83 161 156
f 84 83 156
f 519 520 485
f 485 486 519
f 485 520 521
f 521 484 485
f 604 631 71
f 604 71 61
f 56 421 57
f 56 422 421
f 54 53 425
f 425 424 54
f 52 18 17
f 17 426 52
f 52 425 53
f 426 425 52
f 525 520 524
f 521 520 525
f 559 604 61
f 61 60 559
f 631 604 605
f 605 630 631
f 405 399 398
f 406 399 405
f 397 404 405
f 405 398 397
f 125 126 122
f 122 121 125
f 403 404 397
f 397 396 403
f 406 405 411
f 411 405 410
f 54 424 55
f 55 424 423
f 422 56 55
f 423 422 55
f 217 216 185
f 185 186 217
f 530 531 527
f 526 530 527
f 527 522 526
f 523 522 527
f 539 540 536
f 535 539 536
f 536 531 530
f 536 530 535
f 532 531 536
f 536 537 532
f 541 536 540
f 537 536 541
f 178 170 171
f 171 179 178
f 171 180 179
f 172 180 171
f 386 387 382
f 382 387 383
f 382 383 378
f 378 376 382
f 356 360 361
f 361 357 356
f 366 367 359
f 358 366 359
f 138 87 86
f 138 133 87
f 133 138 134
f 134 138 139
f 315 314 323
f 323 314 322
f 157 156 161
f 161 162 157
f 145 147 148
f 145 148 146
f 143 138 86
f 86 85 143
f 139 138 143
f 144 139 143
f 148 147 150
f 150 151 148
f 165 161 164
f 165 162 161
f 26 27 46
f 18 52 46
f 46 57 58
f 46 59 15
f 46 41 42
f 58 59 46
f 15 16 46
f 42 43 46
f 51 20 46
f 33 34 46
f 46 20 18
f 40 41 46
f 46 29 30
f 54 55 46
f 46 56 57
f 46 32 33
f 46 43 44
f 46 25 26
f 46 22 23
f 16 21 46
f 30 31 46
f 23 24 46
f 36 37 46
f 46 39 40
f 46 53 54
f 46 21 22
f 28 29 46
f 46 35 36
f 24 25 46
f 44 45 46
f 46 52 53
f 46 27 28
f 31 32 46
f 46 34 35
f 37 38 46
f 46 50 51
f 47 48 46
f 46 55 56
f 38 39 46
f 49 50 46
f 46 48 49
f 415 418 419
f 419 416 415
f 415 411 410
f 416 411 415
f 409 415 410
f 414 415 409
f 409 405 404
f 410 405 409
f 302 309 311
f 311 303 302
f 307 309 302
f 302 300 307
f 319 311 309
f 319 309 318
f 230 217 218
f 228 230 218
f 218 187 188
f 188 219 218
f 218 217 186
f 186 187 218
f 8 612 12
f 223 612 8
f 633 632 623
f 623 622 633
f 639 616 73
f 73 72 639
f 71 631 639
f 639 72 71
f 178 179 209
f 179 207 209
f 537 541 538
f 538 541 542
f 532 537 538
f 538 533 532
f 61 62 64
f 64 60 61
f 64 62 63
f 64 66 60
f 65 66 64
f 9 8 13
f 13 14 11
f 11 10 13
f 13 8 12
f 10 9 13
f 13 623 632
f 12 623 13
f 632 624 13
f 13 624 14
f 11 14 611
f 14 624 611
f 528 527 531
f 528 531 532
f 528 524 523
f 523 527 528
f 183 8 9
f 214 8 183
f 604 559 560
f 560 605 604
f 363 351 350
f 350 362 363
f 396 391 390
f 395 396 390
f 398 399 393
f 393 399 394
f 393 387 386
f 394 387 393
f 386 382 381
f 385 386 381
f 156 157 153
f 153 152 156
f 402 403 396
f 402 396 395
f 418 415 417
f 417 415 414
f 407 412 408
f 408 412 413
f 414 409 408
f 413 414 408
f 403 402 408
f 408 402 407
f 404 403 408
f 408 409 404
f 330 323 322
f 331 323 330
f 321 330 322
f 329 330 321
f 322 314 321
f 321 314 313
f 312 321 313
f 320 321 312
f 311 319 312
f 312 319 320
f 317 307 305
f 317 305 316
f 309 307 317
f 318 309 317
f 316 324 317
f 324 325 317
f 221 220 615
f 615 614 221
f 222 614 613
f 222 221 614
f 635 627 634
f 634 627 626
f 118 91 90
f 90 121 118
f 625 634 626
f 633 634 625
f 625 632 633
f 625 624 632
f 529 525 524
f 524 528 529
f 532 533 529
f 529 528 532
f 548 541 540
f 540 547 548
f 546 540 539
f 546 547 540
f 552 548 547
f 553 548 552
f 169 170 178
f 178 177 169
f 169 177 176
f 176 168 169
f 566 10 11
f 11 611 566
f 214 183 184
f 184 215 214
f 185 216 184
f 216 215 184
f 351 363 364
f 352 351 364
f 375 388 377
f 377 388 389
f 392 396 397
f 392 391 396
f 397 398 392
f 398 393 392
f 385 384 392
f 392 384 391
f 392 393 386
f 392 386 385
f 368 359 367
f 360 359 368
f 368 361 360
f 368 370 361
f 368 376 378
f 378 370 368
f 374 368 367
f 376 368 374
f 374 382 376
f 374 381 382
f 354 346 345
f 353 354 345
f 355 360 356
f 355 359 360
f 358 359 355
f 355 354 358
f 151 150 154
f 155 151 154
f 150 149 154
f 149 153 154
f 154 159 155
f 154 158 159
f 154 153 157
f 154 157 158
f 338 325 324
f 338 324 337
f 350 351 338
f 338 337 350
f 331 330 335
f 336 331 335
f 328 332 333
f 327 332 328
f 320 319 328
f 328 319 327
f 329 321 328
f 328 321 320
f 629 637 638
f 638 630 629
f 631 630 638
f 638 639 631
f 633 622 621
f 621 634 633
f 267 261 266
f 262 261 267
f 91 118 116
f 92 91 116
f 119 117 116
f 116 118 119
f 115 93 116
f 93 92 116
f 285 286 280
f 280 278 285
f 626 627 609
f 609 627 608
f 551 546 545
f 545 550 551
f 547 546 551
f 551 552 547
f 542 541 549
f 541 548 549
f 340 345 346
f 340 346 341
f 333 332 340
f 341 333 340
f 356 357 349
f 349 348 356
f 347 346 354
f 354 355 347
f 347 355 356
f 356 348 347
f 371 364 363
f 363 369 371
f 375 377 371
f 371 369 375
f 325 338 326
f 326 338 339
f 326 319 318
f 327 319 326
f 318 317 326
f 326 317 325
f 334 328 333
f 329 328 334
f 334 330 329
f 334 335 330
f 636 637 629
f 629 628 636
f 636 627 635
f 636 628 627
f 256 261 262
f 255 261 256
f 254 261 255
f 260 261 254
f 303 311 304
f 311 312 304
f 304 312 313
f 313 306 304
f 293 286 285
f 285 292 293
f 313 314 308
f 308 306 313
f 308 314 315
f 315 310 308
f 302 303 295
f 303 296 295
f 284 292 285
f 284 291 292
f 285 278 284
f 278 277 284
f 272 277 278
f 272 278 273
f 610 611 624
f 624 625 610
f 610 625 626
f 626 609 610
f 167 9 10
f 175 9 167
f 167 168 176
f 167 176 175
f 608 627 607
f 627 628 607
f 336 335 343
f 343 344 336
f 348 349 343
f 343 349 344
f 260 254 253
f 253 259 260
f 306 308 299
f 298 306 299
f 299 308 310
f 310 301 299
f 292 291 299
f 299 291 298
f 299 293 292
f 301 293 299
f 298 291 297
f 291 290 297
f 289 296 297
f 297 290 289
f 297 304 306
f 297 306 298
f 303 304 297
f 297 296 303
f 274 267 266
f 274 266 273
f 278 280 274
f 273 278 274
f 266 261 265
f 265 261 260
f 260 259 265
f 259 264 265
f 265 272 273
f 273 266 265
f 271 272 265
f 265 264 271
f 271 264 263
f 263 270 271
f 263 264 259
f 263 259 258
f 565 566 611
f 611 610 565
f 565 610 609
f 609 564 565
f 605 560 606
f 560 561 606
f 630 605 606
f 629 630 606
f 606 628 629
f 606 607 628
f 562 606 561
f 607 606 562
f 373 367 366
f 373 374 367
f 364 371 372
f 372 365 364
f 372 371 377
f 377 379 372
f 372 373 366
f 366 365 372
f 342 333 341
f 342 334 333
f 335 334 342
f 342 343 335
f 341 346 342
f 346 347 342
f 342 347 348
f 348 343 342
f 635 634 620
f 634 621 620
f 620 636 635
f 620 619 636
f 637 636 618
f 636 619 618
f 236 235 238
f 239 236 238
f 288 295 296
f 288 296 289
f 295 288 294
f 294 288 287
f 294 300 302
f 302 295 294
f 291 284 283
f 283 290 291
f 289 290 283
f 283 282 289
f 563 609 608
f 563 564 609
f 608 607 563
f 607 562 563
f 381 374 380
f 374 373 380
f 380 372 379
f 373 372 380
f 385 381 380
f 380 384 385
f 250 253 254
f 250 249 253
f 242 246 247
f 242 247 243
f 239 238 242
f 243 239 242
f 237 241 242
f 242 238 237
f 287 288 281
f 279 287 281
f 281 288 289
f 289 282 281
f 269 268 281
f 281 268 279
f 276 284 277
f 276 283 284
f 282 283 276
f 276 275 282
f 277 272 276
f 276 272 271
f 271 270 276
f 270 275 276
f 255 256 251
f 251 256 252
f 251 254 255
f 251 250 254
f 247 246 251
f 252 247 251
f 241 240 245
f 245 240 244
f 249 250 245
f 244 249 245
f 246 242 245
f 245 242 241
f 250 251 245
f 245 251 246
