# generated by step_to_parts.py -- 309 verts, 614 tris
v -0.139515 -0.200715 0.119219
v -0.139515 -0.200715 0.045559
v -0.001085 -0.200715 0.119219
v -0.001085 -0.200715 0.045559
v 0.000185 -0.199445 0.045559
v 0.000185 -0.094035 0.045559
v 0.000185 -0.094035 0.068419
v 0.000185 -0.110545 0.119219
v 0.000185 -0.199445 0.119219
v -0.139515 -0.092765 0.045559
v -0.139515 -0.092784 0.045339
v -0.139515 -0.092841 0.045125
v -0.139515 -0.092935 0.044924
v -0.139515 -0.093062 0.044743
v -0.139515 -0.093218 0.044586
v -0.139515 -0.093400 0.044459
v -0.139515 -0.093600 0.044366
v -0.139515 -0.093814 0.044308
v -0.139515 -0.094035 0.044289
v -0.139515 -0.092765 0.067149
v -0.139515 -0.092841 0.067584
v -0.139515 -0.092784 0.067370
v -0.139515 -0.110545 0.120489
v -0.139515 -0.110324 0.120470
v -0.139515 -0.110110 0.120413
v -0.139515 -0.109910 0.120319
v -0.139515 -0.109728 0.120192
v -0.139515 -0.109572 0.120036
v -0.139515 -0.109445 0.119854
v -0.139515 -0.109351 0.119654
v -0.139515 -0.199445 0.120489
v -0.139515 -0.200695 0.119440
v -0.139515 -0.200638 0.119654
v -0.139515 -0.200544 0.119854
v -0.139515 -0.200417 0.120036
v -0.139515 -0.200261 0.120192
v -0.139515 -0.200080 0.120319
v -0.139515 -0.199879 0.120413
v -0.139515 -0.199665 0.120470
v -0.139515 -0.199445 0.044289
v -0.139515 -0.199665 0.044308
v -0.139515 -0.199879 0.044366
v -0.139515 -0.200080 0.044459
v -0.139515 -0.200261 0.044586
v -0.139515 -0.200417 0.044743
v -0.139515 -0.200544 0.044924
v -0.139515 -0.200638 0.045125
v -0.139515 -0.200695 0.045339
v -0.177615 -0.194365 0.107789
v -0.001085 -0.110545 0.120489
v -0.001085 -0.199445 0.120489
v -0.001085 -0.094035 0.044289
v -0.001085 -0.199445 0.044289
v -0.001085 -0.092765 0.045559
v -0.001085 -0.092765 0.067149
v -0.177615 -0.194365 0.056989
v -0.177615 -0.115625 0.056989
v -0.177615 -0.115625 0.107789
v -0.000806 -0.092795 0.067428
v -0.000552 -0.092882 0.067682
v -0.000336 -0.093009 0.067898
v -0.000163 -0.093160 0.068070
v -0.000034 -0.093321 0.068200
v 0.000058 -0.093479 0.068291
v 0.000119 -0.093628 0.068352
v 0.000160 -0.093779 0.068393
v 0.000179 -0.093909 0.068413
v -0.001085 -0.200695 0.045339
v -0.001085 -0.200638 0.045125
v -0.001085 -0.200544 0.044924
v -0.001085 -0.200417 0.044743
v -0.001085 -0.200261 0.044586
v -0.001085 -0.200080 0.044459
v -0.001085 -0.199879 0.044366
v -0.001085 -0.199665 0.044308
v 0.000166 -0.199665 0.045559
v 0.000109 -0.199879 0.045559
v 0.000015 -0.200080 0.045559
v -0.000112 -0.200261 0.045559
v -0.000268 -0.200417 0.045559
v -0.000450 -0.200544 0.045559
v -0.000650 -0.200638 0.045559
v -0.000864 -0.200695 0.045559
v -0.000864 -0.092784 0.045559
v -0.000650 -0.092841 0.045559
v -0.000450 -0.092935 0.045559
v -0.000268 -0.093062 0.045559
v -0.000112 -0.093218 0.045559
v 0.000015 -0.093400 0.045559
v 0.000109 -0.093600 0.045559
v 0.000166 -0.093814 0.045559
v -0.001085 -0.093814 0.044308
v -0.001085 -0.093600 0.044366
v -0.001085 -0.093400 0.044459
v -0.001085 -0.093218 0.044586
v -0.001085 -0.093062 0.044743
v -0.001085 -0.092935 0.044924
v -0.001085 -0.092841 0.045125
v -0.001085 -0.092784 0.045339
v 0.000166 -0.199445 0.045339
v 0.000109 -0.199445 0.045125
v 0.000015 -0.199445 0.044924
v -0.000112 -0.199445 0.044743
v -0.000268 -0.199445 0.044586
v -0.000450 -0.199445 0.044459
v -0.000650 -0.199445 0.044366
v -0.000864 -0.199445 0.044308
v 0.000154 -0.199476 0.045278
v 0.000154 -0.199538 0.045292
v 0.000154 -0.199595 0.045320
v 0.000060 -0.199567 0.045022
v 0.000154 -0.199644 0.045359
v 0.000060 -0.199684 0.045063
v -0.000092 -0.199533 0.044772
v 0.000154 -0.199684 0.045409
v 0.000060 -0.199788 0.045128
v -0.000092 -0.199706 0.044812
v 0.000154 -0.199711 0.045466
v 0.000060 -0.199875 0.045216
v -0.000092 -0.199866 0.044889
v -0.000293 -0.199666 0.044591
v 0.000154 -0.199725 0.045528
v 0.000060 -0.199941 0.045320
v -0.000092 -0.200004 0.044999
v -0.000293 -0.199875 0.044665
v -0.000534 -0.199573 0.044422
v 0.000060 -0.199982 0.045437
v -0.000092 -0.200115 0.045138
v -0.000293 -0.200064 0.044783
v -0.000534 -0.199822 0.044479
v -0.000092 -0.200192 0.045298
v -0.000293 -0.200221 0.044940
v -0.000534 -0.200053 0.044590
v -0.000802 -0.199720 0.044352
v -0.000092 -0.200231 0.045471
v -0.000293 -0.200339 0.045128
v -0.000534 -0.200254 0.044750
v -0.000802 -0.199982 0.044444
v -0.000293 -0.200413 0.045338
v -0.000534 -0.200413 0.044950
v -0.000802 -0.200217 0.044591
v -0.000534 -0.200525 0.045181
v -0.000802 -0.200413 0.044787
v -0.000534 -0.200582 0.045431
v -0.000802 -0.200560 0.045022
v -0.000802 -0.200652 0.045284
v -0.000864 -0.094035 0.044308
v -0.000650 -0.094035 0.044366
v -0.000450 -0.094035 0.044459
v -0.000268 -0.094035 0.044586
v -0.000112 -0.094035 0.044743
v 0.000015 -0.094035 0.044924
v 0.000109 -0.094035 0.045125
v 0.000166 -0.094035 0.045339
v 0.000154 -0.093754 0.045528
v 0.000154 -0.093768 0.045466
v 0.000154 -0.093795 0.045409
v 0.000060 -0.093497 0.045437
v 0.000154 -0.093835 0.045359
v 0.000060 -0.093538 0.045320
v -0.000092 -0.093248 0.045471
v 0.000154 -0.093884 0.045320
v 0.000060 -0.093604 0.045216
v -0.000092 -0.093287 0.045298
v 0.000154 -0.093941 0.045292
v 0.000060 -0.093691 0.045128
v -0.000092 -0.093364 0.045138
v -0.000293 -0.093067 0.045338
v 0.000154 -0.094003 0.045278
v 0.000060 -0.093795 0.045063
v -0.000092 -0.093475 0.044999
v -0.000293 -0.093140 0.045128
v -0.000534 -0.092898 0.045431
v 0.000060 -0.093912 0.045022
v -0.000092 -0.093613 0.044889
v -0.000293 -0.093258 0.044940
v -0.000534 -0.092955 0.045181
v -0.000092 -0.093773 0.044812
v -0.000293 -0.093416 0.044783
v -0.000534 -0.093066 0.044950
v -0.000802 -0.092827 0.045284
v -0.000092 -0.093946 0.044772
v -0.000293 -0.093604 0.044665
v -0.000534 -0.093225 0.044750
v -0.000802 -0.092919 0.045022
v -0.000293 -0.093814 0.044591
v -0.000534 -0.093426 0.044590
v -0.000802 -0.093067 0.044787
v -0.000534 -0.093657 0.044479
v -0.000802 -0.093263 0.044591
v -0.000534 -0.093906 0.044422
v -0.000802 -0.093497 0.044444
v -0.000802 -0.093759 0.044352
v -0.001085 -0.109351 0.119654
v -0.001085 -0.109445 0.119854
v -0.001085 -0.109572 0.120036
v -0.001085 -0.109728 0.120192
v -0.001085 -0.109910 0.120319
v -0.001085 -0.110110 0.120413
v -0.001085 -0.110324 0.120470
v 0.000166 -0.110324 0.119219
v 0.000109 -0.110110 0.119219
v 0.000166 -0.110545 0.119440
v 0.000109 -0.110545 0.119654
v 0.000015 -0.110545 0.119854
v -0.000112 -0.110545 0.120036
v -0.000268 -0.110545 0.120192
v -0.000450 -0.110545 0.120319
v -0.000650 -0.110545 0.120413
v -0.000864 -0.110545 0.120470
v 0.000154 -0.110513 0.119500
v 0.000154 -0.110451 0.119486
v 0.000154 -0.110394 0.119458
v 0.000060 -0.110422 0.119756
v 0.000154 -0.110345 0.119419
v 0.000060 -0.110305 0.119716
v -0.000092 -0.110456 0.120006
v 0.000154 -0.110305 0.119370
v 0.000060 -0.110201 0.119650
v -0.000092 -0.110283 0.119967
v 0.000154 -0.110278 0.119312
v 0.000060 -0.110114 0.119563
v -0.000092 -0.110123 0.119890
v -0.000293 -0.110324 0.120187
v 0.000060 -0.110048 0.119458
v -0.000092 -0.109985 0.119779
v -0.000293 -0.110114 0.120114
v -0.000534 -0.110416 0.120356
v 0.000060 -0.110007 0.119342
v -0.000092 -0.109874 0.119640
v -0.000293 -0.109926 0.119995
v -0.000534 -0.110167 0.120299
v -0.000092 -0.109797 0.119481
v -0.000293 -0.109768 0.119838
v -0.000534 -0.109936 0.120188
v -0.000802 -0.110269 0.120426
v -0.000293 -0.109650 0.119650
v -0.000534 -0.109735 0.120028
v -0.000802 -0.110007 0.120335
v -0.000293 -0.109577 0.119440
v -0.000534 -0.109576 0.119828
v -0.000802 -0.109773 0.120187
v -0.000534 -0.109465 0.119597
v -0.000802 -0.109577 0.119991
v -0.000802 -0.109429 0.119756
v -0.000802 -0.109337 0.119495
v -0.001085 -0.199665 0.120470
v -0.001085 -0.199879 0.120413
v -0.001085 -0.200080 0.120319
v -0.001085 -0.200261 0.120192
v -0.001085 -0.200417 0.120036
v -0.001085 -0.200544 0.119854
v -0.001085 -0.200638 0.119654
v -0.001085 -0.200695 0.119440
v 0.000166 -0.199445 0.119440
v 0.000109 -0.199445 0.119654
v 0.000015 -0.199445 0.119854
v -0.000112 -0.199445 0.120036
v -0.000268 -0.199445 0.120192
v -0.000450 -0.199445 0.120319
v -0.000650 -0.199445 0.120413
v -0.000864 -0.199445 0.120470
v 0.000166 -0.199665 0.119219
v 0.000109 -0.199879 0.119219
v 0.000015 -0.200080 0.119219
v -0.000112 -0.200261 0.119219
v -0.000268 -0.200417 0.119219
v -0.000450 -0.200544 0.119219
v -0.000650 -0.200638 0.119219
v -0.000864 -0.200695 0.119219
v 0.000146 -0.199727 0.119358
v 0.000084 -0.199727 0.119628
v -0.000036 -0.199727 0.119878
v 0.000031 -0.199996 0.119474
v -0.000209 -0.199727 0.120095
v -0.000054 -0.199996 0.119716
v -0.000098 -0.200236 0.119330
v -0.000426 -0.199727 0.120268
v -0.000190 -0.199996 0.119933
v -0.000147 -0.200236 0.119547
v -0.000676 -0.199727 0.120388
v -0.000371 -0.199996 0.120114
v -0.000244 -0.200236 0.119747
v -0.000313 -0.200438 0.119395
v -0.000946 -0.199727 0.120450
v -0.000588 -0.199996 0.120250
v -0.000382 -0.200236 0.119921
v -0.000371 -0.200438 0.119563
v -0.000537 -0.200589 0.119281
v -0.000830 -0.199996 0.120335
v -0.000556 -0.200236 0.120060
v -0.000465 -0.200438 0.119713
v -0.000564 -0.200589 0.119401
v -0.000757 -0.200236 0.120156
v -0.000591 -0.200438 0.119838
v -0.000618 -0.200589 0.119512
v -0.000809 -0.200683 0.119282
v -0.000973 -0.200236 0.120206
v -0.000741 -0.200438 0.119933
v -0.000695 -0.200589 0.119609
v -0.000830 -0.200683 0.119342
v -0.000908 -0.200438 0.119991
v -0.000791 -0.200589 0.119686
v -0.000864 -0.200683 0.119395
v -0.000903 -0.200589 0.119739
v -0.000908 -0.200683 0.119440
v -0.001023 -0.200589 0.119767
v -0.000962 -0.200683 0.119474
v -0.001022 -0.200683 0.119495
f 134 75 107
f 107 75 53
f 74 75 134
f 41 56 40
f 18 19 57
f 18 57 17
f 59 55 22
f 12 13 57
f 58 23 24
f 25 58 24
f 197 198 242
f 248 249 290
f 26 58 25
f 20 22 55
f 58 22 20
f 17 57 16
f 57 15 16
f 57 13 14
f 14 15 57
f 57 10 11
f 11 12 57
f 134 107 106
f 59 194 60
f 60 85 59
f 87 61 62
f 158 89 90
f 59 85 84
f 54 55 84
f 84 55 59
f 258 259 275
f 90 89 64
f 64 89 63
f 233 64 63
f 48 2 56
f 56 47 48
f 56 45 46
f 46 47 56
f 42 56 41
f 42 43 56
f 44 45 56
f 56 43 44
f 239 198 199
f 239 242 198
f 58 28 29
f 29 30 58
f 59 22 21
f 21 30 194
f 21 194 59
f 21 22 58
f 58 30 21
f 27 28 58
f 58 26 27
f 103 102 114
f 126 106 105
f 105 121 126
f 126 121 130
f 126 130 134
f 134 106 126
f 85 60 86
f 86 61 87
f 86 60 61
f 87 62 88
f 63 89 88
f 88 62 63
f 170 165 153
f 181 84 85
f 288 283 292
f 285 247 248
f 248 290 285
f 210 200 50
f 276 272 273
f 272 257 273
f 273 257 258
f 258 275 273
f 279 283 276
f 276 273 279
f 279 273 275
f 278 275 259
f 67 8 7
f 67 201 8
f 7 6 67
f 63 62 240
f 240 233 63
f 64 233 229
f 206 205 217
f 215 203 8
f 8 201 215
f 269 289 293
f 135 78 79
f 79 80 135
f 104 121 105
f 103 114 104
f 104 114 121
f 130 121 125
f 32 49 1
f 32 33 49
f 34 35 49
f 49 33 34
f 37 38 49
f 39 31 49
f 49 38 39
f 242 239 235
f 235 238 242
f 235 227 231
f 231 238 235
f 195 196 244
f 242 238 244
f 5 76 112
f 112 100 5
f 87 88 161
f 89 158 161
f 161 88 89
f 54 84 99
f 84 181 99
f 99 181 98
f 274 272 276
f 9 255 263
f 51 247 262
f 247 285 262
f 283 279 287
f 292 283 287
f 260 278 259
f 261 262 281
f 281 262 285
f 281 260 261
f 278 260 281
f 286 278 281
f 281 290 286
f 281 285 290
f 282 279 275
f 275 278 282
f 282 278 286
f 286 291 282
f 282 287 279
f 291 287 282
f 201 67 66
f 243 62 61
f 243 240 62
f 234 238 231
f 211 255 203
f 256 257 272
f 272 255 256
f 256 211 204
f 255 211 256
f 202 229 225
f 225 229 233
f 83 82 297
f 289 82 81
f 268 289 81
f 150 149 186
f 186 182 150
f 33 32 309
f 3 270 304
f 296 288 292
f 293 288 296
f 292 300 296
f 300 304 296
f 49 35 36
f 36 37 49
f 98 181 185
f 180 188 185
f 181 177 185
f 185 177 180
f 116 119 124
f 116 112 119
f 120 116 124
f 113 116 120
f 111 114 102
f 111 102 101
f 101 113 111
f 109 108 100
f 101 108 109
f 109 113 101
f 153 165 169
f 165 154 169
f 178 182 186
f 153 152 174
f 174 170 153
f 174 178 170
f 174 152 182
f 182 178 174
f 85 86 173
f 173 181 85
f 173 177 181
f 180 177 172
f 265 274 277
f 264 274 265
f 122 263 264
f 201 66 221
f 202 225 221
f 65 229 202
f 202 221 65
f 65 221 66
f 64 229 65
f 90 64 65
f 155 156 90
f 90 65 155
f 155 65 66
f 246 60 194
f 61 60 246
f 246 243 61
f 241 244 238
f 238 234 241
f 233 240 237
f 243 241 237
f 240 243 237
f 237 241 234
f 227 224 220
f 220 224 217
f 203 215 213
f 226 234 231
f 138 74 134
f 134 130 138
f 144 81 82
f 125 120 129
f 129 120 124
f 118 76 122
f 122 77 118
f 118 77 123
f 151 150 182
f 182 152 151
f 254 309 32
f 252 34 307
f 307 34 33
f 302 251 252
f 252 307 302
f 295 300 292
f 295 287 291
f 292 287 295
f 291 299 295
f 301 270 297
f 301 304 270
f 301 296 304
f 293 296 301
f 297 269 301
f 301 269 293
f 97 185 188
f 188 96 97
f 98 185 97
f 184 188 180
f 188 184 190
f 190 184 187
f 113 120 117
f 117 111 113
f 114 111 117
f 117 125 121
f 121 114 117
f 117 120 125
f 100 112 110
f 110 109 100
f 112 116 110
f 110 116 113
f 113 109 110
f 91 157 156
f 156 155 91
f 91 67 6
f 91 66 67
f 91 155 66
f 183 178 186
f 171 163 166
f 156 157 160
f 157 163 160
f 160 158 90
f 90 156 160
f 164 161 158
f 158 160 164
f 265 277 266
f 266 277 267
f 267 277 284
f 284 268 267
f 284 288 293
f 293 289 284
f 284 289 268
f 272 274 271
f 274 264 271
f 271 264 263
f 271 255 272
f 271 263 255
f 127 77 78
f 123 77 127
f 127 131 123
f 78 135 127
f 135 131 127
f 207 224 208
f 206 217 207
f 217 224 207
f 210 209 236
f 200 210 236
f 199 200 236
f 236 239 199
f 218 215 201
f 201 221 218
f 218 221 225
f 243 246 245
f 245 241 243
f 244 241 245
f 195 244 245
f 194 195 245
f 245 246 194
f 214 217 205
f 214 220 217
f 216 220 214
f 214 205 204
f 204 216 214
f 212 211 203
f 203 213 212
f 204 211 212
f 212 216 204
f 212 213 216
f 219 213 215
f 216 213 219
f 230 225 233
f 230 237 234
f 233 237 230
f 234 226 230
f 74 138 73
f 128 131 136
f 119 123 128
f 124 119 128
f 123 131 128
f 136 131 139
f 139 135 80
f 139 131 135
f 80 81 139
f 81 144 139
f 142 136 139
f 139 144 142
f 130 125 133
f 125 129 133
f 133 138 130
f 115 123 119
f 119 112 115
f 115 118 123
f 115 112 76
f 76 118 115
f 306 304 300
f 306 254 3
f 3 304 306
f 300 295 303
f 303 295 299
f 303 306 300
f 33 309 253
f 253 307 33
f 294 302 299
f 294 299 291
f 286 290 294
f 294 291 286
f 298 250 251
f 251 302 298
f 302 294 298
f 249 250 298
f 298 290 249
f 298 294 290
f 52 92 147
f 149 148 191
f 186 149 191
f 95 190 94
f 178 183 175
f 170 178 175
f 171 166 175
f 175 166 170
f 180 172 176
f 176 184 180
f 159 163 157
f 159 166 163
f 6 154 159
f 159 91 6
f 157 91 159
f 168 164 172
f 87 161 168
f 161 164 168
f 168 86 87
f 168 173 86
f 177 173 168
f 168 172 177
f 283 288 280
f 280 284 277
f 288 284 280
f 280 274 276
f 276 283 280
f 280 277 274
f 232 235 239
f 239 236 232
f 227 235 232
f 232 224 227
f 223 220 216
f 223 219 226
f 216 219 223
f 227 220 223
f 231 227 223
f 223 226 231
f 226 219 222
f 222 230 226
f 225 230 222
f 222 218 225
f 215 218 222
f 222 219 215
f 141 73 138
f 138 133 141
f 68 83 4
f 132 129 124
f 132 128 136
f 124 128 132
f 309 254 308
f 254 306 308
f 306 303 308
f 308 253 309
f 305 302 307
f 299 302 305
f 305 303 299
f 307 253 305
f 305 308 303
f 253 308 305
f 193 147 92
f 193 92 93
f 148 147 193
f 193 191 148
f 179 183 187
f 187 184 179
f 184 176 179
f 179 175 183
f 171 175 179
f 179 176 171
f 171 176 167
f 172 164 167
f 167 176 172
f 167 160 163
f 167 163 171
f 167 164 160
f 170 166 162
f 165 170 162
f 166 159 162
f 162 154 165
f 162 159 154
f 208 224 228
f 224 232 228
f 228 209 208
f 228 236 209
f 228 232 236
f 73 141 72
f 145 69 70
f 142 145 140
f 140 136 142
f 140 132 136
f 191 193 189
f 187 183 189
f 189 183 186
f 186 191 189
f 146 68 69
f 69 145 146
f 83 68 146
f 82 83 146
f 146 144 82
f 142 144 146
f 146 145 142
f 143 140 145
f 143 70 71
f 143 145 70
f 129 132 137
f 137 133 129
f 132 140 137
f 137 141 133
f 140 143 137
f 137 143 141
f 192 190 187
f 192 189 193
f 187 189 192
f 192 94 190
f 93 94 192
f 192 193 93
f 49 58 57
f 57 56 49
f 1 49 2
f 2 49 56
f 53 75 40
f 40 75 41
f 40 56 57
f 57 19 40
f 53 40 52
f 52 40 19
f 31 51 50
f 50 23 31
f 58 49 31
f 31 23 58
f 24 200 199
f 24 199 25
f 24 23 50
f 50 200 24
f 1 2 4
f 4 3 1
f 25 199 26
f 199 198 26
f 20 55 54
f 54 10 20
f 57 58 20
f 20 10 57
f 7 8 6
f 9 5 6
f 6 8 9
f 41 75 42
f 75 74 42
f 29 195 194
f 194 30 29
f 195 29 196
f 196 29 28
f 27 196 28
f 197 196 27
f 27 26 198
f 27 198 197
f 257 205 206
f 206 258 257
f 9 8 255
f 8 203 255
f 297 82 269
f 269 82 289
f 251 34 252
f 35 34 251
f 37 249 248
f 248 38 37
f 51 31 39
f 39 247 51
f 39 38 248
f 248 247 39
f 244 196 197
f 197 242 244
f 154 6 5
f 5 100 154
f 101 102 152
f 152 153 101
f 99 10 54
f 99 11 10
f 12 11 99
f 99 98 12
f 263 5 9
f 263 76 5
f 122 76 263
f 50 51 262
f 262 210 50
f 205 257 256
f 204 205 256
f 3 4 83
f 83 270 3
f 297 270 83
f 81 80 267
f 267 268 81
f 150 104 105
f 105 149 150
f 96 95 15
f 15 14 96
f 92 52 19
f 19 18 92
f 92 18 17
f 17 93 92
f 101 153 169
f 169 108 101
f 169 154 100
f 100 108 169
f 77 265 78
f 77 264 265
f 122 264 77
f 210 262 209
f 209 262 261
f 261 260 209
f 209 260 208
f 45 71 70
f 70 46 45
f 104 150 151
f 103 104 151
f 151 152 102
f 151 102 103
f 1 3 254
f 254 32 1
f 249 37 250
f 37 36 250
f 35 251 250
f 250 36 35
f 12 98 97
f 13 12 97
f 97 96 14
f 97 14 13
f 148 149 105
f 105 106 148
f 95 96 190
f 190 96 188
f 79 78 266
f 78 265 266
f 267 80 266
f 266 80 79
f 207 258 206
f 207 259 258
f 208 260 207
f 207 260 259
f 73 42 74
f 43 42 73
f 46 70 69
f 47 46 69
f 53 52 147
f 147 107 53
f 147 148 106
f 147 106 107
f 15 95 94
f 94 16 15
f 94 93 17
f 17 16 94
f 68 4 2
f 2 48 68
f 47 69 68
f 68 48 47
f 72 71 45
f 45 44 72
f 43 73 72
f 72 44 43
f 71 72 143
f 143 72 141
