# generated by step_to_parts.py -- 478 verts, 952 tris
v 0.071906 -0.020139 0.104462
v 0.104827 -0.024866 0.104460
v 0.104566 -0.024651 0.104448
v 0.104273 -0.024481 0.104448
v 0.103956 -0.024362 0.104460
v 0.111216 -0.238815 -0.039540
v 0.125877 -0.110545 -0.039540
v 0.095976 -0.110545 -0.039540
v 0.095976 -0.119276 -0.039540
v 0.097237 -0.237481 -0.039540
v 0.101865 -0.238221 -0.039540
v 0.106531 -0.238666 -0.039540
v -0.121203 -0.200715 0.068419
v -0.121203 -0.200715 0.093819
v 0.125877 -0.199445 0.120489
v 0.125877 -0.110545 0.120489
v 0.013417 -0.199445 0.120489
v 0.013417 -0.110545 0.120489
v 0.127574 -0.237545 -0.033611
v 0.126456 -0.238815 -0.039540
v 0.125833 -0.238815 -0.027621
v 0.123971 -0.238815 -0.015832
v 0.120889 -0.238815 -0.004302
v 0.116622 -0.238815 0.006844
v 0.111216 -0.238815 0.017485
v 0.104813 -0.238537 0.027238
v 0.097516 -0.237534 0.036213
v 0.097002 -0.237435 -0.039518
v 0.097119 -0.237458 -0.039535
v 0.127147 -0.110545 -0.038270
v 0.127147 -0.062275 0.095089
v 0.127147 -0.062275 0.103217
v 0.127147 -0.110545 0.119219
v 0.127147 -0.199445 0.119219
v 0.067427 -0.020458 0.103217
v 0.074920 -0.018451 0.103217
v 0.082647 -0.017775 0.103217
v 0.090374 -0.018451 0.103217
v 0.097867 -0.020458 0.103217
v 0.104897 -0.023736 0.103217
v 0.111251 -0.028186 0.103217
v 0.116736 -0.033671 0.103217
v 0.121185 -0.040025 0.103217
v 0.124463 -0.047055 0.103217
v 0.126471 -0.054547 0.103217
v 0.126471 -0.054547 0.095089
v 0.124463 -0.047055 0.095089
v 0.121185 -0.040025 0.095089
v 0.116736 -0.033671 0.095089
v 0.111251 -0.028186 0.095089
v 0.104897 -0.023736 0.095089
v 0.097867 -0.020458 0.095089
v 0.090374 -0.018451 0.095089
v 0.082647 -0.017775 0.095089
v 0.074920 -0.018451 0.095089
v 0.067427 -0.020458 0.095089
v 0.071620 -0.020159 0.104450
v 0.071340 -0.020218 0.104446
v 0.071069 -0.020317 0.104452
v 0.070817 -0.020452 0.104466
v -0.121203 -0.127055 0.112869
v -0.121203 -0.092765 0.068419
v -0.121203 -0.092765 0.081119
v -0.121203 -0.182935 0.112869
v 0.067432 -0.020473 0.094890
v 0.067448 -0.020517 0.094697
v 0.070057 -0.019737 0.094513
v 0.070086 -0.019837 0.094343
v 0.071108 -0.019361 0.094697
v 0.071127 -0.019435 0.094513
v 0.071154 -0.019535 0.094343
v 0.072062 -0.019068 0.094890
v 0.072073 -0.019113 0.094697
v 0.072091 -0.019187 0.094513
v 0.072116 -0.019288 0.094343
v 0.074922 -0.018466 0.094890
v 0.074930 -0.018512 0.094697
v 0.074944 -0.018587 0.094513
v 0.074962 -0.018690 0.094343
v 0.078719 -0.018322 0.094191
v 0.082647 -0.017790 0.094890
v 0.082647 -0.017837 0.094697
v 0.082647 -0.017913 0.094513
v 0.082647 -0.018017 0.094343
v 0.085185 -0.018220 0.094191
v 0.090372 -0.018466 0.094890
v 0.090363 -0.018512 0.094697
v 0.090350 -0.018587 0.094513
v 0.090332 -0.018690 0.094343
v 0.091624 -0.018937 0.094343
v 0.097861 -0.020473 0.094890
v 0.097846 -0.020517 0.094697
v 0.097819 -0.020588 0.094513
v 0.103773 -0.023385 0.094343
v 0.104838 -0.023721 0.094890
v 0.104815 -0.023761 0.094697
v 0.104777 -0.023827 0.094513
v 0.105598 -0.024311 0.094513
v 0.111177 -0.028144 0.094890
v 0.111147 -0.028180 0.094697
v 0.111098 -0.028238 0.094513
v 0.115690 -0.032832 0.094343
v 0.116724 -0.033681 0.094890
v 0.116688 -0.033710 0.094697
v 0.121171 -0.040032 0.094890
v 0.121131 -0.040056 0.094697
v 0.124449 -0.047060 0.094890
v 0.125509 -0.050546 0.094697
v 0.125824 -0.051568 0.094890
v 0.126455 -0.054550 0.094890
v 0.127128 -0.110545 -0.038491
v 0.127070 -0.110545 -0.038705
v 0.126977 -0.110545 -0.038905
v 0.126850 -0.110545 -0.039087
v 0.126693 -0.110545 -0.039243
v 0.126512 -0.110545 -0.039370
v 0.126311 -0.110545 -0.039464
v 0.126097 -0.110545 -0.039521
v 0.127128 -0.110324 -0.038270
v 0.125877 -0.109445 -0.038905
v 0.125877 -0.109572 -0.039087
v 0.125877 -0.109728 -0.039243
v 0.125877 -0.109910 -0.039370
v 0.125877 -0.110110 -0.039464
v 0.125877 -0.110324 -0.039521
v 0.125966 -0.109552 -0.039057
v 0.126138 -0.109552 -0.039018
v 0.126298 -0.109552 -0.038941
v 0.126098 -0.109753 -0.039238
v 0.126437 -0.109552 -0.038830
v 0.126308 -0.109753 -0.039165
v 0.126005 -0.109994 -0.039407
v 0.126547 -0.109552 -0.038691
v 0.126496 -0.109753 -0.039047
v 0.126255 -0.109994 -0.039350
v 0.126653 -0.109753 -0.038889
v 0.126486 -0.109994 -0.039239
v 0.126152 -0.110262 -0.039477
v 0.126771 -0.109753 -0.038701
v 0.126686 -0.109994 -0.039079
v 0.126414 -0.110262 -0.039386
v 0.126845 -0.109753 -0.038491
v 0.126846 -0.109994 -0.038879
v 0.126649 -0.110262 -0.039238
v 0.126957 -0.109994 -0.038648
v 0.126845 -0.110262 -0.039042
v 0.127014 -0.109994 -0.038398
v 0.126992 -0.110262 -0.038807
v 0.127084 -0.110262 -0.038546
v 0.096471 -0.109537 -0.039044
v 0.096350 -0.109644 -0.039165
v 0.096226 -0.109787 -0.039290
v 0.096120 -0.109957 -0.039396
v 0.096053 -0.110112 -0.039464
v 0.096007 -0.110269 -0.039510
v 0.095984 -0.110405 -0.039532
v 0.096604 -0.237285 -0.039371
v 0.096772 -0.237367 -0.039452
v 0.096884 -0.237406 -0.039490
v 0.127070 -0.199879 0.119219
v 0.127128 -0.199665 0.119219
v 0.012236 -0.200625 0.119687
v 0.012309 -0.200552 0.119840
v 0.012404 -0.200457 0.119985
v 0.012519 -0.200343 0.120117
v 0.012651 -0.200211 0.120232
v 0.012796 -0.200066 0.120327
v 0.012949 -0.199912 0.120400
v 0.013107 -0.199755 0.120451
v 0.013264 -0.199597 0.120480
v 0.125877 -0.199665 0.120470
v 0.125877 -0.199879 0.120413
v 0.125877 -0.200080 0.120319
v 0.125877 -0.200261 0.120192
v 0.125877 -0.200417 0.120036
v 0.125877 -0.200544 0.119854
v 0.125877 -0.200638 0.119654
v 0.126097 -0.199445 0.120470
v 0.126311 -0.199445 0.120413
v 0.126512 -0.199445 0.120319
v 0.126693 -0.199445 0.120192
v 0.126850 -0.199445 0.120036
v 0.126977 -0.199445 0.119854
v 0.127070 -0.199445 0.119654
v 0.127128 -0.199445 0.119440
v 0.127115 -0.199711 0.119312
v 0.127115 -0.199684 0.119370
v 0.127021 -0.199982 0.119342
v 0.127115 -0.199644 0.119419
v 0.127021 -0.199941 0.119458
v 0.127115 -0.199595 0.119458
v 0.127021 -0.199875 0.119563
v 0.126870 -0.200192 0.119481
v 0.127115 -0.199538 0.119486
v 0.127021 -0.199788 0.119650
v 0.126870 -0.200115 0.119640
v 0.126669 -0.200413 0.119440
v 0.127115 -0.199476 0.119500
v 0.127021 -0.199684 0.119716
v 0.126870 -0.200004 0.119779
v 0.126669 -0.200339 0.119650
v 0.127021 -0.199567 0.119756
v 0.126870 -0.199866 0.119890
v 0.126669 -0.200221 0.119838
v 0.126428 -0.200525 0.119597
v 0.126870 -0.199706 0.119967
v 0.126669 -0.200064 0.119995
v 0.126428 -0.200413 0.119828
v 0.126160 -0.200652 0.119495
v 0.126870 -0.199533 0.120006
v 0.126669 -0.199875 0.120114
v 0.126428 -0.200254 0.120028
v 0.126160 -0.200560 0.119756
v 0.126669 -0.199666 0.120187
v 0.126428 -0.200053 0.120188
v 0.126160 -0.200413 0.119991
v 0.126428 -0.199822 0.120299
v 0.126160 -0.200217 0.120187
v 0.126428 -0.199573 0.120356
v 0.126160 -0.199982 0.120335
v 0.126160 -0.199720 0.120426
v 0.013107 -0.110235 0.120451
v 0.013264 -0.110392 0.120480
v 0.126097 -0.110545 0.120470
v 0.126311 -0.110545 0.120413
v 0.126512 -0.110545 0.120319
v 0.126693 -0.110545 0.120192
v 0.126850 -0.110545 0.120036
v 0.126977 -0.110545 0.119854
v 0.127070 -0.110545 0.119654
v 0.127128 -0.110545 0.119440
v 0.125877 -0.110324 0.120470
v 0.126992 -0.110262 0.119756
v 0.126845 -0.110262 0.119991
v 0.126649 -0.110262 0.120187
v 0.126414 -0.110262 0.120335
v 0.126152 -0.110262 0.120426
v 0.127128 -0.062275 0.103438
v 0.064268 -0.022667 0.104411
v 0.064183 -0.022485 0.104317
v 0.064107 -0.022320 0.104190
v 0.064041 -0.022178 0.104034
v 0.063988 -0.022063 0.103852
v 0.063948 -0.021978 0.103652
v 0.063924 -0.021926 0.103438
v 0.067529 -0.020737 0.104034
v 0.067485 -0.020618 0.103852
v 0.067453 -0.020530 0.103652
v 0.067434 -0.020476 0.103438
v 0.070328 -0.020653 0.104475
v 0.070254 -0.020406 0.104411
v 0.070198 -0.020213 0.104317
v 0.070146 -0.020039 0.104190
v 0.070102 -0.019889 0.104034
v 0.070066 -0.019768 0.103852
v 0.071310 -0.020108 0.104411
v 0.070039 -0.019678 0.103652
v 0.071258 -0.019914 0.104317
v 0.070023 -0.019623 0.103438
v 0.071211 -0.019739 0.104190
v 0.071170 -0.019588 0.104034
v 0.072319 -0.020115 0.104475
v 0.071137 -0.019465 0.103852
v 0.072258 -0.019864 0.104411
v 0.071113 -0.019375 0.103652
v 0.072210 -0.019669 0.104317
v 0.071098 -0.019319 0.103438
v 0.072167 -0.019493 0.104190
v 0.072130 -0.019341 0.104034
v 0.072099 -0.019218 0.103852
v 0.072077 -0.019127 0.103652
v 0.072064 -0.019071 0.103438
v 0.074971 -0.018743 0.104034
v 0.074949 -0.018618 0.103852
v 0.074933 -0.018526 0.103652
v 0.074923 -0.018470 0.103438
v 0.078783 -0.019040 0.104475
v 0.078760 -0.018784 0.104411
v 0.078742 -0.018584 0.104317
v 0.078726 -0.018403 0.104190
v 0.078712 -0.018247 0.104034
v 0.078701 -0.018121 0.103852
v 0.078692 -0.018028 0.103652
v 0.078687 -0.017970 0.103438
v 0.082647 -0.018228 0.104190
v 0.082647 -0.018072 0.104034
v 0.082647 -0.017945 0.103852
v 0.082647 -0.017851 0.103652
v 0.082647 -0.017794 0.103438
v 0.085144 -0.018940 0.104475
v 0.085159 -0.018683 0.104411
v 0.085170 -0.018482 0.104317
v 0.085181 -0.018301 0.104190
v 0.085190 -0.018145 0.104034
v 0.085197 -0.018018 0.103852
v 0.085202 -0.017925 0.103652
v 0.085205 -0.017868 0.103438
v 0.090295 -0.018897 0.104190
v 0.090323 -0.018743 0.104034
v 0.090345 -0.018618 0.103852
v 0.091451 -0.019770 0.104475
v 0.090361 -0.018526 0.103652
v 0.091503 -0.019518 0.104411
v 0.090371 -0.018470 0.103438
v 0.091544 -0.019321 0.104317
v 0.091581 -0.019144 0.104190
v 0.091613 -0.018991 0.104034
v 0.091638 -0.018866 0.103852
v 0.091657 -0.018775 0.103652
v 0.091669 -0.018718 0.103438
v 0.097493 -0.021486 0.104475
v 0.097581 -0.021244 0.104411
v 0.097650 -0.021055 0.104317
v 0.097712 -0.020885 0.104190
v 0.097765 -0.020737 0.104034
v 0.097809 -0.020618 0.103852
v 0.097841 -0.020530 0.103652
v 0.097860 -0.020476 0.103438
v 0.103367 -0.024133 0.104475
v 0.103490 -0.023906 0.104411
v 0.103586 -0.023730 0.104317
v 0.103672 -0.023570 0.104190
v 0.103747 -0.023433 0.104034
v 0.103808 -0.023321 0.103852
v 0.104333 -0.024376 0.104411
v 0.103852 -0.023239 0.103652
v 0.104433 -0.024202 0.104317
v 0.103880 -0.023189 0.103438
v 0.104523 -0.024045 0.104190
v 0.104601 -0.023909 0.104034
v 0.104664 -0.023799 0.103852
v 0.105194 -0.024882 0.104411
v 0.104710 -0.023717 0.103652
v 0.105297 -0.024710 0.104317
v 0.104739 -0.023668 0.103438
v 0.105391 -0.024555 0.104190
v 0.105472 -0.024421 0.104034
v 0.105537 -0.024312 0.103852
v 0.105586 -0.024232 0.103652
v 0.105615 -0.024183 0.103438
v 0.110651 -0.028773 0.104411
v 0.110780 -0.028619 0.104317
v 0.110896 -0.028480 0.104190
v 0.110996 -0.028360 0.104034
v 0.111078 -0.028263 0.103852
v 0.111138 -0.028191 0.103652
v 0.111175 -0.028147 0.103438
v 0.115247 -0.033226 0.104411
v 0.115397 -0.033093 0.104317
v 0.115532 -0.032972 0.104190
v 0.115649 -0.032868 0.104034
v 0.115744 -0.032784 0.103852
v 0.115814 -0.032721 0.103652
v 0.115857 -0.032683 0.103438
v 0.116388 -0.033962 0.104190
v 0.116508 -0.033862 0.104034
v 0.116606 -0.033780 0.103852
v 0.116677 -0.033720 0.103652
v 0.116721 -0.033683 0.103438
v 0.119143 -0.038303 0.104411
v 0.119311 -0.038193 0.104317
v 0.119462 -0.038094 0.104190
v 0.119593 -0.038008 0.104034
v 0.119699 -0.037938 0.103852
v 0.119777 -0.037887 0.103652
v 0.119825 -0.037855 0.103438
v 0.120792 -0.040251 0.104190
v 0.120928 -0.040173 0.104034
v 0.121038 -0.040110 0.103852
v 0.121119 -0.040063 0.103652
v 0.121168 -0.040034 0.103438
v 0.122437 -0.043811 0.104317
v 0.122601 -0.043735 0.104190
v 0.122743 -0.043669 0.104034
v 0.122858 -0.043615 0.103852
v 0.122943 -0.043576 0.103652
v 0.122995 -0.043552 0.103438
v 0.124184 -0.047156 0.104034
v 0.124303 -0.047113 0.103852
v 0.124391 -0.047081 0.103652
v 0.124445 -0.047061 0.103438
v 0.124882 -0.049774 0.104190
v 0.125032 -0.049729 0.104034
v 0.125154 -0.049693 0.103852
v 0.125244 -0.049667 0.103652
v 0.125299 -0.049650 0.103438
v 0.125300 -0.050674 0.104034
v 0.125423 -0.050640 0.103852
v 0.125513 -0.050616 0.103652
v 0.125568 -0.050601 0.103438
v 0.125557 -0.051664 0.104034
v 0.125681 -0.051634 0.103852
v 0.125772 -0.051612 0.103652
v 0.125827 -0.051598 0.103438
v 0.126303 -0.054577 0.103852
v 0.126395 -0.054561 0.103652
v 0.126452 -0.054551 0.103438
v 0.126933 -0.058786 0.103652
v 0.126990 -0.058782 0.103438
v 0.126516 -0.238813 -0.039533
v 0.126576 -0.238809 -0.039514
v 0.126642 -0.238801 -0.039477
v 0.126715 -0.238788 -0.039417
v 0.126816 -0.238763 -0.039298
v 0.126955 -0.238712 -0.039063
v 0.127147 -0.238608 -0.038580
v 0.127315 -0.238470 -0.037938
v 0.127537 -0.238136 -0.036373
v 0.111407 -0.238795 0.017595
v 0.111593 -0.238738 0.017702
v 0.111767 -0.238644 0.017802
v 0.127261 -0.238517 -0.037938
v 0.127080 -0.238644 -0.037941
v 0.126880 -0.238738 -0.037944
v 0.126704 -0.238788 -0.037946
v 0.127555 -0.237765 -0.033612
v 0.127498 -0.237979 -0.033615
v 0.127428 -0.238136 -0.033619
v 0.127277 -0.238361 -0.033627
v 0.127121 -0.238517 -0.033635
v 0.126940 -0.238644 -0.033644
v 0.126740 -0.238738 -0.033654
v 0.126564 -0.238788 -0.033663
v 0.126645 -0.238517 -0.027536
v 0.126465 -0.238644 -0.027555
v 0.126265 -0.238738 -0.027576
v 0.126090 -0.238788 -0.027594
v 0.125893 -0.238813 -0.027615
v 0.126429 -0.237979 -0.022792
v 0.126360 -0.238136 -0.022802
v 0.126211 -0.238361 -0.022824
v 0.126056 -0.238517 -0.022847
v 0.125876 -0.238644 -0.022873
v 0.125678 -0.238738 -0.022902
v 0.125504 -0.238788 -0.022928
v 0.124769 -0.238517 -0.015663
v 0.124592 -0.238644 -0.015701
v 0.124396 -0.238738 -0.015742
v 0.124223 -0.238788 -0.015779
v 0.124030 -0.238813 -0.015820
v 0.124133 -0.238361 -0.012170
v 0.123981 -0.238517 -0.012207
v 0.123805 -0.238644 -0.012250
v 0.123610 -0.238738 -0.012298
v 0.123439 -0.238788 -0.012340
v 0.121666 -0.238517 -0.004050
v 0.121493 -0.238644 -0.004106
v 0.121302 -0.238738 -0.004168
v 0.121135 -0.238788 -0.004222
v 0.120946 -0.238813 -0.004283
v 0.120914 -0.238517 -0.001810
v 0.120743 -0.238644 -0.001869
v 0.120553 -0.238738 -0.001935
v 0.120387 -0.238788 -0.001993
v 0.117368 -0.238517 0.007176
v 0.117203 -0.238644 0.007102
v 0.117019 -0.238738 0.007021
v 0.116858 -0.238788 0.006949
v 0.116677 -0.238813 0.006869
v 0.108021 -0.238577 0.023783
v 0.103322 -0.238294 0.030041
v 0.099657 -0.237803 0.034548
v 0.092965 -0.236416 0.041720
v 0.096675 -0.237264 0.037895
v 0.091351 -0.235983 0.043278
v 0.085999 -0.234261 0.048040
v 0.089719 -0.235505 0.044794
v 0.110413 -0.238721 0.019744
v 0.104884 -0.238368 0.028250
v 0.105554 -0.238502 0.027053
v 0.098665 -0.237638 0.035690
v 0.098265 -0.237428 0.036534
v 0.090981 -0.235726 0.044001
v 0.083514 -0.233305 0.050059
v 0.097678 -0.237460 0.036799
v 0.090429 -0.235718 0.044142
v 0.111330 -0.238723 0.018232
v 0.105775 -0.238535 0.026674
f 30 31 19
f 242 63 61
f 157 158 13
f 13 9 157
f 157 9 158
f 27 463 14
f 14 13 27
f 13 10 27
f 14 463 465
f 474 162 14
f 14 466 474
f 474 466 162
f 164 64 14
f 223 232 290
f 16 232 223
f 177 465 463
f 109 46 110
f 408 30 19
f 14 162 163
f 163 164 14
f 223 290 277
f 18 16 223
f 18 223 61
f 45 46 109
f 467 177 466
f 467 466 14
f 463 27 464
f 152 153 62
f 62 151 152
f 80 78 77
f 80 150 79
f 79 78 80
f 150 151 79
f 79 151 75
f 30 408 111
f 156 8 62
f 62 155 156
f 7 8 156
f 62 153 154
f 154 155 62
f 7 156 125
f 125 156 155
f 416 408 19
f 19 34 416
f 9 10 29
f 29 28 9
f 29 10 13
f 13 28 29
f 158 9 159
f 9 28 159
f 13 158 159
f 159 28 13
f 11 12 26
f 26 27 11
f 11 27 10
f 64 164 165
f 223 277 222
f 61 223 222
f 222 250 61
f 66 67 62
f 68 151 62
f 62 67 68
f 19 31 32
f 451 446 197
f 465 177 473
f 475 464 27
f 171 178 15
f 171 169 172
f 310 39 52
f 52 53 310
f 310 53 38
f 38 53 297
f 102 99 103
f 394 45 109
f 397 45 394
f 108 47 109
f 84 150 80
f 84 120 150
f 84 85 120
f 150 120 121
f 121 151 150
f 127 131 129
f 90 127 89
f 93 127 90
f 123 129 132
f 153 152 123
f 406 111 407
f 407 111 408
f 30 111 119
f 119 110 46
f 109 110 119
f 105 145 106
f 7 125 118
f 155 154 124
f 124 125 155
f 124 154 153
f 153 123 124
f 124 123 132
f 406 413 405
f 166 167 64
f 64 165 166
f 170 17 64
f 64 169 170
f 169 171 170
f 15 17 170
f 170 171 15
f 64 167 168
f 168 169 64
f 172 169 168
f 61 250 251
f 251 239 61
f 262 222 277
f 62 56 65
f 65 66 62
f 56 69 65
f 67 66 65
f 65 69 67
f 75 151 71
f 151 68 71
f 56 35 259
f 180 179 219
f 399 45 397
f 46 45 399
f 31 46 399
f 399 32 31
f 7 118 20
f 410 477 468
f 441 197 442
f 442 197 446
f 442 436 441
f 468 477 411
f 477 410 411
f 177 467 476
f 476 473 177
f 465 473 476
f 14 465 476
f 476 467 14
f 462 27 26
f 178 171 221
f 221 217 219
f 221 171 172
f 219 179 221
f 221 179 178
f 464 475 213
f 213 177 463
f 463 464 213
f 164 163 176
f 177 213 176
f 176 213 216
f 176 163 162
f 162 466 176
f 466 177 176
f 289 297 37
f 318 39 310
f 366 48 49
f 347 354 41
f 104 102 103
f 139 102 104
f 100 102 139
f 99 102 100
f 139 133 100
f 130 133 136
f 136 133 139
f 47 108 107
f 83 84 80
f 85 84 83
f 132 129 135
f 129 131 135
f 122 152 151
f 151 121 122
f 122 123 152
f 129 123 122
f 89 127 126
f 126 85 89
f 120 85 126
f 126 121 120
f 126 127 129
f 129 122 126
f 126 122 121
f 128 127 93
f 131 127 128
f 114 403 115
f 149 119 111
f 109 119 149
f 149 108 109
f 149 107 108
f 43 48 366
f 142 145 139
f 142 106 145
f 142 104 106
f 139 104 142
f 138 118 125
f 132 135 138
f 138 135 141
f 138 124 132
f 125 124 138
f 161 416 34
f 161 186 416
f 415 403 404
f 403 114 404
f 220 221 172
f 217 221 220
f 173 220 172
f 167 166 173
f 173 168 167
f 172 168 173
f 241 242 61
f 222 262 1
f 250 222 60
f 222 59 60
f 60 251 250
f 60 59 251
f 284 289 37
f 55 36 284
f 249 35 63
f 249 259 35
f 63 242 243
f 243 244 63
f 67 69 70
f 72 69 56
f 56 259 72
f 72 36 55
f 33 34 19
f 19 32 33
f 32 399 238
f 238 399 231
f 412 413 406
f 406 407 412
f 408 416 417
f 416 186 417
f 419 407 408
f 451 197 455
f 12 6 25
f 26 12 25
f 457 410 458
f 461 462 26
f 472 213 475
f 175 165 164
f 164 176 175
f 175 176 216
f 39 318 328
f 328 52 39
f 328 51 52
f 52 51 95
f 95 51 99
f 304 38 297
f 310 38 304
f 232 311 301
f 301 290 232
f 42 49 354
f 354 359 42
f 366 49 42
f 42 359 366
f 99 51 50
f 50 41 354
f 354 49 50
f 50 49 103
f 103 99 50
f 139 145 143
f 143 136 139
f 47 44 386
f 109 47 386
f 319 311 232
f 325 320 4
f 372 373 367
f 76 72 55
f 297 53 54
f 37 297 54
f 54 284 37
f 55 284 54
f 130 136 134
f 131 128 134
f 134 128 130
f 88 90 89
f 88 87 90
f 89 85 88
f 85 87 88
f 90 87 86
f 85 83 82
f 82 87 85
f 80 77 82
f 82 83 80
f 112 111 406
f 406 405 112
f 112 149 111
f 147 149 145
f 107 149 147
f 105 107 147
f 147 145 105
f 47 48 377
f 377 44 47
f 48 43 377
f 415 404 414
f 414 404 405
f 414 405 413
f 405 404 113
f 113 404 114
f 113 112 405
f 113 114 146
f 61 239 240
f 240 241 61
f 266 279 273
f 241 240 246
f 242 241 246
f 57 59 222
f 222 1 57
f 276 284 36
f 63 244 245
f 245 249 63
f 36 72 272
f 272 276 36
f 182 181 210
f 214 180 219
f 214 181 180
f 219 217 214
f 217 211 214
f 210 181 214
f 232 16 224
f 189 161 34
f 231 198 185
f 185 189 34
f 230 198 231
f 230 398 396
f 399 398 230
f 231 399 230
f 429 188 430
f 429 417 188
f 160 417 186
f 188 417 160
f 408 417 418
f 418 419 408
f 420 412 407
f 407 419 420
f 436 432 431
f 402 403 415
f 415 401 402
f 115 403 402
f 117 138 141
f 118 138 117
f 409 410 468
f 468 25 409
f 458 410 409
f 478 461 26
f 468 460 478
f 26 25 478
f 478 25 468
f 462 213 471
f 213 472 471
f 471 472 475
f 471 475 27
f 27 462 471
f 216 213 208
f 208 212 216
f 208 201 204
f 204 212 208
f 220 173 218
f 216 212 218
f 51 328 40
f 93 90 92
f 130 128 94
f 94 128 93
f 93 92 94
f 98 133 130
f 99 100 98
f 98 95 99
f 285 278 291
f 279 278 285
f 298 305 306
f 298 293 292
f 292 305 298
f 293 285 292
f 292 285 291
f 146 144 140
f 140 143 146
f 136 143 140
f 140 134 136
f 390 394 109
f 109 386 390
f 320 319 5
f 5 4 320
f 5 319 232
f 371 377 43
f 371 43 366
f 148 113 146
f 145 149 148
f 148 143 145
f 146 143 148
f 149 112 148
f 112 113 148
f 207 212 204
f 207 203 211
f 207 200 203
f 204 200 207
f 268 266 273
f 264 57 1
f 264 1 262
f 273 279 280
f 279 285 280
f 69 72 73
f 267 72 259
f 267 272 72
f 211 203 206
f 206 214 211
f 210 214 206
f 203 199 206
f 226 227 235
f 373 372 235
f 232 224 237
f 237 348 341
f 237 360 348
f 341 332 237
f 237 332 2
f 237 5 232
f 4 5 237
f 186 161 187
f 161 189 187
f 194 185 198
f 395 234 233
f 233 396 395
f 233 230 396
f 183 182 210
f 424 420 419
f 424 431 432
f 424 418 430
f 419 418 424
f 430 431 424
f 440 445 450
f 450 445 449
f 439 445 440
f 400 428 20
f 401 428 400
f 400 20 118
f 118 117 400
f 400 117 401
f 20 428 21
f 423 401 415
f 423 428 401
f 116 402 401
f 401 117 116
f 115 402 116
f 116 117 141
f 116 144 115
f 141 144 116
f 204 201 196
f 196 200 204
f 470 478 460
f 461 478 470
f 174 218 173
f 174 173 166
f 174 166 165
f 165 175 174
f 347 41 340
f 41 50 340
f 340 50 51
f 51 40 340
f 52 95 91
f 90 86 91
f 91 92 90
f 96 94 92
f 95 98 96
f 101 100 133
f 133 98 101
f 101 98 100
f 2 332 3
f 3 237 2
f 4 237 3
f 3 332 325
f 325 4 3
f 350 349 355
f 355 349 361
f 137 144 141
f 141 135 137
f 137 140 144
f 137 135 131
f 131 134 137
f 134 140 137
f 381 386 44
f 44 377 381
f 373 235 378
f 378 374 373
f 203 200 195
f 195 199 203
f 215 211 217
f 212 207 215
f 215 207 211
f 217 220 215
f 215 218 212
f 220 218 215
f 269 268 273
f 251 59 58
f 58 256 251
f 59 57 58
f 57 264 58
f 58 264 256
f 225 237 224
f 189 185 191
f 185 194 191
f 191 194 199
f 199 195 191
f 191 195 189
f 229 234 228
f 229 233 234
f 230 233 229
f 210 206 202
f 202 183 210
f 202 206 199
f 454 450 449
f 440 428 435
f 435 439 440
f 428 423 427
f 427 435 428
f 193 201 197
f 193 196 201
f 193 197 441
f 441 436 193
f 430 188 193
f 436 431 193
f 193 431 430
f 205 470 460
f 205 460 468
f 205 208 213
f 468 411 205
f 197 201 205
f 201 208 205
f 205 411 456
f 456 455 205
f 205 455 197
f 335 40 328
f 335 340 40
f 130 94 97
f 94 96 97
f 97 98 130
f 97 96 98
f 273 280 281
f 362 361 367
f 355 361 362
f 382 378 235
f 186 187 190
f 190 160 186
f 188 160 190
f 190 193 188
f 196 193 190
f 252 246 240
f 236 225 226
f 237 225 236
f 226 235 236
f 236 372 367
f 236 235 372
f 367 361 236
f 236 361 360
f 360 237 236
f 183 202 184
f 198 230 184
f 184 194 198
f 199 194 184
f 184 202 199
f 450 454 459
f 459 454 458
f 458 409 459
f 459 25 24
f 459 409 25
f 209 205 213
f 209 213 462
f 462 461 209
f 461 470 469
f 470 205 469
f 469 209 461
f 205 209 469
f 383 235 234
f 383 382 235
f 378 382 383
f 189 195 192
f 192 187 189
f 192 190 187
f 200 196 192
f 192 195 200
f 196 190 192
f 253 254 246
f 246 252 253
f 392 234 395
f 392 391 234
f 234 391 387
f 387 383 234
f 64 13 14
f 62 13 64
f 64 63 62
f 61 63 64
f 8 13 62
f 8 9 13
f 15 16 18
f 18 17 15
f 61 64 18
f 64 17 18
f 62 63 35
f 35 56 62
f 119 46 31
f 31 30 119
f 6 11 10
f 9 8 6
f 6 8 7
f 6 10 9
f 7 20 6
f 12 11 6
f 49 48 105
f 49 105 103
f 103 105 104
f 105 106 104
f 105 48 107
f 107 48 47
f 114 144 146
f 115 144 114
f 70 71 68
f 70 68 67
f 231 33 238
f 238 33 32
f 455 456 452
f 455 452 451
f 451 452 447
f 447 446 451
f 457 411 410
f 456 411 457
f 303 291 301
f 301 291 290
f 346 354 347
f 353 354 346
f 397 396 398
f 398 399 397
f 312 305 303
f 313 305 312
f 303 301 312
f 312 301 311
f 319 312 311
f 320 312 319
f 374 368 367
f 367 373 374
f 247 243 246
f 246 243 242
f 290 291 278
f 278 277 290
f 289 284 283
f 288 289 283
f 276 283 284
f 275 283 276
f 248 243 247
f 244 243 248
f 248 245 244
f 249 245 248
f 78 79 74
f 74 79 75
f 71 70 74
f 75 71 74
f 181 182 227
f 227 182 228
f 180 181 227
f 227 226 180
f 224 16 15
f 15 178 224
f 185 33 231
f 34 33 185
f 417 429 418
f 418 429 430
f 413 412 420
f 420 421 413
f 446 447 443
f 443 442 446
f 436 442 443
f 443 437 436
f 437 443 438
f 438 443 444
f 296 289 288
f 297 289 296
f 287 295 296
f 288 287 296
f 299 308 300
f 307 308 299
f 315 308 307
f 316 308 315
f 309 317 318
f 309 318 310
f 309 308 316
f 316 317 309
f 306 315 307
f 314 315 306
f 306 305 313
f 313 314 306
f 307 299 306
f 306 299 298
f 292 291 303
f 303 305 292
f 327 332 334
f 325 332 327
f 53 86 81
f 81 54 53
f 81 86 87
f 87 82 81
f 81 76 55
f 55 54 81
f 77 76 81
f 81 82 77
f 368 374 369
f 369 374 375
f 247 246 254
f 254 255 247
f 255 254 263
f 263 254 261
f 264 278 279
f 279 266 264
f 277 278 264
f 264 262 277
f 249 248 257
f 259 249 257
f 257 248 247
f 247 255 257
f 255 263 257
f 257 263 265
f 73 74 70
f 73 70 69
f 73 76 77
f 72 76 73
f 78 74 73
f 73 77 78
f 259 257 267
f 267 257 265
f 265 263 271
f 271 263 270
f 271 267 265
f 272 267 271
f 271 274 275
f 270 274 271
f 275 276 271
f 276 272 271
f 235 227 228
f 228 234 235
f 452 456 453
f 456 457 453
f 413 421 422
f 422 414 413
f 439 438 444
f 444 445 439
f 440 22 21
f 21 428 440
f 414 422 423
f 415 414 423
f 216 218 174
f 174 175 216
f 326 317 316
f 326 316 324
f 318 317 326
f 326 328 318
f 91 86 53
f 53 52 91
f 92 91 96
f 96 91 95
f 302 296 295
f 302 295 300
f 297 296 302
f 302 304 297
f 300 308 302
f 308 309 302
f 302 309 310
f 310 304 302
f 298 299 294
f 294 293 298
f 294 299 300
f 300 295 294
f 294 285 293
f 294 286 285
f 294 295 287
f 287 286 294
f 351 352 345
f 344 351 345
f 353 346 345
f 345 352 353
f 348 349 342
f 341 348 342
f 334 332 342
f 342 332 341
f 361 349 348
f 348 360 361
f 375 374 378
f 378 379 375
f 269 274 270
f 273 274 269
f 269 263 261
f 270 263 269
f 260 269 261
f 268 269 260
f 180 226 225
f 179 180 225
f 225 224 178
f 178 179 225
f 228 182 229
f 182 183 229
f 425 422 421
f 426 422 425
f 421 420 425
f 420 424 425
f 448 447 452
f 452 453 448
f 448 443 447
f 444 443 448
f 448 445 444
f 449 445 448
f 454 453 457
f 454 457 458
f 454 448 453
f 449 448 454
f 24 25 23
f 23 6 20
f 23 25 6
f 20 21 23
f 23 21 22
f 23 22 440
f 440 450 23
f 438 439 435
f 434 438 435
f 427 423 422
f 427 422 426
f 434 435 427
f 427 426 434
f 285 286 281
f 281 280 285
f 368 369 364
f 364 363 368
f 339 346 347
f 347 340 339
f 343 351 344
f 343 350 351
f 343 342 349
f 349 350 343
f 343 344 337
f 337 336 343
f 334 342 343
f 343 336 334
f 367 368 362
f 368 363 362
f 252 240 239
f 239 251 252
f 184 229 183
f 230 229 184
f 433 425 424
f 433 424 432
f 426 425 433
f 434 426 433
f 436 437 433
f 433 432 436
f 437 438 433
f 433 438 434
f 24 23 459
f 459 23 450
f 288 283 282
f 282 287 288
f 282 286 287
f 282 281 286
f 282 283 275
f 275 274 282
f 282 274 273
f 273 281 282
f 329 336 337
f 337 330 329
f 329 327 334
f 334 336 329
f 325 327 321
f 321 320 325
f 327 329 321
f 321 329 322
f 313 312 321
f 321 312 320
f 321 314 313
f 321 322 314
f 323 330 331
f 323 331 324
f 323 329 330
f 322 329 323
f 316 315 323
f 324 316 323
f 323 315 314
f 314 322 323
f 370 371 365
f 365 371 366
f 365 364 369
f 365 369 370
f 344 345 338
f 337 344 338
f 338 345 346
f 346 339 338
f 338 330 337
f 331 330 338
f 333 326 324
f 324 331 333
f 333 338 339
f 331 338 333
f 328 326 333
f 333 335 328
f 333 339 340
f 340 335 333
f 393 396 397
f 397 394 393
f 394 390 393
f 390 389 393
f 385 389 390
f 385 390 386
f 386 381 385
f 381 380 385
f 375 379 376
f 379 380 376
f 376 380 381
f 376 381 377
f 376 369 375
f 370 369 376
f 376 371 370
f 377 371 376
f 268 260 258
f 266 268 258
f 258 264 266
f 256 264 258
f 258 252 251
f 251 256 258
f 261 254 253
f 253 260 261
f 253 258 260
f 252 258 253
f 358 365 366
f 366 359 358
f 364 365 358
f 358 357 364
f 358 354 353
f 358 359 354
f 353 352 358
f 352 357 358
f 351 350 356
f 356 350 355
f 356 352 351
f 356 357 352
f 356 362 363
f 355 362 356
f 363 364 356
f 364 357 356
f 396 393 392
f 395 396 392
f 392 393 389
f 392 389 388
f 387 392 388
f 391 392 387
f 384 385 380
f 384 380 379
f 379 378 384
f 378 383 384
f 389 385 384
f 388 389 384
f 384 387 388
f 383 387 384
