# generated by step_to_parts.py -- 62 verts, 120 tris
v -0.238811 -0.079442 0.098487
v -0.232018 -0.045107 0.098487
v -0.235051 -0.044778 0.098487
v -0.238094 -0.044981 0.098487
v -0.241057 -0.045709 0.098487
v -0.243848 -0.046940 0.098487
v -0.246382 -0.048638 0.098487
v -0.248584 -0.050749 0.098487
v -0.250385 -0.053211 0.098487
v -0.251731 -0.055949 0.098487
v -0.252582 -0.058878 0.098487
v -0.252911 -0.061911 0.098487
v -0.252708 -0.064954 0.098487
v -0.251980 -0.067917 0.098487
v -0.250749 -0.070708 0.098487
v -0.249051 -0.073242 0.098487
v -0.246940 -0.075444 0.098487
v -0.244478 -0.077245 0.098487
v -0.241741 -0.078591 0.098487
v -0.232018 -0.045107 0.075487
v -0.229089 -0.045958 0.075487
v -0.226351 -0.047304 0.075487
v -0.223889 -0.049106 0.075487
v -0.221778 -0.051307 0.075487
v -0.220080 -0.053842 0.075487
v -0.218849 -0.056632 0.075487
v -0.218121 -0.059595 0.075487
v -0.217918 -0.062638 0.075487
v -0.218247 -0.065671 0.075487
v -0.219098 -0.068601 0.075487
v -0.220444 -0.071338 0.075487
v -0.222246 -0.073800 0.075487
v -0.224447 -0.075911 0.075487
v -0.226982 -0.077609 0.075487
v -0.229772 -0.078840 0.075487
v -0.298234 -0.032006 0.095487
v -0.305028 -0.066341 0.095487
v -0.235778 -0.079771 0.098487
v -0.232735 -0.079568 0.098487
v -0.229772 -0.078840 0.098487
v -0.226982 -0.077609 0.098487
v -0.224447 -0.075911 0.098487
v -0.222246 -0.073800 0.098487
v -0.220444 -0.071338 0.098487
v -0.219098 -0.068601 0.098487
v -0.218247 -0.065671 0.098487
v -0.217918 -0.062638 0.098487
v -0.218121 -0.059595 0.098487
v -0.218849 -0.056632 0.098487
v -0.220080 -0.053842 0.098487
v -0.221778 -0.051307 0.098487
v -0.223889 -0.049106 0.098487
v -0.226351 -0.047304 0.098487
v -0.229089 -0.045958 0.098487
v -0.312284 -0.103020 0.025163
v -0.312284 -0.103020 -0.048283
v -0.304113 -0.061720 -0.048283
v -0.298234 -0.032006 -0.011560
v -0.286463 -0.034335 -0.011560
v -0.300513 -0.105349 0.025163
v -0.300513 -0.105349 -0.048283
v -0.292342 -0.064049 -0.048283
f 55 1 37
f 60 1 55
f 36 37 11
f 25 62 59
f 61 33 34
f 34 35 61
f 19 37 1
f 19 18 37
f 17 16 37
f 37 18 17
f 61 30 31
f 59 23 24
f 24 25 59
f 62 25 26
f 20 21 59
f 22 23 59
f 59 21 22
f 37 16 15
f 12 11 37
f 37 13 12
f 61 62 29
f 29 62 28
f 29 30 61
f 28 62 27
f 62 26 27
f 32 33 61
f 61 31 32
f 14 13 37
f 37 15 14
f 36 5 4
f 4 3 36
f 36 3 2
f 9 8 36
f 36 8 7
f 60 40 39
f 36 11 10
f 10 9 36
f 6 5 36
f 36 7 6
f 1 60 38
f 60 39 38
f 62 56 57
f 61 56 62
f 55 56 60
f 60 56 61
f 55 37 58
f 58 56 55
f 57 56 58
f 58 37 36
f 58 62 57
f 59 62 58
f 44 30 45
f 44 31 30
f 52 22 53
f 23 22 52
f 40 60 61
f 61 35 40
f 2 58 36
f 59 58 2
f 2 20 59
f 45 30 46
f 30 29 46
f 28 47 46
f 46 29 28
f 23 52 51
f 51 24 23
f 48 26 49
f 48 27 26
f 48 47 28
f 28 27 48
f 41 40 35
f 35 34 41
f 21 20 54
f 20 2 54
f 53 22 54
f 54 22 21
f 49 26 50
f 50 26 25
f 24 51 50
f 25 24 50
f 42 41 34
f 42 34 33
f 43 10 11
f 43 52 53
f 11 12 43
f 40 41 43
f 43 19 1
f 16 17 43
f 43 15 16
f 43 4 5
f 18 19 43
f 43 17 18
f 5 6 43
f 43 44 45
f 43 48 49
f 43 12 13
f 13 14 43
f 53 54 43
f 45 46 43
f 49 50 43
f 43 14 15
f 3 4 43
f 43 2 3
f 8 9 43
f 43 7 8
f 43 46 47
f 43 51 52
f 47 48 43
f 43 39 40
f 1 38 43
f 43 54 2
f 9 10 43
f 43 6 7
f 43 50 51
f 43 38 39
f 41 42 43
f 31 44 43
f 43 32 31
f 43 42 33
f 33 32 43
