# generated by step_to_parts.py -- 62 verts, 120 tris
v 0.084780 -0.079644 0.098487
v 0.081731 -0.079751 0.098487
v 0.078710 -0.079326 0.098487
v 0.075809 -0.078383 0.098487
v 0.073116 -0.076951 0.098487
v 0.070712 -0.075073 0.098487
v 0.068671 -0.072806 0.098487
v 0.067054 -0.070219 0.098487
v 0.065912 -0.067391 0.098487
v 0.065277 -0.064407 0.098487
v 0.065171 -0.061359 0.098487
v 0.065595 -0.058338 0.098487
v 0.066538 -0.055437 0.098487
v 0.067970 -0.052743 0.098487
v 0.069848 -0.050340 0.098487
v 0.072115 -0.048298 0.098487
v 0.074702 -0.046682 0.098487
v 0.077530 -0.045539 0.098487
v 0.080514 -0.044905 0.098487
v 0.080514 -0.044905 0.075487
v 0.077530 -0.045539 0.075487
v 0.074702 -0.046682 0.075487
v 0.072115 -0.048298 0.075487
v 0.069848 -0.050340 0.075487
v 0.067970 -0.052743 0.075487
v 0.066538 -0.055437 0.075487
v 0.065595 -0.058338 0.075487
v 0.065171 -0.061359 0.075487
v 0.065277 -0.064407 0.075487
v 0.065912 -0.067391 0.075487
v 0.067054 -0.070219 0.075487
v 0.068671 -0.072806 0.075487
v 0.070712 -0.075073 0.075487
v 0.073116 -0.076951 0.075487
v 0.075809 -0.078383 0.075487
v 0.151776 -0.071418 0.095487
v 0.147511 -0.036679 0.095487
v 0.083563 -0.044799 0.098487
v 0.086584 -0.045223 0.098487
v 0.089485 -0.046166 0.098487
v 0.092178 -0.047598 0.098487
v 0.094582 -0.049476 0.098487
v 0.096623 -0.051743 0.098487
v 0.098240 -0.054330 0.098487
v 0.099382 -0.057158 0.098487
v 0.100016 -0.060142 0.098487
v 0.100123 -0.063190 0.098487
v 0.099698 -0.066211 0.098487
v 0.098756 -0.069112 0.098487
v 0.097324 -0.071806 0.098487
v 0.095446 -0.074210 0.098487
v 0.093179 -0.076251 0.098487
v 0.090592 -0.077867 0.098487
v 0.087763 -0.079010 0.098487
v 0.147511 -0.036679 -0.011560
v 0.151202 -0.066743 -0.048283
v 0.156333 -0.108529 -0.048283
v 0.156333 -0.108529 0.025163
v 0.135600 -0.038141 -0.011560
v 0.144423 -0.109992 0.025163
v 0.144423 -0.109992 -0.048283
v 0.139292 -0.068205 -0.048283
f 29 62 61
f 46 36 37
f 61 32 31
f 33 32 61
f 58 36 1
f 1 60 58
f 27 26 62
f 19 38 37
f 29 61 30
f 61 31 30
f 34 61 35
f 34 33 61
f 60 1 2
f 62 26 25
f 25 59 62
f 25 24 59
f 28 62 29
f 28 27 62
f 36 46 47
f 47 48 36
f 50 51 36
f 3 4 60
f 60 2 3
f 36 51 52
f 52 53 36
f 54 1 36
f 36 53 54
f 59 21 20
f 22 21 59
f 45 46 37
f 37 44 45
f 37 42 43
f 43 44 37
f 37 38 39
f 39 40 37
f 41 42 37
f 37 40 41
f 36 48 49
f 49 50 36
f 59 24 23
f 23 22 59
f 61 56 57
f 61 62 56
f 57 58 60
f 60 61 57
f 37 36 55
f 57 56 55
f 55 58 57
f 55 36 58
f 56 62 55
f 62 59 55
f 61 60 4
f 35 61 4
f 9 10 30
f 30 10 29
f 8 32 7
f 8 31 32
f 9 30 8
f 8 30 31
f 28 10 11
f 29 10 28
f 35 4 5
f 5 34 35
f 37 55 20
f 20 55 59
f 20 19 37
f 7 32 6
f 32 33 6
f 34 5 6
f 33 34 6
f 12 28 11
f 27 28 12
f 26 27 12
f 12 13 26
f 24 25 14
f 14 15 24
f 26 13 14
f 14 25 26
f 18 20 21
f 19 20 18
f 21 22 18
f 22 17 18
f 16 49 48
f 4 3 16
f 11 10 16
f 42 41 16
f 16 43 42
f 51 50 16
f 16 8 7
f 16 10 9
f 1 54 16
f 38 19 16
f 16 47 46
f 9 8 16
f 16 2 1
f 16 52 51
f 46 45 16
f 16 39 38
f 7 6 16
f 48 47 16
f 15 14 16
f 16 5 4
f 16 3 2
f 53 52 16
f 16 54 53
f 16 45 44
f 44 43 16
f 40 39 16
f 16 41 40
f 16 12 11
f 50 49 16
f 16 6 5
f 19 18 16
f 13 12 16
f 16 14 13
f 16 18 17
f 24 15 16
f 16 23 24
f 16 17 22
f 22 23 16
