# generated by step_to_parts.py -- 248 verts, 492 tris
v -0.221739 -0.030057 0.148737
v -0.224720 -0.028948 0.148737
v -0.227789 -0.028115 0.148737
v -0.230922 -0.027564 0.148737
v -0.221544 -0.029597 0.148237
v -0.230988 -0.027052 0.148237
v -0.227766 -0.027608 0.148237
v -0.224609 -0.028459 0.148237
v -0.249090 -0.094492 0.148737
v -0.243288 -0.096378 0.148737
v -0.237246 -0.097227 0.148737
v -0.231149 -0.097014 0.148737
v -0.225182 -0.095745 0.148737
v -0.219525 -0.093460 0.148737
v -0.214351 -0.090227 0.148737
v -0.209817 -0.086145 0.148737
v -0.206061 -0.081337 0.148737
v -0.203197 -0.075950 0.148737
v -0.201312 -0.070148 0.148737
v -0.200462 -0.064106 0.148737
v -0.200675 -0.058009 0.148737
v -0.201944 -0.052042 0.148737
v -0.204229 -0.046385 0.148737
v -0.207462 -0.041211 0.148737
v -0.211545 -0.036677 0.148737
v -0.216352 -0.032921 0.148737
v -0.249286 -0.094953 0.148237
v -0.243400 -0.096865 0.148237
v -0.237272 -0.097726 0.148237
v -0.231088 -0.097510 0.148237
v -0.225035 -0.096223 0.148237
v -0.219298 -0.093905 0.148237
v -0.214050 -0.090626 0.148237
v -0.209452 -0.086486 0.148237
v -0.205642 -0.081609 0.148237
v -0.202737 -0.076146 0.148237
v -0.200824 -0.070260 0.148237
v -0.199963 -0.064133 0.148237
v -0.200179 -0.057948 0.148237
v -0.201466 -0.051895 0.148237
v -0.203784 -0.046158 0.148237
v -0.207063 -0.040910 0.148237
v -0.211204 -0.036312 0.148237
v -0.216080 -0.032502 0.148237
v -0.241276 -0.076082 0.098487
v -0.243584 -0.074855 0.098487
v -0.245645 -0.073245 0.098487
v -0.247394 -0.071302 0.098487
v -0.248780 -0.069084 0.098487
v -0.249759 -0.066660 0.098487
v -0.250303 -0.064103 0.098487
v -0.250394 -0.061490 0.098487
v -0.250030 -0.058900 0.098487
v -0.249222 -0.056414 0.098487
v -0.247995 -0.054105 0.098487
v -0.246385 -0.052045 0.098487
v -0.244442 -0.050295 0.098487
v -0.242224 -0.048909 0.098487
v -0.239800 -0.047930 0.098487
v -0.237243 -0.047386 0.098487
v -0.234630 -0.047295 0.098487
v -0.232040 -0.047659 0.098487
v -0.229554 -0.048467 0.098487
v -0.238789 -0.076890 0.098487
v -0.236200 -0.077254 0.098487
v -0.233587 -0.077163 0.098487
v -0.231029 -0.076619 0.098487
v -0.228605 -0.075640 0.098487
v -0.226387 -0.074254 0.098487
v -0.224444 -0.072505 0.098487
v -0.222834 -0.070444 0.098487
v -0.221607 -0.068136 0.098487
v -0.220799 -0.065649 0.098487
v -0.220435 -0.063060 0.098487
v -0.220526 -0.060447 0.098487
v -0.221070 -0.057889 0.098487
v -0.222049 -0.055465 0.098487
v -0.223435 -0.053247 0.098487
v -0.225185 -0.051304 0.098487
v -0.227245 -0.049695 0.098487
v -0.249676 -0.095873 0.098987
v -0.243625 -0.097839 0.098987
v -0.237325 -0.098724 0.098987
v -0.230966 -0.098502 0.098987
v -0.224743 -0.097179 0.098987
v -0.218844 -0.094796 0.098987
v -0.213448 -0.091425 0.098987
v -0.208720 -0.087167 0.098987
v -0.204803 -0.082154 0.098987
v -0.201816 -0.076536 0.098987
v -0.199850 -0.070485 0.098987
v -0.198965 -0.064185 0.098987
v -0.199187 -0.057826 0.098987
v -0.200510 -0.051603 0.098987
v -0.202893 -0.045704 0.098987
v -0.206265 -0.040309 0.098987
v -0.210522 -0.035580 0.098987
v -0.215535 -0.031663 0.098987
v -0.221153 -0.028676 0.098987
v -0.255294 -0.092886 0.098987
v -0.260307 -0.088969 0.098987
v -0.264565 -0.084241 0.098987
v -0.267936 -0.078845 0.098987
v -0.270319 -0.072946 0.098987
v -0.271642 -0.066723 0.098987
v -0.271864 -0.060364 0.098987
v -0.270979 -0.054064 0.098987
v -0.269013 -0.048013 0.098987
v -0.266026 -0.042395 0.098987
v -0.262109 -0.037382 0.098987
v -0.257381 -0.033125 0.098987
v -0.251985 -0.029753 0.098987
v -0.246086 -0.027370 0.098987
v -0.239863 -0.026047 0.098987
v -0.233504 -0.025825 0.098987
v -0.227204 -0.026710 0.098987
v -0.252646 -0.102869 0.104487
v -0.245335 -0.105244 0.104487
v -0.237723 -0.106314 0.104487
v -0.230040 -0.106046 0.104487
v -0.222521 -0.104447 0.104487
v -0.215394 -0.101568 0.104487
v -0.208875 -0.097494 0.104487
v -0.203162 -0.092350 0.104487
v -0.198429 -0.086293 0.104487
v -0.194821 -0.079506 0.104487
v -0.192445 -0.072195 0.104487
v -0.191375 -0.064583 0.104487
v -0.191644 -0.056900 0.104487
v -0.193242 -0.049381 0.104487
v -0.196121 -0.042254 0.104487
v -0.200195 -0.035735 0.104487
v -0.205339 -0.030022 0.104487
v -0.211396 -0.025289 0.104487
v -0.218183 -0.021681 0.104487
v -0.259433 -0.099260 0.104487
v -0.265490 -0.094527 0.104487
v -0.270634 -0.088814 0.104487
v -0.274708 -0.082295 0.104487
v -0.277587 -0.075168 0.104487
v -0.279186 -0.067649 0.104487
v -0.279454 -0.059967 0.104487
v -0.278384 -0.052354 0.104487
v -0.276009 -0.045043 0.104487
v -0.272400 -0.038256 0.104487
v -0.267667 -0.032199 0.104487
v -0.261954 -0.027055 0.104487
v -0.255435 -0.022981 0.104487
v -0.248308 -0.020102 0.104487
v -0.240789 -0.018504 0.104487
v -0.233107 -0.018235 0.104487
v -0.225494 -0.019305 0.104487
v -0.218027 -0.021312 0.104887
v -0.252802 -0.103237 0.104887
v -0.245425 -0.105634 0.104887
v -0.237744 -0.106714 0.104887
v -0.229991 -0.106443 0.104887
v -0.222404 -0.104830 0.104887
v -0.215212 -0.101924 0.104887
v -0.208634 -0.097814 0.104887
v -0.202869 -0.092624 0.104887
v -0.198094 -0.086511 0.104887
v -0.194452 -0.079662 0.104887
v -0.192055 -0.072285 0.104887
v -0.190976 -0.064604 0.104887
v -0.191246 -0.056851 0.104887
v -0.192859 -0.049264 0.104887
v -0.195765 -0.042072 0.104887
v -0.199875 -0.035494 0.104887
v -0.205066 -0.029729 0.104887
v -0.211178 -0.024954 0.104887
v -0.259651 -0.099595 0.104887
v -0.265763 -0.094820 0.104887
v -0.270954 -0.089055 0.104887
v -0.275064 -0.082477 0.104887
v -0.277970 -0.075285 0.104887
v -0.279583 -0.067698 0.104887
v -0.279854 -0.059946 0.104887
v -0.278774 -0.052264 0.104887
v -0.276377 -0.044887 0.104887
v -0.272735 -0.038038 0.104887
v -0.267960 -0.031926 0.104887
v -0.262195 -0.026735 0.104887
v -0.255617 -0.022625 0.104887
v -0.248425 -0.019719 0.104887
v -0.240838 -0.018106 0.104887
v -0.233086 -0.017836 0.104887
v -0.225404 -0.018915 0.104887
v -0.252802 -0.103237 0.137037
v -0.259651 -0.099595 0.137037
v -0.265763 -0.094820 0.137037
v -0.270954 -0.089055 0.137037
v -0.275064 -0.082477 0.137037
v -0.277970 -0.075285 0.137037
v -0.279583 -0.067698 0.137037
v -0.279854 -0.059946 0.137037
v -0.278774 -0.052264 0.137037
v -0.276377 -0.044887 0.137037
v -0.272735 -0.038038 0.137037
v -0.267960 -0.031926 0.137037
v -0.262195 -0.026735 0.137037
v -0.255617 -0.022625 0.137037
v -0.248425 -0.019719 0.137037
v -0.240838 -0.018106 0.137037
v -0.233086 -0.017836 0.137037
v -0.225404 -0.018915 0.137037
v -0.218027 -0.021312 0.137037
v -0.245425 -0.105634 0.137037
v -0.237744 -0.106714 0.137037
v -0.229991 -0.106443 0.137037
v -0.222404 -0.104830 0.137037
v -0.215212 -0.101924 0.137037
v -0.208634 -0.097814 0.137037
v -0.202869 -0.092624 0.137037
v -0.198094 -0.086511 0.137037
v -0.194452 -0.079662 0.137037
v -0.192055 -0.072285 0.137037
v -0.190976 -0.064604 0.137037
v -0.191246 -0.056851 0.137037
v -0.192859 -0.049264 0.137037
v -0.195765 -0.042072 0.137037
v -0.199875 -0.035494 0.137037
v -0.205066 -0.029729 0.137037
v -0.211178 -0.024954 0.137037
v -0.255390 -0.023070 0.137537
v -0.248279 -0.020197 0.137537
v -0.263067 -0.040012 0.148237
v -0.254552 -0.092174 0.148237
v -0.259280 -0.088555 0.148237
v -0.263337 -0.084197 0.148237
v -0.266609 -0.079221 0.148237
v -0.269002 -0.073769 0.148237
v -0.270451 -0.067994 0.148237
v -0.270914 -0.062057 0.148237
v -0.270378 -0.056127 0.148237
v -0.268859 -0.050369 0.148237
v -0.266399 -0.044947 0.148237
v -0.262758 -0.040427 0.148737
v -0.266020 -0.045294 0.148737
v -0.268423 -0.050637 0.148737
v -0.269902 -0.056306 0.148737
v -0.270414 -0.062143 0.148737
v -0.269946 -0.067983 0.148737
v -0.268510 -0.073663 0.148737
v -0.266147 -0.079024 0.148737
v -0.262922 -0.083916 0.148737
v -0.258927 -0.088201 0.148737
v -0.254273 -0.091760 0.148737
f 196 195 234
f 199 198 237
f 237 198 236
f 205 204 6
f 6 206 205
f 231 244 232
f 228 190 189
f 193 232 194
f 193 231 232
f 227 201 200
f 227 200 199
f 202 201 227
f 199 237 227
f 227 237 238
f 238 225 227
f 227 225 202
f 4 6 226
f 232 244 243
f 196 234 235
f 235 240 236
f 238 237 239
f 236 240 239
f 239 237 236
f 207 206 8
f 8 5 207
f 244 231 245
f 245 230 246
f 245 231 230
f 246 230 229
f 230 191 229
f 229 191 190
f 190 228 229
f 27 228 189
f 27 248 228
f 192 191 230
f 230 231 192
f 231 193 192
f 203 6 204
f 203 226 6
f 233 243 242
f 242 234 233
f 233 234 195
f 233 195 194
f 194 232 233
f 232 243 233
f 196 235 197
f 236 198 197
f 197 235 236
f 240 235 241
f 241 234 242
f 241 235 234
f 246 229 247
f 228 248 247
f 247 229 228
f 248 27 9
f 8 3 2
f 1 5 2
f 5 8 2
f 4 3 7
f 7 6 4
f 206 6 7
f 7 8 206
f 7 3 8
f 178 177 195
f 195 196 178
f 129 130 166
f 166 130 167
f 87 88 123
f 123 88 124
f 87 123 86
f 86 123 122
f 190 172 154
f 190 154 189
f 176 195 177
f 194 195 176
f 141 176 177
f 140 176 141
f 220 166 167
f 219 166 220
f 188 187 206
f 206 187 205
f 82 117 81
f 118 117 82
f 155 117 118
f 154 117 155
f 98 99 135
f 135 134 98
f 93 130 129
f 94 130 93
f 222 169 223
f 223 169 170
f 170 171 223
f 223 171 224
f 179 143 142
f 178 179 142
f 142 177 178
f 142 141 177
f 172 190 191
f 173 172 191
f 102 101 138
f 138 101 137
f 138 137 173
f 173 174 138
f 219 220 40
f 40 39 219
f 238 4 226
f 226 225 238
f 154 172 136
f 136 117 154
f 136 172 173
f 173 137 136
f 189 154 208
f 154 155 208
f 208 155 156
f 156 209 208
f 158 121 159
f 159 121 122
f 159 211 158
f 212 211 159
f 133 171 170
f 134 171 133
f 133 97 98
f 98 134 133
f 99 116 152
f 152 135 99
f 188 206 153
f 153 206 207
f 135 152 153
f 153 152 188
f 224 171 153
f 207 224 153
f 134 135 153
f 153 171 134
f 91 126 90
f 91 127 126
f 128 91 92
f 127 91 128
f 129 166 128
f 128 166 165
f 92 93 128
f 128 93 129
f 127 128 164
f 164 128 165
f 90 126 89
f 126 125 89
f 124 88 89
f 89 125 124
f 126 127 163
f 127 164 163
f 124 125 162
f 162 161 124
f 162 125 126
f 126 163 162
f 131 130 94
f 94 95 131
f 160 123 124
f 124 161 160
f 122 123 160
f 160 159 122
f 183 201 202
f 183 202 184
f 200 201 183
f 183 182 200
f 175 138 174
f 139 138 175
f 175 176 140
f 140 139 175
f 194 176 175
f 175 193 194
f 173 191 192
f 192 174 173
f 192 175 174
f 193 175 192
f 141 142 106
f 106 105 141
f 102 138 103
f 103 138 139
f 20 37 38
f 19 37 20
f 39 21 20
f 20 38 39
f 39 40 22
f 22 21 39
f 225 226 203
f 202 225 203
f 178 196 197
f 197 179 178
f 197 180 179
f 198 180 197
f 81 117 100
f 117 136 100
f 137 101 100
f 100 136 137
f 119 83 84
f 84 120 119
f 119 155 118
f 156 155 119
f 118 82 119
f 82 83 119
f 85 120 84
f 85 121 120
f 85 86 122
f 122 121 85
f 157 121 158
f 120 121 157
f 157 119 120
f 156 119 157
f 213 160 161
f 213 161 214
f 212 159 213
f 159 160 213
f 96 97 132
f 97 133 132
f 170 169 132
f 132 133 170
f 132 95 96
f 132 131 95
f 168 220 167
f 168 221 220
f 167 130 168
f 130 131 168
f 168 169 222
f 222 221 168
f 168 132 169
f 131 132 168
f 23 22 41
f 41 22 40
f 41 40 220
f 220 221 41
f 44 224 207
f 207 5 44
f 44 223 224
f 44 43 223
f 115 114 151
f 151 114 150
f 151 116 115
f 151 152 116
f 151 187 188
f 188 152 151
f 113 112 149
f 149 112 148
f 149 114 113
f 150 114 149
f 200 182 181
f 199 200 181
f 181 180 198
f 181 198 199
f 147 112 111
f 148 112 147
f 147 183 184
f 184 148 147
f 189 208 28
f 28 27 189
f 28 208 209
f 209 29 28
f 27 28 9
f 9 28 10
f 107 142 143
f 107 106 142
f 140 141 104
f 141 105 104
f 104 139 140
f 104 103 139
f 217 37 36
f 217 36 216
f 217 163 164
f 216 163 217
f 18 37 19
f 36 37 18
f 34 213 214
f 33 213 34
f 161 162 215
f 214 161 215
f 215 162 163
f 215 163 216
f 11 28 29
f 10 28 11
f 210 209 156
f 156 157 210
f 158 211 210
f 210 157 158
f 33 34 15
f 15 34 16
f 212 213 32
f 32 213 33
f 32 15 14
f 33 15 32
f 42 221 222
f 42 41 221
f 42 24 23
f 23 41 42
f 222 223 42
f 223 43 42
f 26 44 5
f 26 5 1
f 205 187 186
f 186 204 205
f 186 151 150
f 187 151 186
f 108 107 144
f 144 107 143
f 144 143 179
f 179 180 144
f 182 183 146
f 183 147 146
f 111 110 146
f 146 147 111
f 219 39 218
f 39 38 218
f 38 37 218
f 37 217 218
f 218 166 219
f 165 166 218
f 218 164 165
f 218 217 164
f 35 17 16
f 16 34 35
f 35 34 214
f 214 215 35
f 35 18 17
f 36 18 35
f 216 36 35
f 35 215 216
f 12 11 30
f 30 11 29
f 30 29 209
f 209 210 30
f 25 4 238
f 25 245 246
f 25 241 242
f 25 15 16
f 242 243 25
f 238 239 25
f 13 14 25
f 25 9 10
f 25 26 1
f 25 22 23
f 25 12 13
f 19 20 25
f 25 243 244
f 25 239 240
f 23 24 25
f 244 245 25
f 246 247 25
f 25 20 21
f 21 22 25
f 240 241 25
f 16 17 25
f 25 18 19
f 10 11 25
f 25 3 4
f 25 247 248
f 248 9 25
f 17 18 25
f 25 11 12
f 14 15 25
f 1 2 25
f 25 2 3
f 25 42 43
f 24 42 25
f 43 44 25
f 44 26 25
f 204 186 185
f 185 203 204
f 150 149 185
f 185 186 150
f 184 202 185
f 202 203 185
f 185 149 148
f 185 148 184
f 108 144 145
f 145 109 108
f 180 181 145
f 145 144 180
f 145 146 110
f 145 110 109
f 145 181 182
f 182 146 145
f 13 12 31
f 12 30 31
f 31 210 211
f 31 30 210
f 31 14 13
f 31 32 14
f 31 211 212
f 212 32 31
f 94 93 76
f 93 75 76
f 50 104 105
f 105 51 50
f 77 95 94
f 94 76 77
f 74 93 92
f 74 75 93
f 92 91 74
f 91 73 74
f 103 104 49
f 104 50 49
f 105 106 52
f 52 51 105
f 106 107 52
f 107 53 52
f 54 107 108
f 54 53 107
f 72 91 90
f 72 73 91
f 90 89 72
f 89 71 72
f 102 103 48
f 103 49 48
f 108 109 55
f 55 54 108
f 96 95 78
f 95 77 78
f 78 97 96
f 78 79 97
f 70 89 88
f 70 71 89
f 70 88 87
f 87 69 70
f 87 86 68
f 68 69 87
f 47 101 102
f 102 48 47
f 98 97 80
f 97 79 80
f 80 99 98
f 80 63 99
f 86 85 67
f 67 68 86
f 81 100 46
f 46 45 81
f 46 100 101
f 101 47 46
f 62 116 99
f 99 63 62
f 115 116 62
f 62 61 115
f 66 85 84
f 66 67 85
f 60 114 115
f 115 61 60
f 113 114 60
f 60 59 113
f 58 112 113
f 113 59 58
f 84 83 65
f 65 66 84
f 111 112 57
f 112 58 57
f 64 82 81
f 81 45 64
f 64 83 82
f 64 65 83
f 56 50 51
f 56 76 75
f 75 74 56
f 56 77 76
f 73 72 56
f 56 49 50
f 51 52 56
f 56 74 73
f 54 55 56
f 71 70 56
f 56 52 53
f 53 54 56
f 56 48 49
f 56 72 71
f 68 67 56
f 69 68 56
f 56 78 77
f 79 78 56
f 56 80 79
f 56 70 69
f 56 62 63
f 56 47 48
f 63 80 56
f 45 46 56
f 56 60 61
f 56 46 47
f 61 62 56
f 67 66 56
f 56 58 59
f 59 60 56
f 56 64 45
f 66 65 56
f 56 57 58
f 65 64 56
f 109 110 56
f 56 55 109
f 56 110 111
f 111 57 56
