# generated by step_to_parts.py -- 248 verts, 492 tris
v 0.078381 -0.027535 0.148737
v 0.075246 -0.028066 0.148737
v 0.072171 -0.028879 0.148737
v 0.069182 -0.029968 0.148737
v 0.078321 -0.027039 0.148237
v 0.068869 -0.029557 0.148237
v 0.071937 -0.028428 0.148237
v 0.075097 -0.027587 0.148237
v 0.086912 -0.097014 0.148737
v 0.092880 -0.095745 0.148737
v 0.098537 -0.093460 0.148737
v 0.103710 -0.090227 0.148737
v 0.108244 -0.086145 0.148737
v 0.112000 -0.081337 0.148737
v 0.114865 -0.075950 0.148737
v 0.116750 -0.070148 0.148737
v 0.117599 -0.064106 0.148737
v 0.117386 -0.058009 0.148737
v 0.116118 -0.052042 0.148737
v 0.113832 -0.046385 0.148737
v 0.110599 -0.041211 0.148737
v 0.106517 -0.036677 0.148737
v 0.101709 -0.032921 0.148737
v 0.096323 -0.030057 0.148737
v 0.090520 -0.028172 0.148737
v 0.084479 -0.027323 0.148737
v 0.086973 -0.097510 0.148237
v 0.093026 -0.096223 0.148237
v 0.098764 -0.093905 0.148237
v 0.104011 -0.090626 0.148237
v 0.108610 -0.086486 0.148237
v 0.112420 -0.081609 0.148237
v 0.115325 -0.076146 0.148237
v 0.117237 -0.070260 0.148237
v 0.118098 -0.064133 0.148237
v 0.117882 -0.057948 0.148237
v 0.116596 -0.051895 0.148237
v 0.114278 -0.046158 0.148237
v 0.110998 -0.040910 0.148237
v 0.106858 -0.036312 0.148237
v 0.101982 -0.032502 0.148237
v 0.096518 -0.029597 0.148237
v 0.090633 -0.027684 0.148237
v 0.084505 -0.026823 0.148237
v 0.084475 -0.077163 0.098487
v 0.081862 -0.077254 0.098487
v 0.079273 -0.076890 0.098487
v 0.076786 -0.076082 0.098487
v 0.074477 -0.074855 0.098487
v 0.072417 -0.073245 0.098487
v 0.070667 -0.071302 0.098487
v 0.069282 -0.069084 0.098487
v 0.068302 -0.066660 0.098487
v 0.067759 -0.064103 0.098487
v 0.067667 -0.061490 0.098487
v 0.068031 -0.058900 0.098487
v 0.068839 -0.056414 0.098487
v 0.070067 -0.054105 0.098487
v 0.071677 -0.052045 0.098487
v 0.073620 -0.050295 0.098487
v 0.075837 -0.048909 0.098487
v 0.078261 -0.047930 0.098487
v 0.080819 -0.047386 0.098487
v 0.087032 -0.076619 0.098487
v 0.089457 -0.075640 0.098487
v 0.091674 -0.074254 0.098487
v 0.093617 -0.072505 0.098487
v 0.095227 -0.070444 0.098487
v 0.096454 -0.068136 0.098487
v 0.097262 -0.065649 0.098487
v 0.097626 -0.063060 0.098487
v 0.097535 -0.060447 0.098487
v 0.096991 -0.057889 0.098487
v 0.096012 -0.055465 0.098487
v 0.094626 -0.053247 0.098487
v 0.092877 -0.051304 0.098487
v 0.090816 -0.049695 0.098487
v 0.088508 -0.048467 0.098487
v 0.086021 -0.047659 0.098487
v 0.083432 -0.047295 0.098487
v 0.087095 -0.098502 0.098987
v 0.093318 -0.097179 0.098987
v 0.099217 -0.094796 0.098987
v 0.104613 -0.091425 0.098987
v 0.109341 -0.087167 0.098987
v 0.113258 -0.082154 0.098987
v 0.116245 -0.076536 0.098987
v 0.118211 -0.070485 0.098987
v 0.119097 -0.064185 0.098987
v 0.118875 -0.057826 0.098987
v 0.117552 -0.051603 0.098987
v 0.115168 -0.045704 0.098987
v 0.111797 -0.040309 0.098987
v 0.107540 -0.035580 0.098987
v 0.102526 -0.031663 0.098987
v 0.096908 -0.028676 0.098987
v 0.090858 -0.026710 0.098987
v 0.084557 -0.025825 0.098987
v 0.078199 -0.026047 0.098987
v 0.080737 -0.098724 0.098987
v 0.074436 -0.097839 0.098987
v 0.068385 -0.095873 0.098987
v 0.062768 -0.092886 0.098987
v 0.057754 -0.088969 0.098987
v 0.053497 -0.084241 0.098987
v 0.050125 -0.078845 0.098987
v 0.047742 -0.072946 0.098987
v 0.046419 -0.066723 0.098987
v 0.046197 -0.060364 0.098987
v 0.047083 -0.054064 0.098987
v 0.049049 -0.048013 0.098987
v 0.052036 -0.042395 0.098987
v 0.055953 -0.037382 0.098987
v 0.060681 -0.033125 0.098987
v 0.066076 -0.029753 0.098987
v 0.071975 -0.027370 0.098987
v 0.088021 -0.106046 0.104487
v 0.095540 -0.104447 0.104487
v 0.102668 -0.101568 0.104487
v 0.109187 -0.097494 0.104487
v 0.114899 -0.092350 0.104487
v 0.119632 -0.086293 0.104487
v 0.123241 -0.079506 0.104487
v 0.125616 -0.072195 0.104487
v 0.126686 -0.064583 0.104487
v 0.126418 -0.056900 0.104487
v 0.124820 -0.049381 0.104487
v 0.121940 -0.042254 0.104487
v 0.117866 -0.035735 0.104487
v 0.112723 -0.030022 0.104487
v 0.106665 -0.025289 0.104487
v 0.099878 -0.021681 0.104487
v 0.092567 -0.019305 0.104487
v 0.084955 -0.018235 0.104487
v 0.077273 -0.018504 0.104487
v 0.080339 -0.106314 0.104487
v 0.072727 -0.105244 0.104487
v 0.065416 -0.102869 0.104487
v 0.058628 -0.099260 0.104487
v 0.052571 -0.094527 0.104487
v 0.047427 -0.088814 0.104487
v 0.043354 -0.082295 0.104487
v 0.040474 -0.075168 0.104487
v 0.038876 -0.067649 0.104487
v 0.038608 -0.059967 0.104487
v 0.039677 -0.052354 0.104487
v 0.042053 -0.045043 0.104487
v 0.045662 -0.038256 0.104487
v 0.050394 -0.032199 0.104487
v 0.056107 -0.027055 0.104487
v 0.062626 -0.022981 0.104487
v 0.069753 -0.020102 0.104487
v 0.077224 -0.018106 0.104887
v 0.088070 -0.106443 0.104887
v 0.095657 -0.104830 0.104887
v 0.102849 -0.101924 0.104887
v 0.109428 -0.097814 0.104887
v 0.115192 -0.092624 0.104887
v 0.119968 -0.086511 0.104887
v 0.123609 -0.079662 0.104887
v 0.126006 -0.072285 0.104887
v 0.127086 -0.064604 0.104887
v 0.126815 -0.056851 0.104887
v 0.125202 -0.049264 0.104887
v 0.122297 -0.042072 0.104887
v 0.118186 -0.035494 0.104887
v 0.112996 -0.029729 0.104887
v 0.106883 -0.024954 0.104887
v 0.100034 -0.021312 0.104887
v 0.092657 -0.018915 0.104887
v 0.084976 -0.017836 0.104887
v 0.080318 -0.106714 0.104887
v 0.072637 -0.105634 0.104887
v 0.065259 -0.103237 0.104887
v 0.058410 -0.099595 0.104887
v 0.052298 -0.094820 0.104887
v 0.047108 -0.089055 0.104887
v 0.042997 -0.082477 0.104887
v 0.040091 -0.075285 0.104887
v 0.038479 -0.067698 0.104887
v 0.038208 -0.059946 0.104887
v 0.039287 -0.052264 0.104887
v 0.041684 -0.044887 0.104887
v 0.045326 -0.038038 0.104887
v 0.050102 -0.031926 0.104887
v 0.055866 -0.026735 0.104887
v 0.062444 -0.022625 0.104887
v 0.069636 -0.019719 0.104887
v 0.088070 -0.106443 0.137037
v 0.080318 -0.106714 0.137037
v 0.072637 -0.105634 0.137037
v 0.065259 -0.103237 0.137037
v 0.058410 -0.099595 0.137037
v 0.052298 -0.094820 0.137037
v 0.047108 -0.089055 0.137037
v 0.042997 -0.082477 0.137037
v 0.040091 -0.075285 0.137037
v 0.038479 -0.067698 0.137037
v 0.038208 -0.059946 0.137037
v 0.039287 -0.052264 0.137037
v 0.041684 -0.044887 0.137037
v 0.045326 -0.038038 0.137037
v 0.050102 -0.031926 0.137037
v 0.055866 -0.026735 0.137037
v 0.062444 -0.022625 0.137037
v 0.069636 -0.019719 0.137037
v 0.077224 -0.018106 0.137037
v 0.095657 -0.104830 0.137037
v 0.102849 -0.101924 0.137037
v 0.109428 -0.097814 0.137037
v 0.115192 -0.092624 0.137037
v 0.119968 -0.086511 0.137037
v 0.123609 -0.079662 0.137037
v 0.126006 -0.072285 0.137037
v 0.127086 -0.064604 0.137037
v 0.126815 -0.056851 0.137037
v 0.125202 -0.049264 0.137037
v 0.122297 -0.042072 0.137037
v 0.118186 -0.035494 0.137037
v 0.112996 -0.029729 0.137037
v 0.106883 -0.024954 0.137037
v 0.100034 -0.021312 0.137037
v 0.092657 -0.018915 0.137037
v 0.084976 -0.017836 0.137037
v 0.045745 -0.038310 0.137537
v 0.050467 -0.032267 0.137537
v 0.047568 -0.056821 0.148237
v 0.081023 -0.097737 0.148237
v 0.075119 -0.096967 0.148237
v 0.069426 -0.095221 0.148237
v 0.064105 -0.092548 0.148237
v 0.059306 -0.089023 0.148237
v 0.055164 -0.084745 0.148237
v 0.051795 -0.079836 0.148237
v 0.049294 -0.074432 0.148237
v 0.047731 -0.068687 0.148237
v 0.047150 -0.062761 0.148237
v 0.048043 -0.057026 0.148737
v 0.047652 -0.062872 0.148737
v 0.048242 -0.068701 0.148737
v 0.049796 -0.074350 0.148737
v 0.052270 -0.079660 0.148737
v 0.055596 -0.084484 0.148737
v 0.059680 -0.088685 0.148737
v 0.064407 -0.092146 0.148737
v 0.069645 -0.094770 0.148737
v 0.075248 -0.096484 0.148737
v 0.081058 -0.097239 0.148737
f 205 204 6
f 4 6 226
f 231 193 192
f 195 194 233
f 233 234 195
f 242 233 243
f 242 234 233
f 201 200 227
f 202 201 227
f 227 200 199
f 238 225 227
f 227 225 202
f 199 237 227
f 227 237 238
f 203 6 204
f 203 226 6
f 7 6 4
f 243 233 232
f 233 194 232
f 194 193 232
f 193 231 232
f 230 231 192
f 192 191 230
f 230 245 231
f 196 195 234
f 235 197 196
f 196 234 235
f 238 237 239
f 240 239 236
f 236 239 237
f 235 240 236
f 236 197 235
f 241 240 235
f 235 234 241
f 234 242 241
f 189 228 190
f 27 228 189
f 27 9 248
f 248 228 27
f 247 228 248
f 205 6 206
f 6 7 206
f 3 7 4
f 243 232 244
f 231 245 244
f 244 232 231
f 229 230 191
f 229 228 247
f 229 191 190
f 190 228 229
f 245 230 246
f 246 229 247
f 230 229 246
f 197 236 198
f 198 237 199
f 198 236 237
f 7 3 8
f 8 206 7
f 8 207 206
f 5 207 8
f 2 8 3
f 2 1 5
f 5 8 2
f 217 163 164
f 216 163 217
f 219 166 220
f 220 166 167
f 84 120 83
f 83 120 119
f 186 204 205
f 186 205 187
f 226 238 4
f 226 225 238
f 137 173 138
f 138 173 174
f 102 138 103
f 103 138 139
f 96 131 95
f 132 131 96
f 85 120 84
f 121 120 85
f 170 171 223
f 223 171 224
f 183 201 202
f 202 184 183
f 110 145 146
f 109 145 110
f 143 142 178
f 178 179 143
f 175 138 174
f 139 138 175
f 175 174 192
f 192 193 175
f 175 194 176
f 175 193 194
f 139 175 140
f 140 175 176
f 225 226 203
f 202 225 203
f 137 138 101
f 101 138 102
f 136 173 137
f 172 173 136
f 136 101 100
f 137 101 136
f 215 163 216
f 162 163 215
f 174 173 191
f 192 174 191
f 191 173 172
f 172 190 191
f 10 9 28
f 28 9 27
f 130 94 95
f 95 131 130
f 168 220 167
f 221 220 168
f 168 130 131
f 167 130 168
f 122 86 87
f 87 123 122
f 122 85 86
f 121 85 122
f 88 123 87
f 88 124 123
f 162 215 161
f 161 215 214
f 153 134 135
f 171 134 153
f 153 135 152
f 152 188 153
f 40 23 22
f 41 23 40
f 40 220 221
f 221 41 40
f 165 217 164
f 165 218 217
f 165 166 219
f 219 218 165
f 158 120 121
f 158 157 120
f 211 210 158
f 158 210 157
f 121 122 158
f 158 122 159
f 158 212 211
f 159 212 158
f 119 120 156
f 120 157 156
f 157 210 156
f 156 210 209
f 201 183 182
f 182 200 201
f 146 145 182
f 182 145 181
f 181 199 182
f 199 200 182
f 111 110 147
f 147 110 146
f 147 182 183
f 146 182 147
f 147 112 111
f 148 112 147
f 147 183 184
f 184 148 147
f 135 134 99
f 99 134 98
f 152 135 99
f 99 116 152
f 181 145 144
f 144 180 181
f 144 145 109
f 109 108 144
f 143 179 144
f 144 179 180
f 143 144 107
f 107 144 108
f 104 141 105
f 104 140 141
f 104 103 139
f 139 140 104
f 177 140 176
f 141 140 177
f 176 194 177
f 194 195 177
f 177 178 142
f 142 141 177
f 196 177 195
f 178 177 196
f 179 178 196
f 196 197 179
f 185 184 202
f 202 203 185
f 204 186 185
f 185 203 204
f 160 122 123
f 159 122 160
f 123 124 160
f 124 161 160
f 189 190 172
f 172 154 189
f 93 94 129
f 94 130 129
f 167 166 129
f 129 130 167
f 133 171 170
f 133 134 171
f 133 97 98
f 98 134 133
f 132 96 133
f 96 97 133
f 187 205 206
f 206 188 187
f 43 223 224
f 224 44 43
f 26 43 44
f 25 43 26
f 5 1 26
f 26 44 5
f 169 131 132
f 169 168 131
f 221 168 169
f 169 222 221
f 169 133 170
f 132 133 169
f 170 223 169
f 223 222 169
f 127 90 91
f 127 126 90
f 164 163 127
f 163 126 127
f 125 163 162
f 125 126 163
f 89 90 125
f 90 126 125
f 162 161 125
f 125 161 124
f 125 88 89
f 124 88 125
f 35 215 216
f 216 36 35
f 151 188 152
f 187 188 151
f 152 116 151
f 116 115 151
f 151 186 187
f 151 150 186
f 151 115 114
f 114 150 151
f 105 141 106
f 106 141 142
f 106 142 143
f 143 107 106
f 198 199 181
f 181 180 198
f 180 179 198
f 179 197 198
f 149 185 186
f 186 150 149
f 149 148 184
f 184 185 149
f 117 100 81
f 117 136 100
f 172 136 117
f 117 154 172
f 213 161 214
f 213 160 161
f 213 212 159
f 159 160 213
f 31 210 211
f 31 30 210
f 208 28 27
f 27 189 208
f 208 156 209
f 155 156 208
f 208 189 154
f 208 154 155
f 30 31 12
f 12 31 13
f 209 210 29
f 210 30 29
f 29 12 11
f 30 12 29
f 28 208 29
f 29 208 209
f 10 28 29
f 29 11 10
f 224 171 207
f 171 153 207
f 207 153 188
f 188 206 207
f 207 44 224
f 5 44 207
f 42 41 221
f 221 222 42
f 223 43 42
f 42 222 223
f 217 218 37
f 218 38 37
f 216 217 37
f 37 36 216
f 19 18 37
f 37 18 36
f 219 220 39
f 220 40 39
f 39 218 219
f 39 38 218
f 91 92 128
f 128 127 91
f 128 165 164
f 164 127 128
f 128 92 93
f 93 129 128
f 166 165 128
f 128 129 166
f 17 35 36
f 36 18 17
f 113 150 114
f 113 149 150
f 113 112 148
f 148 149 113
f 154 117 118
f 155 154 118
f 118 117 81
f 81 82 118
f 119 156 118
f 118 156 155
f 118 83 119
f 118 82 83
f 24 43 25
f 24 42 43
f 24 23 41
f 41 42 24
f 20 37 38
f 19 37 20
f 34 17 16
f 35 17 34
f 214 215 34
f 215 35 34
f 33 213 214
f 214 34 33
f 16 15 33
f 33 34 16
f 240 241 21
f 21 9 10
f 4 238 21
f 21 3 4
f 22 23 21
f 21 242 243
f 25 26 21
f 21 12 13
f 16 17 21
f 1 2 21
f 238 239 21
f 10 11 21
f 247 248 21
f 21 15 16
f 243 244 21
f 21 239 240
f 21 241 242
f 13 14 21
f 21 246 247
f 21 248 9
f 21 26 1
f 21 24 25
f 21 18 19
f 21 244 245
f 245 246 21
f 11 12 21
f 21 17 18
f 14 15 21
f 23 24 21
f 21 2 3
f 19 20 21
f 21 40 22
f 21 39 40
f 38 39 21
f 21 20 38
f 95 94 77
f 94 76 77
f 212 213 32
f 213 33 32
f 32 15 14
f 32 33 15
f 211 212 32
f 32 31 211
f 32 14 13
f 13 31 32
f 78 96 95
f 95 77 78
f 75 94 93
f 75 76 94
f 93 92 75
f 92 74 75
f 105 106 52
f 52 51 105
f 52 106 107
f 107 53 52
f 50 104 105
f 105 51 50
f 103 104 50
f 50 49 103
f 79 97 96
f 96 78 79
f 73 92 91
f 73 74 92
f 91 90 73
f 90 72 73
f 54 107 108
f 54 53 107
f 54 108 109
f 109 55 54
f 102 103 48
f 103 49 48
f 48 101 102
f 48 47 101
f 45 82 81
f 45 64 82
f 71 90 89
f 71 72 90
f 89 88 71
f 88 70 71
f 109 110 56
f 56 55 109
f 56 110 111
f 111 57 56
f 111 112 58
f 58 57 111
f 100 101 46
f 101 47 46
f 81 100 46
f 46 45 81
f 98 97 80
f 97 79 80
f 80 99 98
f 80 63 99
f 69 88 87
f 69 70 88
f 87 86 69
f 86 68 69
f 86 85 67
f 67 68 86
f 116 99 62
f 99 63 62
f 62 115 116
f 62 61 115
f 112 113 59
f 59 58 112
f 66 85 84
f 66 67 85
f 114 115 60
f 115 61 60
f 60 113 114
f 60 59 113
f 74 73 65
f 65 77 76
f 76 75 65
f 65 78 77
f 65 50 51
f 72 71 65
f 51 52 65
f 65 75 74
f 65 79 78
f 65 52 53
f 65 48 49
f 49 50 65
f 70 69 65
f 53 54 65
f 65 73 72
f 65 46 47
f 65 54 55
f 64 45 65
f 47 48 65
f 57 58 65
f 55 56 65
f 65 71 70
f 68 67 65
f 65 56 57
f 65 80 79
f 45 46 65
f 63 80 65
f 65 62 63
f 65 69 68
f 58 59 65
f 61 62 65
f 65 60 61
f 67 66 65
f 59 60 65
f 83 82 65
f 82 64 65
f 84 83 65
f 65 66 84
