# generated by step_to_parts.py -- 261 verts, 518 tris
v -0.402191 -0.135464 0.010104
v -0.401669 -0.132824 0.006067
v -0.401258 -0.130748 0.001701
v -0.400967 -0.129276 -0.002913
v -0.403445 -0.141800 -0.039683
v -0.402683 -0.137952 -0.036168
v -0.402926 -0.139177 -0.037404
v -0.403180 -0.140461 -0.038577
v -0.348762 -0.184345 0.000719
v -0.345022 -0.165443 -0.023454
v -0.344466 -0.162632 -0.001796
v -0.344177 -0.161171 -0.018478
v -0.346449 -0.172654 -0.027343
v -0.349287 -0.186997 -0.021793
v -0.349827 -0.189725 -0.006144
v -0.347138 -0.176137 0.004166
v -0.349540 -0.188278 -0.021935
v -0.349850 -0.189844 -0.019438
v -0.350071 -0.190962 -0.016703
v -0.350197 -0.191596 -0.013811
v -0.350223 -0.191729 -0.010851
v -0.350149 -0.191355 -0.007912
v -0.349977 -0.190486 -0.005084
v -0.349713 -0.189148 -0.002453
v -0.349363 -0.187383 -0.000099
v -0.348940 -0.185243 0.001907
v -0.348456 -0.182795 0.003504
v -0.347925 -0.180111 0.004643
v -0.347363 -0.177274 0.005290
v -0.346789 -0.174370 0.005425
v -0.346218 -0.171488 0.005044
v -0.345670 -0.168714 0.004158
v -0.345159 -0.166132 0.002795
v -0.344702 -0.163823 0.000995
v -0.344313 -0.161855 -0.001186
v -0.344003 -0.160288 -0.003682
v -0.343782 -0.159171 -0.006417
v -0.343656 -0.158536 -0.009309
v -0.343630 -0.158404 -0.012270
v -0.343704 -0.158778 -0.015208
v -0.343876 -0.159647 -0.018036
v -0.344140 -0.160984 -0.020667
v -0.344490 -0.162750 -0.023021
v -0.344913 -0.164889 -0.025028
v -0.345397 -0.167338 -0.026624
v -0.345928 -0.170021 -0.027764
v -0.346490 -0.172858 -0.028410
v -0.347064 -0.175762 -0.028545
v -0.347635 -0.178645 -0.028164
v -0.348183 -0.181419 -0.027278
v -0.348694 -0.184000 -0.025915
v -0.349151 -0.186310 -0.024115
v -0.411854 -0.184305 0.016563
v -0.404456 -0.146914 -0.043018
v -0.405565 -0.152517 -0.045397
v -0.406737 -0.158441 -0.046748
v -0.407937 -0.164506 -0.047029
v -0.409128 -0.170526 -0.046233
v -0.410274 -0.176318 -0.044383
v -0.411341 -0.181708 -0.041536
v -0.412295 -0.186531 -0.037779
v -0.413108 -0.190641 -0.033224
v -0.413755 -0.193912 -0.028012
v -0.414217 -0.196246 -0.022299
v -0.414479 -0.197571 -0.016260
v -0.414534 -0.197847 -0.010079
v -0.414379 -0.197066 -0.003942
v -0.414020 -0.195251 0.001963
v -0.413468 -0.192459 0.007457
v -0.412738 -0.188772 0.012374
v -0.410843 -0.179191 0.019898
v -0.409734 -0.173587 0.022277
v -0.408562 -0.167663 0.023627
v -0.407362 -0.161599 0.023909
v -0.406171 -0.155579 0.023113
v -0.405025 -0.149786 0.021263
v -0.403958 -0.144396 0.018416
v -0.403004 -0.139573 0.014659
v -0.389205 -0.127535 0.018037
v -0.388638 -0.127243 0.018343
v -0.403706 -0.203403 -0.041463
v -0.402648 -0.198055 -0.047444
v -0.401413 -0.191815 -0.052447
v -0.400036 -0.184852 -0.056334
v -0.398553 -0.177356 -0.059000
v -0.397005 -0.169532 -0.060372
v -0.395434 -0.161593 -0.060412
v -0.393883 -0.153756 -0.059120
v -0.392395 -0.146235 -0.056531
v -0.391010 -0.139234 -0.052715
v -0.389766 -0.132945 -0.047776
v -0.388696 -0.127539 -0.041849
v -0.387831 -0.123163 -0.035097
v -0.387192 -0.119938 -0.027702
v -0.386799 -0.117951 -0.019867
v -0.386662 -0.117255 -0.011805
v -0.386784 -0.117871 -0.003737
v -0.387162 -0.119782 0.004118
v -0.387785 -0.122934 0.011546
v -0.404120 -0.202917 -0.041158
v -0.403009 -0.197303 -0.047380
v -0.401705 -0.190714 -0.052514
v -0.400248 -0.183350 -0.056403
v -0.398682 -0.175436 -0.058930
v -0.397055 -0.167212 -0.060018
v -0.395416 -0.158927 -0.059633
v -0.393815 -0.150833 -0.057788
v -0.392300 -0.143177 -0.054538
v -0.390918 -0.136191 -0.049982
v -0.389710 -0.130087 -0.044259
v -0.388714 -0.125051 -0.037542
v -0.387959 -0.121236 -0.030036
v -0.387468 -0.118757 -0.021968
v -0.387257 -0.117690 -0.013584
v -0.387332 -0.118067 -0.005139
v -0.387690 -0.119877 0.003111
v -0.388321 -0.123066 0.010916
v -0.390316 -0.133149 0.024260
v -0.391620 -0.139738 0.029394
v -0.393077 -0.147102 0.033283
v -0.394642 -0.155016 0.035810
v -0.396270 -0.163241 0.036898
v -0.397909 -0.171525 0.036513
v -0.399510 -0.179619 0.034668
v -0.401025 -0.187275 0.031418
v -0.402407 -0.194261 0.026862
v -0.403615 -0.200365 0.021138
v -0.404611 -0.205401 0.014422
v -0.405366 -0.209216 0.006915
v -0.405856 -0.211695 -0.001152
v -0.406067 -0.212762 -0.009536
v -0.405993 -0.212385 -0.017981
v -0.405635 -0.210575 -0.026232
v -0.405004 -0.207386 -0.034036
v -0.389696 -0.132591 0.024324
v -0.390931 -0.138831 0.029327
v -0.392308 -0.145794 0.033214
v -0.393791 -0.153290 0.035880
v -0.395339 -0.161114 0.037252
v -0.396910 -0.169053 0.037292
v -0.398460 -0.176890 0.036000
v -0.399949 -0.184412 0.033411
v -0.401334 -0.191412 0.029595
v -0.402578 -0.197702 0.024656
v -0.403648 -0.203108 0.018729
v -0.404513 -0.207483 0.011977
v -0.405151 -0.210708 0.004582
v -0.405545 -0.212696 -0.003253
v -0.405682 -0.213391 -0.011315
v -0.405560 -0.212775 -0.019383
v -0.405182 -0.210864 -0.027238
v -0.404559 -0.207712 -0.034666
v -0.362799 -0.211496 -0.041463
v -0.362232 -0.211205 -0.041158
v -0.363116 -0.215674 -0.034036
v -0.363747 -0.218862 -0.026232
v -0.364105 -0.220672 -0.017981
v -0.364179 -0.221050 -0.009536
v -0.363968 -0.219983 -0.001152
v -0.363478 -0.217504 0.006915
v -0.362723 -0.213688 0.014422
v -0.361727 -0.208652 0.021138
v -0.360519 -0.202548 0.026862
v -0.359137 -0.195562 0.031418
v -0.357622 -0.187906 0.034668
v -0.356021 -0.179813 0.036513
v -0.354382 -0.171528 0.036898
v -0.352754 -0.163304 0.035810
v -0.351189 -0.155389 0.033283
v -0.349732 -0.148026 0.029394
v -0.348428 -0.141437 0.024260
v -0.347317 -0.135822 0.018037
v -0.347731 -0.135337 0.018343
v -0.363651 -0.215805 -0.034666
v -0.364275 -0.218958 -0.027238
v -0.364653 -0.220868 -0.019383
v -0.364775 -0.221484 -0.011315
v -0.364638 -0.220789 -0.003253
v -0.364244 -0.218802 0.004582
v -0.363606 -0.215576 0.011977
v -0.362741 -0.211201 0.018729
v -0.361671 -0.205795 0.024656
v -0.360427 -0.199506 0.029595
v -0.359042 -0.192505 0.033411
v -0.357553 -0.184983 0.036000
v -0.356003 -0.177146 0.037292
v -0.354432 -0.169208 0.037252
v -0.352884 -0.161384 0.035880
v -0.351401 -0.153888 0.033214
v -0.350024 -0.146925 0.029327
v -0.348789 -0.140684 0.024324
v -0.346837 -0.130822 0.011148
v -0.346200 -0.127600 0.003263
v -0.345838 -0.125771 -0.005073
v -0.345763 -0.125390 -0.013605
v -0.345976 -0.126468 -0.022075
v -0.346472 -0.128973 -0.030226
v -0.347234 -0.132828 -0.037810
v -0.348241 -0.137916 -0.044596
v -0.349461 -0.144082 -0.050378
v -0.350858 -0.151141 -0.054981
v -0.352388 -0.158876 -0.058264
v -0.354006 -0.167052 -0.060129
v -0.355662 -0.175423 -0.060517
v -0.357306 -0.183732 -0.059419
v -0.358888 -0.191728 -0.056866
v -0.360360 -0.199167 -0.052936
v -0.361677 -0.205824 -0.047749
v -0.346433 -0.131353 0.010916
v -0.345802 -0.128165 0.003111
v -0.345444 -0.126355 -0.005139
v -0.345369 -0.125977 -0.013584
v -0.345580 -0.127044 -0.021968
v -0.346071 -0.129523 -0.030036
v -0.346826 -0.133339 -0.037542
v -0.347822 -0.138375 -0.044259
v -0.349030 -0.144479 -0.049982
v -0.350412 -0.151465 -0.054538
v -0.351927 -0.159121 -0.057788
v -0.353528 -0.167214 -0.059633
v -0.355167 -0.175499 -0.060018
v -0.356794 -0.183724 -0.058930
v -0.358360 -0.191638 -0.056403
v -0.359817 -0.199001 -0.052514
v -0.361121 -0.205590 -0.047380
v -0.353443 -0.202849 -0.033529
v -0.354099 -0.206167 -0.028243
v -0.354567 -0.208533 -0.022450
v -0.354833 -0.209877 -0.016326
v -0.354889 -0.210157 -0.010058
v -0.354732 -0.209365 -0.003835
v -0.354368 -0.207525 0.002154
v -0.353808 -0.204693 0.007725
v -0.353068 -0.200955 0.012711
v -0.352172 -0.196424 0.016959
v -0.351146 -0.191238 0.020341
v -0.350021 -0.185555 0.022753
v -0.348833 -0.179548 0.024123
v -0.347616 -0.173398 0.024409
v -0.346408 -0.167294 0.023601
v -0.345246 -0.161419 0.021726
v -0.344164 -0.155954 0.018838
v -0.343197 -0.151063 0.015028
v -0.342372 -0.146895 0.010409
v -0.341716 -0.143578 0.005123
v -0.341248 -0.141211 -0.000670
v -0.340982 -0.139868 -0.006794
v -0.340926 -0.139588 -0.013062
v -0.341083 -0.140380 -0.019286
v -0.341447 -0.142220 -0.025274
v -0.342008 -0.145052 -0.030845
v -0.342747 -0.148790 -0.035831
v -0.343644 -0.153321 -0.040079
v -0.344670 -0.158506 -0.043461
v -0.345794 -0.164189 -0.045873
v -0.346982 -0.170196 -0.047243
v -0.348199 -0.176346 -0.047529
v -0.349407 -0.182451 -0.046721
v -0.350569 -0.188325 -0.044846
v -0.351651 -0.193791 -0.041959
v -0.352618 -0.198682 -0.038148
f 66 148 67
f 205 86 204
f 177 157 158
f 81 174 152
f 66 65 149
f 99 98 117
f 130 67 148
f 204 86 87
f 89 88 107
f 107 55 89
f 88 55 107
f 86 205 85
f 215 216 199
f 90 201 89
f 202 88 89
f 89 201 202
f 82 83 208
f 174 81 153
f 153 82 208
f 81 82 153
f 131 148 66
f 66 149 131
f 131 149 148
f 65 150 132
f 132 149 65
f 150 149 132
f 134 133 63
f 63 133 64
f 64 150 65
f 64 133 150
f 176 157 177
f 157 176 156
f 156 176 175
f 150 133 151
f 151 134 152
f 133 134 151
f 4 96 114
f 199 91 92
f 111 93 92
f 193 97 98
f 193 209 210
f 115 96 4
f 4 97 115
f 115 97 96
f 116 97 4
f 98 97 116
f 116 117 98
f 194 211 195
f 195 96 194
f 96 97 194
f 97 193 194
f 210 211 194
f 194 193 210
f 145 144 127
f 80 173 99
f 173 80 191
f 191 80 135
f 68 129 146
f 145 128 146
f 56 55 88
f 87 57 56
f 89 55 54
f 5 90 54
f 221 205 204
f 221 222 205
f 59 85 103
f 208 224 225
f 225 153 208
f 208 83 207
f 207 224 208
f 223 224 207
f 195 211 212
f 95 96 195
f 95 114 96
f 197 213 214
f 201 217 218
f 218 202 201
f 91 90 109
f 109 90 5
f 200 217 201
f 201 90 200
f 200 90 91
f 200 91 199
f 216 217 200
f 199 216 200
f 204 87 203
f 203 87 88
f 88 202 203
f 142 141 124
f 186 167 187
f 100 82 81
f 100 81 152
f 152 134 100
f 174 153 154
f 153 225 154
f 155 175 174
f 155 156 175
f 174 154 155
f 198 92 93
f 93 197 198
f 198 215 199
f 199 92 198
f 214 215 198
f 198 197 214
f 111 92 6
f 6 93 111
f 209 193 192
f 99 173 192
f 192 98 99
f 192 193 98
f 3 116 4
f 117 116 3
f 3 2 117
f 136 119 137
f 99 117 79
f 79 80 99
f 117 2 79
f 135 80 79
f 173 191 172
f 172 192 173
f 209 192 172
f 147 146 129
f 147 130 148
f 67 130 147
f 68 67 147
f 147 129 68
f 73 140 74
f 77 137 119
f 76 137 77
f 70 127 144
f 144 53 70
f 145 127 70
f 126 53 144
f 142 124 72
f 72 141 73
f 72 124 141
f 105 87 86
f 86 57 105
f 105 57 87
f 58 57 86
f 58 85 59
f 88 87 106
f 106 56 88
f 87 56 106
f 108 90 89
f 89 54 108
f 108 54 90
f 59 103 84
f 84 207 83
f 84 103 85
f 94 197 93
f 213 197 196
f 196 95 195
f 196 94 95
f 197 94 196
f 196 212 213
f 195 212 196
f 220 221 204
f 204 203 220
f 202 218 219
f 219 203 202
f 219 220 203
f 73 141 123
f 123 140 73
f 141 140 123
f 185 184 165
f 167 186 166
f 186 185 166
f 166 185 165
f 62 61 100
f 82 100 101
f 100 61 101
f 83 82 101
f 59 84 60
f 60 101 61
f 110 92 91
f 110 6 92
f 110 7 6
f 91 7 110
f 187 167 168
f 168 188 187
f 169 188 168
f 189 170 190
f 169 170 189
f 189 188 169
f 1 79 2
f 135 79 118
f 136 135 118
f 118 119 136
f 78 77 118
f 118 77 119
f 122 140 139
f 139 74 122
f 122 74 140
f 69 128 145
f 145 70 69
f 68 146 69
f 69 146 128
f 86 85 104
f 104 58 86
f 85 58 104
f 223 207 206
f 207 84 206
f 206 222 223
f 205 222 206
f 206 85 205
f 206 84 85
f 93 6 112
f 112 94 93
f 113 6 4
f 95 94 113
f 113 112 6
f 94 112 113
f 4 114 113
f 114 95 113
f 171 172 191
f 171 191 190
f 190 170 171
f 102 84 83
f 102 60 84
f 83 101 102
f 101 60 102
f 91 109 8
f 8 7 91
f 8 109 5
f 120 137 76
f 75 74 139
f 139 121 75
f 142 72 71
f 71 125 142
f 142 125 143
f 143 126 144
f 53 126 143
f 143 71 53
f 125 71 143
f 163 183 182
f 161 181 180
f 137 120 138
f 138 75 121
f 138 121 139
f 76 75 138
f 138 120 76
f 184 183 164
f 165 184 164
f 183 163 164
f 182 181 162
f 162 163 182
f 181 161 162
f 177 158 178
f 180 179 160
f 160 161 180
f 42 41 12
f 159 178 158
f 179 178 159
f 159 160 179
f 47 46 13
f 30 29 16
f 23 22 15
f 252 216 215
f 251 252 215
f 217 216 252
f 252 253 217
f 176 149 150
f 177 149 176
f 228 229 156
f 156 229 157
f 151 176 150
f 175 176 151
f 152 174 151
f 174 175 151
f 191 135 136
f 136 190 191
f 258 222 221
f 221 257 258
f 259 222 258
f 223 222 259
f 213 212 249
f 249 212 248
f 218 217 253
f 218 253 254
f 157 229 230
f 230 158 157
f 139 140 186
f 187 139 186
f 228 156 155
f 155 227 228
f 260 225 224
f 261 225 260
f 223 259 260
f 260 224 223
f 251 215 250
f 250 215 214
f 213 249 250
f 214 213 250
f 257 221 220
f 256 257 220
f 219 218 254
f 254 255 219
f 256 220 219
f 219 255 256
f 248 212 247
f 247 212 211
f 247 211 210
f 210 246 247
f 37 247 246
f 38 247 37
f 232 22 23
f 231 22 232
f 142 184 185
f 185 141 142
f 185 186 140
f 185 140 141
f 62 134 63
f 62 100 134
f 226 225 261
f 226 154 225
f 227 155 226
f 226 155 154
f 239 240 168
f 168 167 239
f 189 190 136
f 136 137 189
f 118 1 78
f 79 1 118
f 48 257 256
f 256 47 48
f 258 257 48
f 48 49 258
f 256 255 46
f 46 47 256
f 46 255 254
f 254 45 46
f 245 172 244
f 209 172 245
f 245 246 210
f 210 209 245
f 21 230 229
f 21 229 20
f 21 22 231
f 231 230 21
f 242 170 241
f 241 170 169
f 241 168 240
f 169 168 241
f 244 243 34
f 35 244 34
f 242 33 34
f 34 243 242
f 244 172 171
f 171 243 244
f 171 170 242
f 242 243 171
f 71 65 66
f 71 54 55
f 71 58 59
f 66 67 71
f 71 67 68
f 63 64 71
f 73 74 71
f 4 6 71
f 55 56 71
f 71 77 78
f 71 64 65
f 68 69 71
f 71 3 4
f 78 1 71
f 71 72 73
f 71 56 57
f 5 54 71
f 71 62 63
f 59 60 71
f 2 3 71
f 71 8 5
f 76 77 71
f 71 70 53
f 71 75 76
f 57 58 71
f 61 62 71
f 71 60 61
f 6 7 71
f 71 1 2
f 71 69 70
f 7 8 71
f 74 75 71
f 254 253 44
f 44 45 254
f 44 253 252
f 252 43 44
f 42 252 251
f 42 43 252
f 17 226 261
f 261 52 17
f 50 259 258
f 258 49 50
f 36 37 246
f 246 245 36
f 36 245 244
f 36 244 35
f 239 167 238
f 167 166 238
f 238 166 165
f 165 237 238
f 242 241 32
f 32 33 242
f 235 234 25
f 25 26 235
f 143 184 142
f 143 183 184
f 144 182 143
f 182 183 143
f 181 182 144
f 181 144 145
f 145 146 181
f 146 180 181
f 179 180 146
f 146 147 179
f 138 189 137
f 188 189 138
f 138 139 187
f 187 188 138
f 251 250 41
f 41 42 251
f 19 229 228
f 20 229 19
f 261 260 51
f 51 52 261
f 51 260 259
f 259 50 51
f 29 238 237
f 29 237 28
f 239 238 29
f 29 30 239
f 31 240 239
f 239 30 31
f 31 241 240
f 31 32 241
f 28 237 27
f 237 236 27
f 235 26 27
f 27 236 235
f 164 237 165
f 164 236 237
f 235 236 164
f 164 163 235
f 24 232 23
f 233 232 24
f 24 25 234
f 24 234 233
f 162 234 235
f 235 163 162
f 233 234 162
f 162 161 233
f 178 149 177
f 148 149 178
f 178 179 147
f 178 147 148
f 160 232 233
f 233 161 160
f 40 250 249
f 40 41 250
f 228 227 18
f 18 19 228
f 227 226 18
f 226 17 18
f 158 230 159
f 159 230 231
f 231 232 159
f 232 160 159
f 43 42 10
f 42 12 10
f 45 44 10
f 10 44 43
f 11 34 33
f 35 34 11
f 37 36 11
f 11 36 35
f 37 11 39
f 39 11 12
f 38 37 39
f 41 40 39
f 39 12 41
f 248 247 39
f 39 247 38
f 39 249 248
f 39 40 249
f 52 51 14
f 14 51 50
f 14 17 52
f 13 14 50
f 13 50 49
f 45 10 13
f 13 46 45
f 49 48 13
f 13 48 47
f 26 25 9
f 9 27 26
f 27 9 16
f 16 29 28
f 28 27 16
f 16 11 33
f 33 32 16
f 32 31 16
f 16 31 30
f 14 13 15
f 15 10 12
f 11 16 15
f 15 13 10
f 12 11 15
f 15 16 9
f 15 21 20
f 22 21 15
f 15 9 25
f 25 24 15
f 15 24 23
f 19 18 15
f 15 18 17
f 20 19 15
f 17 14 15
