# generated by step_to_parts.py -- 80 verts, 156 tris
v -0.333193 -0.177784 0.045940
v -0.331368 -0.168563 0.045166
v -0.327307 -0.178948 0.045940
v -0.325483 -0.169728 0.045166
v -0.333193 -0.177784 -0.069060
v -0.335030 -0.187068 -0.068276
v -0.336816 -0.196099 -0.065945
v -0.338504 -0.204630 -0.062130
v -0.340047 -0.212429 -0.056936
v -0.341403 -0.219283 -0.050504
v -0.342536 -0.225005 -0.043010
v -0.343413 -0.229439 -0.034658
v -0.344011 -0.232464 -0.025676
v -0.344315 -0.233997 -0.016308
v -0.344315 -0.233997 -0.006812
v -0.344011 -0.232464 0.002555
v -0.343413 -0.229439 0.011537
v -0.342536 -0.225005 0.019889
v -0.341403 -0.219283 0.027384
v -0.340047 -0.212429 0.033815
v -0.338504 -0.204630 0.039010
v -0.336816 -0.196099 0.042824
v -0.335030 -0.187068 0.045156
v -0.327307 -0.178948 -0.069060
v -0.329144 -0.188232 -0.068276
v -0.330931 -0.197263 -0.065945
v -0.332618 -0.205795 -0.062130
v -0.334162 -0.213594 -0.056936
v -0.335518 -0.220448 -0.050504
v -0.336650 -0.226170 -0.043010
v -0.337527 -0.230604 -0.034658
v -0.338125 -0.233629 -0.025676
v -0.338429 -0.235162 -0.016308
v -0.338429 -0.235162 -0.006812
v -0.338125 -0.233629 0.002555
v -0.337527 -0.230604 0.011537
v -0.336650 -0.226170 0.019889
v -0.335518 -0.220448 0.027384
v -0.334162 -0.213594 0.033815
v -0.332618 -0.205795 0.039010
v -0.330931 -0.197263 0.042824
v -0.329144 -0.188232 0.045156
v -0.311506 -0.068172 0.024288
v -0.311179 -0.066520 0.023837
v -0.310873 -0.064970 0.023100
v -0.310596 -0.063570 0.022100
v -0.310356 -0.062360 0.020868
v -0.310162 -0.061380 0.019440
v -0.310019 -0.060657 0.017860
v -0.309932 -0.060214 0.016176
v -0.309902 -0.060065 0.014440
v -0.309902 -0.060065 -0.037560
v -0.309932 -0.060214 -0.039297
v -0.310019 -0.060657 -0.040980
v -0.310162 -0.061380 -0.042560
v -0.310356 -0.062360 -0.043988
v -0.310596 -0.063570 -0.045221
v -0.310873 -0.064970 -0.046220
v -0.311179 -0.066520 -0.046957
v -0.311506 -0.068172 -0.047408
v -0.331368 -0.168563 -0.068287
v -0.305620 -0.069336 -0.047408
v -0.305293 -0.067685 -0.046957
v -0.304987 -0.066135 -0.046220
v -0.304710 -0.064734 -0.045221
v -0.304470 -0.063525 -0.043988
v -0.304276 -0.062544 -0.042560
v -0.304133 -0.061822 -0.040980
v -0.304046 -0.061379 -0.039297
v -0.304016 -0.061230 -0.037560
v -0.325483 -0.169728 -0.068287
v -0.304016 -0.061230 0.014440
v -0.304046 -0.061379 0.016176
v -0.304133 -0.061822 0.017860
v -0.304276 -0.062544 0.019440
v -0.304470 -0.063525 0.020868
v -0.304710 -0.064734 0.022100
v -0.304987 -0.066135 0.023100
v -0.305293 -0.067685 0.023837
v -0.305620 -0.069336 0.024288
f 2 43 1
f 20 19 39
f 39 19 38
f 35 16 15
f 15 34 35
f 17 16 35
f 35 36 17
f 18 20 15
f 15 16 18
f 18 16 17
f 18 19 20
f 42 3 23
f 23 3 1
f 41 42 23
f 23 22 41
f 25 26 7
f 6 25 7
f 30 31 12
f 11 30 12
f 32 12 31
f 13 12 32
f 8 7 27
f 27 7 26
f 27 9 8
f 28 9 27
f 52 51 72
f 70 52 72
f 38 19 37
f 19 18 37
f 17 36 37
f 37 18 17
f 20 39 21
f 39 40 21
f 41 22 21
f 21 40 41
f 15 14 33
f 33 34 15
f 33 14 13
f 13 32 33
f 1 3 2
f 2 3 4
f 4 80 2
f 80 43 2
f 24 25 6
f 6 5 24
f 62 71 61
f 61 60 62
f 71 24 61
f 61 24 5
f 10 30 11
f 10 29 30
f 10 9 28
f 28 29 10
f 50 72 51
f 50 73 72
f 50 74 73
f 49 74 50
f 79 43 80
f 79 44 43
f 45 44 79
f 79 78 45
f 46 78 77
f 45 78 46
f 77 76 46
f 46 76 47
f 48 49 45
f 48 46 47
f 45 46 48
f 48 74 49
f 75 74 48
f 48 76 75
f 47 76 48
f 53 52 70
f 70 69 53
f 68 53 69
f 54 53 68
f 62 60 59
f 59 63 62
f 64 63 59
f 59 58 64
f 1 43 57
f 15 20 57
f 52 53 57
f 57 23 1
f 57 14 15
f 6 7 57
f 11 12 57
f 57 5 6
f 13 14 57
f 57 51 52
f 60 61 57
f 22 23 57
f 57 7 8
f 57 12 13
f 8 9 57
f 57 10 11
f 20 21 57
f 57 21 22
f 57 61 5
f 57 55 56
f 9 10 57
f 45 49 57
f 43 44 57
f 57 50 51
f 57 44 45
f 49 50 57
f 54 55 57
f 57 59 60
f 57 53 54
f 58 59 57
f 66 65 57
f 57 56 66
f 57 65 64
f 64 58 57
f 56 55 67
f 66 56 67
f 67 55 54
f 54 68 67
f 36 35 67
f 67 35 34
f 67 37 36
f 67 33 32
f 34 33 67
f 67 39 38
f 38 37 67
f 67 40 39
f 41 40 67
f 67 27 26
f 67 26 25
f 67 71 62
f 77 78 67
f 67 80 4
f 25 24 67
f 70 72 67
f 67 74 75
f 67 31 30
f 30 29 67
f 67 32 31
f 28 27 67
f 67 29 28
f 67 42 41
f 67 3 42
f 72 73 67
f 4 3 67
f 67 79 80
f 67 24 71
f 67 69 70
f 67 65 66
f 62 63 67
f 73 74 67
f 67 76 77
f 67 63 64
f 64 65 67
f 78 79 67
f 75 76 67
f 67 68 69
