# generated by step_to_parts.py -- 72 verts, 140 tris
v -0.314582 -0.146061 -0.007233
v -0.314830 -0.147316 -0.001268
v -0.315276 -0.149567 0.004385
v -0.315905 -0.152748 0.009553
v -0.316699 -0.156760 0.014079
v -0.317633 -0.161483 0.017827
v -0.318680 -0.166772 0.020682
v -0.319806 -0.172468 0.022557
v -0.320979 -0.178396 0.023395
v -0.322163 -0.184377 0.023171
v -0.323320 -0.190228 0.021892
v -0.324418 -0.195774 0.019597
v -0.325421 -0.200843 0.016355
v -0.326299 -0.205284 0.012265
v -0.327027 -0.208960 0.007450
v -0.327581 -0.211761 0.002059
v -0.327945 -0.213600 -0.003747
v -0.328107 -0.214423 -0.009790
v -0.328064 -0.214203 -0.015887
v -0.340186 -0.140995 -0.007233
v -0.353668 -0.209137 -0.015887
v -0.353711 -0.209357 -0.009790
v -0.353548 -0.208534 -0.003747
v -0.353184 -0.206695 0.002059
v -0.352630 -0.203895 0.007450
v -0.351903 -0.200218 0.012265
v -0.351024 -0.195778 0.016355
v -0.350021 -0.190708 0.019597
v -0.348924 -0.185163 0.021892
v -0.347766 -0.179311 0.023171
v -0.346583 -0.173330 0.023395
v -0.345410 -0.167402 0.022557
v -0.344283 -0.161707 0.020682
v -0.343237 -0.156417 0.017827
v -0.342302 -0.151695 0.014079
v -0.341509 -0.147682 0.009553
v -0.340879 -0.144502 0.004385
v -0.340434 -0.142250 -0.001268
v -0.327816 -0.212948 -0.021852
v -0.327370 -0.210697 -0.027505
v -0.326741 -0.207516 -0.032673
v -0.325947 -0.203504 -0.037200
v -0.325013 -0.198781 -0.040947
v -0.323966 -0.193492 -0.043802
v -0.322839 -0.187796 -0.045677
v -0.321666 -0.181868 -0.046515
v -0.320483 -0.175887 -0.046292
v -0.319325 -0.170036 -0.045013
v -0.318228 -0.164490 -0.042717
v -0.317225 -0.159421 -0.039475
v -0.316347 -0.154980 -0.035385
v -0.315619 -0.151304 -0.030571
v -0.315065 -0.148503 -0.025179
v -0.314701 -0.146664 -0.019373
v -0.314538 -0.145841 -0.013330
v -0.340142 -0.140776 -0.013330
v -0.340305 -0.141598 -0.019373
v -0.340669 -0.143438 -0.025179
v -0.341223 -0.146238 -0.030571
v -0.341950 -0.149914 -0.035385
v -0.342829 -0.154355 -0.039475
v -0.343832 -0.159425 -0.042717
v -0.344929 -0.164970 -0.045013
v -0.346087 -0.170822 -0.046292
v -0.347270 -0.176803 -0.046515
v -0.348443 -0.182731 -0.045677
v -0.349570 -0.188426 -0.043802
v -0.350616 -0.193715 -0.040947
v -0.351551 -0.198438 -0.037200
v -0.352344 -0.202450 -0.032673
v -0.352974 -0.205631 -0.027505
v -0.353419 -0.207883 -0.021852
f 25 15 14
f 25 14 26
f 17 23 22
f 22 18 17
f 21 19 18
f 21 18 22
f 15 25 16
f 16 25 24
f 24 23 16
f 23 17 16
f 30 10 9
f 30 9 31
f 11 10 30
f 30 29 11
f 36 5 4
f 35 5 36
f 4 3 36
f 36 3 37
f 20 1 55
f 55 56 20
f 43 42 69
f 68 43 69
f 45 66 65
f 45 65 46
f 72 40 39
f 71 40 72
f 39 19 72
f 19 21 72
f 59 52 51
f 59 51 60
f 54 57 56
f 54 56 55
f 6 5 34
f 34 5 35
f 34 7 6
f 33 7 34
f 9 8 32
f 31 9 32
f 8 7 32
f 32 7 33
f 37 3 38
f 38 3 2
f 2 1 38
f 1 20 38
f 41 40 70
f 70 40 71
f 70 42 41
f 70 69 42
f 52 59 53
f 53 59 58
f 58 57 53
f 57 54 53
f 11 29 28
f 28 12 11
f 67 43 68
f 67 44 43
f 66 45 67
f 45 44 67
f 46 65 64
f 64 47 46
f 60 51 61
f 51 50 61
f 61 50 49
f 49 62 61
f 26 14 27
f 14 13 27
f 27 13 12
f 12 28 27
f 22 23 63
f 65 66 63
f 56 57 63
f 63 70 71
f 63 21 22
f 35 36 63
f 63 59 60
f 63 23 24
f 63 25 26
f 63 20 56
f 71 72 63
f 24 25 63
f 63 34 35
f 63 28 29
f 68 69 63
f 63 57 58
f 63 67 68
f 63 36 37
f 31 32 63
f 37 38 63
f 63 72 21
f 58 59 63
f 63 64 65
f 33 34 63
f 63 32 33
f 63 38 20
f 69 70 63
f 60 61 63
f 63 30 31
f 29 30 63
f 66 67 63
f 26 27 63
f 63 61 62
f 63 27 28
f 48 8 9
f 48 3 4
f 9 10 48
f 18 19 48
f 48 40 41
f 48 17 18
f 41 42 48
f 14 15 48
f 15 16 48
f 55 1 48
f 48 54 55
f 48 19 39
f 4 5 48
f 48 45 46
f 52 53 48
f 48 10 11
f 48 13 14
f 48 1 2
f 48 5 6
f 48 42 43
f 39 40 48
f 51 52 48
f 46 47 48
f 48 16 17
f 11 12 48
f 2 3 48
f 6 7 48
f 43 44 48
f 12 13 48
f 48 7 8
f 48 44 45
f 48 53 54
f 48 50 51
f 49 50 48
f 48 62 49
f 48 63 62
f 47 64 48
f 64 63 48
