# generated by step_to_parts.py -- 76 verts, 148 tris
v -0.342774 -0.226208 -0.040060
v -0.341732 -0.220946 -0.047796
v -0.340458 -0.214507 -0.054544
v -0.338986 -0.207065 -0.060120
v -0.337356 -0.198825 -0.064370
v -0.335612 -0.190011 -0.067180
v -0.333802 -0.180864 -0.068474
v -0.331976 -0.171632 -0.068214
v -0.330182 -0.162569 -0.066409
v -0.328471 -0.153920 -0.063108
v -0.326889 -0.145922 -0.058401
v -0.325479 -0.138793 -0.052417
v -0.324279 -0.132728 -0.045318
v -0.323322 -0.127892 -0.037297
v -0.322634 -0.124417 -0.028575
v -0.322235 -0.122397 -0.019389
v -0.322134 -0.121889 -0.009989
v -0.322335 -0.122905 -0.000633
v -0.322832 -0.125417 0.008426
v -0.323612 -0.129359 0.016940
v -0.364355 -0.221938 -0.040060
v -0.345194 -0.125089 0.016940
v -0.344414 -0.121148 0.008426
v -0.343917 -0.118635 -0.000633
v -0.343716 -0.117619 -0.009989
v -0.343816 -0.118127 -0.019389
v -0.344216 -0.120147 -0.028575
v -0.344903 -0.123622 -0.037297
v -0.345860 -0.128458 -0.045318
v -0.347060 -0.134523 -0.052417
v -0.348471 -0.141652 -0.058401
v -0.350053 -0.149650 -0.063108
v -0.351764 -0.158299 -0.066409
v -0.353557 -0.167362 -0.068214
v -0.355384 -0.176594 -0.068474
v -0.357194 -0.185741 -0.067180
v -0.358938 -0.194555 -0.064370
v -0.360568 -0.202795 -0.060120
v -0.362040 -0.210237 -0.054544
v -0.363314 -0.216676 -0.047796
v -0.324653 -0.134621 0.024676
v -0.325927 -0.141061 0.031424
v -0.327399 -0.148502 0.036999
v -0.329030 -0.156742 0.041250
v -0.330773 -0.165556 0.044060
v -0.332583 -0.174703 0.045353
v -0.334410 -0.183935 0.045094
v -0.336203 -0.192998 0.043289
v -0.337914 -0.201647 0.039988
v -0.339497 -0.209645 0.035281
v -0.340907 -0.216774 0.029297
v -0.342107 -0.222839 0.022197
v -0.343064 -0.227675 0.014177
v -0.343751 -0.231150 0.005455
v -0.344151 -0.233170 -0.003731
v -0.344252 -0.233678 -0.013131
v -0.344051 -0.232662 -0.022488
v -0.343553 -0.230150 -0.031546
v -0.365135 -0.225880 -0.031546
v -0.365632 -0.228393 -0.022488
v -0.365833 -0.229408 -0.013131
v -0.365733 -0.228900 -0.003731
v -0.365333 -0.226880 0.005455
v -0.364645 -0.223405 0.014177
v -0.363689 -0.218569 0.022197
v -0.362489 -0.212504 0.029297
v -0.361078 -0.205375 0.035281
v -0.359496 -0.197377 0.039988
v -0.357785 -0.188729 0.043289
v -0.355991 -0.179665 0.045094
v -0.354165 -0.170433 0.045353
v -0.352355 -0.161286 0.044060
v -0.350611 -0.152472 0.041250
v -0.348981 -0.144232 0.036999
v -0.347509 -0.136791 0.031424
v -0.346235 -0.130351 0.024676
f 10 11 9
f 6 4 5
f 7 8 6
f 2 58 1
f 46 70 47
f 71 70 46
f 25 24 18
f 17 25 18
f 18 24 23
f 23 19 18
f 20 22 76
f 76 41 20
f 23 22 20
f 20 19 23
f 75 42 41
f 75 41 76
f 74 73 43
f 43 73 44
f 42 75 43
f 43 75 74
f 55 62 61
f 61 56 55
f 63 62 55
f 55 54 63
f 16 26 25
f 16 25 17
f 27 26 16
f 16 15 27
f 50 67 66
f 50 66 51
f 68 67 50
f 50 49 68
f 45 73 72
f 44 73 45
f 45 72 71
f 71 46 45
f 66 65 52
f 51 66 52
f 30 29 12
f 12 29 13
f 12 31 30
f 11 31 12
f 10 33 32
f 9 33 10
f 32 31 10
f 10 31 11
f 29 28 14
f 13 29 14
f 27 15 14
f 14 28 27
f 68 49 69
f 49 48 69
f 47 70 69
f 69 48 47
f 37 36 5
f 5 36 6
f 5 38 37
f 5 4 38
f 40 39 3
f 2 40 3
f 3 39 38
f 38 4 3
f 7 36 35
f 6 36 7
f 34 7 35
f 8 7 34
f 9 8 34
f 34 33 9
f 53 20 41
f 53 12 13
f 19 20 53
f 41 42 53
f 53 18 19
f 17 18 53
f 53 16 17
f 53 55 56
f 15 16 53
f 42 43 53
f 53 43 44
f 49 50 53
f 44 45 53
f 53 48 49
f 47 48 53
f 53 46 47
f 53 45 46
f 2 3 53
f 53 50 51
f 51 52 53
f 53 57 58
f 53 58 2
f 53 8 9
f 53 4 6
f 13 14 53
f 11 12 53
f 6 8 53
f 9 11 53
f 54 55 53
f 56 57 53
f 53 14 15
f 53 3 4
f 53 64 63
f 63 54 53
f 65 64 53
f 53 52 65
f 1 21 40
f 1 40 2
f 59 21 1
f 1 58 59
f 61 62 60
f 60 73 74
f 60 70 71
f 60 29 30
f 60 39 40
f 66 67 60
f 60 65 66
f 71 72 60
f 63 64 60
f 60 67 68
f 60 24 25
f 60 34 35
f 23 24 60
f 60 26 27
f 68 69 60
f 25 26 60
f 60 22 23
f 76 22 60
f 60 75 76
f 60 62 63
f 35 36 60
f 40 21 60
f 30 31 60
f 72 73 60
f 74 75 60
f 37 38 60
f 60 64 65
f 32 33 60
f 27 28 60
f 60 28 29
f 38 39 60
f 60 36 37
f 60 21 59
f 60 31 32
f 60 69 70
f 33 34 60
f 60 56 61
f 60 57 56
f 58 57 60
f 59 58 60
