# generated by step_to_parts.py -- 152 verts, 300 tris
v -0.314305 -0.185881 0.022778
v -0.315302 -0.190917 0.021739
v -0.314704 -0.185852 0.023171
v -0.315712 -0.190946 0.022120
v -0.320493 -0.175936 -0.045898
v -0.321508 -0.181068 -0.046150
v -0.320094 -0.175964 -0.046292
v -0.321121 -0.181156 -0.046547
v -0.306810 -0.148000 -0.007282
v -0.307056 -0.149240 -0.001385
v -0.307496 -0.151467 0.004204
v -0.308118 -0.154611 0.009313
v -0.308903 -0.158578 0.013789
v -0.309827 -0.163247 0.017494
v -0.310862 -0.168477 0.020316
v -0.311976 -0.174107 0.022170
v -0.313135 -0.179968 0.022999
v -0.313263 -0.180612 -0.046146
v -0.312154 -0.175010 -0.045488
v -0.311083 -0.169592 -0.043893
v -0.310077 -0.164508 -0.041406
v -0.309165 -0.159898 -0.038096
v -0.308371 -0.155890 -0.034053
v -0.307719 -0.152593 -0.029390
v -0.307226 -0.150098 -0.024234
v -0.306905 -0.148476 -0.018729
v -0.306765 -0.147770 -0.013026
v -0.346449 -0.348344 -0.032725
v -0.346339 -0.347789 -0.035363
v -0.346142 -0.346793 -0.037863
v -0.345863 -0.345387 -0.040148
v -0.345512 -0.343612 -0.042150
v -0.345099 -0.341524 -0.043807
v -0.344636 -0.339185 -0.045070
v -0.344138 -0.336666 -0.045899
v -0.343619 -0.334044 -0.046270
v -0.344351 -0.337742 -0.016018
v -0.344836 -0.340194 -0.017033
v -0.345280 -0.342436 -0.018467
v -0.345668 -0.344400 -0.020275
v -0.345990 -0.346025 -0.022404
v -0.346235 -0.347264 -0.024789
v -0.346396 -0.348077 -0.027356
v -0.346468 -0.348441 -0.030029
v -0.314658 -0.146447 -0.007282
v -0.314615 -0.146230 -0.013310
v -0.314776 -0.147043 -0.019284
v -0.315136 -0.148862 -0.025024
v -0.315684 -0.151631 -0.030355
v -0.316403 -0.155265 -0.035115
v -0.317272 -0.159655 -0.039159
v -0.318263 -0.164668 -0.042364
v -0.319348 -0.170150 -0.044633
v -0.322764 -0.187417 0.022237
v -0.321658 -0.181827 0.023000
v -0.320543 -0.176191 0.022809
v -0.319450 -0.170664 0.021670
v -0.318408 -0.165398 0.019614
v -0.317446 -0.160539 0.016697
v -0.316592 -0.156220 0.013001
v -0.315868 -0.152562 0.008627
v -0.315295 -0.149664 0.003695
v -0.314888 -0.147607 -0.001657
v -0.354296 -0.346791 -0.032725
v -0.354316 -0.346888 -0.030029
v -0.354244 -0.346525 -0.027356
v -0.354083 -0.345711 -0.024789
v -0.353838 -0.344473 -0.022404
v -0.353516 -0.342847 -0.020275
v -0.353127 -0.340883 -0.018467
v -0.352684 -0.338641 -0.017033
v -0.352199 -0.336189 -0.016018
v -0.351467 -0.332492 -0.046270
v -0.351986 -0.335113 -0.045899
v -0.352484 -0.337632 -0.045070
v -0.352947 -0.339971 -0.043807
v -0.353360 -0.342060 -0.042150
v -0.353711 -0.343834 -0.040148
v -0.353990 -0.345241 -0.037863
v -0.354187 -0.346236 -0.035363
v -0.314193 -0.146138 -0.007233
v -0.307123 -0.147537 -0.007233
v -0.314425 -0.147311 -0.001543
v -0.314836 -0.149391 0.003870
v -0.315416 -0.152323 0.008858
v -0.316148 -0.156023 0.013282
v -0.317013 -0.160391 0.017021
v -0.317985 -0.165306 0.019971
v -0.319039 -0.170633 0.022051
v -0.320145 -0.176223 0.023203
v -0.321273 -0.181924 0.023396
v -0.322391 -0.187577 0.022624
v -0.313521 -0.179871 0.023395
v -0.312348 -0.173943 0.022557
v -0.311221 -0.168248 0.020682
v -0.310175 -0.162959 0.017827
v -0.309240 -0.158236 0.014079
v -0.308446 -0.154224 0.009553
v -0.307817 -0.151043 0.004385
v -0.307372 -0.148791 -0.001268
v -0.318936 -0.170113 -0.045013
v -0.317839 -0.164567 -0.042717
v -0.316836 -0.159498 -0.039475
v -0.315957 -0.155057 -0.035385
v -0.315230 -0.151381 -0.030571
v -0.314676 -0.148580 -0.025179
v -0.314312 -0.146741 -0.019373
v -0.314149 -0.145919 -0.013330
v -0.307077 -0.147304 -0.013043
v -0.307219 -0.148018 -0.018811
v -0.307543 -0.149659 -0.024380
v -0.308042 -0.152182 -0.029594
v -0.308702 -0.155517 -0.034311
v -0.309504 -0.159571 -0.038400
v -0.310427 -0.164234 -0.041749
v -0.311444 -0.169377 -0.044264
v -0.312529 -0.174857 -0.045877
v -0.313650 -0.180523 -0.046543
v -0.353984 -0.347255 -0.032774
v -0.346914 -0.348653 -0.032774
v -0.353871 -0.346686 -0.035480
v -0.353669 -0.345664 -0.038044
v -0.353383 -0.344222 -0.040388
v -0.353023 -0.342402 -0.042441
v -0.352600 -0.340260 -0.044141
v -0.352125 -0.337860 -0.045435
v -0.351614 -0.335277 -0.046286
v -0.351082 -0.332588 -0.046666
v -0.344013 -0.333987 -0.046666
v -0.344545 -0.336676 -0.046286
v -0.345056 -0.339259 -0.045435
v -0.345530 -0.341658 -0.044141
v -0.345954 -0.343800 -0.042441
v -0.346314 -0.345620 -0.040388
v -0.346600 -0.347063 -0.038044
v -0.346802 -0.348084 -0.035480
v -0.351832 -0.336380 -0.015638
v -0.352330 -0.338896 -0.016679
v -0.352785 -0.341195 -0.018150
v -0.353183 -0.343209 -0.020005
v -0.353513 -0.344877 -0.022189
v -0.353764 -0.346147 -0.024634
v -0.353929 -0.346981 -0.027268
v -0.354003 -0.347354 -0.030009
v -0.346934 -0.348753 -0.030009
v -0.346860 -0.348380 -0.027268
v -0.346695 -0.347545 -0.024634
v -0.346444 -0.346275 -0.022189
v -0.346114 -0.344608 -0.020005
v -0.345715 -0.342594 -0.018150
v -0.345260 -0.340294 -0.016679
v -0.344763 -0.337779 -0.015638
f 137 4 92
f 92 72 137
f 91 92 3
f 3 92 4
f 152 4 137
f 18 36 118
f 72 92 54
f 93 90 91
f 91 3 93
f 37 2 4
f 4 152 37
f 129 8 118
f 118 36 129
f 97 98 86
f 117 101 116
f 107 108 110
f 6 8 73
f 84 99 100
f 90 93 94
f 105 112 113
f 106 112 105
f 115 103 114
f 109 110 108
f 81 82 109
f 109 108 81
f 111 112 106
f 106 107 111
f 107 110 111
f 7 101 117
f 7 117 118
f 118 8 7
f 73 8 128
f 8 129 128
f 83 84 100
f 100 82 83
f 83 82 81
f 95 96 88
f 104 105 113
f 113 114 104
f 104 114 103
f 102 103 115
f 115 116 102
f 102 116 101
f 85 86 98
f 98 99 85
f 99 84 85
f 90 94 89
f 89 94 95
f 95 88 89
f 87 88 96
f 87 96 97
f 97 86 87
f 19 18 117
f 117 18 118
f 65 144 66
f 66 144 143
f 143 144 146
f 146 144 145
f 141 68 142
f 68 67 142
f 142 66 143
f 142 67 66
f 148 149 140
f 141 148 140
f 150 139 140
f 140 149 150
f 140 68 141
f 140 69 68
f 70 69 140
f 139 70 140
f 150 149 40
f 40 39 150
f 17 93 1
f 1 93 3
f 1 3 4
f 4 2 1
f 91 90 55
f 55 90 56
f 55 92 91
f 55 54 92
f 138 151 152
f 138 152 137
f 138 139 150
f 150 151 138
f 72 71 138
f 137 72 138
f 138 71 70
f 138 70 139
f 145 144 120
f 120 144 119
f 64 144 65
f 119 144 64
f 9 82 100
f 100 10 9
f 141 142 147
f 147 148 141
f 143 146 147
f 147 142 143
f 150 39 38
f 38 151 150
f 152 151 38
f 38 37 152
f 121 120 119
f 136 120 121
f 135 136 121
f 121 122 135
f 121 64 80
f 119 64 121
f 80 79 121
f 121 79 122
f 131 126 127
f 127 130 131
f 11 10 100
f 100 99 11
f 24 23 113
f 113 112 24
f 19 117 20
f 117 116 20
f 115 21 20
f 20 116 115
f 27 26 109
f 109 26 110
f 109 9 27
f 82 9 109
f 111 26 25
f 110 26 111
f 25 24 111
f 111 24 112
f 46 45 81
f 81 108 46
f 46 108 107
f 107 47 46
f 48 105 49
f 106 105 48
f 48 47 107
f 48 107 106
f 74 127 126
f 126 75 74
f 128 74 73
f 127 74 128
f 130 127 128
f 128 129 130
f 125 126 131
f 131 132 125
f 125 132 133
f 133 124 125
f 123 79 78
f 122 79 123
f 135 122 123
f 123 134 135
f 123 124 133
f 133 134 123
f 97 13 12
f 12 98 97
f 12 11 99
f 12 99 98
f 16 93 17
f 16 94 93
f 16 15 95
f 95 94 16
f 14 13 97
f 97 96 14
f 95 15 14
f 14 96 95
f 30 136 135
f 30 29 136
f 135 134 30
f 134 31 30
f 32 134 133
f 32 31 134
f 28 120 136
f 136 29 28
f 145 120 28
f 28 44 145
f 113 23 22
f 22 114 113
f 22 21 115
f 115 114 22
f 53 101 5
f 101 7 5
f 8 6 5
f 5 7 8
f 124 123 77
f 77 123 78
f 81 45 63
f 63 83 81
f 63 62 84
f 84 83 63
f 133 132 33
f 33 32 133
f 43 146 145
f 145 44 43
f 43 147 146
f 43 42 147
f 41 149 148
f 41 40 149
f 148 147 41
f 147 42 41
f 49 105 50
f 105 104 50
f 103 51 50
f 50 104 103
f 52 101 53
f 52 102 101
f 52 51 103
f 103 102 52
f 76 75 126
f 126 125 76
f 76 125 124
f 124 77 76
f 61 60 86
f 86 85 61
f 84 62 61
f 61 85 84
f 56 90 57
f 90 89 57
f 88 58 57
f 57 89 88
f 130 129 35
f 35 129 36
f 59 67 68
f 72 54 59
f 59 55 56
f 49 50 59
f 65 66 59
f 78 79 59
f 59 48 49
f 59 63 45
f 59 71 72
f 68 69 59
f 59 77 78
f 66 67 59
f 70 71 59
f 59 69 70
f 54 55 59
f 59 64 65
f 80 64 59
f 45 46 59
f 59 6 73
f 59 79 80
f 53 5 59
f 73 74 59
f 60 61 59
f 59 46 47
f 47 48 59
f 59 74 75
f 75 76 59
f 59 5 6
f 59 52 53
f 62 63 59
f 56 57 59
f 59 50 51
f 51 52 59
f 59 76 77
f 59 61 62
f 59 57 58
f 86 60 59
f 59 87 86
f 59 58 88
f 88 87 59
f 34 12 13
f 39 40 34
f 36 18 34
f 34 26 27
f 19 20 34
f 34 18 19
f 17 1 34
f 34 38 39
f 23 24 34
f 27 9 34
f 34 1 2
f 2 37 34
f 34 28 29
f 34 9 10
f 29 30 34
f 37 38 34
f 34 43 44
f 10 11 34
f 34 16 17
f 13 14 34
f 31 32 34
f 34 24 25
f 34 20 21
f 25 26 34
f 11 12 34
f 15 16 34
f 34 14 15
f 34 30 31
f 34 22 23
f 44 28 34
f 32 33 34
f 21 22 34
f 40 41 34
f 42 43 34
f 34 41 42
f 34 35 36
f 34 132 131
f 34 33 132
f 131 130 34
f 130 35 34
