# generated by step_to_parts.py -- 80 verts, 156 tris
v 0.165766 -0.185352 0.045940
v 0.164620 -0.176023 0.045166
v 0.171721 -0.184621 0.045940
v 0.170576 -0.175292 0.045166
v 0.165766 -0.185352 -0.069060
v 0.166919 -0.194746 -0.068276
v 0.168041 -0.203883 -0.065945
v 0.169101 -0.212515 -0.062130
v 0.170070 -0.220406 -0.056936
v 0.170921 -0.227341 -0.050504
v 0.171632 -0.233131 -0.043010
v 0.172183 -0.237617 -0.034658
v 0.172559 -0.240677 -0.025676
v 0.172749 -0.242229 -0.016308
v 0.172749 -0.242229 -0.006812
v 0.172559 -0.240677 0.002555
v 0.172183 -0.237617 0.011537
v 0.171632 -0.233131 0.019889
v 0.170921 -0.227341 0.027384
v 0.170070 -0.220406 0.033815
v 0.169101 -0.212515 0.039010
v 0.168041 -0.203883 0.042824
v 0.166919 -0.194746 0.045156
v 0.171721 -0.184621 -0.069060
v 0.172875 -0.194015 -0.068276
v 0.173996 -0.203152 -0.065945
v 0.175056 -0.211784 -0.062130
v 0.176025 -0.219675 -0.056936
v 0.176877 -0.226610 -0.050504
v 0.177588 -0.232399 -0.043010
v 0.178138 -0.236886 -0.034658
v 0.178514 -0.239946 -0.025676
v 0.178705 -0.241498 -0.016308
v 0.178705 -0.241498 -0.006812
v 0.178514 -0.239946 0.002555
v 0.178138 -0.236886 0.011537
v 0.177588 -0.232399 0.019889
v 0.176877 -0.226610 0.027384
v 0.176025 -0.219675 0.033815
v 0.175056 -0.211784 0.039010
v 0.173996 -0.203152 0.042824
v 0.172875 -0.194015 0.045156
v 0.152149 -0.074449 0.024288
v 0.151943 -0.072778 0.023837
v 0.151751 -0.071210 0.023100
v 0.151577 -0.069792 0.022100
v 0.151427 -0.068569 0.020868
v 0.151305 -0.067577 0.019440
v 0.151215 -0.066845 0.017860
v 0.151160 -0.066398 0.016176
v 0.151142 -0.066247 0.014440
v 0.151142 -0.066247 -0.037560
v 0.151160 -0.066398 -0.039297
v 0.151215 -0.066845 -0.040980
v 0.151305 -0.067577 -0.042560
v 0.151427 -0.068569 -0.043988
v 0.151577 -0.069792 -0.045221
v 0.151751 -0.071210 -0.046220
v 0.151943 -0.072778 -0.046957
v 0.152149 -0.074449 -0.047408
v 0.164620 -0.176023 -0.068287
v 0.158104 -0.073718 -0.047408
v 0.157899 -0.072046 -0.046957
v 0.157706 -0.070478 -0.046220
v 0.157532 -0.069061 -0.045221
v 0.157382 -0.067838 -0.043988
v 0.157260 -0.066845 -0.042560
v 0.157170 -0.066114 -0.040980
v 0.157115 -0.065666 -0.039297
v 0.157097 -0.065516 -0.037560
v 0.170576 -0.175292 -0.068287
v 0.157097 -0.065516 0.014440
v 0.157115 -0.065666 0.016176
v 0.157170 -0.066114 0.017860
v 0.157260 -0.066845 0.019440
v 0.157382 -0.067838 0.020868
v 0.157532 -0.069061 0.022100
v 0.157706 -0.070478 0.023100
v 0.157899 -0.072046 0.023837
v 0.158104 -0.073718 0.024288
f 51 72 70
f 51 70 52
f 5 24 25
f 5 25 6
f 71 61 60
f 60 62 71
f 71 5 61
f 24 5 71
f 80 43 2
f 2 4 80
f 3 2 1
f 3 4 2
f 42 3 23
f 23 3 1
f 41 23 22
f 42 23 41
f 10 9 28
f 29 10 28
f 25 26 7
f 6 25 7
f 55 67 66
f 55 66 56
f 67 55 68
f 68 55 54
f 66 65 57
f 56 66 57
f 63 62 60
f 60 59 63
f 45 44 79
f 78 45 79
f 79 44 43
f 43 80 79
f 77 46 45
f 77 45 78
f 16 34 35
f 15 34 16
f 8 28 9
f 27 28 8
f 8 26 27
f 8 7 26
f 33 34 14
f 14 34 15
f 32 14 13
f 33 14 32
f 32 13 12
f 12 31 32
f 52 70 69
f 69 53 52
f 54 53 69
f 69 68 54
f 64 57 65
f 58 57 64
f 64 59 58
f 64 63 59
f 75 74 49
f 48 75 49
f 40 41 22
f 22 21 40
f 40 21 20
f 20 39 40
f 78 79 36
f 70 72 36
f 29 28 36
f 33 32 36
f 36 71 62
f 25 24 36
f 42 41 36
f 41 40 36
f 36 26 25
f 36 30 29
f 62 63 36
f 36 3 42
f 36 77 78
f 27 26 36
f 24 71 36
f 66 67 36
f 36 65 66
f 36 80 4
f 4 3 36
f 36 74 75
f 72 73 36
f 36 38 37
f 36 28 27
f 36 34 33
f 67 68 36
f 36 69 70
f 36 79 80
f 36 64 65
f 36 73 74
f 75 76 36
f 35 34 36
f 31 30 36
f 36 32 31
f 68 69 36
f 63 64 36
f 36 76 77
f 36 40 39
f 39 38 36
f 11 10 29
f 29 30 11
f 11 30 31
f 11 31 12
f 47 76 75
f 47 75 48
f 46 77 47
f 77 76 47
f 72 51 50
f 50 73 72
f 74 73 50
f 50 49 74
f 19 39 20
f 19 38 39
f 37 38 19
f 19 18 37
f 1 2 17
f 17 59 60
f 17 51 52
f 45 46 17
f 6 7 17
f 52 53 17
f 60 61 17
f 17 5 6
f 17 44 45
f 17 23 1
f 17 8 9
f 20 21 17
f 17 55 56
f 2 43 17
f 17 14 15
f 56 57 17
f 17 53 54
f 17 9 10
f 48 49 17
f 61 5 17
f 58 59 17
f 43 44 17
f 10 11 17
f 22 23 17
f 17 50 51
f 15 16 17
f 12 13 17
f 54 55 17
f 17 57 58
f 17 21 22
f 17 19 20
f 7 8 17
f 13 14 17
f 17 47 48
f 17 11 12
f 46 47 17
f 49 50 17
f 18 19 17
f 17 36 37
f 37 18 17
f 17 16 35
f 35 36 17
