# generated by step_to_parts.py -- 261 verts, 518 tris
v 0.244428 -0.153974 -0.039765
v 0.243984 -0.150357 -0.036562
v 0.243597 -0.147207 -0.032892
v 0.243275 -0.144583 -0.028824
v 0.243618 -0.147377 0.009998
v 0.243267 -0.144519 0.005587
v 0.243375 -0.145399 0.007104
v 0.243492 -0.146352 0.008576
v 0.187118 -0.195138 -0.020973
v 0.184116 -0.170692 -0.002148
v 0.184375 -0.172804 -0.023761
v 0.183681 -0.167152 -0.009850
v 0.184830 -0.176503 0.003049
v 0.186801 -0.192559 0.001152
v 0.187547 -0.198632 -0.012925
v 0.186438 -0.189601 -0.025956
v 0.186875 -0.193161 0.001946
v 0.187142 -0.195334 -0.000051
v 0.187362 -0.197129 -0.002399
v 0.187529 -0.198492 -0.005025
v 0.187639 -0.199381 -0.007849
v 0.187686 -0.199771 -0.010786
v 0.187671 -0.199648 -0.013747
v 0.187594 -0.199017 -0.016641
v 0.187456 -0.197896 -0.019381
v 0.187263 -0.196321 -0.021884
v 0.187019 -0.194338 -0.024072
v 0.186733 -0.192008 -0.025880
v 0.186413 -0.189402 -0.027254
v 0.186069 -0.186598 -0.028150
v 0.185711 -0.183683 -0.028542
v 0.185350 -0.180744 -0.028419
v 0.184998 -0.177871 -0.027783
v 0.184664 -0.175152 -0.026654
v 0.184359 -0.172668 -0.025067
v 0.184092 -0.170496 -0.023069
v 0.183872 -0.168701 -0.020721
v 0.183704 -0.167338 -0.018095
v 0.183595 -0.166449 -0.015271
v 0.183547 -0.166059 -0.012334
v 0.183562 -0.166182 -0.009373
v 0.183640 -0.166813 -0.006479
v 0.183777 -0.167933 -0.003739
v 0.183971 -0.169509 -0.001237
v 0.184214 -0.171492 0.000952
v 0.184500 -0.173822 0.002760
v 0.184820 -0.176428 0.004134
v 0.185165 -0.179232 0.005030
v 0.185523 -0.182147 0.005422
v 0.185883 -0.185086 0.005299
v 0.186236 -0.187958 0.004663
v 0.186570 -0.190678 0.003534
v 0.250493 -0.203366 -0.033118
v 0.244127 -0.151518 0.014568
v 0.244724 -0.156383 0.018344
v 0.245392 -0.161826 0.021212
v 0.246111 -0.167680 0.023084
v 0.246859 -0.173768 0.023903
v 0.247612 -0.179904 0.023645
v 0.248349 -0.185903 0.022317
v 0.249046 -0.191582 0.019960
v 0.249683 -0.196768 0.016645
v 0.250240 -0.201304 0.012473
v 0.250700 -0.205053 0.007571
v 0.251049 -0.207899 0.002087
v 0.251277 -0.209757 -0.003811
v 0.251377 -0.210570 -0.009945
v 0.251346 -0.210314 -0.016127
v 0.251184 -0.208996 -0.022171
v 0.250897 -0.206656 -0.027893
v 0.249984 -0.199225 -0.037688
v 0.249387 -0.194359 -0.041464
v 0.248719 -0.188917 -0.044332
v 0.248000 -0.183063 -0.046204
v 0.247252 -0.176975 -0.047023
v 0.246499 -0.170838 -0.046765
v 0.245762 -0.164839 -0.045437
v 0.245065 -0.159160 -0.043080
v 0.232350 -0.147504 -0.050093
v 0.231816 -0.147263 -0.050491
v 0.239069 -0.206331 0.027371
v 0.238239 -0.199568 0.031737
v 0.237332 -0.192184 0.034923
v 0.236374 -0.184381 0.036841
v 0.235390 -0.176370 0.037438
v 0.234408 -0.168371 0.036699
v 0.233454 -0.160602 0.034643
v 0.232554 -0.153275 0.031328
v 0.231734 -0.146589 0.026842
v 0.231014 -0.140728 0.021309
v 0.230415 -0.135850 0.014879
v 0.229953 -0.132089 0.007728
v 0.229641 -0.129548 0.000051
v 0.229487 -0.128295 -0.007943
v 0.229496 -0.128366 -0.016035
v 0.229667 -0.129757 -0.024005
v 0.229995 -0.132432 -0.031636
v 0.230472 -0.136317 -0.038720
v 0.231085 -0.141306 -0.045062
v 0.239528 -0.205969 0.026973
v 0.238658 -0.198883 0.031502
v 0.237706 -0.191125 0.034723
v 0.236699 -0.182929 0.036537
v 0.235670 -0.174546 0.036890
v 0.234649 -0.166228 0.035770
v 0.233667 -0.158230 0.033213
v 0.232754 -0.150795 0.029295
v 0.231937 -0.144147 0.024136
v 0.231243 -0.138490 0.017892
v 0.230691 -0.133995 0.010753
v 0.230298 -0.130798 0.002937
v 0.230077 -0.128998 -0.005320
v 0.230034 -0.128648 -0.013767
v 0.230171 -0.129759 -0.022147
v 0.230482 -0.132297 -0.030205
v 0.230960 -0.136186 -0.037696
v 0.231589 -0.141306 -0.044394
v 0.233220 -0.154589 -0.054622
v 0.234172 -0.162347 -0.057843
v 0.235178 -0.170543 -0.059657
v 0.236208 -0.178927 -0.060010
v 0.237229 -0.187244 -0.058891
v 0.238211 -0.195242 -0.056333
v 0.239124 -0.202678 -0.052415
v 0.239940 -0.209325 -0.047256
v 0.240635 -0.214982 -0.041012
v 0.241187 -0.219477 -0.033874
v 0.241579 -0.222674 -0.026057
v 0.241800 -0.224475 -0.017800
v 0.241843 -0.224825 -0.009353
v 0.241707 -0.223714 -0.000973
v 0.241395 -0.221175 0.007085
v 0.240918 -0.217287 0.014576
v 0.240289 -0.212166 0.021274
v 0.232647 -0.154026 -0.054857
v 0.233553 -0.161410 -0.058043
v 0.234511 -0.169214 -0.059961
v 0.235495 -0.177224 -0.060558
v 0.236477 -0.185223 -0.059819
v 0.237431 -0.192992 -0.057764
v 0.238331 -0.200319 -0.054448
v 0.239152 -0.207005 -0.049962
v 0.239871 -0.212867 -0.044429
v 0.240470 -0.217744 -0.037999
v 0.240932 -0.221505 -0.030848
v 0.241244 -0.224047 -0.023171
v 0.241398 -0.225299 -0.015178
v 0.241389 -0.225229 -0.007085
v 0.241218 -0.223837 0.000885
v 0.240890 -0.221162 0.008516
v 0.240413 -0.217277 0.015599
v 0.239800 -0.212288 0.021942
v 0.197680 -0.211413 0.027371
v 0.197146 -0.211173 0.026973
v 0.197907 -0.217370 0.021274
v 0.198536 -0.222491 0.014576
v 0.199014 -0.226379 0.007085
v 0.199325 -0.228918 -0.000973
v 0.199462 -0.230029 -0.009353
v 0.199419 -0.229678 -0.017800
v 0.199198 -0.227878 -0.026057
v 0.198805 -0.224681 -0.033874
v 0.198253 -0.220186 -0.041012
v 0.197559 -0.214529 -0.047256
v 0.196742 -0.207881 -0.052415
v 0.195829 -0.200446 -0.056333
v 0.194847 -0.192448 -0.058891
v 0.193826 -0.184131 -0.060010
v 0.192797 -0.175747 -0.059657
v 0.191790 -0.167551 -0.057843
v 0.190838 -0.159793 -0.054622
v 0.189968 -0.152707 -0.050093
v 0.190427 -0.152345 -0.050491
v 0.198411 -0.217370 0.021942
v 0.199024 -0.222359 0.015599
v 0.199501 -0.226244 0.008516
v 0.199829 -0.228919 0.000885
v 0.200000 -0.230311 -0.007085
v 0.200009 -0.230381 -0.015178
v 0.199855 -0.229129 -0.023171
v 0.199543 -0.226587 -0.030848
v 0.199081 -0.222826 -0.037999
v 0.198482 -0.217949 -0.044429
v 0.197762 -0.212087 -0.049962
v 0.196942 -0.205401 -0.054448
v 0.196042 -0.198074 -0.057764
v 0.195088 -0.190305 -0.059819
v 0.194106 -0.182306 -0.060558
v 0.193122 -0.174295 -0.059961
v 0.192164 -0.166492 -0.058043
v 0.191257 -0.159108 -0.054857
v 0.189658 -0.146084 -0.044732
v 0.189023 -0.140910 -0.037966
v 0.188541 -0.136982 -0.030397
v 0.188226 -0.134417 -0.022256
v 0.188088 -0.133295 -0.013790
v 0.188131 -0.133648 -0.005256
v 0.188355 -0.135468 0.003086
v 0.188751 -0.138697 0.010983
v 0.189309 -0.143239 0.018196
v 0.190011 -0.148954 0.024504
v 0.190835 -0.155670 0.029716
v 0.191758 -0.163182 0.033674
v 0.192750 -0.171263 0.036258
v 0.193782 -0.179666 0.037389
v 0.194822 -0.188136 0.037033
v 0.195838 -0.196416 0.035200
v 0.196801 -0.204255 0.031946
v 0.189207 -0.146510 -0.044394
v 0.188578 -0.141389 -0.037696
v 0.188101 -0.137501 -0.030205
v 0.187789 -0.134962 -0.022147
v 0.187653 -0.133851 -0.013767
v 0.187696 -0.134202 -0.005320
v 0.187917 -0.136002 0.002937
v 0.188309 -0.139199 0.010753
v 0.188861 -0.143694 0.017892
v 0.189556 -0.149351 0.024136
v 0.190372 -0.155999 0.029295
v 0.191285 -0.163434 0.033213
v 0.192267 -0.171432 0.035770
v 0.193288 -0.179749 0.036890
v 0.194318 -0.188133 0.036537
v 0.195324 -0.196329 0.034723
v 0.196276 -0.204087 0.031502
v 0.189274 -0.204492 0.017042
v 0.189838 -0.209092 0.012811
v 0.190305 -0.212893 0.007840
v 0.190659 -0.215779 0.002279
v 0.190891 -0.217663 -0.003702
v 0.190992 -0.218488 -0.009922
v 0.190960 -0.218228 -0.016192
v 0.190796 -0.216891 -0.022321
v 0.190505 -0.214519 -0.028123
v 0.190095 -0.211182 -0.033422
v 0.189579 -0.206983 -0.038056
v 0.188974 -0.202049 -0.041886
v 0.188296 -0.196529 -0.044794
v 0.187567 -0.190593 -0.046692
v 0.186809 -0.184419 -0.047523
v 0.186045 -0.178196 -0.047261
v 0.185298 -0.172113 -0.045914
v 0.184591 -0.166354 -0.043524
v 0.183945 -0.161095 -0.040162
v 0.183380 -0.156495 -0.035931
v 0.182914 -0.152694 -0.030960
v 0.182559 -0.149807 -0.025400
v 0.182328 -0.147923 -0.019418
v 0.182227 -0.147098 -0.013198
v 0.182258 -0.147358 -0.006929
v 0.182423 -0.148695 -0.000800
v 0.182714 -0.151068 0.005002
v 0.183124 -0.154404 0.010301
v 0.183639 -0.158603 0.014936
v 0.184245 -0.163538 0.018765
v 0.184923 -0.169057 0.021673
v 0.185652 -0.174993 0.023572
v 0.186410 -0.181167 0.024403
v 0.187174 -0.187390 0.024141
v 0.187921 -0.193473 0.022794
v 0.188628 -0.199232 0.020404
f 76 75 138
f 67 147 68
f 143 71 53
f 144 53 70
f 151 134 152
f 196 212 213
f 213 197 196
f 214 197 213
f 195 212 196
f 191 190 171
f 152 134 100
f 125 71 143
f 138 137 120
f 120 76 138
f 137 76 120
f 1 79 2
f 138 75 121
f 129 68 147
f 147 146 129
f 129 146 68
f 68 146 69
f 69 145 70
f 143 53 126
f 126 144 143
f 53 144 126
f 70 145 127
f 127 144 70
f 145 144 127
f 113 4 114
f 117 3 2
f 2 79 117
f 117 79 99
f 84 206 207
f 224 207 223
f 223 207 206
f 130 147 67
f 67 148 130
f 130 148 147
f 149 148 131
f 172 191 171
f 188 187 168
f 169 188 168
f 171 190 170
f 135 79 118
f 133 63 134
f 134 151 133
f 152 100 81
f 71 125 142
f 142 72 71
f 124 72 142
f 142 125 143
f 140 73 123
f 140 74 73
f 122 74 140
f 77 119 118
f 77 76 137
f 137 119 77
f 141 72 124
f 141 140 123
f 73 72 141
f 123 73 141
f 124 142 141
f 128 146 145
f 145 69 128
f 128 69 146
f 4 97 115
f 113 114 95
f 95 195 196
f 3 117 116
f 4 3 116
f 116 97 4
f 85 86 205
f 205 206 85
f 85 206 84
f 88 203 87
f 174 155 175
f 150 133 151
f 164 184 183
f 183 163 164
f 185 184 165
f 184 164 165
f 66 148 67
f 66 131 148
f 66 65 149
f 149 131 66
f 214 215 198
f 198 197 214
f 198 93 197
f 97 193 194
f 192 172 209
f 209 193 192
f 188 169 189
f 189 170 190
f 169 170 189
f 79 135 80
f 99 79 80
f 80 135 191
f 136 119 137
f 118 119 136
f 136 135 118
f 63 133 64
f 64 150 65
f 133 150 64
f 122 140 139
f 138 121 139
f 139 74 122
f 75 74 139
f 139 121 75
f 78 77 118
f 96 115 97
f 96 114 4
f 4 115 96
f 97 194 96
f 96 194 195
f 195 95 96
f 96 95 114
f 98 117 99
f 98 116 117
f 98 99 192
f 192 193 98
f 98 193 97
f 97 116 98
f 202 203 88
f 89 202 88
f 201 202 89
f 217 201 200
f 200 216 217
f 205 86 204
f 204 221 205
f 204 87 203
f 86 87 204
f 103 84 59
f 59 85 103
f 103 85 84
f 86 85 104
f 113 95 94
f 197 93 94
f 196 197 94
f 94 95 196
f 93 198 92
f 224 225 208
f 208 207 224
f 156 175 155
f 176 175 156
f 156 157 176
f 149 65 132
f 132 150 149
f 65 150 132
f 182 163 183
f 162 163 182
f 176 157 177
f 177 157 158
f 166 186 185
f 185 165 166
f 168 187 167
f 187 186 167
f 186 166 167
f 222 206 205
f 222 223 206
f 205 221 222
f 215 216 199
f 199 198 215
f 199 92 198
f 91 92 199
f 200 91 199
f 199 216 200
f 212 195 211
f 195 194 211
f 191 172 173
f 173 80 191
f 173 172 192
f 192 99 173
f 99 80 173
f 100 62 61
f 61 101 100
f 82 81 100
f 100 101 82
f 203 202 219
f 90 91 200
f 200 201 90
f 201 89 90
f 105 87 86
f 86 57 105
f 105 57 87
f 58 85 59
f 58 104 85
f 86 104 58
f 58 57 86
f 87 57 56
f 113 94 112
f 112 94 93
f 110 92 91
f 6 112 93
f 92 110 6
f 6 4 113
f 113 112 6
f 154 155 174
f 162 182 181
f 181 161 162
f 181 180 161
f 179 159 160
f 160 180 179
f 161 180 160
f 178 159 179
f 158 159 178
f 178 177 158
f 193 209 210
f 210 194 193
f 210 211 194
f 59 84 60
f 101 61 60
f 83 82 101
f 84 207 83
f 207 208 83
f 208 82 83
f 203 219 220
f 220 204 203
f 221 204 220
f 201 217 218
f 218 202 201
f 218 219 202
f 109 8 91
f 91 90 109
f 88 87 106
f 106 56 88
f 87 56 106
f 93 92 111
f 111 6 93
f 92 6 111
f 91 8 7
f 7 110 91
f 7 6 110
f 225 154 153
f 153 208 225
f 81 82 153
f 153 82 208
f 153 154 174
f 102 60 84
f 84 83 102
f 101 60 102
f 102 83 101
f 108 90 89
f 89 54 108
f 108 54 90
f 8 109 5
f 5 109 90
f 90 54 5
f 55 54 89
f 88 56 55
f 107 89 88
f 88 55 107
f 107 55 89
f 16 29 28
f 11 35 34
f 12 41 40
f 13 48 47
f 249 213 248
f 248 213 212
f 250 213 249
f 214 213 250
f 215 250 251
f 214 250 215
f 243 244 172
f 172 171 243
f 170 242 243
f 243 171 170
f 134 63 62
f 62 100 134
f 183 184 142
f 143 183 142
f 186 140 141
f 185 186 141
f 141 142 184
f 141 184 185
f 175 151 152
f 152 174 175
f 151 175 150
f 150 175 176
f 244 245 209
f 209 172 244
f 138 188 189
f 189 137 138
f 191 135 136
f 190 191 136
f 137 189 136
f 136 189 190
f 139 140 186
f 139 186 187
f 139 188 138
f 187 188 139
f 79 1 78
f 118 79 78
f 261 224 260
f 261 225 224
f 227 228 156
f 156 155 227
f 156 228 229
f 229 157 156
f 180 146 147
f 180 147 179
f 235 162 234
f 235 163 162
f 236 164 235
f 235 164 163
f 182 183 143
f 143 144 182
f 177 150 176
f 149 150 177
f 230 157 229
f 158 157 230
f 231 159 230
f 230 159 158
f 242 170 241
f 241 170 169
f 241 169 168
f 168 240 241
f 260 224 259
f 224 223 259
f 258 259 222
f 222 259 223
f 257 258 222
f 222 221 257
f 252 215 251
f 252 216 215
f 253 217 252
f 252 217 216
f 211 248 212
f 211 247 248
f 234 162 233
f 162 161 233
f 181 182 144
f 181 144 145
f 146 180 181
f 145 146 181
f 231 232 160
f 160 159 231
f 232 233 160
f 160 233 161
f 179 147 178
f 147 148 178
f 149 177 178
f 178 148 149
f 246 247 210
f 247 211 210
f 210 245 246
f 210 209 245
f 255 256 220
f 220 219 255
f 220 256 257
f 257 221 220
f 254 255 218
f 255 219 218
f 218 253 254
f 218 217 253
f 227 155 226
f 155 154 226
f 225 261 226
f 226 154 225
f 153 174 152
f 152 81 153
f 237 164 236
f 237 165 164
f 237 166 165
f 237 238 166
f 239 240 168
f 168 167 239
f 166 238 239
f 239 167 166
f 55 53 71
f 2 3 55
f 55 1 2
f 55 78 1
f 67 68 55
f 76 77 55
f 55 69 70
f 75 76 55
f 71 72 55
f 55 74 75
f 70 53 55
f 55 3 4
f 55 66 67
f 4 6 55
f 55 72 73
f 73 74 55
f 68 69 55
f 55 62 63
f 63 64 55
f 59 60 55
f 65 66 55
f 55 64 65
f 77 78 55
f 55 58 59
f 55 61 62
f 57 58 55
f 55 56 57
f 55 7 8
f 55 60 61
f 8 5 55
f 6 7 55
f 55 5 54
f 240 239 31
f 239 30 31
f 248 247 39
f 247 38 39
f 249 248 39
f 39 40 249
f 32 241 240
f 240 31 32
f 29 239 238
f 29 30 239
f 238 237 29
f 237 28 29
f 41 250 249
f 249 40 41
f 251 250 41
f 41 42 251
f 43 252 251
f 251 42 43
f 27 237 236
f 27 28 237
f 236 235 27
f 235 26 27
f 24 233 232
f 232 23 24
f 253 252 44
f 252 43 44
f 242 241 33
f 241 32 33
f 243 242 33
f 33 34 243
f 16 31 30
f 30 29 16
f 25 235 234
f 25 26 235
f 234 233 25
f 233 24 25
f 254 253 45
f 253 44 45
f 35 244 243
f 243 34 35
f 35 245 244
f 35 36 245
f 37 247 246
f 37 38 247
f 246 245 37
f 245 36 37
f 9 16 28
f 9 27 26
f 28 27 9
f 31 16 11
f 11 32 31
f 11 33 32
f 34 33 11
f 11 37 36
f 36 35 11
f 46 255 254
f 254 45 46
f 46 256 255
f 46 47 256
f 37 11 12
f 12 39 38
f 38 37 12
f 40 39 12
f 257 256 48
f 256 47 48
f 48 258 257
f 48 49 258
f 50 259 258
f 258 49 50
f 260 259 51
f 259 50 51
f 10 46 45
f 47 46 10
f 10 13 47
f 10 45 44
f 10 43 42
f 42 41 10
f 10 44 43
f 41 12 10
f 52 261 260
f 260 51 52
f 52 226 261
f 52 17 226
f 18 228 227
f 18 19 228
f 227 226 18
f 226 17 18
f 229 228 20
f 228 19 20
f 19 18 14
f 14 18 17
f 48 13 14
f 49 48 14
f 14 50 49
f 14 51 50
f 14 52 51
f 17 52 14
f 15 25 24
f 15 9 26
f 26 25 15
f 15 11 16
f 16 9 15
f 15 12 11
f 15 10 12
f 13 10 15
f 15 14 13
f 22 232 231
f 22 23 232
f 22 24 23
f 22 15 24
f 19 14 21
f 14 15 21
f 21 20 19
f 15 22 21
f 21 230 229
f 229 20 21
f 231 230 21
f 21 22 231
