# generated by step_to_parts.py -- 152 verts, 300 tris
v 0.151228 -0.182652 -0.045876
v 0.151866 -0.187844 -0.046154
v 0.151616 -0.182553 -0.046269
v 0.152261 -0.187804 -0.046551
v 0.160254 -0.190514 0.022755
v 0.160879 -0.195605 0.021690
v 0.159866 -0.190613 0.023149
v 0.160498 -0.195762 0.022072
v 0.147589 -0.153011 -0.007108
v 0.147558 -0.152761 -0.013135
v 0.147656 -0.153554 -0.019113
v 0.147878 -0.155365 -0.024863
v 0.148219 -0.158139 -0.030207
v 0.148667 -0.161793 -0.034986
v 0.149210 -0.166214 -0.039052
v 0.149831 -0.171269 -0.042284
v 0.150510 -0.176805 -0.044581
v 0.152697 -0.194611 0.022199
v 0.152003 -0.188960 0.022991
v 0.151303 -0.183257 0.022829
v 0.150615 -0.177659 0.021718
v 0.149960 -0.172320 0.019689
v 0.149354 -0.167389 0.016798
v 0.148816 -0.163001 0.013124
v 0.148358 -0.159277 0.008769
v 0.147995 -0.156321 0.003853
v 0.147736 -0.154212 -0.001489
v 0.172462 -0.355586 -0.033586
v 0.172476 -0.355697 -0.030890
v 0.172432 -0.355343 -0.028216
v 0.172333 -0.354533 -0.025644
v 0.172180 -0.353292 -0.023254
v 0.171980 -0.351657 -0.021116
v 0.171737 -0.349680 -0.019297
v 0.171459 -0.347418 -0.017852
v 0.171155 -0.344942 -0.016824
v 0.170677 -0.341050 -0.047057
v 0.171003 -0.343704 -0.046699
v 0.171317 -0.346256 -0.045883
v 0.171608 -0.348629 -0.044633
v 0.171868 -0.350751 -0.042986
v 0.172090 -0.352556 -0.040994
v 0.172266 -0.353991 -0.038716
v 0.172391 -0.355011 -0.036221
v 0.155529 -0.152036 -0.007108
v 0.155687 -0.153321 -0.001217
v 0.155967 -0.155601 0.004360
v 0.156361 -0.158808 0.009453
v 0.156856 -0.162845 0.013908
v 0.157439 -0.167587 0.017589
v 0.158090 -0.172892 0.020384
v 0.158791 -0.178599 0.022209
v 0.159519 -0.184533 0.023007
v 0.159557 -0.184837 -0.046140
v 0.158861 -0.179172 -0.045453
v 0.158189 -0.173698 -0.043830
v 0.157559 -0.168567 -0.041317
v 0.156988 -0.163919 -0.037983
v 0.156493 -0.159884 -0.033920
v 0.156086 -0.156571 -0.029239
v 0.155780 -0.154074 -0.024071
v 0.155581 -0.152460 -0.018557
v 0.155497 -0.151774 -0.012851
v 0.180402 -0.354611 -0.033586
v 0.180332 -0.354036 -0.036221
v 0.180207 -0.353016 -0.038716
v 0.180030 -0.351581 -0.040994
v 0.179809 -0.349776 -0.042986
v 0.179548 -0.347654 -0.044633
v 0.179257 -0.345281 -0.045883
v 0.178943 -0.342729 -0.046699
v 0.178618 -0.340075 -0.047057
v 0.179096 -0.343967 -0.016824
v 0.179400 -0.346443 -0.017852
v 0.179677 -0.348705 -0.019297
v 0.179920 -0.350682 -0.021116
v 0.180121 -0.352317 -0.023254
v 0.180273 -0.353558 -0.025644
v 0.180373 -0.354368 -0.028216
v 0.180416 -0.354722 -0.030890
v 0.155087 -0.151694 -0.007057
v 0.147935 -0.152572 -0.007057
v 0.155055 -0.151429 -0.012865
v 0.155140 -0.152123 -0.018638
v 0.155341 -0.153755 -0.024214
v 0.155651 -0.156281 -0.029442
v 0.156062 -0.159631 -0.034176
v 0.156563 -0.163713 -0.038286
v 0.157140 -0.168414 -0.041659
v 0.157778 -0.173605 -0.044200
v 0.158458 -0.179141 -0.045842
v 0.159161 -0.184870 -0.046537
v 0.150890 -0.176639 -0.044960
v 0.150202 -0.171040 -0.042636
v 0.149575 -0.165927 -0.039368
v 0.149026 -0.161454 -0.035254
v 0.148572 -0.157759 -0.030421
v 0.148227 -0.154953 -0.025015
v 0.148002 -0.153121 -0.019200
v 0.147904 -0.152319 -0.013153
v 0.159123 -0.184563 0.023404
v 0.158386 -0.178561 0.022596
v 0.157678 -0.172789 0.020750
v 0.157019 -0.167423 0.017923
v 0.156430 -0.162626 0.014200
v 0.155929 -0.158544 0.009694
v 0.155530 -0.155300 0.004542
v 0.155247 -0.152993 -0.001098
v 0.148084 -0.153787 -0.001373
v 0.148346 -0.155920 0.004029
v 0.148713 -0.158910 0.009002
v 0.149176 -0.162677 0.013407
v 0.149721 -0.167115 0.017123
v 0.150333 -0.172103 0.020048
v 0.150996 -0.177502 0.022100
v 0.151691 -0.183165 0.023223
v 0.152400 -0.188933 0.023387
v 0.153101 -0.194649 0.022586
v 0.180056 -0.355050 -0.033637
v 0.172904 -0.355928 -0.033637
v 0.180070 -0.355164 -0.030872
v 0.180026 -0.354801 -0.028129
v 0.179924 -0.353970 -0.025492
v 0.179768 -0.352697 -0.023040
v 0.179562 -0.351021 -0.020847
v 0.179313 -0.348992 -0.018982
v 0.179028 -0.346673 -0.017499
v 0.178716 -0.344134 -0.016445
v 0.171564 -0.345012 -0.016445
v 0.171875 -0.347551 -0.017499
v 0.172160 -0.349871 -0.018982
v 0.172409 -0.351899 -0.020847
v 0.172615 -0.353575 -0.023040
v 0.172771 -0.354848 -0.025492
v 0.172873 -0.355679 -0.028129
v 0.172918 -0.356042 -0.030872
v 0.178226 -0.340141 -0.047453
v 0.178560 -0.342863 -0.047087
v 0.178882 -0.345481 -0.046250
v 0.179180 -0.347915 -0.044967
v 0.179448 -0.350091 -0.043279
v 0.179675 -0.351943 -0.041235
v 0.179856 -0.353414 -0.038898
v 0.179984 -0.354460 -0.036340
v 0.172831 -0.355338 -0.036340
v 0.172703 -0.354292 -0.038898
v 0.172522 -0.352821 -0.041235
v 0.172295 -0.350969 -0.043279
v 0.172028 -0.348793 -0.044967
v 0.171729 -0.346359 -0.046250
v 0.171408 -0.343742 -0.047087
v 0.171073 -0.341019 -0.047453
f 54 72 92
f 92 72 137
f 6 8 73
f 8 7 118
f 84 100 83
f 84 99 100
f 92 137 4
f 91 93 90
f 107 111 106
f 105 106 112
f 112 106 111
f 107 108 110
f 110 111 107
f 129 118 36
f 8 118 129
f 36 118 18
f 117 118 7
f 117 7 101
f 101 116 117
f 2 4 37
f 94 89 90
f 90 93 94
f 93 91 3
f 92 4 3
f 3 91 92
f 37 4 152
f 152 4 137
f 83 100 82
f 82 81 83
f 114 103 104
f 102 116 101
f 114 104 113
f 105 112 113
f 113 104 105
f 73 8 128
f 8 129 128
f 95 88 89
f 89 94 95
f 96 88 95
f 109 110 108
f 108 81 109
f 81 82 109
f 116 102 115
f 115 103 114
f 115 102 103
f 87 88 96
f 98 86 97
f 97 87 96
f 86 87 97
f 85 86 98
f 98 99 85
f 99 84 85
f 5 53 101
f 101 7 5
f 5 7 8
f 8 6 5
f 19 18 117
f 117 18 118
f 100 99 11
f 10 100 11
f 3 2 1
f 4 2 3
f 57 88 58
f 89 88 57
f 90 89 57
f 57 56 90
f 55 54 92
f 92 91 55
f 90 56 55
f 55 91 90
f 105 49 48
f 48 106 105
f 107 106 48
f 48 47 107
f 107 47 46
f 46 108 107
f 19 117 20
f 20 117 116
f 76 75 126
f 125 76 126
f 73 128 74
f 74 128 127
f 74 126 75
f 127 126 74
f 12 11 99
f 12 99 98
f 108 46 45
f 45 81 108
f 9 100 10
f 9 82 100
f 109 9 27
f 82 9 109
f 24 112 25
f 25 112 111
f 101 53 52
f 52 102 101
f 103 102 52
f 52 51 103
f 50 49 105
f 105 104 50
f 103 51 50
f 50 104 103
f 23 112 24
f 23 113 112
f 23 22 114
f 114 113 23
f 77 76 125
f 125 124 77
f 13 12 97
f 97 12 98
f 80 79 121
f 121 79 122
f 121 135 136
f 122 135 121
f 123 135 122
f 134 135 123
f 78 77 123
f 123 77 124
f 123 79 78
f 122 79 123
f 30 135 134
f 134 31 30
f 134 123 133
f 133 123 124
f 132 124 125
f 132 133 124
f 127 128 130
f 130 128 129
f 13 97 14
f 14 97 96
f 96 95 14
f 14 95 15
f 17 3 1
f 93 3 17
f 26 109 27
f 110 109 26
f 26 25 111
f 111 110 26
f 114 22 21
f 21 115 114
f 21 20 116
f 116 115 21
f 81 45 63
f 83 81 63
f 119 121 136
f 136 120 119
f 29 120 136
f 28 120 29
f 136 135 29
f 135 30 29
f 32 31 134
f 134 133 32
f 125 126 131
f 131 132 125
f 131 126 127
f 127 130 131
f 35 130 129
f 35 129 36
f 35 131 130
f 34 131 35
f 15 95 16
f 16 95 94
f 93 17 16
f 16 94 93
f 71 137 72
f 71 138 137
f 140 141 149
f 149 141 148
f 140 149 139
f 139 149 150
f 151 38 37
f 37 152 151
f 137 138 151
f 151 152 137
f 151 139 150
f 138 139 151
f 142 67 66
f 66 143 142
f 66 65 144
f 144 143 66
f 145 119 120
f 144 119 145
f 145 143 144
f 145 146 143
f 80 121 64
f 121 119 64
f 144 65 64
f 64 119 144
f 132 131 33
f 33 131 34
f 133 132 33
f 33 32 133
f 68 67 142
f 142 141 68
f 68 141 140
f 140 69 68
f 40 149 148
f 148 41 40
f 140 139 70
f 70 69 140
f 138 71 70
f 70 139 138
f 148 141 147
f 147 141 142
f 142 143 147
f 143 146 147
f 44 120 28
f 44 145 120
f 146 145 44
f 44 43 146
f 58 88 59
f 88 87 59
f 59 87 86
f 86 60 59
f 83 63 62
f 62 84 83
f 39 151 150
f 38 151 39
f 150 149 39
f 149 40 39
f 15 16 42
f 10 11 42
f 42 2 37
f 37 38 42
f 36 18 42
f 42 12 13
f 31 32 42
f 13 14 42
f 24 25 42
f 42 18 19
f 19 20 42
f 42 23 24
f 1 2 42
f 42 9 10
f 42 26 27
f 11 12 42
f 28 29 42
f 42 21 22
f 42 33 34
f 27 9 42
f 42 17 1
f 22 23 42
f 42 30 31
f 42 14 15
f 42 35 36
f 25 26 42
f 20 21 42
f 42 29 30
f 42 44 28
f 34 35 42
f 42 16 17
f 38 39 42
f 32 33 42
f 42 40 41
f 43 44 42
f 42 39 40
f 42 41 148
f 148 147 42
f 42 147 146
f 146 43 42
f 54 55 61
f 61 46 47
f 61 6 73
f 61 48 49
f 72 54 61
f 53 5 61
f 76 77 61
f 61 45 46
f 61 57 58
f 73 74 61
f 49 50 61
f 61 75 76
f 61 5 6
f 56 57 61
f 61 55 56
f 61 79 80
f 47 48 61
f 69 70 61
f 61 52 53
f 61 74 75
f 61 71 72
f 61 66 67
f 51 52 61
f 61 50 51
f 61 77 78
f 78 79 61
f 80 64 61
f 61 63 45
f 67 68 61
f 65 66 61
f 58 59 61
f 61 64 65
f 61 68 69
f 61 70 71
f 61 59 60
f 61 62 63
f 61 60 86
f 86 85 61
f 84 62 61
f 61 85 84
