# generated by step_to_parts.py -- 76 verts, 148 tris
v 0.171721 -0.184621 -0.068560
v 0.172865 -0.193933 -0.067783
v 0.173977 -0.202991 -0.065472
v 0.175027 -0.211548 -0.061690
v 0.175988 -0.219370 -0.056541
v 0.176832 -0.226245 -0.050165
v 0.177537 -0.231984 -0.042736
v 0.178083 -0.236431 -0.034457
v 0.178455 -0.239465 -0.025553
v 0.178644 -0.241003 -0.016267
v 0.178644 -0.241003 -0.006853
v 0.178455 -0.239465 0.002433
v 0.178083 -0.236431 0.011337
v 0.177537 -0.231984 0.019616
v 0.176832 -0.226245 0.027045
v 0.175988 -0.219370 0.033421
v 0.175027 -0.211548 0.038570
v 0.173977 -0.202991 0.042351
v 0.172865 -0.193933 0.044662
v 0.171721 -0.184621 0.045440
v 0.193557 -0.181940 -0.068560
v 0.193557 -0.181940 0.045440
v 0.194701 -0.191252 0.044662
v 0.195813 -0.200310 0.042351
v 0.196863 -0.208867 0.038570
v 0.197824 -0.216689 0.033421
v 0.198668 -0.223564 0.027045
v 0.199373 -0.229303 0.019616
v 0.199919 -0.233750 0.011337
v 0.200291 -0.236784 0.002433
v 0.200480 -0.238322 -0.006853
v 0.200480 -0.238322 -0.016267
v 0.200291 -0.236784 -0.025553
v 0.199919 -0.233750 -0.034457
v 0.199373 -0.229303 -0.042736
v 0.198668 -0.223564 -0.050165
v 0.197824 -0.216689 -0.056541
v 0.196863 -0.208867 -0.061690
v 0.195813 -0.200310 -0.065472
v 0.194701 -0.191252 -0.067783
v 0.170578 -0.175309 0.044662
v 0.169466 -0.166251 0.042351
v 0.168415 -0.157694 0.038570
v 0.167454 -0.149872 0.033421
v 0.166610 -0.142997 0.027045
v 0.165906 -0.137258 0.019616
v 0.165360 -0.132811 0.011337
v 0.164987 -0.129777 0.002433
v 0.164798 -0.128239 -0.006853
v 0.164798 -0.128239 -0.016267
v 0.164987 -0.129777 -0.025553
v 0.165360 -0.132811 -0.034457
v 0.165906 -0.137258 -0.042736
v 0.166610 -0.142997 -0.050165
v 0.167454 -0.149872 -0.056541
v 0.168415 -0.157694 -0.061690
v 0.169466 -0.166251 -0.065472
v 0.170578 -0.175309 -0.067783
v 0.192414 -0.172628 -0.067783
v 0.191302 -0.163570 -0.065472
v 0.190251 -0.155013 -0.061690
v 0.189290 -0.147191 -0.056541
v 0.188446 -0.140316 -0.050165
v 0.187742 -0.134577 -0.042736
v 0.187196 -0.130130 -0.034457
v 0.186823 -0.127096 -0.025553
v 0.186634 -0.125558 -0.016267
v 0.186634 -0.125558 -0.006853
v 0.186823 -0.127096 0.002433
v 0.187196 -0.130130 0.011337
v 0.187742 -0.134577 0.019616
v 0.188446 -0.140316 0.027045
v 0.189290 -0.147191 0.033421
v 0.190251 -0.155013 0.038570
v 0.191302 -0.163570 0.042351
v 0.192414 -0.172628 0.044662
f 68 50 49
f 67 50 68
f 12 11 30
f 30 11 31
f 58 59 21
f 58 21 1
f 51 50 66
f 66 50 67
f 32 11 10
f 31 11 32
f 35 8 7
f 34 8 35
f 71 46 45
f 71 45 72
f 15 27 26
f 26 16 15
f 28 27 15
f 15 14 28
f 52 66 65
f 51 66 52
f 54 53 64
f 64 63 54
f 53 52 64
f 64 52 65
f 62 55 54
f 54 63 62
f 56 55 62
f 62 61 56
f 60 58 57
f 59 58 60
f 57 56 60
f 56 61 60
f 46 71 47
f 47 71 70
f 36 35 6
f 6 35 7
f 37 6 5
f 36 6 37
f 37 5 4
f 4 38 37
f 42 76 75
f 41 76 42
f 75 74 42
f 42 74 43
f 44 73 72
f 72 45 44
f 44 74 73
f 43 74 44
f 12 30 13
f 30 29 13
f 28 14 13
f 13 29 28
f 22 76 20
f 20 76 41
f 20 23 22
f 19 23 20
f 17 16 26
f 26 25 17
f 48 68 49
f 48 69 68
f 70 69 48
f 48 47 70
f 1 21 40
f 40 2 1
f 33 8 34
f 33 9 8
f 33 32 10
f 10 9 33
f 18 23 19
f 24 23 18
f 18 25 24
f 18 17 25
f 3 53 54
f 3 11 12
f 51 52 3
f 3 44 45
f 3 6 7
f 3 58 1
f 49 50 3
f 16 17 3
f 7 8 3
f 3 15 16
f 3 50 51
f 3 56 57
f 10 11 3
f 54 55 3
f 45 46 3
f 3 9 10
f 57 58 3
f 12 13 3
f 3 55 56
f 4 5 3
f 1 2 3
f 41 42 3
f 14 15 3
f 3 20 41
f 3 52 53
f 46 47 3
f 5 6 3
f 3 18 19
f 8 9 3
f 3 42 43
f 43 44 3
f 3 13 14
f 19 20 3
f 3 48 49
f 47 48 3
f 17 18 3
f 39 74 75
f 21 59 39
f 22 23 39
f 67 68 39
f 26 27 39
f 72 73 39
f 39 35 36
f 39 69 70
f 39 76 22
f 39 30 31
f 39 66 67
f 39 25 26
f 63 64 39
f 31 32 39
f 75 76 39
f 36 37 39
f 39 71 72
f 39 27 28
f 28 29 39
f 65 66 39
f 39 62 63
f 68 69 39
f 59 60 39
f 39 40 21
f 34 35 39
f 70 71 39
f 39 29 30
f 24 25 39
f 39 64 65
f 61 62 39
f 39 60 61
f 39 37 38
f 73 74 39
f 39 23 24
f 39 33 34
f 32 33 39
f 39 38 4
f 4 3 39
f 2 40 39
f 39 3 2
