# generated by step_to_parts.py -- 72 verts, 140 tris
v 0.163941 -0.220546 -0.016063
v 0.163972 -0.220799 -0.009967
v 0.163874 -0.219997 -0.003920
v 0.163649 -0.218165 0.001895
v 0.163304 -0.215359 0.007301
v 0.162851 -0.211664 0.012134
v 0.162302 -0.207191 0.016247
v 0.161674 -0.202078 0.019516
v 0.160986 -0.196479 0.021840
v 0.160260 -0.190565 0.023149
v 0.159517 -0.184515 0.023404
v 0.158780 -0.178513 0.022596
v 0.158072 -0.172741 0.020750
v 0.157413 -0.167375 0.017923
v 0.156824 -0.162578 0.014200
v 0.156322 -0.158495 0.009694
v 0.155924 -0.155252 0.004542
v 0.155641 -0.152945 -0.001098
v 0.155481 -0.151645 -0.007057
v 0.189847 -0.217365 -0.016063
v 0.181387 -0.148465 -0.007057
v 0.181546 -0.149764 -0.001098
v 0.181830 -0.152071 0.004542
v 0.182228 -0.155315 0.009694
v 0.182729 -0.159397 0.014200
v 0.183318 -0.164194 0.017923
v 0.183977 -0.169560 0.020750
v 0.184686 -0.175332 0.022596
v 0.185423 -0.181334 0.023404
v 0.186166 -0.187384 0.023149
v 0.186892 -0.193299 0.021840
v 0.187579 -0.198897 0.019516
v 0.188207 -0.204011 0.016247
v 0.188756 -0.208483 0.012134
v 0.189210 -0.212178 0.007301
v 0.189554 -0.214985 0.001895
v 0.189779 -0.216816 -0.003920
v 0.189878 -0.217618 -0.009967
v 0.155450 -0.151393 -0.013153
v 0.155549 -0.152194 -0.019200
v 0.155774 -0.154026 -0.025015
v 0.156118 -0.156832 -0.030421
v 0.156572 -0.160528 -0.035254
v 0.157121 -0.165000 -0.039368
v 0.157749 -0.170113 -0.042636
v 0.158436 -0.175712 -0.044960
v 0.159163 -0.181626 -0.046269
v 0.159905 -0.187677 -0.046524
v 0.160642 -0.193679 -0.045716
v 0.161351 -0.199450 -0.043871
v 0.162010 -0.204816 -0.041043
v 0.162599 -0.209613 -0.037320
v 0.163100 -0.213696 -0.032814
v 0.163499 -0.216940 -0.027663
v 0.163782 -0.219247 -0.022022
v 0.189687 -0.216066 -0.022022
v 0.189404 -0.213759 -0.027663
v 0.189006 -0.210515 -0.032814
v 0.188504 -0.206433 -0.037320
v 0.187915 -0.201636 -0.041043
v 0.187257 -0.196270 -0.043871
v 0.186548 -0.190498 -0.045716
v 0.185811 -0.184496 -0.046524
v 0.185068 -0.178446 -0.046269
v 0.184342 -0.172531 -0.044960
v 0.183654 -0.166932 -0.042636
v 0.183027 -0.161819 -0.039368
v 0.182477 -0.157347 -0.035254
v 0.182024 -0.153652 -0.030421
v 0.181679 -0.150845 -0.025015
v 0.181454 -0.149014 -0.019200
v 0.181356 -0.148212 -0.013153
f 2 1 20
f 38 2 20
f 50 49 62
f 61 50 62
f 38 37 3
f 3 2 38
f 43 42 69
f 68 43 69
f 69 42 41
f 41 70 69
f 71 40 39
f 39 72 71
f 41 40 71
f 71 70 41
f 55 54 56
f 56 54 57
f 56 1 55
f 56 20 1
f 65 47 46
f 64 47 65
f 46 45 65
f 45 66 65
f 67 44 43
f 67 43 68
f 45 44 67
f 67 66 45
f 48 47 63
f 63 47 64
f 63 49 48
f 63 62 49
f 60 50 61
f 60 51 50
f 52 51 60
f 60 59 52
f 58 54 53
f 57 54 58
f 53 52 58
f 52 59 58
f 4 3 36
f 36 3 37
f 36 5 4
f 35 5 36
f 8 7 33
f 32 8 33
f 11 10 29
f 29 10 30
f 31 9 8
f 31 8 32
f 31 10 9
f 30 10 31
f 34 5 35
f 6 5 34
f 34 7 6
f 34 33 7
f 16 15 25
f 24 16 25
f 24 23 17
f 17 16 24
f 17 23 22
f 17 22 18
f 19 72 39
f 19 21 72
f 22 21 19
f 18 22 19
f 38 20 27
f 27 34 35
f 28 29 27
f 61 62 27
f 27 37 38
f 27 71 72
f 64 65 27
f 27 63 64
f 27 36 37
f 68 69 27
f 32 33 27
f 27 56 57
f 27 67 68
f 27 60 61
f 57 58 27
f 24 25 27
f 27 69 70
f 70 71 27
f 27 23 24
f 20 56 27
f 27 65 66
f 66 67 27
f 62 63 27
f 59 60 27
f 27 58 59
f 35 36 27
f 72 21 27
f 27 31 32
f 22 23 27
f 27 21 22
f 27 29 30
f 30 31 27
f 33 34 27
f 27 25 26
f 11 29 12
f 12 29 28
f 28 27 12
f 12 27 13
f 53 54 14
f 14 54 55
f 55 1 14
f 48 49 14
f 14 52 53
f 14 47 48
f 14 1 2
f 14 49 50
f 6 7 14
f 50 51 14
f 2 3 14
f 14 42 43
f 14 10 11
f 14 45 46
f 43 44 14
f 41 42 14
f 16 17 14
f 14 40 41
f 39 40 14
f 14 5 6
f 14 19 39
f 14 44 45
f 46 47 14
f 14 51 52
f 14 3 4
f 8 9 14
f 14 7 8
f 4 5 14
f 14 15 16
f 9 10 14
f 11 12 14
f 14 17 18
f 18 19 14
f 14 12 13
f 14 25 15
f 26 25 14
f 14 27 26
f 13 27 14
