# generated by step_to_parts.py -- 43 verts, 82 tris
v -0.389345 -0.523939 -0.051759
v -0.379535 -0.525880 -0.051759
v -0.390259 -0.528559 -0.095986
v -0.391499 -0.534827 -0.100039
v -0.392852 -0.541662 -0.102991
v -0.394280 -0.548879 -0.104762
v -0.395744 -0.556283 -0.105303
v -0.397207 -0.563674 -0.104601
v -0.398627 -0.570853 -0.102674
v -0.399967 -0.577624 -0.099574
v -0.401190 -0.583807 -0.095386
v -0.402263 -0.589232 -0.090222
v -0.403158 -0.593755 -0.084221
v -0.403850 -0.597252 -0.077547
v -0.380449 -0.530500 -0.095986
v -0.381690 -0.536768 -0.100039
v -0.383042 -0.543603 -0.102991
v -0.384470 -0.550820 -0.104762
v -0.385935 -0.558224 -0.105303
v -0.387397 -0.565615 -0.104601
v -0.388817 -0.572794 -0.102674
v -0.390157 -0.579565 -0.099574
v -0.391380 -0.585747 -0.095386
v -0.392454 -0.591173 -0.090222
v -0.393348 -0.595696 -0.084221
v -0.394040 -0.599193 -0.077547
v -0.386943 -0.511801 -0.048899
v -0.386732 -0.510729 -0.056377
v -0.386760 -0.510872 -0.063933
v -0.387028 -0.512227 -0.071364
v -0.387528 -0.514755 -0.078469
v -0.388247 -0.518390 -0.085056
v -0.389166 -0.523033 -0.090948
v -0.401588 -0.585817 -0.072505
v -0.398668 -0.571061 -0.094167
v -0.391778 -0.587758 -0.072505
v -0.377134 -0.513741 -0.048899
v -0.376922 -0.512670 -0.056377
v -0.376950 -0.512813 -0.063933
v -0.377218 -0.514168 -0.071364
v -0.377718 -0.516696 -0.078469
v -0.378437 -0.520331 -0.085056
v -0.379356 -0.524974 -0.090948
f 17 16 15
f 33 3 32
f 36 34 14
f 14 26 36
f 1 34 36
f 36 2 1
f 35 34 1
f 14 34 35
f 35 13 14
f 12 10 11
f 13 35 12
f 35 9 12
f 9 10 12
f 13 12 25
f 25 12 24
f 14 13 25
f 25 26 14
f 23 12 11
f 24 12 23
f 11 10 23
f 23 10 22
f 21 10 9
f 22 10 21
f 8 19 20
f 7 19 8
f 20 21 8
f 8 21 9
f 16 4 3
f 15 16 3
f 5 4 16
f 16 17 5
f 2 37 27
f 1 2 27
f 27 37 38
f 38 28 27
f 6 19 7
f 18 19 6
f 6 17 18
f 6 5 17
f 15 3 33
f 33 43 15
f 33 42 43
f 32 42 33
f 31 42 32
f 41 42 31
f 29 35 1
f 4 5 29
f 1 27 29
f 32 3 29
f 29 27 28
f 7 8 29
f 29 6 7
f 29 9 35
f 29 8 9
f 29 3 4
f 5 6 29
f 29 31 32
f 30 31 29
f 38 39 29
f 29 28 38
f 40 31 30
f 41 31 40
f 30 29 40
f 40 29 39
f 40 36 26
f 18 17 40
f 38 37 40
f 24 23 40
f 15 43 40
f 40 37 2
f 2 36 40
f 40 25 24
f 26 25 40
f 40 23 22
f 40 17 15
f 22 21 40
f 40 19 18
f 20 19 40
f 40 21 20
f 40 39 38
f 40 42 41
f 43 42 40
