# generated by step_to_parts.py -- 72 verts, 140 tris
v -0.395506 -0.584313 -0.045272
v -0.395895 -0.586280 -0.050337
v -0.396108 -0.587355 -0.055673
v -0.396138 -0.587505 -0.061118
v -0.395983 -0.586725 -0.066507
v -0.395650 -0.585039 -0.071676
v -0.395147 -0.582498 -0.076468
v -0.394490 -0.579179 -0.080737
v -0.393700 -0.575184 -0.084354
v -0.392799 -0.570633 -0.087209
v -0.391817 -0.565665 -0.089215
v -0.390781 -0.560430 -0.090311
v -0.389724 -0.555089 -0.090463
v -0.388678 -0.549802 -0.089668
v -0.387675 -0.544732 -0.087949
v -0.386745 -0.540031 -0.085359
v -0.385916 -0.535843 -0.081976
v -0.385214 -0.532294 -0.077903
v -0.384660 -0.529494 -0.073264
v -0.422483 -0.578975 -0.045272
v -0.422872 -0.580943 -0.050337
v -0.423085 -0.582018 -0.055673
v -0.423115 -0.582168 -0.061118
v -0.422960 -0.581388 -0.066507
v -0.422627 -0.579702 -0.071676
v -0.422124 -0.577161 -0.076468
v -0.421467 -0.573842 -0.080737
v -0.420677 -0.569846 -0.084354
v -0.419777 -0.565295 -0.087209
v -0.418794 -0.560327 -0.089215
v -0.417758 -0.555093 -0.090311
v -0.416701 -0.549751 -0.090463
v -0.415655 -0.544465 -0.089668
v -0.414652 -0.539394 -0.087949
v -0.413722 -0.534693 -0.085359
v -0.412893 -0.530505 -0.081976
v -0.412191 -0.526957 -0.077903
v -0.411637 -0.524157 -0.073264
v -0.384271 -0.527526 -0.068199
v -0.384058 -0.526451 -0.062864
v -0.384028 -0.526301 -0.057419
v -0.384183 -0.527081 -0.052030
v -0.384516 -0.528767 -0.046861
v -0.385019 -0.531308 -0.042069
v -0.385676 -0.534627 -0.037799
v -0.386466 -0.538623 -0.034182
v -0.387367 -0.543174 -0.031327
v -0.388350 -0.548142 -0.029322
v -0.389385 -0.553376 -0.028226
v -0.390442 -0.558718 -0.028073
v -0.391488 -0.564004 -0.028868
v -0.392491 -0.569075 -0.030587
v -0.393421 -0.573776 -0.033177
v -0.394250 -0.577964 -0.036560
v -0.394952 -0.581512 -0.040633
v -0.411248 -0.522189 -0.068199
v -0.411035 -0.521114 -0.062864
v -0.411006 -0.520964 -0.057419
v -0.411160 -0.521744 -0.052030
v -0.411493 -0.523430 -0.046861
v -0.411996 -0.525971 -0.042069
v -0.412653 -0.529290 -0.037799
v -0.413443 -0.533285 -0.034182
v -0.414344 -0.537836 -0.031327
v -0.415327 -0.542804 -0.029322
v -0.416362 -0.548039 -0.028226
v -0.417419 -0.553380 -0.028073
v -0.418465 -0.558667 -0.028868
v -0.419468 -0.563737 -0.030587
v -0.420398 -0.568438 -0.033177
v -0.421227 -0.572626 -0.036560
v -0.421929 -0.576175 -0.040633
f 8 6 7
f 72 71 20
f 36 38 37
f 62 46 45
f 63 46 62
f 45 44 62
f 62 44 61
f 61 44 60
f 60 44 43
f 55 54 71
f 72 55 71
f 47 46 64
f 64 46 63
f 64 48 47
f 65 48 64
f 50 49 66
f 66 67 50
f 49 48 66
f 66 48 65
f 58 63 59
f 63 62 59
f 59 62 61
f 61 60 59
f 43 42 59
f 59 60 43
f 41 58 59
f 59 42 41
f 32 33 14
f 13 32 14
f 14 33 34
f 34 15 14
f 16 35 36
f 36 17 16
f 34 35 16
f 16 15 34
f 63 71 69
f 69 64 63
f 69 68 67
f 67 66 69
f 69 71 70
f 65 64 69
f 69 66 65
f 67 68 51
f 50 67 51
f 68 69 51
f 51 69 52
f 53 71 54
f 70 71 53
f 53 69 70
f 52 69 53
f 23 24 5
f 5 4 23
f 5 24 25
f 25 6 5
f 25 26 7
f 7 6 25
f 7 27 8
f 7 26 27
f 57 58 41
f 41 40 57
f 57 40 39
f 39 56 57
f 2 21 22
f 22 3 2
f 23 4 22
f 4 3 22
f 2 1 20
f 20 21 2
f 20 55 72
f 20 1 55
f 29 30 11
f 10 29 11
f 13 12 31
f 31 32 13
f 12 11 31
f 31 11 30
f 28 9 8
f 8 27 28
f 10 9 28
f 28 29 10
f 28 33 32
f 36 35 28
f 27 26 28
f 28 63 58
f 58 57 28
f 28 24 23
f 28 38 36
f 28 20 71
f 28 35 34
f 34 33 28
f 28 71 63
f 28 22 21
f 32 31 28
f 28 26 25
f 25 24 28
f 56 38 28
f 28 30 29
f 28 57 56
f 23 22 28
f 21 20 28
f 28 31 30
f 19 46 47
f 19 49 50
f 43 44 19
f 19 16 17
f 4 5 19
f 55 1 19
f 19 42 43
f 41 42 19
f 47 48 19
f 8 9 19
f 45 46 19
f 19 44 45
f 19 40 41
f 19 3 4
f 19 54 55
f 19 12 13
f 19 53 54
f 13 14 19
f 50 51 19
f 17 18 19
f 19 6 8
f 19 48 49
f 39 40 19
f 19 14 15
f 15 16 19
f 19 51 52
f 52 53 19
f 2 3 19
f 19 1 2
f 19 9 10
f 19 5 6
f 10 11 19
f 19 11 12
f 19 56 39
f 19 38 56
f 37 17 36
f 37 18 17
f 37 19 18
f 38 19 37
