# generated by step_to_parts.py -- 78 verts, 152 tris
v -0.430179 -0.576655 -0.101250
v -0.431514 -0.583401 -0.095896
v -0.432648 -0.589133 -0.089429
v -0.433547 -0.593677 -0.082046
v -0.434183 -0.596894 -0.073971
v -0.434538 -0.598686 -0.065449
v -0.434600 -0.599000 -0.056740
v -0.434368 -0.597825 -0.048107
v -0.433848 -0.595197 -0.039813
v -0.433056 -0.591196 -0.032110
v -0.432017 -0.585945 -0.025233
v -0.430762 -0.579601 -0.019390
v -0.429329 -0.572358 -0.014758
v -0.427762 -0.564437 -0.011479
v -0.426108 -0.556077 -0.009652
v -0.424417 -0.547533 -0.009332
v -0.422742 -0.539064 -0.010530
v -0.421132 -0.530928 -0.013208
v -0.419637 -0.523372 -0.017287
v -0.418302 -0.516625 -0.022640
v -0.417168 -0.510893 -0.029107
v -0.416269 -0.506349 -0.036490
v -0.415633 -0.503133 -0.044565
v -0.415278 -0.501340 -0.053087
v -0.415216 -0.501027 -0.061797
v -0.415449 -0.502202 -0.070430
v -0.415968 -0.504829 -0.078723
v -0.416760 -0.508830 -0.086426
v -0.417799 -0.514082 -0.093303
v -0.419054 -0.520425 -0.099147
v -0.420487 -0.527668 -0.103778
v -0.422054 -0.535590 -0.107057
v -0.423708 -0.543950 -0.108885
v -0.425399 -0.552494 -0.109204
v -0.427074 -0.560962 -0.108006
v -0.428684 -0.569098 -0.105328
v -0.415464 -0.579566 -0.101250
v -0.416494 -0.584769 -0.097298
v -0.417413 -0.589414 -0.092680
v -0.418206 -0.593421 -0.087478
v -0.418858 -0.596720 -0.081782
v -0.409048 -0.598661 -0.081782
v -0.409674 -0.601825 -0.073707
v -0.410019 -0.603569 -0.065194
v -0.410073 -0.603840 -0.056503
v -0.409833 -0.602629 -0.047895
v -0.409308 -0.599973 -0.039631
v -0.408513 -0.595954 -0.031961
v -0.407472 -0.590691 -0.025117
v -0.406216 -0.584345 -0.019306
v -0.404784 -0.577107 -0.014704
v -0.403219 -0.569196 -0.011450
v -0.401568 -0.560852 -0.009642
v -0.399881 -0.552327 -0.009335
v -0.398210 -0.543878 -0.010539
v -0.396604 -0.535762 -0.013216
v -0.395112 -0.528224 -0.017287
v -0.403472 -0.570474 -0.106669
v -0.413281 -0.568533 -0.106669
v -0.406891 -0.587759 -0.087011
v -0.414037 -0.572354 -0.105178
v -0.414767 -0.576041 -0.103367
v -0.393809 -0.521638 -0.022489
v -0.392696 -0.516011 -0.028752
v -0.391804 -0.511504 -0.035897
v -0.391160 -0.508250 -0.043715
v -0.390783 -0.506340 -0.051982
v -0.390682 -0.505830 -0.060460
v -0.390861 -0.506735 -0.068903
v -0.391315 -0.509030 -0.077068
v -0.392030 -0.512646 -0.084720
v -0.392987 -0.517481 -0.091637
v -0.394157 -0.523395 -0.097620
v -0.395507 -0.530217 -0.102496
v -0.396997 -0.537750 -0.106125
v -0.398585 -0.545777 -0.108402
v -0.400225 -0.554066 -0.109262
v -0.401870 -0.562378 -0.108678
f 39 38 42
f 39 42 40
f 58 42 38
f 44 45 7
f 7 45 8
f 48 49 11
f 16 54 17
f 10 48 11
f 9 8 46
f 46 8 45
f 11 49 12
f 78 34 77
f 55 17 54
f 18 17 55
f 55 56 18
f 9 46 47
f 47 10 9
f 48 10 47
f 13 12 50
f 50 12 49
f 29 72 73
f 2 38 39
f 35 78 58
f 34 78 35
f 64 20 63
f 19 57 63
f 63 20 19
f 56 57 19
f 18 56 19
f 69 25 68
f 70 71 27
f 68 25 24
f 13 50 51
f 52 15 14
f 14 51 52
f 13 51 14
f 53 15 52
f 16 15 53
f 53 54 16
f 75 31 74
f 29 73 30
f 73 74 30
f 30 74 31
f 33 76 77
f 77 34 33
f 37 58 38
f 37 62 58
f 61 36 58
f 58 62 61
f 61 62 36
f 39 40 3
f 3 2 39
f 36 35 59
f 58 36 59
f 59 35 58
f 65 66 22
f 20 64 21
f 64 65 21
f 21 65 22
f 28 27 71
f 28 71 72
f 28 72 29
f 26 69 70
f 70 27 26
f 25 69 26
f 68 24 67
f 22 66 23
f 66 67 23
f 23 67 24
f 75 76 32
f 76 33 32
f 32 31 75
f 1 35 36
f 36 62 1
f 62 37 1
f 38 2 1
f 1 37 38
f 4 3 40
f 4 42 41
f 4 40 42
f 60 43 42
f 45 44 60
f 60 46 45
f 60 55 54
f 52 51 60
f 42 58 60
f 60 73 72
f 49 48 60
f 63 57 60
f 60 64 63
f 44 43 60
f 60 78 77
f 66 65 60
f 48 47 60
f 60 50 49
f 72 71 60
f 58 78 60
f 60 57 56
f 56 55 60
f 77 76 60
f 60 47 46
f 60 69 68
f 60 71 70
f 54 53 60
f 60 76 75
f 75 74 60
f 70 69 60
f 60 51 50
f 60 53 52
f 60 74 73
f 60 65 64
f 60 67 66
f 68 67 60
f 5 4 41
f 41 42 5
f 42 43 5
f 6 44 7
f 6 43 44
f 6 5 43
f 1 15 16
f 1 17 18
f 29 30 1
f 18 19 1
f 16 17 1
f 1 21 22
f 1 33 34
f 1 12 13
f 25 26 1
f 13 14 1
f 31 32 1
f 34 35 1
f 1 19 20
f 1 28 29
f 1 24 25
f 1 14 15
f 1 30 31
f 22 23 1
f 20 21 1
f 27 28 1
f 1 26 27
f 1 23 24
f 1 32 33
f 11 12 1
f 1 10 11
f 6 8 9
f 9 10 6
f 10 1 6
f 7 8 6
f 6 1 2
f 2 3 6
f 3 4 6
f 4 5 6
