# generated by step_to_parts.py -- 261 verts, 518 tris
v -0.471649 -0.508551 -0.043096
v -0.471279 -0.506677 -0.047555
v -0.471030 -0.505417 -0.052234
v -0.470906 -0.504795 -0.057044
v -0.474644 -0.523687 -0.090870
v -0.473771 -0.519274 -0.088129
v -0.474053 -0.520700 -0.089117
v -0.474344 -0.522172 -0.090031
v -0.418474 -0.558710 -0.045609
v -0.415936 -0.545882 -0.073113
v -0.414296 -0.537593 -0.051979
v -0.414400 -0.538122 -0.067319
v -0.417217 -0.552360 -0.075248
v -0.419867 -0.565751 -0.065545
v -0.419668 -0.564745 -0.050578
v -0.416971 -0.551114 -0.043301
v -0.419997 -0.566412 -0.067013
v -0.420214 -0.567505 -0.064267
v -0.420334 -0.568115 -0.061370
v -0.420355 -0.568221 -0.058408
v -0.420276 -0.567822 -0.055473
v -0.420100 -0.566928 -0.052653
v -0.419831 -0.565568 -0.050035
v -0.419477 -0.563783 -0.047696
v -0.419050 -0.561626 -0.045709
v -0.418563 -0.559163 -0.044135
v -0.418030 -0.556470 -0.043020
v -0.417468 -0.553628 -0.042399
v -0.416893 -0.550723 -0.042290
v -0.416324 -0.547843 -0.042697
v -0.415776 -0.545077 -0.043608
v -0.415268 -0.542508 -0.044994
v -0.414814 -0.540214 -0.046815
v -0.414429 -0.538265 -0.049013
v -0.414123 -0.536720 -0.051524
v -0.413907 -0.535626 -0.054269
v -0.413786 -0.535017 -0.057167
v -0.413765 -0.534910 -0.060128
v -0.413844 -0.535310 -0.063063
v -0.414021 -0.536203 -0.065883
v -0.414290 -0.537564 -0.068502
v -0.414643 -0.539349 -0.070840
v -0.415070 -0.541506 -0.072827
v -0.415557 -0.543969 -0.074402
v -0.416090 -0.546662 -0.075517
v -0.416652 -0.549504 -0.076138
v -0.417227 -0.552409 -0.076246
v -0.417797 -0.555289 -0.075839
v -0.418344 -0.558055 -0.074928
v -0.418852 -0.560624 -0.073542
v -0.419306 -0.562918 -0.071722
v -0.419692 -0.564867 -0.069523
v -0.480922 -0.555417 -0.027666
v -0.475757 -0.529311 -0.093199
v -0.476931 -0.535247 -0.094496
v -0.478132 -0.541313 -0.094723
v -0.479321 -0.547326 -0.093872
v -0.480464 -0.553102 -0.091971
v -0.481525 -0.558467 -0.089075
v -0.482473 -0.563257 -0.085274
v -0.483278 -0.567327 -0.080683
v -0.483917 -0.570553 -0.075441
v -0.484369 -0.572837 -0.069707
v -0.484620 -0.574110 -0.063657
v -0.484664 -0.574332 -0.057473
v -0.484499 -0.573498 -0.051344
v -0.484130 -0.571632 -0.045455
v -0.483568 -0.568792 -0.039986
v -0.482830 -0.565063 -0.035103
v -0.481939 -0.560559 -0.030954
v -0.479809 -0.549793 -0.025338
v -0.478635 -0.543857 -0.024040
v -0.477435 -0.537791 -0.023814
v -0.476245 -0.531778 -0.024664
v -0.475102 -0.526001 -0.026566
v -0.474041 -0.520637 -0.029461
v -0.473093 -0.515846 -0.033262
v -0.472288 -0.511777 -0.037854
v -0.458416 -0.499372 -0.037173
v -0.457839 -0.499032 -0.036945
v -0.474772 -0.584613 -0.081591
v -0.473943 -0.580425 -0.088466
v -0.472906 -0.575184 -0.094545
v -0.471689 -0.569033 -0.099661
v -0.470325 -0.562140 -0.103676
v -0.468852 -0.554693 -0.106479
v -0.467309 -0.546894 -0.107995
v -0.465739 -0.538958 -0.108181
v -0.464184 -0.531099 -0.107033
v -0.462687 -0.523533 -0.104583
v -0.461289 -0.516466 -0.100896
v -0.460027 -0.510090 -0.096073
v -0.458937 -0.504580 -0.090247
v -0.458048 -0.500086 -0.083576
v -0.457384 -0.496730 -0.076242
v -0.456964 -0.494605 -0.068444
v -0.456798 -0.493767 -0.060397
v -0.456891 -0.494240 -0.052318
v -0.457242 -0.496012 -0.044430
v -0.475176 -0.584079 -0.081363
v -0.474304 -0.579672 -0.088525
v -0.473204 -0.574112 -0.094797
v -0.471909 -0.567568 -0.099990
v -0.470459 -0.560238 -0.103946
v -0.468897 -0.552346 -0.106544
v -0.467272 -0.544132 -0.107706
v -0.465632 -0.535844 -0.107396
v -0.464028 -0.527735 -0.105624
v -0.462508 -0.520051 -0.102443
v -0.461118 -0.513026 -0.097950
v -0.459900 -0.506872 -0.092282
v -0.458892 -0.501778 -0.085611
v -0.458125 -0.497897 -0.078140
v -0.457620 -0.495348 -0.070095
v -0.457395 -0.494209 -0.061721
v -0.457455 -0.494513 -0.053272
v -0.457799 -0.496251 -0.045006
v -0.459288 -0.503779 -0.030012
v -0.460388 -0.509339 -0.023739
v -0.461683 -0.515884 -0.018546
v -0.463133 -0.523213 -0.014590
v -0.464695 -0.531105 -0.011992
v -0.466320 -0.539320 -0.010830
v -0.467960 -0.547607 -0.011140
v -0.469564 -0.555716 -0.012913
v -0.471084 -0.563400 -0.016093
v -0.472474 -0.570426 -0.020586
v -0.473692 -0.576579 -0.026254
v -0.474700 -0.581673 -0.032925
v -0.475467 -0.585554 -0.040397
v -0.475972 -0.588103 -0.048442
v -0.476197 -0.589242 -0.056816
v -0.476137 -0.588938 -0.065264
v -0.475793 -0.587200 -0.073530
v -0.458668 -0.503220 -0.030070
v -0.459705 -0.508461 -0.023992
v -0.460922 -0.514612 -0.018875
v -0.462286 -0.521505 -0.014861
v -0.463759 -0.528953 -0.012057
v -0.465302 -0.536751 -0.010542
v -0.466872 -0.544688 -0.010355
v -0.468427 -0.552546 -0.011503
v -0.469924 -0.560112 -0.013954
v -0.471322 -0.567180 -0.017641
v -0.472584 -0.573555 -0.022463
v -0.473674 -0.579065 -0.028289
v -0.474563 -0.583559 -0.034960
v -0.475227 -0.586915 -0.042295
v -0.475648 -0.589041 -0.050092
v -0.475813 -0.589878 -0.058140
v -0.475720 -0.589405 -0.066218
v -0.475369 -0.587634 -0.074107
v -0.433865 -0.592707 -0.081591
v -0.433288 -0.592367 -0.081363
v -0.433905 -0.595487 -0.073530
v -0.434249 -0.597226 -0.065264
v -0.434309 -0.597530 -0.056816
v -0.434084 -0.596390 -0.048442
v -0.433579 -0.593842 -0.040397
v -0.432812 -0.589961 -0.032925
v -0.431804 -0.584867 -0.026254
v -0.430586 -0.578713 -0.020586
v -0.429196 -0.571688 -0.016093
v -0.427676 -0.564004 -0.012913
v -0.426072 -0.555895 -0.011140
v -0.424432 -0.547607 -0.010830
v -0.422807 -0.539393 -0.011992
v -0.421245 -0.531501 -0.014590
v -0.419795 -0.524171 -0.018546
v -0.418500 -0.517627 -0.023739
v -0.417400 -0.512067 -0.030012
v -0.416528 -0.507659 -0.037173
v -0.416932 -0.507126 -0.036945
v -0.434462 -0.595727 -0.074107
v -0.434813 -0.597498 -0.066218
v -0.434906 -0.597972 -0.058140
v -0.434741 -0.597134 -0.050092
v -0.434320 -0.595008 -0.042295
v -0.433656 -0.591653 -0.034960
v -0.432767 -0.587159 -0.028289
v -0.431677 -0.581649 -0.022463
v -0.430415 -0.575273 -0.017641
v -0.429017 -0.568206 -0.013954
v -0.427520 -0.560640 -0.011503
v -0.425965 -0.552781 -0.010355
v -0.424395 -0.544844 -0.010542
v -0.422852 -0.537046 -0.012057
v -0.421379 -0.529599 -0.014861
v -0.420015 -0.522705 -0.018875
v -0.418798 -0.516555 -0.023992
v -0.417761 -0.511314 -0.030070
v -0.416309 -0.503973 -0.044859
v -0.415961 -0.502217 -0.053211
v -0.415900 -0.501909 -0.061746
v -0.416128 -0.503061 -0.070206
v -0.416638 -0.505636 -0.078334
v -0.417413 -0.509557 -0.085883
v -0.418432 -0.514703 -0.092623
v -0.419662 -0.520920 -0.098349
v -0.421066 -0.528018 -0.102888
v -0.422602 -0.535781 -0.106102
v -0.424223 -0.543974 -0.107892
v -0.425879 -0.552347 -0.108205
v -0.427521 -0.560646 -0.107032
v -0.429099 -0.568620 -0.104407
v -0.430564 -0.576025 -0.100410
v -0.431872 -0.582636 -0.095164
v -0.432984 -0.588254 -0.088826
v -0.415911 -0.504539 -0.045006
v -0.415567 -0.502800 -0.053272
v -0.415507 -0.502496 -0.061721
v -0.415732 -0.503636 -0.070095
v -0.416237 -0.506185 -0.078140
v -0.417004 -0.510065 -0.085611
v -0.418012 -0.515160 -0.092282
v -0.419230 -0.521313 -0.097950
v -0.420620 -0.528338 -0.102443
v -0.422140 -0.536022 -0.105624
v -0.423744 -0.544131 -0.107396
v -0.425384 -0.552419 -0.107706
v -0.427009 -0.560634 -0.106544
v -0.428571 -0.568526 -0.103946
v -0.430021 -0.575855 -0.099990
v -0.431316 -0.582400 -0.094797
v -0.432416 -0.587960 -0.088525
v -0.424261 -0.582810 -0.075669
v -0.424719 -0.585126 -0.069854
v -0.424975 -0.586416 -0.063719
v -0.425019 -0.586642 -0.057448
v -0.424852 -0.585796 -0.051232
v -0.424478 -0.583904 -0.045260
v -0.423908 -0.581024 -0.039715
v -0.423160 -0.577242 -0.034763
v -0.422256 -0.572675 -0.030556
v -0.421224 -0.567460 -0.027221
v -0.420096 -0.561757 -0.024860
v -0.418905 -0.555738 -0.023544
v -0.417688 -0.549586 -0.023314
v -0.416481 -0.543488 -0.024177
v -0.415322 -0.537630 -0.026105
v -0.414246 -0.532190 -0.029041
v -0.413285 -0.527332 -0.032896
v -0.412468 -0.523205 -0.037552
v -0.411821 -0.519934 -0.042868
v -0.411363 -0.517618 -0.048682
v -0.411108 -0.516327 -0.054818
v -0.411063 -0.516102 -0.061089
v -0.411230 -0.516948 -0.067304
v -0.411605 -0.518839 -0.073276
v -0.412174 -0.521720 -0.078822
v -0.412923 -0.525501 -0.083774
v -0.413826 -0.530069 -0.087981
v -0.414858 -0.535283 -0.091315
v -0.415986 -0.540987 -0.093676
v -0.417177 -0.547006 -0.094992
v -0.418394 -0.553158 -0.095222
v -0.419601 -0.559255 -0.094360
v -0.420760 -0.565113 -0.092431
v -0.421836 -0.570554 -0.089495
v -0.422797 -0.575411 -0.085640
v -0.423614 -0.579538 -0.080984
f 203 87 88
f 176 156 157
f 65 132 149
f 175 156 176
f 133 134 151
f 63 134 133
f 65 149 66
f 66 149 131
f 198 92 93
f 93 197 198
f 106 88 87
f 216 215 251
f 251 252 216
f 91 200 90
f 203 88 202
f 156 175 155
f 83 84 207
f 207 208 83
f 213 197 196
f 170 189 169
f 150 149 132
f 150 133 151
f 150 132 65
f 63 133 64
f 64 150 65
f 133 150 64
f 196 197 94
f 94 93 112
f 197 93 94
f 194 211 195
f 148 66 131
f 131 149 148
f 67 66 148
f 130 67 148
f 90 54 5
f 112 93 6
f 88 106 56
f 56 106 87
f 84 59 103
f 207 223 224
f 224 208 207
f 207 84 206
f 206 223 207
f 198 215 199
f 215 216 199
f 199 92 198
f 199 91 92
f 199 216 200
f 200 91 199
f 200 216 217
f 219 220 203
f 203 202 219
f 108 54 90
f 89 108 90
f 89 202 88
f 88 107 89
f 54 108 89
f 153 208 225
f 208 224 225
f 153 225 154
f 151 134 152
f 152 100 81
f 152 134 100
f 82 83 208
f 82 153 81
f 82 208 153
f 81 100 82
f 84 83 102
f 197 213 214
f 214 215 198
f 198 197 214
f 194 195 96
f 212 213 196
f 196 195 212
f 212 195 211
f 117 116 3
f 98 116 117
f 77 137 119
f 188 169 189
f 147 67 130
f 130 148 147
f 67 147 68
f 68 147 129
f 120 137 76
f 76 137 77
f 73 140 74
f 123 140 73
f 62 61 100
f 109 91 90
f 90 5 109
f 111 93 92
f 92 6 111
f 111 6 93
f 7 6 110
f 110 91 7
f 92 91 110
f 110 6 92
f 113 94 112
f 112 6 113
f 55 107 88
f 88 56 55
f 54 89 55
f 55 89 107
f 57 56 87
f 85 206 84
f 84 103 85
f 85 103 59
f 200 217 201
f 202 89 201
f 90 200 201
f 201 89 90
f 174 155 175
f 153 154 174
f 174 154 155
f 164 165 184
f 176 157 177
f 83 82 101
f 101 102 83
f 100 61 101
f 101 82 100
f 60 59 84
f 84 102 60
f 60 101 61
f 102 101 60
f 97 116 98
f 194 96 97
f 97 96 115
f 2 117 3
f 79 117 2
f 2 1 79
f 136 119 137
f 169 188 168
f 142 71 125
f 72 142 124
f 71 142 72
f 127 70 145
f 138 137 120
f 75 121 138
f 138 76 75
f 120 76 138
f 122 74 140
f 140 123 141
f 141 72 124
f 124 142 141
f 73 72 141
f 141 123 73
f 8 109 5
f 7 91 8
f 91 109 8
f 4 113 6
f 114 113 4
f 4 97 115
f 4 96 114
f 115 96 4
f 3 116 4
f 116 97 4
f 196 94 95
f 94 113 95
f 95 195 196
f 95 96 195
f 114 96 95
f 95 113 114
f 87 86 105
f 105 57 87
f 86 57 105
f 206 85 205
f 205 85 86
f 220 221 204
f 203 220 204
f 204 87 203
f 204 86 87
f 204 205 86
f 221 205 204
f 58 85 59
f 58 57 86
f 218 219 202
f 202 201 218
f 218 201 217
f 186 166 167
f 164 184 183
f 183 163 164
f 162 163 182
f 163 183 182
f 158 177 157
f 178 177 158
f 99 117 79
f 98 117 99
f 99 192 98
f 98 192 193
f 194 97 193
f 193 97 98
f 118 136 135
f 135 79 118
f 119 136 118
f 118 78 77
f 77 119 118
f 146 68 129
f 129 147 146
f 145 128 146
f 145 70 69
f 69 128 145
f 68 146 69
f 69 146 128
f 70 127 144
f 144 53 70
f 126 53 144
f 144 127 145
f 71 53 143
f 125 71 143
f 143 53 126
f 143 142 125
f 126 144 143
f 139 121 75
f 74 122 139
f 75 74 139
f 139 138 121
f 139 122 140
f 185 166 186
f 185 165 166
f 185 184 165
f 223 206 222
f 206 205 222
f 222 205 221
f 86 85 104
f 104 58 86
f 85 58 104
f 181 161 162
f 162 182 181
f 178 158 159
f 159 179 178
f 160 179 159
f 80 99 79
f 80 79 135
f 135 191 80
f 190 189 170
f 210 211 194
f 194 193 210
f 186 167 187
f 187 167 168
f 187 168 188
f 161 181 180
f 160 161 180
f 180 179 160
f 192 172 209
f 209 193 192
f 209 210 193
f 171 172 191
f 191 190 171
f 171 190 170
f 173 172 192
f 192 99 173
f 99 80 173
f 173 80 191
f 191 172 173
f 11 35 34
f 11 36 35
f 47 46 13
f 151 175 150
f 150 175 176
f 259 224 223
f 260 224 259
f 217 252 253
f 217 216 252
f 256 220 219
f 219 255 256
f 225 224 260
f 260 261 225
f 228 155 227
f 156 155 228
f 228 157 156
f 228 229 157
f 251 215 214
f 250 251 214
f 250 214 249
f 249 214 213
f 212 249 213
f 248 249 212
f 212 211 247
f 247 248 212
f 62 134 63
f 100 134 62
f 48 257 256
f 256 47 48
f 256 257 221
f 221 220 256
f 256 255 46
f 46 47 256
f 174 175 151
f 151 152 174
f 174 152 81
f 81 153 174
f 230 21 231
f 231 21 22
f 32 33 241
f 241 33 242
f 241 242 170
f 170 169 241
f 229 228 20
f 20 228 19
f 20 21 230
f 230 229 20
f 177 150 176
f 149 150 177
f 177 148 149
f 177 178 148
f 34 35 243
f 243 35 244
f 242 33 243
f 243 33 34
f 168 241 169
f 240 241 168
f 148 178 179
f 179 147 148
f 138 188 189
f 189 137 138
f 257 48 49
f 258 257 49
f 18 228 227
f 19 228 18
f 227 155 226
f 155 154 226
f 226 225 261
f 226 154 225
f 226 18 227
f 17 18 226
f 52 261 260
f 260 51 52
f 52 226 261
f 17 226 52
f 253 252 43
f 43 44 253
f 232 233 161
f 160 232 161
f 161 233 234
f 234 162 161
f 238 239 167
f 167 166 238
f 167 239 240
f 240 168 167
f 157 229 158
f 158 229 230
f 38 246 37
f 247 246 38
f 244 35 245
f 35 36 245
f 37 246 245
f 245 36 37
f 79 1 118
f 1 78 118
f 69 62 63
f 69 76 77
f 69 64 65
f 65 66 69
f 69 5 54
f 69 66 67
f 59 60 69
f 7 8 69
f 73 74 69
f 63 64 69
f 67 68 69
f 77 78 69
f 3 4 69
f 70 53 69
f 69 6 7
f 54 55 69
f 69 2 3
f 69 58 59
f 69 72 73
f 75 76 69
f 69 74 75
f 61 62 69
f 69 55 56
f 56 57 69
f 69 60 61
f 1 2 69
f 69 78 1
f 71 72 69
f 69 53 71
f 69 8 5
f 69 4 6
f 57 58 69
f 143 183 184
f 184 142 143
f 143 182 183
f 143 144 182
f 140 141 185
f 186 140 185
f 185 142 184
f 185 141 142
f 260 259 50
f 50 51 260
f 258 49 50
f 50 259 258
f 222 259 223
f 258 259 222
f 222 221 257
f 222 257 258
f 42 43 252
f 42 252 251
f 254 217 253
f 254 218 217
f 255 219 254
f 219 218 254
f 254 44 45
f 253 44 254
f 45 46 254
f 254 46 255
f 182 144 181
f 181 144 145
f 235 162 234
f 235 163 162
f 164 163 235
f 235 236 164
f 23 231 22
f 232 231 23
f 23 233 232
f 23 24 233
f 22 21 15
f 15 23 22
f 238 166 237
f 166 165 237
f 164 236 237
f 237 165 164
f 32 241 31
f 31 241 240
f 230 231 159
f 159 158 230
f 159 232 160
f 159 231 232
f 39 249 248
f 39 40 249
f 39 248 247
f 247 38 39
f 190 191 135
f 135 136 190
f 190 137 189
f 190 136 137
f 210 246 247
f 247 211 210
f 187 140 186
f 187 139 140
f 188 138 187
f 138 139 187
f 250 249 41
f 249 40 41
f 41 251 250
f 41 42 251
f 180 181 145
f 145 146 180
f 147 179 180
f 180 146 147
f 236 235 26
f 27 236 26
f 14 18 17
f 19 18 14
f 14 15 21
f 21 20 14
f 14 20 19
f 28 237 236
f 28 236 27
f 238 237 28
f 28 29 238
f 30 239 238
f 238 29 30
f 240 239 30
f 30 31 240
f 244 245 209
f 209 172 244
f 209 245 246
f 246 210 209
f 171 243 244
f 244 172 171
f 170 242 171
f 242 243 171
f 234 233 25
f 233 24 25
f 25 235 234
f 25 26 235
f 16 11 34
f 34 33 16
f 32 31 16
f 16 33 32
f 31 30 16
f 16 30 29
f 51 50 13
f 13 52 51
f 13 50 49
f 13 14 17
f 17 52 13
f 13 49 48
f 13 48 47
f 13 46 45
f 43 10 13
f 45 44 13
f 44 43 13
f 12 10 43
f 43 42 12
f 42 41 12
f 12 41 40
f 36 11 12
f 37 36 12
f 12 38 37
f 12 39 38
f 40 39 12
f 15 14 9
f 14 13 9
f 9 12 11
f 11 16 9
f 9 13 10
f 10 12 9
f 27 26 9
f 9 28 27
f 29 28 9
f 9 16 29
f 9 25 24
f 24 23 9
f 26 25 9
f 23 15 9
