# generated by step_to_parts.py -- 79 verts, 154 tris
v 0.224351 -0.590885 -0.103328
v 0.224999 -0.596170 -0.099403
v 0.225579 -0.600893 -0.094809
v 0.226080 -0.604974 -0.089628
v 0.226494 -0.608339 -0.083949
v 0.239239 -0.589057 -0.103328
v 0.240080 -0.595910 -0.098009
v 0.240796 -0.601743 -0.091572
v 0.241365 -0.606377 -0.084212
v 0.241770 -0.609672 -0.076154
v 0.241998 -0.611529 -0.067642
v 0.242042 -0.611890 -0.058934
v 0.241902 -0.610744 -0.050295
v 0.241580 -0.608127 -0.041987
v 0.241088 -0.604118 -0.034264
v 0.240440 -0.598839 -0.027360
v 0.239655 -0.592450 -0.021484
v 0.238759 -0.585146 -0.016815
v 0.237776 -0.577147 -0.013495
v 0.236739 -0.568698 -0.011624
v 0.235678 -0.560055 -0.011261
v 0.234625 -0.551481 -0.012415
v 0.233613 -0.543236 -0.015051
v 0.232671 -0.535570 -0.019090
v 0.207858 -0.538617 -0.019090
v 0.216568 -0.609558 -0.083949
v 0.216966 -0.612800 -0.075890
v 0.217188 -0.614607 -0.067387
v 0.217227 -0.614925 -0.058697
v 0.217082 -0.613743 -0.050083
v 0.216757 -0.611098 -0.041805
v 0.216263 -0.607070 -0.034115
v 0.215613 -0.601780 -0.027244
v 0.214828 -0.595388 -0.021400
v 0.213932 -0.588088 -0.016760
v 0.212951 -0.580101 -0.013465
v 0.211916 -0.571667 -0.011614
v 0.210857 -0.563043 -0.011263
v 0.209807 -0.554489 -0.012423
v 0.208797 -0.546264 -0.015059
v 0.215725 -0.602688 -0.083103
v 0.207036 -0.531927 -0.024258
v 0.206333 -0.526202 -0.030493
v 0.205769 -0.521607 -0.037613
v 0.205360 -0.518274 -0.045415
v 0.205118 -0.516300 -0.053672
v 0.205049 -0.515742 -0.062147
v 0.205156 -0.516615 -0.070595
v 0.205436 -0.518895 -0.078772
v 0.205881 -0.522516 -0.086442
v 0.206477 -0.527373 -0.093384
v 0.207208 -0.533327 -0.099397
v 0.208053 -0.540204 -0.104309
v 0.208986 -0.547808 -0.107977
v 0.209982 -0.555918 -0.110295
v 0.211011 -0.564300 -0.111197
v 0.212044 -0.572713 -0.110657
v 0.213051 -0.580914 -0.108690
v 0.214571 -0.593292 -0.094404
v 0.222977 -0.579696 -0.108690
v 0.223452 -0.583569 -0.107218
v 0.223911 -0.587308 -0.105427
v 0.231830 -0.528717 -0.024409
v 0.231114 -0.522885 -0.030846
v 0.230545 -0.518251 -0.038205
v 0.230140 -0.514955 -0.046264
v 0.229912 -0.513099 -0.054776
v 0.229868 -0.512738 -0.063484
v 0.230009 -0.513883 -0.072123
v 0.230330 -0.516500 -0.080430
v 0.230822 -0.520509 -0.088153
v 0.231470 -0.525788 -0.095058
v 0.232255 -0.532177 -0.100934
v 0.233152 -0.539482 -0.105603
v 0.234134 -0.547480 -0.108923
v 0.235171 -0.555929 -0.110793
v 0.236232 -0.564572 -0.111157
v 0.237285 -0.573147 -0.110003
v 0.238298 -0.581392 -0.107367
f 12 29 28
f 29 41 28
f 59 53 54
f 41 52 59
f 52 53 59
f 51 52 41
f 72 52 51
f 79 58 60
f 13 29 12
f 16 33 32
f 32 33 41
f 48 69 49
f 48 41 47
f 48 49 41
f 72 51 71
f 54 53 74
f 74 75 54
f 54 75 55
f 56 59 55
f 55 59 54
f 57 59 56
f 58 59 57
f 56 77 57
f 41 49 50
f 50 51 41
f 50 71 51
f 25 42 41
f 41 40 25
f 25 24 42
f 40 24 25
f 41 38 39
f 39 40 41
f 41 42 43
f 47 41 46
f 41 45 46
f 46 67 47
f 30 13 14
f 29 13 30
f 30 41 29
f 41 33 34
f 34 35 41
f 21 38 37
f 37 38 41
f 35 34 18
f 16 32 15
f 47 67 68
f 68 48 47
f 69 48 68
f 66 45 65
f 66 46 45
f 67 46 66
f 49 69 70
f 70 50 49
f 71 50 70
f 12 28 11
f 9 4 8
f 10 11 27
f 27 11 28
f 27 28 41
f 79 6 62
f 73 52 72
f 73 53 52
f 73 74 53
f 79 60 78
f 78 57 77
f 78 60 58
f 58 57 78
f 76 55 75
f 76 77 56
f 56 55 76
f 22 38 21
f 22 39 38
f 65 45 44
f 44 45 41
f 41 43 44
f 42 24 63
f 63 43 42
f 31 30 14
f 14 15 31
f 31 15 32
f 31 32 41
f 41 30 31
f 21 37 20
f 17 18 34
f 17 33 16
f 17 34 33
f 8 4 3
f 10 27 26
f 4 9 26
f 26 3 4
f 26 27 41
f 41 59 26
f 26 59 58
f 61 58 79
f 79 62 61
f 61 62 58
f 23 24 40
f 40 39 23
f 39 22 23
f 43 63 64
f 65 44 64
f 64 44 43
f 36 20 37
f 41 35 36
f 36 37 41
f 2 26 58
f 3 26 2
f 5 9 10
f 10 26 5
f 5 26 9
f 20 36 19
f 35 18 19
f 19 36 35
f 1 62 6
f 6 2 1
f 58 62 1
f 1 2 58
f 7 2 6
f 8 3 7
f 3 2 7
f 24 23 7
f 7 76 75
f 72 71 7
f 7 73 72
f 7 6 79
f 69 68 7
f 7 13 12
f 7 70 69
f 7 9 8
f 7 22 21
f 14 13 7
f 16 15 7
f 7 66 65
f 12 11 7
f 7 19 18
f 75 74 7
f 79 78 7
f 21 20 7
f 7 15 14
f 7 68 67
f 67 66 7
f 71 70 7
f 7 11 10
f 10 9 7
f 74 73 7
f 7 78 77
f 77 76 7
f 7 17 16
f 7 63 24
f 65 64 7
f 18 17 7
f 7 23 22
f 7 64 63
f 20 19 7
