# generated by step_to_parts.py -- 152 verts, 300 tris
v 0.197989 -0.583998 -0.087620
v 0.198409 -0.584162 -0.087954
v 0.193871 -0.550458 -0.034798
v 0.193343 -0.546161 -0.038133
v 0.192894 -0.542504 -0.042169
v 0.192537 -0.539598 -0.046784
v 0.192283 -0.537531 -0.051837
v 0.192140 -0.536367 -0.057175
v 0.192113 -0.536141 -0.062636
v 0.192201 -0.536859 -0.068053
v 0.192402 -0.538500 -0.073262
v 0.192711 -0.541014 -0.078105
v 0.193117 -0.544324 -0.082434
v 0.193609 -0.548331 -0.086119
v 0.194172 -0.552911 -0.089047
v 0.194788 -0.557926 -0.091129
v 0.195438 -0.563225 -0.092301
v 0.196104 -0.568644 -0.092530
v 0.196764 -0.574021 -0.091806
v 0.197399 -0.579191 -0.090153
v 0.194238 -0.550198 -0.034463
v 0.197811 -0.579294 -0.090519
v 0.197168 -0.574059 -0.092193
v 0.196500 -0.568614 -0.092926
v 0.195826 -0.563126 -0.092695
v 0.195167 -0.557760 -0.091507
v 0.194543 -0.552681 -0.089399
v 0.193974 -0.548043 -0.086434
v 0.193476 -0.543986 -0.082703
v 0.193064 -0.540634 -0.078319
v 0.192752 -0.538088 -0.073414
v 0.192548 -0.536426 -0.068139
v 0.192458 -0.535699 -0.062654
v 0.192486 -0.535928 -0.057124
v 0.192631 -0.537107 -0.051719
v 0.192888 -0.539200 -0.046602
v 0.193249 -0.542142 -0.041928
v 0.193704 -0.545846 -0.037841
v 0.198661 -0.549870 -0.034798
v 0.198241 -0.549706 -0.034463
v 0.202779 -0.583410 -0.087620
v 0.202189 -0.578603 -0.090153
v 0.201554 -0.573433 -0.091806
v 0.200894 -0.568056 -0.092530
v 0.200228 -0.562636 -0.092301
v 0.199578 -0.557338 -0.091129
v 0.198962 -0.552323 -0.089047
v 0.198399 -0.547742 -0.086119
v 0.197907 -0.543736 -0.082434
v 0.197501 -0.540426 -0.078105
v 0.197192 -0.537912 -0.073262
v 0.196991 -0.536271 -0.068053
v 0.196903 -0.535553 -0.062636
v 0.196930 -0.535779 -0.057175
v 0.197073 -0.536943 -0.051837
v 0.197327 -0.539010 -0.046784
v 0.197684 -0.541916 -0.042169
v 0.198133 -0.545573 -0.038133
v 0.202411 -0.583671 -0.087954
v 0.197706 -0.545354 -0.037841
v 0.197252 -0.541651 -0.041928
v 0.196890 -0.538708 -0.046602
v 0.196633 -0.536616 -0.051719
v 0.196489 -0.535437 -0.057124
v 0.196460 -0.535208 -0.062654
v 0.196550 -0.535935 -0.068139
v 0.196754 -0.537597 -0.073414
v 0.197066 -0.540142 -0.078319
v 0.197478 -0.543495 -0.082703
v 0.197976 -0.547552 -0.086434
v 0.198546 -0.552190 -0.089399
v 0.199169 -0.557269 -0.091507
v 0.199828 -0.562634 -0.092695
v 0.200502 -0.568122 -0.092926
v 0.201170 -0.573567 -0.092193
v 0.201813 -0.578803 -0.090519
v 0.228657 -0.830513 0.089673
v 0.232659 -0.830022 0.089673
v 0.232926 -0.832197 0.091361
v 0.233154 -0.834049 0.093405
v 0.233334 -0.835521 0.095742
v 0.233463 -0.836567 0.098300
v 0.233535 -0.837156 0.101003
v 0.233549 -0.837271 0.103768
v 0.233504 -0.836907 0.106511
v 0.233402 -0.836076 0.109148
v 0.233246 -0.834803 0.111600
v 0.233040 -0.833127 0.113793
v 0.232791 -0.831099 0.115658
v 0.232507 -0.828780 0.117141
v 0.232195 -0.826240 0.118195
v 0.231865 -0.823558 0.118788
v 0.231528 -0.820813 0.118904
v 0.231194 -0.818091 0.118538
v 0.230873 -0.815473 0.117700
v 0.230574 -0.813039 0.116418
v 0.226572 -0.813531 0.116418
v 0.226870 -0.815965 0.117700
v 0.227192 -0.818582 0.118538
v 0.227526 -0.821305 0.118904
v 0.227863 -0.824049 0.118788
v 0.228193 -0.826732 0.118195
v 0.228504 -0.829271 0.117141
v 0.228789 -0.831590 0.115658
v 0.229038 -0.833619 0.113793
v 0.229244 -0.835295 0.111600
v 0.229400 -0.836568 0.109148
v 0.229502 -0.837399 0.106511
v 0.229547 -0.837762 0.103768
v 0.229533 -0.837648 0.101003
v 0.229460 -0.837058 0.098300
v 0.229332 -0.836012 0.095742
v 0.229151 -0.834541 0.093405
v 0.228924 -0.832689 0.091361
v 0.228237 -0.830349 0.090007
v 0.228497 -0.832471 0.091654
v 0.228719 -0.834276 0.093646
v 0.228895 -0.835711 0.095924
v 0.229020 -0.836731 0.098419
v 0.229091 -0.837305 0.101054
v 0.229105 -0.837417 0.103750
v 0.229061 -0.837063 0.106424
v 0.228962 -0.836252 0.108996
v 0.228809 -0.835011 0.111386
v 0.228609 -0.833377 0.113524
v 0.228366 -0.831399 0.115343
v 0.228088 -0.829138 0.116788
v 0.227784 -0.826662 0.117816
v 0.227463 -0.824047 0.118395
v 0.227134 -0.821371 0.118508
v 0.226809 -0.818717 0.118150
v 0.226495 -0.816164 0.117334
v 0.226204 -0.813791 0.116084
v 0.233027 -0.829761 0.090007
v 0.230994 -0.813203 0.116084
v 0.231285 -0.815576 0.117334
v 0.231599 -0.818129 0.118150
v 0.231925 -0.820783 0.118508
v 0.232253 -0.823459 0.118395
v 0.232574 -0.826074 0.117816
v 0.232878 -0.828550 0.116788
v 0.233156 -0.830811 0.115343
v 0.233399 -0.832789 0.113524
v 0.233599 -0.834423 0.111386
v 0.233752 -0.835664 0.108996
v 0.233851 -0.836474 0.106424
v 0.233895 -0.836829 0.103750
v 0.233881 -0.836717 0.101054
v 0.233810 -0.836142 0.098419
v 0.233685 -0.835122 0.095924
v 0.233509 -0.833688 0.093646
v 0.233287 -0.831882 0.091654
f 22 1 20
f 2 1 22
f 22 59 2
f 76 59 22
f 109 121 120
f 120 110 109
f 28 14 13
f 13 29 28
f 13 30 29
f 12 30 13
f 9 33 10
f 10 33 32
f 115 1 77
f 77 1 2
f 142 141 90
f 90 89 142
f 109 110 84
f 110 83 84
f 147 146 84
f 84 146 85
f 111 119 118
f 111 118 112
f 110 120 111
f 120 119 111
f 8 33 9
f 34 33 8
f 11 30 12
f 31 30 11
f 11 10 32
f 11 32 31
f 19 22 20
f 23 22 19
f 24 23 19
f 19 18 24
f 24 18 17
f 17 25 24
f 76 22 75
f 75 22 23
f 41 134 78
f 78 59 41
f 2 59 78
f 78 77 2
f 88 104 105
f 89 104 88
f 103 89 90
f 103 104 89
f 104 103 126
f 126 103 127
f 148 84 83
f 147 84 148
f 82 111 112
f 112 81 82
f 82 83 110
f 110 111 82
f 150 149 82
f 81 150 82
f 149 148 82
f 82 148 83
f 27 14 28
f 27 15 14
f 27 70 71
f 28 70 27
f 25 73 74
f 24 25 74
f 74 23 24
f 74 75 23
f 68 30 31
f 31 67 68
f 52 51 66
f 66 51 67
f 31 32 66
f 66 67 31
f 32 33 66
f 33 65 66
f 132 99 98
f 131 99 132
f 132 98 97
f 97 133 132
f 21 38 3
f 3 38 4
f 3 133 97
f 97 21 3
f 130 99 131
f 100 99 130
f 101 130 129
f 100 130 101
f 127 103 128
f 128 103 102
f 128 101 129
f 102 101 128
f 109 84 108
f 108 84 85
f 86 108 85
f 107 108 86
f 86 145 144
f 86 144 87
f 86 146 145
f 85 146 86
f 124 123 106
f 106 123 107
f 106 88 105
f 87 88 106
f 107 86 106
f 106 86 87
f 118 117 113
f 112 118 113
f 113 81 112
f 113 80 81
f 151 150 81
f 81 80 151
f 134 152 79
f 79 78 134
f 152 151 79
f 79 151 80
f 87 144 143
f 143 88 87
f 143 142 89
f 89 88 143
f 124 106 125
f 125 106 105
f 105 104 125
f 104 126 125
f 52 66 53
f 53 66 65
f 64 33 34
f 64 65 33
f 54 53 64
f 64 53 65
f 54 64 55
f 55 64 63
f 56 55 62
f 62 55 63
f 62 57 56
f 61 57 62
f 7 6 35
f 35 6 36
f 35 62 63
f 36 62 35
f 35 8 7
f 34 8 35
f 35 64 34
f 63 64 35
f 5 4 37
f 4 38 37
f 37 6 5
f 36 6 37
f 61 62 37
f 37 62 36
f 40 21 97
f 97 96 40
f 40 135 39
f 96 135 40
f 16 15 26
f 15 27 26
f 25 17 26
f 26 17 16
f 71 70 47
f 70 48 47
f 29 30 69
f 30 68 69
f 28 29 69
f 69 70 28
f 49 48 69
f 69 48 70
f 50 69 68
f 49 69 50
f 50 68 67
f 67 51 50
f 95 96 97
f 97 98 95
f 100 101 92
f 92 93 100
f 115 116 122
f 131 132 122
f 122 120 121
f 122 1 115
f 14 15 122
f 122 13 14
f 122 4 5
f 118 119 122
f 9 10 122
f 20 1 122
f 127 128 122
f 122 117 118
f 122 11 12
f 122 8 9
f 12 13 122
f 5 6 122
f 122 15 16
f 122 19 20
f 16 17 122
f 122 130 131
f 116 117 122
f 122 119 120
f 7 8 122
f 122 6 7
f 10 11 122
f 18 19 122
f 122 17 18
f 122 126 127
f 122 3 4
f 124 125 122
f 122 132 133
f 133 3 122
f 129 130 122
f 122 128 129
f 122 123 124
f 122 125 126
f 122 121 109
f 109 108 122
f 122 108 107
f 107 123 122
f 77 78 114
f 78 79 114
f 80 113 114
f 114 79 80
f 114 116 115
f 115 77 114
f 114 117 116
f 114 113 117
f 60 37 38
f 61 37 60
f 60 38 21
f 21 40 60
f 72 47 46
f 71 47 72
f 72 27 71
f 72 26 27
f 46 45 72
f 72 45 73
f 72 73 25
f 25 26 72
f 94 99 100
f 100 93 94
f 98 99 94
f 94 95 98
f 91 103 90
f 102 103 91
f 91 101 102
f 91 92 101
f 58 40 39
f 58 60 40
f 58 57 61
f 61 60 58
f 42 59 76
f 41 59 42
f 76 75 42
f 75 43 42
f 44 74 73
f 73 45 44
f 75 74 44
f 44 43 75
f 137 94 93
f 93 138 137
f 90 141 140
f 140 91 90
f 136 135 96
f 96 95 136
f 95 94 136
f 94 137 136
f 49 50 139
f 141 142 139
f 139 140 141
f 139 134 41
f 139 146 147
f 139 143 144
f 139 152 134
f 144 145 139
f 139 58 39
f 139 55 56
f 147 148 139
f 145 146 139
f 150 151 139
f 52 53 139
f 39 135 139
f 139 51 52
f 139 149 150
f 56 57 139
f 139 148 149
f 139 48 49
f 46 47 139
f 139 151 152
f 142 143 139
f 139 53 54
f 54 55 139
f 139 44 45
f 139 45 46
f 139 47 48
f 139 50 51
f 41 42 139
f 57 58 139
f 139 42 43
f 43 44 139
f 139 137 138
f 135 136 139
f 139 136 137
f 93 92 139
f 139 138 93
f 92 91 139
f 91 140 139
