# generated by step_to_parts.py -- 76 verts, 148 tris
v 0.205630 -0.560070 -0.106864
v 0.206520 -0.567319 -0.107226
v 0.210420 -0.559482 -0.106864
v 0.211310 -0.566731 -0.107226
v 0.216627 -0.610038 -0.070865
v 0.216748 -0.611023 -0.062933
v 0.216700 -0.610630 -0.054949
v 0.216484 -0.608873 -0.047153
v 0.216107 -0.605804 -0.039782
v 0.215581 -0.601515 -0.033056
v 0.214920 -0.596136 -0.027179
v 0.214146 -0.589830 -0.022329
v 0.213281 -0.582785 -0.018650
v 0.212351 -0.575215 -0.016255
v 0.211386 -0.567348 -0.015215
v 0.177094 -0.288068 -0.009200
v 0.176760 -0.285346 -0.009567
v 0.176438 -0.282728 -0.010404
v 0.176140 -0.280294 -0.011686
v 0.175872 -0.278118 -0.013375
v 0.175645 -0.276266 -0.015419
v 0.175464 -0.274795 -0.017755
v 0.175336 -0.273749 -0.020314
v 0.175264 -0.273159 -0.023017
v 0.175250 -0.273045 -0.025781
v 0.175294 -0.273408 -0.028524
v 0.175396 -0.274239 -0.031162
v 0.175553 -0.275512 -0.033614
v 0.175758 -0.277188 -0.035806
v 0.176007 -0.279217 -0.037672
v 0.176292 -0.281536 -0.039154
v 0.176604 -0.284075 -0.040208
v 0.209547 -0.552375 -0.105348
v 0.204757 -0.552964 -0.105348
v 0.211837 -0.610626 -0.070865
v 0.211958 -0.611611 -0.062933
v 0.211910 -0.611218 -0.054949
v 0.211694 -0.609461 -0.047153
v 0.211317 -0.606392 -0.039782
v 0.210791 -0.602103 -0.033056
v 0.210130 -0.596724 -0.027179
v 0.209356 -0.590418 -0.022329
v 0.208491 -0.583373 -0.018650
v 0.207561 -0.575803 -0.016255
v 0.206595 -0.567936 -0.015215
v 0.172304 -0.288656 -0.009200
v 0.171970 -0.285934 -0.009567
v 0.171648 -0.283316 -0.010404
v 0.171350 -0.280882 -0.011686
v 0.171082 -0.278706 -0.013375
v 0.170855 -0.276854 -0.015419
v 0.170674 -0.275383 -0.017755
v 0.170546 -0.274337 -0.020314
v 0.170474 -0.273747 -0.023017
v 0.170460 -0.273633 -0.025781
v 0.170504 -0.273996 -0.028524
v 0.170606 -0.274827 -0.031162
v 0.170762 -0.276100 -0.033614
v 0.170968 -0.277776 -0.035806
v 0.171217 -0.279805 -0.037672
v 0.171502 -0.282124 -0.039154
v 0.171814 -0.284663 -0.040208
v 0.222846 -0.603245 -0.085626
v 0.220003 -0.580090 -0.104487
v 0.207893 -0.582607 -0.107307
v 0.220127 -0.581105 -0.107307
v 0.221027 -0.588435 -0.103912
v 0.221846 -0.595107 -0.099343
v 0.222562 -0.600939 -0.093727
v 0.223156 -0.605770 -0.087217
v 0.210922 -0.607272 -0.087217
v 0.208793 -0.589937 -0.103912
v 0.209612 -0.596609 -0.099343
v 0.210328 -0.602441 -0.093727
v 0.210612 -0.604748 -0.085626
v 0.207768 -0.581592 -0.104487
f 15 63 16
f 16 63 17
f 70 7 6
f 65 76 57
f 61 62 65
f 66 33 32
f 32 31 66
f 71 35 36
f 75 45 46
f 46 47 75
f 14 63 15
f 14 13 63
f 11 10 70
f 63 64 20
f 27 64 66
f 50 76 75
f 50 51 76
f 70 6 5
f 70 10 9
f 37 71 36
f 38 71 37
f 58 59 65
f 65 57 58
f 56 76 55
f 56 57 76
f 65 59 60
f 60 61 65
f 65 1 2
f 3 33 66
f 65 62 34
f 34 1 65
f 75 71 42
f 42 43 75
f 42 71 41
f 44 45 75
f 75 43 44
f 63 20 19
f 55 76 54
f 76 53 54
f 76 51 52
f 52 53 76
f 49 50 75
f 8 7 70
f 70 9 8
f 41 71 40
f 4 3 66
f 12 11 70
f 70 63 12
f 63 13 12
f 17 63 18
f 63 19 18
f 66 31 30
f 30 29 66
f 28 27 66
f 66 29 28
f 64 23 22
f 39 71 38
f 39 40 71
f 75 47 48
f 48 49 75
f 21 20 64
f 64 22 21
f 64 27 26
f 26 25 64
f 24 23 64
f 64 25 24
f 32 61 31
f 62 61 32
f 69 63 70
f 66 64 69
f 69 67 66
f 68 67 69
f 69 64 63
f 71 69 70
f 74 69 71
f 66 67 72
f 65 66 72
f 46 45 15
f 15 16 46
f 17 47 46
f 46 16 17
f 5 71 70
f 35 71 5
f 36 35 5
f 5 6 36
f 36 6 37
f 37 6 7
f 62 32 34
f 34 32 33
f 33 3 34
f 34 3 1
f 75 76 73
f 73 76 65
f 74 71 73
f 73 71 75
f 65 72 73
f 73 69 74
f 68 69 73
f 73 67 68
f 73 72 67
f 15 45 44
f 44 14 15
f 44 43 13
f 13 14 44
f 20 50 49
f 49 19 20
f 8 37 7
f 38 37 8
f 40 11 41
f 10 11 40
f 4 66 65
f 65 2 4
f 1 3 4
f 4 2 1
f 13 43 12
f 43 42 12
f 41 11 12
f 12 42 41
f 31 61 30
f 61 60 30
f 30 60 59
f 59 29 30
f 28 58 57
f 57 27 28
f 28 29 59
f 59 58 28
f 53 52 22
f 22 23 53
f 38 8 39
f 39 8 9
f 10 40 39
f 39 9 10
f 48 47 17
f 17 18 48
f 19 49 48
f 48 18 19
f 21 50 20
f 51 50 21
f 21 22 52
f 21 52 51
f 26 27 57
f 57 56 26
f 26 56 55
f 55 25 26
f 53 23 24
f 24 54 53
f 24 25 55
f 55 54 24
