# generated by step_to_parts.py -- 76 verts, 148 tris
v -0.393153 -0.543188 -0.103473
v -0.394545 -0.550219 -0.104953
v -0.399279 -0.549282 -0.104953
v -0.397888 -0.542251 -0.103473
v -0.400697 -0.556448 -0.105277
v -0.346110 -0.280548 -0.008677
v -0.345578 -0.277859 -0.009057
v -0.345067 -0.275276 -0.009907
v -0.344592 -0.272877 -0.011202
v -0.344168 -0.270735 -0.012902
v -0.343808 -0.268915 -0.014955
v -0.343523 -0.267472 -0.017299
v -0.343321 -0.266451 -0.019863
v -0.343208 -0.265882 -0.022569
v -0.343188 -0.265782 -0.025334
v -0.343262 -0.266155 -0.028075
v -0.343427 -0.266990 -0.030708
v -0.343679 -0.268260 -0.033154
v -0.344008 -0.269927 -0.035338
v -0.344407 -0.271941 -0.037193
v -0.344862 -0.274241 -0.038663
v -0.345359 -0.276756 -0.039704
v -0.409129 -0.599070 -0.068696
v -0.409314 -0.600004 -0.060759
v -0.409229 -0.599576 -0.052777
v -0.408878 -0.597801 -0.044991
v -0.408271 -0.594731 -0.037635
v -0.407426 -0.590458 -0.030931
v -0.406368 -0.585113 -0.025082
v -0.405130 -0.578856 -0.020263
v -0.403749 -0.571875 -0.016621
v -0.402266 -0.564382 -0.014264
v -0.400727 -0.556601 -0.013265
v -0.395962 -0.557385 -0.105277
v -0.341375 -0.281485 -0.008677
v -0.340844 -0.278796 -0.009057
v -0.340332 -0.276213 -0.009907
v -0.339858 -0.273814 -0.011202
v -0.339434 -0.271672 -0.012902
v -0.339074 -0.269852 -0.014955
v -0.338788 -0.268409 -0.017299
v -0.338586 -0.267388 -0.019863
v -0.338474 -0.266819 -0.022569
v -0.338454 -0.266719 -0.025334
v -0.338528 -0.267092 -0.028075
v -0.338693 -0.267926 -0.030708
v -0.338944 -0.269196 -0.033154
v -0.339274 -0.270864 -0.035338
v -0.339673 -0.272878 -0.037193
v -0.340128 -0.275178 -0.038663
v -0.340625 -0.277693 -0.039704
v -0.404395 -0.600007 -0.068696
v -0.404580 -0.600940 -0.060759
v -0.404495 -0.600513 -0.052777
v -0.404144 -0.598737 -0.044991
v -0.403537 -0.595667 -0.037635
v -0.402691 -0.591395 -0.030931
v -0.401634 -0.586050 -0.025082
v -0.400396 -0.579793 -0.020263
v -0.399015 -0.572812 -0.016621
v -0.397532 -0.565318 -0.014264
v -0.395993 -0.557538 -0.013265
v -0.414849 -0.591914 -0.083487
v -0.410340 -0.569123 -0.102466
v -0.398450 -0.572533 -0.105281
v -0.410541 -0.570140 -0.105281
v -0.399880 -0.579760 -0.101848
v -0.401180 -0.586332 -0.097245
v -0.402315 -0.592068 -0.091599
v -0.403253 -0.596810 -0.085065
v -0.415344 -0.594417 -0.085065
v -0.411971 -0.577368 -0.101848
v -0.413271 -0.583939 -0.097245
v -0.414406 -0.589675 -0.091599
v -0.402758 -0.594307 -0.083487
v -0.398248 -0.571515 -0.102466
f 52 70 53
f 24 25 71
f 75 35 62
f 39 75 76
f 6 63 33
f 7 63 6
f 71 28 29
f 66 4 3
f 1 51 65
f 46 76 65
f 65 47 46
f 22 4 66
f 66 21 22
f 10 64 63
f 23 24 71
f 71 25 26
f 53 70 54
f 70 55 54
f 70 58 57
f 66 3 5
f 2 1 65
f 65 51 50
f 50 49 65
f 48 47 65
f 65 49 48
f 44 76 45
f 76 46 45
f 8 63 7
f 61 75 62
f 61 60 75
f 70 75 59
f 75 60 59
f 59 58 70
f 42 41 76
f 40 39 76
f 76 41 40
f 35 75 36
f 75 37 36
f 75 39 38
f 38 37 75
f 27 28 71
f 71 26 27
f 34 2 65
f 20 21 66
f 9 10 63
f 63 8 9
f 13 14 64
f 64 12 13
f 64 10 11
f 11 12 64
f 33 63 32
f 63 31 32
f 71 29 30
f 30 63 71
f 30 31 63
f 43 76 44
f 43 42 76
f 56 55 70
f 70 57 56
f 66 18 19
f 19 20 66
f 64 14 15
f 15 16 64
f 17 18 66
f 66 64 17
f 64 16 17
f 62 35 6
f 33 62 6
f 22 1 4
f 51 1 22
f 67 72 66
f 67 66 65
f 73 72 67
f 67 68 73
f 69 75 70
f 65 76 69
f 69 67 65
f 76 75 69
f 68 67 69
f 70 52 23
f 71 70 23
f 23 52 53
f 53 24 23
f 54 24 53
f 25 24 54
f 54 26 25
f 55 26 54
f 58 29 57
f 57 29 28
f 4 1 2
f 2 3 4
f 51 22 50
f 50 22 21
f 71 63 74
f 74 64 66
f 66 72 74
f 74 72 73
f 63 64 74
f 74 69 70
f 74 70 71
f 73 68 74
f 68 69 74
f 36 6 35
f 7 6 36
f 37 8 36
f 36 8 7
f 65 66 34
f 66 5 34
f 3 2 34
f 34 5 3
f 20 50 21
f 49 50 20
f 9 38 39
f 39 10 9
f 9 8 37
f 37 38 9
f 41 42 13
f 13 12 41
f 11 10 39
f 39 40 11
f 41 12 11
f 11 40 41
f 32 62 33
f 32 61 62
f 60 61 32
f 32 31 60
f 30 29 58
f 58 59 30
f 60 31 30
f 30 59 60
f 43 13 42
f 14 13 43
f 56 26 55
f 56 27 26
f 56 57 28
f 28 27 56
f 19 18 47
f 47 48 19
f 49 20 19
f 19 48 49
f 14 43 15
f 15 43 44
f 44 45 15
f 45 16 15
f 47 18 17
f 17 46 47
f 17 16 45
f 17 45 46
