# generated by step_to_parts.py -- 72 verts, 140 tris
v 0.204350 -0.596204 -0.051756
v 0.204094 -0.594125 -0.046727
v 0.203737 -0.591212 -0.042138
v 0.203287 -0.587552 -0.038129
v 0.202760 -0.583256 -0.034821
v 0.202170 -0.578456 -0.032315
v 0.201537 -0.573296 -0.030687
v 0.200879 -0.567934 -0.029986
v 0.200215 -0.562533 -0.030234
v 0.199568 -0.557257 -0.031423
v 0.198955 -0.552266 -0.033517
v 0.198396 -0.547712 -0.036453
v 0.197907 -0.543732 -0.040140
v 0.197504 -0.540449 -0.044468
v 0.197198 -0.537962 -0.049305
v 0.197000 -0.536346 -0.054503
v 0.196915 -0.535650 -0.059905
v 0.196945 -0.535896 -0.065346
v 0.197090 -0.537076 -0.070662
v 0.231645 -0.592852 -0.051756
v 0.231389 -0.590774 -0.046727
v 0.231032 -0.587860 -0.042138
v 0.230582 -0.584200 -0.038129
v 0.230055 -0.579905 -0.034821
v 0.229465 -0.575104 -0.032315
v 0.228832 -0.569945 -0.030687
v 0.228174 -0.564583 -0.029986
v 0.227510 -0.559182 -0.030234
v 0.226863 -0.553906 -0.031423
v 0.226250 -0.548915 -0.033517
v 0.225691 -0.544360 -0.036453
v 0.225202 -0.540381 -0.040140
v 0.224799 -0.537098 -0.044468
v 0.224493 -0.534610 -0.049305
v 0.224295 -0.532994 -0.054503
v 0.224210 -0.532299 -0.059905
v 0.224240 -0.532545 -0.065346
v 0.224385 -0.533725 -0.070662
v 0.197345 -0.539155 -0.075691
v 0.197703 -0.542068 -0.080279
v 0.198152 -0.545728 -0.084289
v 0.198679 -0.550024 -0.087597
v 0.199269 -0.554824 -0.090103
v 0.199902 -0.559984 -0.091731
v 0.200561 -0.565346 -0.092432
v 0.201224 -0.570747 -0.092184
v 0.201872 -0.576023 -0.090995
v 0.202485 -0.581014 -0.088901
v 0.203044 -0.585568 -0.085965
v 0.203532 -0.589548 -0.082277
v 0.203936 -0.592831 -0.077950
v 0.204241 -0.595318 -0.073113
v 0.204439 -0.596935 -0.067915
v 0.204525 -0.597630 -0.062513
v 0.204495 -0.597384 -0.057071
v 0.224640 -0.535803 -0.075691
v 0.224998 -0.538717 -0.080279
v 0.225447 -0.542377 -0.084289
v 0.225975 -0.546673 -0.087597
v 0.226564 -0.551473 -0.090103
v 0.227197 -0.556633 -0.091731
v 0.227856 -0.561994 -0.092432
v 0.228519 -0.567395 -0.092184
v 0.229167 -0.572672 -0.090995
v 0.229780 -0.577663 -0.088901
v 0.230339 -0.582217 -0.085965
v 0.230827 -0.586196 -0.082277
v 0.231231 -0.589480 -0.077950
v 0.231536 -0.591967 -0.073113
v 0.231734 -0.593583 -0.067915
v 0.231820 -0.594279 -0.062513
v 0.231790 -0.594033 -0.057071
f 23 5 4
f 24 5 23
f 4 3 23
f 23 3 22
f 25 5 24
f 6 5 25
f 53 70 71
f 71 54 53
f 27 28 9
f 9 8 27
f 9 28 29
f 29 10 9
f 11 30 31
f 31 12 11
f 29 30 11
f 11 10 29
f 21 3 2
f 22 3 21
f 8 7 26
f 27 8 26
f 26 7 6
f 6 25 26
f 67 50 49
f 49 66 67
f 51 50 67
f 67 68 51
f 44 61 62
f 62 45 44
f 60 61 44
f 44 43 60
f 1 21 2
f 20 21 1
f 72 54 71
f 72 55 54
f 20 1 72
f 72 1 55
f 51 68 69
f 69 52 51
f 53 52 69
f 70 53 69
f 63 46 45
f 63 45 62
f 47 46 63
f 63 64 47
f 65 66 49
f 49 48 65
f 65 48 47
f 47 64 65
f 16 36 17
f 16 35 36
f 13 12 31
f 31 32 13
f 13 32 33
f 33 14 13
f 58 59 42
f 42 41 58
f 60 43 42
f 42 59 60
f 37 18 17
f 17 36 37
f 19 18 37
f 37 38 19
f 19 38 56
f 56 39 19
f 15 11 12
f 4 5 15
f 15 53 54
f 17 18 15
f 49 50 15
f 15 3 4
f 15 7 8
f 51 52 15
f 15 1 2
f 15 44 45
f 6 7 15
f 15 50 51
f 45 46 15
f 8 9 15
f 15 48 49
f 2 3 15
f 15 5 6
f 54 55 15
f 15 9 10
f 10 11 15
f 15 16 17
f 12 13 15
f 19 39 15
f 15 18 19
f 15 40 41
f 15 52 53
f 15 46 47
f 47 48 15
f 43 44 15
f 39 40 15
f 55 1 15
f 41 42 15
f 15 13 14
f 15 42 43
f 41 40 57
f 58 41 57
f 57 40 39
f 39 56 57
f 34 67 66
f 70 69 34
f 34 23 22
f 31 30 34
f 34 59 58
f 71 70 34
f 27 26 34
f 34 28 27
f 66 65 34
f 22 21 34
f 29 28 34
f 34 30 29
f 36 35 34
f 34 32 31
f 62 61 34
f 24 23 34
f 34 25 24
f 34 72 71
f 34 63 62
f 34 61 60
f 34 21 20
f 34 26 25
f 68 67 34
f 58 57 34
f 33 32 34
f 60 59 34
f 34 37 36
f 20 72 34
f 34 69 68
f 64 63 34
f 34 65 64
f 38 37 34
f 34 56 38
f 34 57 56
f 34 14 33
f 34 15 14
f 35 16 34
f 16 15 34
