# generated by step_to_parts.py -- 152 verts, 300 tris
v -0.384125 -0.551652 -0.028556
v -0.384498 -0.551497 -0.028167
v -0.386573 -0.564028 -0.089980
v -0.385519 -0.558702 -0.090609
v -0.384461 -0.553350 -0.090285
v -0.383429 -0.548135 -0.089020
v -0.382455 -0.543214 -0.086850
v -0.381570 -0.538738 -0.083842
v -0.380799 -0.534842 -0.080087
v -0.380166 -0.531645 -0.075700
v -0.379691 -0.529244 -0.070813
v -0.379388 -0.527712 -0.065576
v -0.379266 -0.527095 -0.060147
v -0.379329 -0.527412 -0.054692
v -0.379574 -0.528654 -0.049375
v -0.379996 -0.530783 -0.044359
v -0.380579 -0.533734 -0.039796
v -0.381308 -0.537417 -0.035825
v -0.382160 -0.541721 -0.032566
v -0.383108 -0.546514 -0.030118
v -0.386978 -0.564029 -0.090369
v -0.383469 -0.546294 -0.029749
v -0.382509 -0.541440 -0.032228
v -0.381646 -0.537081 -0.035528
v -0.380908 -0.533352 -0.039550
v -0.380317 -0.530363 -0.044170
v -0.379891 -0.528208 -0.049250
v -0.379642 -0.526950 -0.054634
v -0.379578 -0.526629 -0.060158
v -0.379702 -0.527254 -0.065656
v -0.380009 -0.528805 -0.070960
v -0.380490 -0.531237 -0.075908
v -0.381131 -0.534474 -0.080351
v -0.381911 -0.538419 -0.084153
v -0.382808 -0.542952 -0.087199
v -0.383794 -0.547935 -0.089396
v -0.384839 -0.553217 -0.090678
v -0.385911 -0.558636 -0.091006
v -0.391307 -0.563091 -0.089980
v -0.390934 -0.563247 -0.090369
v -0.388859 -0.550715 -0.028556
v -0.387842 -0.545578 -0.030118
v -0.386894 -0.540784 -0.032566
v -0.386042 -0.536480 -0.035825
v -0.385314 -0.532797 -0.039796
v -0.384730 -0.529846 -0.044359
v -0.384309 -0.527718 -0.049375
v -0.384063 -0.526476 -0.054692
v -0.384000 -0.526158 -0.060147
v -0.384122 -0.526775 -0.065576
v -0.384425 -0.528308 -0.070813
v -0.384900 -0.530709 -0.075700
v -0.385533 -0.533906 -0.080087
v -0.386304 -0.537802 -0.083842
v -0.387189 -0.542278 -0.086850
v -0.388163 -0.547198 -0.089020
v -0.389195 -0.552414 -0.090285
v -0.390254 -0.557766 -0.090609
v -0.388454 -0.550714 -0.028167
v -0.389867 -0.557854 -0.091006
v -0.388794 -0.552434 -0.090678
v -0.387749 -0.547153 -0.089396
v -0.386763 -0.542170 -0.087199
v -0.385867 -0.537637 -0.084153
v -0.385086 -0.533692 -0.080351
v -0.384446 -0.530454 -0.075908
v -0.383964 -0.528023 -0.070960
v -0.383657 -0.526471 -0.065656
v -0.383534 -0.525846 -0.060158
v -0.383597 -0.526168 -0.054634
v -0.383846 -0.527425 -0.049250
v -0.384273 -0.529581 -0.044170
v -0.384864 -0.532569 -0.039550
v -0.385602 -0.536299 -0.035528
v -0.386464 -0.540657 -0.032228
v -0.387425 -0.545511 -0.029749
v -0.443067 -0.847520 0.017606
v -0.447022 -0.846737 0.017606
v -0.447556 -0.849434 0.017924
v -0.448092 -0.852143 0.017760
v -0.448614 -0.854784 0.017119
v -0.449107 -0.857276 0.016021
v -0.449556 -0.859542 0.014498
v -0.449946 -0.861515 0.012597
v -0.450266 -0.863133 0.010375
v -0.450507 -0.864349 0.007901
v -0.450660 -0.865125 0.005249
v -0.450722 -0.865437 0.002501
v -0.450690 -0.865276 -0.000262
v -0.450566 -0.864648 -0.002954
v -0.450353 -0.863570 -0.005493
v -0.450057 -0.862076 -0.007804
v -0.449688 -0.860211 -0.009815
v -0.449257 -0.858032 -0.011465
v -0.448777 -0.855605 -0.012704
v -0.448262 -0.853003 -0.013495
v -0.444306 -0.853786 -0.013495
v -0.444821 -0.856387 -0.012704
v -0.445301 -0.858814 -0.011465
v -0.445732 -0.860994 -0.009815
v -0.446101 -0.862858 -0.007804
v -0.446397 -0.864353 -0.005493
v -0.446610 -0.865430 -0.002954
v -0.446735 -0.866059 -0.000262
v -0.446766 -0.866220 0.002501
v -0.446705 -0.865907 0.005249
v -0.446551 -0.865132 0.007901
v -0.446311 -0.863916 0.010375
v -0.445990 -0.862297 0.012597
v -0.445600 -0.860325 0.014498
v -0.445152 -0.858058 0.016021
v -0.444659 -0.855567 0.017119
v -0.444136 -0.852926 0.017760
v -0.443600 -0.850216 0.017924
v -0.442693 -0.847675 0.017217
v -0.443213 -0.850304 0.017527
v -0.443736 -0.852946 0.017368
v -0.444245 -0.855521 0.016743
v -0.444726 -0.857950 0.015672
v -0.445163 -0.860160 0.014187
v -0.445543 -0.862083 0.012333
v -0.445856 -0.863661 0.010167
v -0.446090 -0.864847 0.007755
v -0.446240 -0.865603 0.005170
v -0.446300 -0.865908 0.002489
v -0.446269 -0.865751 -0.000204
v -0.446148 -0.865138 -0.002829
v -0.445940 -0.864087 -0.005305
v -0.445652 -0.862630 -0.007557
v -0.445292 -0.860812 -0.009518
v -0.444872 -0.858687 -0.011127
v -0.444403 -0.856321 -0.012335
v -0.443902 -0.853785 -0.013106
v -0.447427 -0.846738 0.017217
v -0.448636 -0.852848 -0.013106
v -0.449138 -0.855384 -0.012335
v -0.449606 -0.857751 -0.011127
v -0.450026 -0.859875 -0.009518
v -0.450386 -0.861694 -0.007557
v -0.450674 -0.863150 -0.005305
v -0.450882 -0.864201 -0.002829
v -0.451003 -0.864814 -0.000204
v -0.451034 -0.864971 0.002489
v -0.450974 -0.864666 0.005170
v -0.450824 -0.863910 0.007755
v -0.450590 -0.862725 0.010167
v -0.450278 -0.861146 0.012333
v -0.449897 -0.859223 0.014187
v -0.449460 -0.857013 0.015672
v -0.448979 -0.854584 0.016743
v -0.448470 -0.852009 0.017368
v -0.447947 -0.849367 0.017527
f 115 1 2
f 2 77 115
f 105 88 104
f 104 88 89
f 135 40 96
f 39 40 135
f 78 77 2
f 2 59 78
f 38 4 3
f 3 21 38
f 12 29 13
f 30 29 12
f 97 3 133
f 21 3 97
f 133 132 97
f 97 132 98
f 96 40 97
f 40 21 97
f 136 135 95
f 95 135 96
f 95 97 98
f 96 97 95
f 102 91 101
f 101 91 92
f 92 93 101
f 101 93 100
f 87 144 143
f 143 88 87
f 77 78 114
f 114 78 79
f 116 115 114
f 114 115 77
f 13 29 14
f 14 29 28
f 27 15 14
f 14 28 27
f 105 104 125
f 104 126 125
f 103 91 102
f 103 90 91
f 103 104 89
f 89 90 103
f 103 126 104
f 103 127 126
f 98 132 131
f 99 98 131
f 100 93 94
f 99 100 94
f 94 95 98
f 94 98 99
f 136 95 94
f 94 137 136
f 148 147 84
f 84 83 148
f 134 78 59
f 134 59 41
f 116 114 117
f 117 114 113
f 118 117 112
f 112 117 113
f 118 112 119
f 119 112 111
f 107 85 86
f 108 85 107
f 109 85 108
f 84 85 109
f 26 15 27
f 26 16 15
f 26 73 25
f 72 73 26
f 25 17 26
f 17 16 26
f 45 73 46
f 46 73 72
f 71 26 27
f 72 26 71
f 47 46 71
f 71 46 72
f 76 59 2
f 2 22 76
f 23 75 76
f 76 22 23
f 74 75 23
f 23 24 74
f 25 73 74
f 74 24 25
f 2 1 20
f 20 22 2
f 23 22 20
f 20 19 23
f 37 4 38
f 37 5 4
f 38 21 60
f 60 21 40
f 60 37 38
f 61 37 60
f 32 10 9
f 9 33 32
f 30 12 31
f 12 11 31
f 31 66 67
f 32 66 31
f 31 11 10
f 31 10 32
f 32 33 65
f 65 66 32
f 66 65 52
f 52 65 53
f 138 93 92
f 92 139 138
f 138 94 93
f 137 94 138
f 89 88 142
f 142 88 143
f 142 90 89
f 142 141 90
f 92 91 140
f 140 139 92
f 91 90 140
f 90 141 140
f 146 85 84
f 84 147 146
f 79 78 152
f 78 134 152
f 111 112 82
f 82 112 81
f 149 148 82
f 82 148 83
f 82 150 149
f 81 150 82
f 80 114 79
f 113 114 80
f 80 112 113
f 81 112 80
f 80 152 151
f 79 152 80
f 151 150 80
f 80 150 81
f 108 107 123
f 123 122 108
f 105 125 106
f 106 125 124
f 124 123 106
f 106 123 107
f 106 88 105
f 106 87 88
f 106 107 86
f 86 87 106
f 121 109 108
f 108 122 121
f 110 119 111
f 120 119 110
f 109 121 110
f 110 121 120
f 111 82 110
f 110 82 83
f 110 83 84
f 84 109 110
f 18 17 25
f 25 24 18
f 18 24 23
f 23 19 18
f 48 47 70
f 47 71 70
f 27 28 70
f 70 71 27
f 28 29 70
f 29 69 70
f 41 59 42
f 59 76 42
f 42 76 75
f 75 43 42
f 44 73 45
f 44 74 73
f 75 74 44
f 44 43 75
f 53 65 54
f 54 65 64
f 62 57 56
f 61 57 62
f 34 8 7
f 7 35 34
f 34 9 8
f 33 9 34
f 34 65 33
f 64 65 34
f 48 70 49
f 49 70 69
f 68 29 30
f 68 69 29
f 50 49 68
f 68 49 69
f 30 31 68
f 68 31 67
f 50 68 51
f 51 68 67
f 67 66 51
f 66 52 51
f 128 103 102
f 127 103 128
f 102 101 128
f 101 129 128
f 133 3 130
f 15 16 130
f 130 3 4
f 5 6 130
f 4 5 130
f 7 8 130
f 130 6 7
f 1 115 130
f 130 20 1
f 130 16 17
f 130 12 13
f 13 14 130
f 130 14 15
f 130 121 122
f 118 119 130
f 130 125 126
f 130 132 133
f 10 11 130
f 17 18 130
f 130 115 116
f 130 131 132
f 116 117 130
f 130 11 12
f 124 125 130
f 126 127 130
f 130 9 10
f 130 117 118
f 130 119 120
f 130 123 124
f 19 20 130
f 8 9 130
f 127 128 130
f 122 123 130
f 120 121 130
f 130 18 19
f 130 128 129
f 99 131 130
f 130 100 99
f 130 101 100
f 130 129 101
f 144 87 145
f 145 87 86
f 86 85 145
f 85 146 145
f 58 40 39
f 58 60 40
f 61 60 58
f 58 57 61
f 36 6 5
f 5 37 36
f 36 37 61
f 61 62 36
f 7 6 36
f 36 35 7
f 63 34 35
f 64 34 63
f 63 36 62
f 35 36 63
f 151 152 55
f 143 144 55
f 39 135 55
f 149 150 55
f 139 140 55
f 55 47 48
f 45 46 55
f 136 137 55
f 55 135 136
f 144 145 55
f 55 138 139
f 55 148 149
f 55 134 41
f 41 42 55
f 53 54 55
f 55 52 53
f 55 142 143
f 147 148 55
f 50 51 55
f 55 46 47
f 55 44 45
f 48 49 55
f 137 138 55
f 141 142 55
f 55 140 141
f 55 146 147
f 55 152 134
f 55 150 151
f 55 42 43
f 43 44 55
f 55 58 39
f 56 57 55
f 55 49 50
f 55 51 52
f 55 145 146
f 57 58 55
f 55 62 56
f 55 63 62
f 55 54 64
f 64 63 55
