# generated by step_to_parts.py -- 42 verts, 80 tris
v 0.192472 -0.534967 -0.053535
v 0.202398 -0.533748 -0.053535
v 0.193019 -0.539419 -0.097786
v 0.193795 -0.545741 -0.101871
v 0.194642 -0.552641 -0.104858
v 0.195538 -0.559934 -0.106666
v 0.196457 -0.567423 -0.107246
v 0.197376 -0.574904 -0.106582
v 0.198269 -0.582177 -0.104692
v 0.199112 -0.589044 -0.101627
v 0.199883 -0.595320 -0.097471
v 0.200560 -0.600835 -0.092335
v 0.201125 -0.605441 -0.086358
v 0.201564 -0.609013 -0.079702
v 0.202944 -0.538200 -0.097786
v 0.203721 -0.544522 -0.101871
v 0.204568 -0.551422 -0.104858
v 0.205463 -0.558716 -0.106666
v 0.206383 -0.566204 -0.107246
v 0.207301 -0.573685 -0.106582
v 0.208194 -0.580958 -0.104692
v 0.209037 -0.587825 -0.101627
v 0.209808 -0.594101 -0.097471
v 0.210485 -0.599617 -0.092335
v 0.211051 -0.604222 -0.086358
v 0.211489 -0.607794 -0.079702
v 0.190966 -0.522700 -0.050612
v 0.190828 -0.521578 -0.058085
v 0.190841 -0.521685 -0.065642
v 0.191005 -0.523018 -0.073079
v 0.191315 -0.525541 -0.080197
v 0.191762 -0.529185 -0.086803
v 0.192335 -0.533853 -0.092719
v 0.200147 -0.597469 -0.074600
v 0.210072 -0.596251 -0.074600
v 0.200891 -0.521481 -0.050612
v 0.200754 -0.520360 -0.058085
v 0.200767 -0.520467 -0.065642
v 0.200931 -0.521799 -0.073079
v 0.201240 -0.524322 -0.080197
v 0.201688 -0.527966 -0.086803
v 0.202261 -0.532634 -0.092719
f 35 34 14
f 35 14 26
f 1 34 35
f 2 1 35
f 36 27 1
f 36 1 2
f 28 27 36
f 36 37 28
f 5 4 16
f 16 17 5
f 14 13 25
f 26 14 25
f 9 8 21
f 21 8 20
f 28 37 38
f 38 29 28
f 30 29 38
f 38 39 30
f 15 3 33
f 15 33 42
f 4 3 15
f 15 16 4
f 5 17 18
f 18 6 5
f 26 25 24
f 24 38 37
f 23 38 24
f 2 35 24
f 24 35 26
f 37 36 24
f 24 36 2
f 24 12 11
f 11 23 24
f 13 12 24
f 24 25 13
f 11 10 22
f 22 23 11
f 22 10 9
f 9 21 22
f 31 27 28
f 33 3 31
f 31 13 14
f 14 34 31
f 31 32 33
f 7 8 31
f 9 10 31
f 11 12 31
f 31 34 1
f 1 27 31
f 28 29 31
f 31 4 5
f 31 8 9
f 31 12 13
f 31 10 11
f 31 29 30
f 31 6 7
f 31 3 4
f 5 6 31
f 30 39 31
f 39 40 31
f 33 32 41
f 42 33 41
f 32 31 41
f 41 31 40
f 19 15 42
f 19 40 39
f 17 16 19
f 23 22 19
f 42 41 19
f 39 38 19
f 19 38 23
f 19 21 20
f 16 15 19
f 19 18 17
f 19 22 21
f 19 41 40
f 19 8 7
f 20 8 19
f 7 6 19
f 6 18 19
