# generated by step_to_parts.py -- 262 verts, 520 tris
v 0.285612 -0.524460 -0.044876
v 0.285919 -0.526963 -0.040731
v 0.286293 -0.530003 -0.036969
v 0.286725 -0.533523 -0.033659
v 0.291444 -0.571956 -0.029689
v 0.290853 -0.567148 -0.027619
v 0.291054 -0.568784 -0.028229
v 0.291251 -0.570388 -0.028919
v 0.227146 -0.556211 -0.074971
v 0.228911 -0.570586 -0.047587
v 0.226267 -0.549057 -0.054170
v 0.227843 -0.561893 -0.045377
v 0.229677 -0.576827 -0.052896
v 0.229723 -0.577203 -0.068864
v 0.229755 -0.577459 -0.066881
v 0.228146 -0.564354 -0.077146
v 0.226372 -0.549911 -0.069831
v 0.229854 -0.578270 -0.069030
v 0.229661 -0.576694 -0.071532
v 0.229417 -0.574712 -0.073721
v 0.229131 -0.572382 -0.075529
v 0.228811 -0.569775 -0.076902
v 0.228467 -0.566972 -0.077799
v 0.228109 -0.564056 -0.078191
v 0.227748 -0.561118 -0.078068
v 0.227395 -0.558245 -0.077432
v 0.227062 -0.555526 -0.076303
v 0.226757 -0.553042 -0.074715
v 0.226490 -0.550870 -0.072718
v 0.226269 -0.549075 -0.070370
v 0.226102 -0.547712 -0.067744
v 0.225993 -0.546822 -0.064920
v 0.225945 -0.546433 -0.061982
v 0.225960 -0.546556 -0.059022
v 0.226038 -0.547187 -0.056128
v 0.226175 -0.548307 -0.053388
v 0.226369 -0.549883 -0.050885
v 0.226612 -0.551866 -0.048697
v 0.226898 -0.554196 -0.046888
v 0.227218 -0.556802 -0.045515
v 0.227562 -0.559605 -0.044619
v 0.227920 -0.562521 -0.044226
v 0.228281 -0.565459 -0.044350
v 0.228634 -0.568332 -0.044986
v 0.228968 -0.571052 -0.046115
v 0.229273 -0.573535 -0.047702
v 0.229540 -0.575707 -0.049700
v 0.229760 -0.577502 -0.052048
v 0.229927 -0.578865 -0.054674
v 0.230037 -0.579755 -0.057498
v 0.230084 -0.580144 -0.060435
v 0.230069 -0.580022 -0.063396
v 0.229992 -0.579391 -0.066290
v 0.287463 -0.539534 -0.092729
v 0.292081 -0.577142 -0.033004
v 0.292638 -0.581678 -0.037176
v 0.293098 -0.585426 -0.042078
v 0.293447 -0.588273 -0.047562
v 0.293675 -0.590131 -0.053460
v 0.293775 -0.590944 -0.059593
v 0.293744 -0.590687 -0.065776
v 0.293582 -0.589369 -0.071820
v 0.293295 -0.587030 -0.077541
v 0.292891 -0.583740 -0.082767
v 0.292382 -0.579599 -0.087337
v 0.291785 -0.574733 -0.091113
v 0.291116 -0.569290 -0.093981
v 0.290398 -0.563436 -0.095853
v 0.289650 -0.557348 -0.096672
v 0.288897 -0.551212 -0.096414
v 0.288160 -0.545213 -0.095086
v 0.286826 -0.534348 -0.089414
v 0.286269 -0.529812 -0.085242
v 0.285809 -0.526064 -0.080340
v 0.285459 -0.523217 -0.074856
v 0.285231 -0.521359 -0.068958
v 0.285131 -0.520546 -0.062824
v 0.285163 -0.520802 -0.056642
v 0.285325 -0.522120 -0.050598
v 0.273089 -0.514369 -0.038895
v 0.272538 -0.513989 -0.038665
v 0.283143 -0.600353 -0.083752
v 0.283522 -0.603447 -0.076284
v 0.283747 -0.605278 -0.068404
v 0.283811 -0.605798 -0.060329
v 0.283712 -0.604991 -0.052277
v 0.283453 -0.602879 -0.044469
v 0.283040 -0.599521 -0.037117
v 0.282486 -0.595008 -0.030423
v 0.281805 -0.589462 -0.024568
v 0.281016 -0.583036 -0.019713
v 0.280141 -0.575904 -0.015990
v 0.279202 -0.568261 -0.013500
v 0.278227 -0.560316 -0.012311
v 0.277241 -0.552285 -0.012457
v 0.276271 -0.544387 -0.013932
v 0.275344 -0.536838 -0.016697
v 0.274485 -0.529843 -0.020676
v 0.273718 -0.523594 -0.025760
v 0.273063 -0.518261 -0.031812
v 0.283585 -0.599851 -0.083522
v 0.283977 -0.603048 -0.075706
v 0.284198 -0.604848 -0.067449
v 0.284241 -0.605198 -0.059002
v 0.284105 -0.604088 -0.050622
v 0.283793 -0.601549 -0.042564
v 0.283316 -0.597661 -0.035073
v 0.282687 -0.592540 -0.028375
v 0.281926 -0.586343 -0.022676
v 0.281056 -0.579257 -0.018147
v 0.280104 -0.571499 -0.014926
v 0.279097 -0.563303 -0.013112
v 0.278068 -0.554919 -0.012759
v 0.277047 -0.546602 -0.013878
v 0.276065 -0.538604 -0.016436
v 0.275152 -0.531168 -0.020354
v 0.274335 -0.524521 -0.025513
v 0.273641 -0.518864 -0.031757
v 0.272696 -0.511172 -0.046712
v 0.272475 -0.509371 -0.054969
v 0.272432 -0.509021 -0.063416
v 0.272569 -0.510132 -0.071796
v 0.272880 -0.512671 -0.079854
v 0.273358 -0.516559 -0.087345
v 0.273987 -0.521680 -0.094042
v 0.274747 -0.527877 -0.099742
v 0.275617 -0.534963 -0.104271
v 0.276570 -0.542721 -0.107492
v 0.277576 -0.550917 -0.109306
v 0.278606 -0.559300 -0.109659
v 0.279627 -0.567618 -0.108539
v 0.280609 -0.575616 -0.105982
v 0.281522 -0.583051 -0.102064
v 0.282338 -0.589699 -0.096905
v 0.283033 -0.595356 -0.090661
v 0.272159 -0.510895 -0.046134
v 0.271934 -0.509063 -0.054013
v 0.271870 -0.508544 -0.062089
v 0.271969 -0.509351 -0.070141
v 0.272228 -0.511462 -0.077949
v 0.272641 -0.514821 -0.085301
v 0.273195 -0.519334 -0.091995
v 0.273876 -0.524879 -0.097850
v 0.274665 -0.531306 -0.102705
v 0.275540 -0.538438 -0.106428
v 0.276479 -0.546081 -0.108918
v 0.277454 -0.554026 -0.110106
v 0.278440 -0.562057 -0.109961
v 0.279410 -0.569955 -0.108486
v 0.280337 -0.577504 -0.105721
v 0.281196 -0.584499 -0.101742
v 0.281963 -0.590748 -0.096657
v 0.282618 -0.596081 -0.090606
v 0.241753 -0.605435 -0.083752
v 0.241203 -0.605055 -0.083522
v 0.240651 -0.600560 -0.090661
v 0.239956 -0.594903 -0.096905
v 0.239140 -0.588255 -0.102064
v 0.238227 -0.580819 -0.105982
v 0.237245 -0.572822 -0.108539
v 0.236224 -0.564504 -0.109659
v 0.235195 -0.556121 -0.109306
v 0.234188 -0.547925 -0.107492
v 0.233236 -0.540167 -0.104271
v 0.232366 -0.533081 -0.099742
v 0.231605 -0.526884 -0.094042
v 0.230976 -0.521763 -0.087345
v 0.230499 -0.517874 -0.079854
v 0.230187 -0.515336 -0.071796
v 0.230051 -0.514225 -0.063416
v 0.230094 -0.514575 -0.054969
v 0.230315 -0.516376 -0.046712
v 0.230707 -0.519572 -0.038895
v 0.231149 -0.519071 -0.038665
v 0.241229 -0.601163 -0.090606
v 0.240574 -0.595830 -0.096657
v 0.239807 -0.589581 -0.101742
v 0.238948 -0.582586 -0.105721
v 0.238021 -0.575037 -0.108486
v 0.237051 -0.567139 -0.109961
v 0.236065 -0.559108 -0.110106
v 0.235090 -0.551162 -0.108918
v 0.234151 -0.543520 -0.106428
v 0.233276 -0.536388 -0.102705
v 0.232486 -0.529961 -0.097850
v 0.231806 -0.524416 -0.091995
v 0.231251 -0.519902 -0.085301
v 0.230839 -0.516544 -0.077949
v 0.230580 -0.514433 -0.070141
v 0.230481 -0.513626 -0.062089
v 0.230544 -0.514145 -0.054013
v 0.230769 -0.515977 -0.046134
v 0.231707 -0.523612 -0.031453
v 0.232409 -0.529328 -0.025145
v 0.233233 -0.536044 -0.019932
v 0.234156 -0.543556 -0.015974
v 0.235148 -0.551637 -0.013390
v 0.236180 -0.560040 -0.012260
v 0.237220 -0.568510 -0.012616
v 0.238236 -0.576790 -0.014449
v 0.239199 -0.584628 -0.017703
v 0.240078 -0.591787 -0.022278
v 0.240846 -0.598048 -0.028037
v 0.241482 -0.603221 -0.034803
v 0.241964 -0.607150 -0.042372
v 0.242279 -0.609715 -0.050513
v 0.242417 -0.610837 -0.058979
v 0.242373 -0.610483 -0.067513
v 0.242150 -0.608664 -0.075855
v 0.231259 -0.524068 -0.031757
v 0.231954 -0.529725 -0.025513
v 0.232770 -0.536372 -0.020354
v 0.233683 -0.543808 -0.016436
v 0.234665 -0.551806 -0.013878
v 0.235686 -0.560123 -0.012759
v 0.236715 -0.568507 -0.013112
v 0.237722 -0.576702 -0.014926
v 0.238674 -0.584461 -0.018147
v 0.239544 -0.591546 -0.022676
v 0.240305 -0.597744 -0.028375
v 0.240934 -0.602864 -0.035073
v 0.241412 -0.606753 -0.042564
v 0.241723 -0.609291 -0.050622
v 0.241860 -0.610402 -0.059002
v 0.241817 -0.610052 -0.067449
v 0.241596 -0.608251 -0.075706
v 0.232903 -0.594892 -0.077771
v 0.232493 -0.591556 -0.083070
v 0.231977 -0.587356 -0.087705
v 0.231372 -0.582422 -0.091534
v 0.230694 -0.576903 -0.094442
v 0.229965 -0.570966 -0.096341
v 0.229207 -0.564793 -0.097172
v 0.228443 -0.558570 -0.096910
v 0.227696 -0.552486 -0.095563
v 0.226989 -0.546728 -0.093173
v 0.226343 -0.541468 -0.089811
v 0.225778 -0.536868 -0.085580
v 0.225312 -0.533067 -0.080609
v 0.224957 -0.530181 -0.075048
v 0.224726 -0.528297 -0.069067
v 0.224624 -0.527472 -0.062847
v 0.224656 -0.527732 -0.056577
v 0.224821 -0.529069 -0.050448
v 0.225112 -0.531441 -0.044646
v 0.225522 -0.534778 -0.039347
v 0.226037 -0.538977 -0.034713
v 0.226643 -0.543911 -0.030883
v 0.227321 -0.549431 -0.027975
v 0.228050 -0.555367 -0.026077
v 0.228808 -0.561541 -0.025246
v 0.229572 -0.567764 -0.025508
v 0.230319 -0.573847 -0.026855
v 0.231026 -0.579606 -0.029245
v 0.231671 -0.584865 -0.032607
v 0.232236 -0.589465 -0.036838
v 0.232703 -0.593266 -0.041809
v 0.233057 -0.596153 -0.047369
v 0.233289 -0.598037 -0.053351
v 0.233390 -0.598861 -0.059571
v 0.233358 -0.598601 -0.065840
v 0.233194 -0.597265 -0.071969
f 2 1 80
f 193 174 173
f 173 210 193
f 156 176 175
f 192 173 174
f 214 215 198
f 97 196 96
f 193 99 100
f 100 174 193
f 194 99 193
f 193 210 194
f 87 105 59
f 97 4 116
f 202 90 91
f 204 220 221
f 204 88 89
f 177 176 157
f 176 156 157
f 180 179 160
f 104 85 60
f 153 101 82
f 180 160 161
f 180 161 181
f 181 161 162
f 181 162 182
f 125 143 142
f 185 184 165
f 182 162 163
f 182 163 183
f 202 218 219
f 191 190 171
f 171 190 170
f 206 87 205
f 205 222 206
f 87 88 205
f 88 204 205
f 221 222 205
f 205 204 221
f 206 222 223
f 207 206 223
f 102 103 84
f 84 103 85
f 75 140 76
f 140 122 76
f 114 96 95
f 114 6 4
f 115 4 97
f 97 96 115
f 115 114 4
f 96 114 115
f 197 96 196
f 196 213 197
f 197 213 214
f 197 214 198
f 198 95 197
f 95 96 197
f 81 100 80
f 174 100 81
f 80 136 81
f 81 136 192
f 81 192 174
f 211 194 210
f 87 59 58
f 57 88 58
f 107 57 89
f 89 88 107
f 107 88 57
f 113 114 95
f 6 114 113
f 7 6 111
f 111 92 7
f 4 3 117
f 212 213 196
f 211 212 195
f 194 211 195
f 195 196 97
f 195 212 196
f 118 100 99
f 99 117 118
f 118 117 3
f 118 3 2
f 118 2 80
f 80 100 118
f 201 91 92
f 201 218 202
f 202 91 201
f 92 91 110
f 109 91 90
f 90 55 109
f 109 55 91
f 89 57 56
f 56 55 90
f 203 204 89
f 220 204 203
f 89 90 203
f 203 90 202
f 203 219 220
f 202 219 203
f 85 104 86
f 86 59 105
f 86 206 207
f 207 85 86
f 86 87 206
f 86 105 87
f 60 59 86
f 86 104 60
f 102 101 62
f 209 225 226
f 168 169 188
f 137 120 138
f 138 120 78
f 189 169 170
f 170 190 189
f 189 188 169
f 144 143 126
f 127 145 144
f 75 74 141
f 184 183 164
f 164 165 184
f 164 183 163
f 67 150 132
f 66 150 67
f 173 192 172
f 172 192 191
f 191 171 172
f 207 223 224
f 155 156 175
f 121 138 77
f 77 138 78
f 119 136 80
f 137 136 119
f 119 120 137
f 119 79 78
f 78 120 119
f 106 88 87
f 87 58 106
f 106 58 88
f 112 6 94
f 6 113 94
f 94 113 95
f 94 95 198
f 93 6 112
f 93 111 6
f 112 94 93
f 92 111 93
f 98 116 4
f 4 117 98
f 98 117 99
f 99 194 98
f 194 195 98
f 97 116 98
f 98 195 97
f 91 55 5
f 5 110 91
f 108 90 89
f 89 56 108
f 108 56 90
f 159 160 179
f 60 85 61
f 85 103 61
f 61 103 102
f 102 62 61
f 63 62 101
f 102 84 83
f 84 209 83
f 83 101 102
f 83 82 101
f 225 209 208
f 208 209 84
f 208 224 225
f 207 224 208
f 208 85 207
f 208 84 85
f 139 138 121
f 139 76 122
f 139 77 76
f 121 77 139
f 139 122 140
f 187 167 168
f 168 188 187
f 187 186 167
f 142 141 124
f 124 74 142
f 124 141 74
f 123 141 140
f 123 140 75
f 75 141 123
f 185 165 166
f 166 186 185
f 167 186 166
f 129 146 70
f 146 71 70
f 128 146 145
f 145 71 128
f 128 71 146
f 145 127 54
f 54 71 145
f 54 127 144
f 149 132 150
f 67 132 149
f 149 148 131
f 153 152 135
f 135 101 153
f 133 151 150
f 150 66 133
f 133 66 151
f 134 152 151
f 64 135 134
f 134 135 152
f 200 201 92
f 92 93 200
f 215 216 199
f 198 215 199
f 199 94 198
f 199 93 94
f 216 200 199
f 199 200 93
f 226 155 154
f 154 209 226
f 82 83 154
f 154 83 209
f 154 155 175
f 110 5 8
f 7 92 8
f 92 110 8
f 178 159 179
f 177 157 158
f 158 178 177
f 159 178 158
f 129 70 147
f 130 148 147
f 147 146 129
f 144 126 72
f 72 54 144
f 72 126 143
f 69 148 130
f 130 147 69
f 69 147 70
f 151 66 65
f 65 134 151
f 64 134 65
f 218 201 217
f 201 200 217
f 217 200 216
f 143 125 73
f 73 72 143
f 73 125 142
f 142 74 73
f 67 149 68
f 68 149 131
f 131 148 68
f 148 69 68
f 31 30 17
f 17 30 29
f 24 23 16
f 16 25 24
f 13 49 48
f 184 143 144
f 185 143 184
f 246 210 173
f 245 246 173
f 222 257 258
f 221 257 222
f 251 215 214
f 214 250 251
f 145 146 183
f 183 146 182
f 183 184 144
f 144 145 183
f 254 219 218
f 255 219 254
f 242 243 171
f 171 170 242
f 256 219 255
f 220 219 256
f 256 257 221
f 221 220 256
f 223 222 258
f 258 259 223
f 191 192 136
f 136 137 191
f 250 214 249
f 214 213 249
f 211 210 246
f 246 247 211
f 212 249 213
f 248 249 212
f 212 211 247
f 212 247 248
f 191 137 138
f 138 190 191
f 164 163 235
f 164 235 236
f 175 176 152
f 153 175 152
f 152 176 177
f 177 151 152
f 216 215 251
f 251 252 216
f 172 171 243
f 172 243 244
f 245 173 172
f 172 244 245
f 240 167 239
f 168 167 240
f 245 244 35
f 35 36 245
f 51 259 50
f 51 260 259
f 224 260 261
f 261 225 224
f 224 223 259
f 259 260 224
f 228 157 156
f 229 157 228
f 262 225 261
f 226 225 262
f 155 228 156
f 227 228 155
f 226 262 155
f 155 262 227
f 162 161 234
f 234 161 233
f 235 163 234
f 234 163 162
f 80 1 119
f 1 79 119
f 233 161 232
f 232 161 160
f 159 232 160
f 231 232 159
f 190 138 139
f 139 189 190
f 140 188 139
f 188 189 139
f 186 143 185
f 142 143 186
f 187 188 140
f 140 141 187
f 142 186 187
f 187 141 142
f 239 167 166
f 166 238 239
f 237 164 236
f 165 164 237
f 238 166 237
f 237 166 165
f 237 27 28
f 236 27 237
f 28 29 237
f 29 238 237
f 180 148 149
f 149 179 180
f 135 63 101
f 64 63 135
f 242 170 241
f 170 169 241
f 168 240 241
f 241 169 168
f 37 246 245
f 245 36 37
f 37 247 246
f 37 38 247
f 244 243 34
f 34 35 244
f 52 262 261
f 53 262 52
f 260 51 52
f 261 260 52
f 154 175 153
f 153 82 154
f 236 235 26
f 26 27 236
f 51 15 18
f 18 52 51
f 53 52 18
f 15 14 18
f 227 262 18
f 18 262 53
f 18 228 227
f 18 19 228
f 178 151 177
f 150 151 178
f 179 149 178
f 178 149 150
f 231 159 158
f 158 230 231
f 158 157 229
f 229 230 158
f 147 148 180
f 180 181 147
f 182 146 147
f 147 181 182
f 217 254 218
f 253 254 217
f 217 216 252
f 217 252 253
f 248 247 39
f 247 38 39
f 39 249 248
f 39 40 249
f 33 243 242
f 33 34 243
f 68 77 78
f 75 76 68
f 68 59 60
f 68 56 57
f 2 3 68
f 1 2 68
f 68 6 7
f 7 8 68
f 68 79 1
f 4 6 68
f 68 3 4
f 57 58 68
f 68 63 64
f 68 74 75
f 68 66 67
f 78 79 68
f 68 58 59
f 55 56 68
f 60 61 68
f 64 65 68
f 68 73 74
f 76 77 68
f 68 5 55
f 68 61 62
f 62 63 68
f 68 70 71
f 71 54 68
f 68 8 5
f 54 72 68
f 68 69 70
f 68 65 66
f 72 73 68
f 250 249 41
f 249 40 41
f 251 250 41
f 41 42 251
f 231 230 21
f 21 22 231
f 12 41 40
f 42 41 12
f 43 252 251
f 251 42 43
f 253 252 43
f 43 44 253
f 242 241 32
f 32 33 242
f 32 241 240
f 240 31 32
f 239 238 30
f 30 238 29
f 30 240 239
f 30 31 240
f 23 232 231
f 231 22 23
f 233 232 23
f 23 24 233
f 235 234 25
f 25 26 235
f 25 234 233
f 233 24 25
f 229 228 20
f 228 19 20
f 20 230 229
f 20 21 230
f 20 18 14
f 19 18 20
f 45 254 253
f 253 44 45
f 255 254 45
f 45 46 255
f 47 256 255
f 255 46 47
f 35 34 11
f 36 35 11
f 11 12 40
f 40 39 11
f 11 39 38
f 38 37 11
f 11 37 36
f 28 27 17
f 27 9 17
f 17 29 28
f 17 11 34
f 34 33 17
f 33 32 17
f 17 32 31
f 16 20 14
f 22 21 16
f 21 20 16
f 16 23 22
f 26 25 16
f 16 9 27
f 27 26 16
f 49 259 258
f 50 259 49
f 49 15 51
f 49 13 15
f 49 51 50
f 9 16 10
f 10 14 15
f 10 17 9
f 10 16 14
f 11 17 10
f 12 11 10
f 15 13 10
f 42 12 10
f 44 43 10
f 10 43 42
f 10 45 44
f 257 256 48
f 256 47 48
f 258 257 48
f 48 49 258
f 48 10 13
f 46 45 48
f 45 10 48
f 48 47 46
