# generated by step_to_parts.py -- 1568 verts, 1540 tris
v -0.237501 -0.072820 0.075487
v -0.237501 -0.072820 0.098487
v -0.238180 -0.076254 0.098487
v -0.237877 -0.076287 0.098487
v -0.237573 -0.076266 0.098487
v -0.237276 -0.076193 0.098487
v -0.236997 -0.076070 0.098487
v -0.236744 -0.075901 0.098487
v -0.236524 -0.075689 0.098487
v -0.236344 -0.075443 0.098487
v -0.236209 -0.075169 0.098487
v -0.236124 -0.074877 0.098487
v -0.236091 -0.074573 0.098487
v -0.236111 -0.074269 0.098487
v -0.236184 -0.073973 0.098487
v -0.236307 -0.073694 0.098487
v -0.236477 -0.073440 0.098487
v -0.236688 -0.073220 0.098487
v -0.236934 -0.073040 0.098487
v -0.237208 -0.072905 0.098487
v -0.238180 -0.076254 0.075487
v -0.237208 -0.072905 0.075487
v -0.236934 -0.073040 0.075487
v -0.236688 -0.073220 0.075487
v -0.236477 -0.073440 0.075487
v -0.236307 -0.073694 0.075487
v -0.236184 -0.073973 0.075487
v -0.236111 -0.074269 0.075487
v -0.236091 -0.074573 0.075487
v -0.236124 -0.074877 0.075487
v -0.236209 -0.075169 0.075487
v -0.236344 -0.075443 0.075487
v -0.236524 -0.075689 0.075487
v -0.236744 -0.075901 0.075487
v -0.236997 -0.076070 0.075487
v -0.237276 -0.076193 0.075487
v -0.237573 -0.076266 0.075487
v -0.237877 -0.076287 0.075487
v -0.225668 -0.068790 0.075487
v -0.225668 -0.068790 0.098487
v -0.226348 -0.072224 0.098487
v -0.226045 -0.072256 0.098487
v -0.225740 -0.072236 0.098487
v -0.225444 -0.072163 0.098487
v -0.225165 -0.072040 0.098487
v -0.224911 -0.071870 0.098487
v -0.224691 -0.071659 0.098487
v -0.224511 -0.071413 0.098487
v -0.224376 -0.071139 0.098487
v -0.224291 -0.070846 0.098487
v -0.224259 -0.070543 0.098487
v -0.224279 -0.070239 0.098487
v -0.224352 -0.069943 0.098487
v -0.224475 -0.069663 0.098487
v -0.224644 -0.069410 0.098487
v -0.224856 -0.069190 0.098487
v -0.225102 -0.069010 0.098487
v -0.225376 -0.068875 0.098487
v -0.226348 -0.072224 0.075487
v -0.225376 -0.068875 0.075487
v -0.225102 -0.069010 0.075487
v -0.224856 -0.069190 0.075487
v -0.224644 -0.069410 0.075487
v -0.224475 -0.069663 0.075487
v -0.224352 -0.069943 0.075487
v -0.224279 -0.070239 0.075487
v -0.224259 -0.070543 0.075487
v -0.224291 -0.070846 0.075487
v -0.224376 -0.071139 0.075487
v -0.224511 -0.071413 0.075487
v -0.224691 -0.071659 0.075487
v -0.224911 -0.071870 0.075487
v -0.225165 -0.072040 0.075487
v -0.225444 -0.072163 0.075487
v -0.225740 -0.072236 0.075487
v -0.226045 -0.072256 0.075487
v -0.223242 -0.056528 0.075487
v -0.223242 -0.056528 0.098487
v -0.223922 -0.059961 0.098487
v -0.223618 -0.059994 0.098487
v -0.223314 -0.059974 0.098487
v -0.223018 -0.059901 0.098487
v -0.222739 -0.059778 0.098487
v -0.222485 -0.059608 0.098487
v -0.222265 -0.059397 0.098487
v -0.222085 -0.059151 0.098487
v -0.221950 -0.058877 0.098487
v -0.221865 -0.058584 0.098487
v -0.221832 -0.058281 0.098487
v -0.221853 -0.057977 0.098487
v -0.221925 -0.057680 0.098487
v -0.222049 -0.057401 0.098487
v -0.222218 -0.057148 0.098487
v -0.222430 -0.056928 0.098487
v -0.222676 -0.056747 0.098487
v -0.222949 -0.056613 0.098487
v -0.223922 -0.059961 0.075487
v -0.222949 -0.056613 0.075487
v -0.222676 -0.056747 0.075487
v -0.222430 -0.056928 0.075487
v -0.222218 -0.057148 0.075487
v -0.222049 -0.057401 0.075487
v -0.221925 -0.057680 0.075487
v -0.221853 -0.057977 0.075487
v -0.221832 -0.058281 0.075487
v -0.221865 -0.058584 0.075487
v -0.221950 -0.058877 0.075487
v -0.222085 -0.059151 0.075487
v -0.222265 -0.059397 0.075487
v -0.222485 -0.059608 0.075487
v -0.222739 -0.059778 0.075487
v -0.223018 -0.059901 0.075487
v -0.223314 -0.059974 0.075487
v -0.223618 -0.059994 0.075487
v -0.232649 -0.048296 0.075487
v -0.232649 -0.048296 0.098487
v -0.233328 -0.051729 0.098487
v -0.233025 -0.051762 0.098487
v -0.232720 -0.051742 0.098487
v -0.232424 -0.051669 0.098487
v -0.232145 -0.051546 0.098487
v -0.231892 -0.051376 0.098487
v -0.231672 -0.051165 0.098487
v -0.231491 -0.050919 0.098487
v -0.231357 -0.050645 0.098487
v -0.231272 -0.050352 0.098487
v -0.231239 -0.050049 0.098487
v -0.231259 -0.049744 0.098487
v -0.231332 -0.049448 0.098487
v -0.231455 -0.049169 0.098487
v -0.231625 -0.048916 0.098487
v -0.231836 -0.048695 0.098487
v -0.232082 -0.048515 0.098487
v -0.232356 -0.048381 0.098487
v -0.233328 -0.051729 0.075487
v -0.232356 -0.048381 0.075487
v -0.232082 -0.048515 0.075487
v -0.231836 -0.048695 0.075487
v -0.231625 -0.048916 0.075487
v -0.231455 -0.049169 0.075487
v -0.231332 -0.049448 0.075487
v -0.231259 -0.049744 0.075487
v -0.231239 -0.050049 0.075487
v -0.231272 -0.050352 0.075487
v -0.231357 -0.050645 0.075487
v -0.231491 -0.050919 0.075487
v -0.231672 -0.051165 0.075487
v -0.231892 -0.051376 0.075487
v -0.232145 -0.051546 0.075487
v -0.232424 -0.051669 0.075487
v -0.232720 -0.051742 0.075487
v -0.233025 -0.051762 0.075487
v -0.244481 -0.052326 0.075487
v -0.244481 -0.052326 0.098487
v -0.245161 -0.055759 0.098487
v -0.244857 -0.055792 0.098487
v -0.244553 -0.055772 0.098487
v -0.244257 -0.055699 0.098487
v -0.243978 -0.055576 0.098487
v -0.243724 -0.055406 0.098487
v -0.243504 -0.055195 0.098487
v -0.243324 -0.054949 0.098487
v -0.243189 -0.054675 0.098487
v -0.243104 -0.054382 0.098487
v -0.243071 -0.054079 0.098487
v -0.243092 -0.053774 0.098487
v -0.243164 -0.053478 0.098487
v -0.243288 -0.053199 0.098487
v -0.243457 -0.052946 0.098487
v -0.243668 -0.052725 0.098487
v -0.243915 -0.052545 0.098487
v -0.244188 -0.052411 0.098487
v -0.245161 -0.055759 0.075487
v -0.244188 -0.052411 0.075487
v -0.243915 -0.052545 0.075487
v -0.243668 -0.052725 0.075487
v -0.243457 -0.052946 0.075487
v -0.243288 -0.053199 0.075487
v -0.243164 -0.053478 0.075487
v -0.243092 -0.053774 0.075487
v -0.243071 -0.054079 0.075487
v -0.243104 -0.054382 0.075487
v -0.243189 -0.054675 0.075487
v -0.243324 -0.054949 0.075487
v -0.243504 -0.055195 0.075487
v -0.243724 -0.055406 0.075487
v -0.243978 -0.055576 0.075487
v -0.244257 -0.055699 0.075487
v -0.244553 -0.055772 0.075487
v -0.244857 -0.055792 0.075487
v -0.246907 -0.064588 0.075487
v -0.246907 -0.064588 0.098487
v -0.247587 -0.068021 0.098487
v -0.247283 -0.068054 0.098487
v -0.246979 -0.068034 0.098487
v -0.246683 -0.067961 0.098487
v -0.246404 -0.067838 0.098487
v -0.246150 -0.067668 0.098487
v -0.245930 -0.067457 0.098487
v -0.245750 -0.067211 0.098487
v -0.245615 -0.066937 0.098487
v -0.245530 -0.066644 0.098487
v -0.245497 -0.066341 0.098487
v -0.245518 -0.066037 0.098487
v -0.245591 -0.065740 0.098487
v -0.245714 -0.065461 0.098487
v -0.245883 -0.065208 0.098487
v -0.246095 -0.064988 0.098487
v -0.246341 -0.064808 0.098487
v -0.246614 -0.064673 0.098487
v -0.247587 -0.068021 0.075487
v -0.246614 -0.064673 0.075487
v -0.246341 -0.064808 0.075487
v -0.246095 -0.064988 0.075487
v -0.245883 -0.065208 0.075487
v -0.245714 -0.065461 0.075487
v -0.245591 -0.065740 0.075487
v -0.245518 -0.066037 0.075487
v -0.245497 -0.066341 0.075487
v -0.245530 -0.066644 0.075487
v -0.245615 -0.066937 0.075487
v -0.245750 -0.067211 0.075487
v -0.245930 -0.067457 0.075487
v -0.246150 -0.067668 0.075487
v -0.246404 -0.067838 0.075487
v -0.246683 -0.067961 0.075487
v -0.246979 -0.068034 0.075487
v -0.247283 -0.068054 0.075487
v -0.298378 -0.094558 0.001140
v -0.310150 -0.092229 0.001140
v -0.311314 -0.098115 0.001140
v -0.311305 -0.098070 0.001661
v -0.311279 -0.097937 0.002166
v -0.311236 -0.097721 0.002640
v -0.311178 -0.097426 0.003068
v -0.311106 -0.097064 0.003438
v -0.311023 -0.096643 0.003738
v -0.310931 -0.096179 0.003959
v -0.310833 -0.095683 0.004094
v -0.310732 -0.095172 0.004140
v -0.310631 -0.094661 0.004094
v -0.310533 -0.094165 0.003959
v -0.310441 -0.093701 0.003738
v -0.310357 -0.093280 0.003438
v -0.310286 -0.092918 0.003068
v -0.310228 -0.092623 0.002640
v -0.310185 -0.092407 0.002166
v -0.310158 -0.092274 0.001661
v -0.299542 -0.100444 0.001140
v -0.299533 -0.100399 0.001661
v -0.299507 -0.100267 0.002166
v -0.299464 -0.100050 0.002640
v -0.299406 -0.099755 0.003068
v -0.299334 -0.099393 0.003438
v -0.299251 -0.098973 0.003738
v -0.299159 -0.098508 0.003959
v -0.299061 -0.098012 0.004094
v -0.298960 -0.097501 0.004140
v -0.298859 -0.096990 0.004094
v -0.298761 -0.096495 0.003959
v -0.298669 -0.096030 0.003738
v -0.298586 -0.095609 0.003438
v -0.298514 -0.095247 0.003068
v -0.298456 -0.094952 0.002640
v -0.298413 -0.094736 0.002166
v -0.298387 -0.094603 0.001661
v -0.298378 -0.094558 -0.024260
v -0.310150 -0.092229 -0.024260
v -0.311314 -0.098115 -0.024260
v -0.311305 -0.098070 -0.023739
v -0.311279 -0.097937 -0.023234
v -0.311236 -0.097721 -0.022760
v -0.311178 -0.097426 -0.022332
v -0.311106 -0.097064 -0.021962
v -0.311023 -0.096643 -0.021662
v -0.310931 -0.096179 -0.021441
v -0.310833 -0.095683 -0.021306
v -0.310732 -0.095172 -0.021260
v -0.310631 -0.094661 -0.021306
v -0.310533 -0.094165 -0.021441
v -0.310441 -0.093701 -0.021662
v -0.310357 -0.093280 -0.021962
v -0.310286 -0.092918 -0.022332
v -0.310228 -0.092623 -0.022760
v -0.310185 -0.092407 -0.023234
v -0.310158 -0.092274 -0.023739
v -0.299542 -0.100444 -0.024260
v -0.299533 -0.100399 -0.023739
v -0.299507 -0.100267 -0.023234
v -0.299464 -0.100050 -0.022760
v -0.299406 -0.099755 -0.022332
v -0.299334 -0.099393 -0.021962
v -0.299251 -0.098973 -0.021662
v -0.299159 -0.098508 -0.021441
v -0.299061 -0.098012 -0.021306
v -0.298960 -0.097501 -0.021260
v -0.298859 -0.096990 -0.021306
v -0.298761 -0.096495 -0.021441
v -0.298669 -0.096030 -0.021662
v -0.298586 -0.095609 -0.021962
v -0.298514 -0.095247 -0.022332
v -0.298456 -0.094952 -0.022760
v -0.298413 -0.094736 -0.023234
v -0.298387 -0.094603 -0.023739
v -0.293448 -0.069641 -0.011560
v -0.305220 -0.067312 -0.011560
v -0.306384 -0.073198 -0.011560
v -0.306375 -0.073153 -0.011039
v -0.306349 -0.073020 -0.010534
v -0.306306 -0.072804 -0.010060
v -0.306248 -0.072509 -0.009632
v -0.306176 -0.072147 -0.009262
v -0.306093 -0.071726 -0.008962
v -0.306001 -0.071262 -0.008741
v -0.305903 -0.070766 -0.008606
v -0.305802 -0.070255 -0.008560
v -0.305701 -0.069744 -0.008606
v -0.305603 -0.069248 -0.008741
v -0.305511 -0.068784 -0.008962
v -0.305428 -0.068363 -0.009262
v -0.305356 -0.068001 -0.009632
v -0.305298 -0.067706 -0.010060
v -0.305255 -0.067490 -0.010534
v -0.305229 -0.067357 -0.011039
v -0.294612 -0.075527 -0.011560
v -0.294604 -0.075482 -0.011039
v -0.294577 -0.075350 -0.010534
v -0.294534 -0.075133 -0.010060
v -0.294476 -0.074838 -0.009632
v -0.294404 -0.074476 -0.009262
v -0.294321 -0.074056 -0.008962
v -0.294229 -0.073591 -0.008741
v -0.294131 -0.073095 -0.008606
v -0.294030 -0.072584 -0.008560
v -0.293929 -0.072073 -0.008606
v -0.293831 -0.071578 -0.008741
v -0.293739 -0.071113 -0.008962
v -0.293656 -0.070692 -0.009262
v -0.293584 -0.070330 -0.009632
v -0.293526 -0.070035 -0.010060
v -0.293483 -0.069819 -0.010534
v -0.293457 -0.069686 -0.011039
v -0.232018 -0.045107 0.095487
v -0.235051 -0.044778 0.095487
v -0.238094 -0.044981 0.095487
v -0.241057 -0.045709 0.095487
v -0.243848 -0.046940 0.095487
v -0.246382 -0.048638 0.095487
v -0.248584 -0.050749 0.095487
v -0.250385 -0.053211 0.095487
v -0.251731 -0.055949 0.095487
v -0.252582 -0.058878 0.095487
v -0.252911 -0.061911 0.095487
v -0.252708 -0.064954 0.095487
v -0.251980 -0.067917 0.095487
v -0.250749 -0.070708 0.095487
v -0.249051 -0.073242 0.095487
v -0.246940 -0.075444 0.095487
v -0.244478 -0.077245 0.095487
v -0.241741 -0.078591 0.095487
v -0.238811 -0.079442 0.095487
v -0.238811 -0.079442 0.098487
v -0.232018 -0.045107 0.098487
v -0.235051 -0.044778 0.098487
v -0.238094 -0.044981 0.098487
v -0.241057 -0.045709 0.098487
v -0.243848 -0.046940 0.098487
v -0.246382 -0.048638 0.098487
v -0.248584 -0.050749 0.098487
v -0.250385 -0.053211 0.098487
v -0.251731 -0.055949 0.098487
v -0.252582 -0.058878 0.098487
v -0.252911 -0.061911 0.098487
v -0.252708 -0.064954 0.098487
v -0.251980 -0.067917 0.098487
v -0.250749 -0.070708 0.098487
v -0.249051 -0.073242 0.098487
v -0.246940 -0.075444 0.098487
v -0.244478 -0.077245 0.098487
v -0.241741 -0.078591 0.098487
v -0.238811 -0.079442 0.075487
v -0.283446 -0.070611 0.075487
v -0.276653 -0.036276 0.075487
v -0.232018 -0.045107 0.075487
v -0.229089 -0.045958 0.075487
v -0.226351 -0.047304 0.075487
v -0.223889 -0.049106 0.075487
v -0.221778 -0.051307 0.075487
v -0.220080 -0.053842 0.075487
v -0.218849 -0.056632 0.075487
v -0.218121 -0.059595 0.075487
v -0.217918 -0.062638 0.075487
v -0.218247 -0.065671 0.075487
v -0.219098 -0.068601 0.075487
v -0.220444 -0.071338 0.075487
v -0.222246 -0.073800 0.075487
v -0.224447 -0.075911 0.075487
v -0.226982 -0.077609 0.075487
v -0.229772 -0.078840 0.075487
v -0.232735 -0.079568 0.075487
v -0.235778 -0.079771 0.075487
v -0.237501 -0.072820 0.075487
v -0.237208 -0.072905 0.075487
v -0.236934 -0.073040 0.075487
v -0.236688 -0.073220 0.075487
v -0.236477 -0.073440 0.075487
v -0.236307 -0.073694 0.075487
v -0.236184 -0.073973 0.075487
v -0.236111 -0.074269 0.075487
v -0.236091 -0.074573 0.075487
v -0.236124 -0.074877 0.075487
v -0.236209 -0.075169 0.075487
v -0.236344 -0.075443 0.075487
v -0.236524 -0.075689 0.075487
v -0.236744 -0.075901 0.075487
v -0.236997 -0.076070 0.075487
v -0.237276 -0.076193 0.075487
v -0.237573 -0.076266 0.075487
v -0.237877 -0.076287 0.075487
v -0.238180 -0.076254 0.075487
v -0.238473 -0.076169 0.075487
v -0.238747 -0.076034 0.075487
v -0.238993 -0.075854 0.075487
v -0.239204 -0.075634 0.075487
v -0.239374 -0.075380 0.075487
v -0.239497 -0.075101 0.075487
v -0.239570 -0.074805 0.075487
v -0.239590 -0.074500 0.075487
v -0.239557 -0.074197 0.075487
v -0.239472 -0.073904 0.075487
v -0.239338 -0.073631 0.075487
v -0.239158 -0.073384 0.075487
v -0.238937 -0.073173 0.075487
v -0.238684 -0.073003 0.075487
v -0.238405 -0.072880 0.075487
v -0.238109 -0.072808 0.075487
v -0.237804 -0.072787 0.075487
v -0.225668 -0.068790 0.075487
v -0.225376 -0.068875 0.075487
v -0.225102 -0.069010 0.075487
v -0.224856 -0.069190 0.075487
v -0.224644 -0.069410 0.075487
v -0.224475 -0.069663 0.075487
v -0.224352 -0.069943 0.075487
v -0.224279 -0.070239 0.075487
v -0.224259 -0.070543 0.075487
v -0.224291 -0.070846 0.075487
v -0.224376 -0.071139 0.075487
v -0.224511 -0.071413 0.075487
v -0.224691 -0.071659 0.075487
v -0.224911 -0.071870 0.075487
v -0.225165 -0.072040 0.075487
v -0.225444 -0.072163 0.075487
v -0.225740 -0.072236 0.075487
v -0.226045 -0.072256 0.075487
v -0.226348 -0.072224 0.075487
v -0.226641 -0.072138 0.075487
v -0.226914 -0.072004 0.075487
v -0.227161 -0.071824 0.075487
v -0.227372 -0.071604 0.075487
v -0.227542 -0.071350 0.075487
v -0.227665 -0.071071 0.075487
v -0.227738 -0.070775 0.075487
v -0.227758 -0.070470 0.075487
v -0.227725 -0.070167 0.075487
v -0.227640 -0.069874 0.075487
v -0.227505 -0.069600 0.075487
v -0.227325 -0.069354 0.075487
v -0.227105 -0.069143 0.075487
v -0.226851 -0.068973 0.075487
v -0.226572 -0.068850 0.075487
v -0.226276 -0.068777 0.075487
v -0.225972 -0.068757 0.075487
v -0.223242 -0.056528 0.075487
v -0.222949 -0.056613 0.075487
v -0.222676 -0.056747 0.075487
v -0.222430 -0.056928 0.075487
v -0.222218 -0.057148 0.075487
v -0.222049 -0.057401 0.075487
v -0.221925 -0.057680 0.075487
v -0.221853 -0.057977 0.075487
v -0.221832 -0.058281 0.075487
v -0.221865 -0.058584 0.075487
v -0.221950 -0.058877 0.075487
v -0.222085 -0.059151 0.075487
v -0.222265 -0.059397 0.075487
v -0.222485 -0.059608 0.075487
v -0.222739 -0.059778 0.075487
v -0.223018 -0.059901 0.075487
v -0.223314 -0.059974 0.075487
v -0.223618 -0.059994 0.075487
v -0.223922 -0.059961 0.075487
v -0.224215 -0.059876 0.075487
v -0.224488 -0.059742 0.075487
v -0.224735 -0.059561 0.075487
v -0.224946 -0.059341 0.075487
v -0.225115 -0.059088 0.075487
v -0.225239 -0.058809 0.075487
v -0.225311 -0.058512 0.075487
v -0.225332 -0.058208 0.075487
v -0.225299 -0.057905 0.075487
v -0.225214 -0.057612 0.075487
v -0.225079 -0.057338 0.075487
v -0.224899 -0.057092 0.075487
v -0.224679 -0.056881 0.075487
v -0.224425 -0.056711 0.075487
v -0.224146 -0.056588 0.075487
v -0.223850 -0.056515 0.075487
v -0.223546 -0.056495 0.075487
v -0.232649 -0.048296 0.075487
v -0.232356 -0.048381 0.075487
v -0.232082 -0.048515 0.075487
v -0.231836 -0.048695 0.075487
v -0.231625 -0.048916 0.075487
v -0.231455 -0.049169 0.075487
v -0.231332 -0.049448 0.075487
v -0.231259 -0.049744 0.075487
v -0.231239 -0.050049 0.075487
v -0.231272 -0.050352 0.075487
v -0.231357 -0.050645 0.075487
v -0.231491 -0.050919 0.075487
v -0.231672 -0.051165 0.075487
v -0.231892 -0.051376 0.075487
v -0.232145 -0.051546 0.075487
v -0.232424 -0.051669 0.075487
v -0.232720 -0.051742 0.075487
v -0.233025 -0.051762 0.075487
v -0.233328 -0.051729 0.075487
v -0.233621 -0.051644 0.075487
v -0.233895 -0.051509 0.075487
v -0.234141 -0.051329 0.075487
v -0.234352 -0.051109 0.075487
v -0.234522 -0.050856 0.075487
v -0.234645 -0.050576 0.075487
v -0.234718 -0.050280 0.075487
v -0.234738 -0.049976 0.075487
v -0.234705 -0.049673 0.075487
v -0.234620 -0.049380 0.075487
v -0.234485 -0.049106 0.075487
v -0.234305 -0.048860 0.075487
v -0.234085 -0.048649 0.075487
v -0.233832 -0.048479 0.075487
v -0.233553 -0.048356 0.075487
v -0.233256 -0.048283 0.075487
v -0.232952 -0.048263 0.075487
v -0.244481 -0.052326 0.075487
v -0.244188 -0.052411 0.075487
v -0.243915 -0.052545 0.075487
v -0.243668 -0.052725 0.075487
v -0.243457 -0.052946 0.075487
v -0.243288 -0.053199 0.075487
v -0.243164 -0.053478 0.075487
v -0.243092 -0.053774 0.075487
v -0.243071 -0.054079 0.075487
v -0.243104 -0.054382 0.075487
v -0.243189 -0.054675 0.075487
v -0.243324 -0.054949 0.075487
v -0.243504 -0.055195 0.075487
v -0.243724 -0.055406 0.075487
v -0.243978 -0.055576 0.075487
v -0.244257 -0.055699 0.075487
v -0.244553 -0.055772 0.075487
v -0.244857 -0.055792 0.075487
v -0.245161 -0.055759 0.075487
v -0.245454 -0.055674 0.075487
v -0.245727 -0.055539 0.075487
v -0.245973 -0.055359 0.075487
v -0.246185 -0.055139 0.075487
v -0.246354 -0.054886 0.075487
v -0.246478 -0.054607 0.075487
v -0.246550 -0.054310 0.075487
v -0.246571 -0.054006 0.075487
v -0.246538 -0.053703 0.075487
v -0.246453 -0.053410 0.075487
v -0.246318 -0.053136 0.075487
v -0.246138 -0.052890 0.075487
v -0.245918 -0.052679 0.075487
v -0.245664 -0.052509 0.075487
v -0.245385 -0.052386 0.075487
v -0.245089 -0.052313 0.075487
v -0.244785 -0.052293 0.075487
v -0.246907 -0.064588 0.075487
v -0.246614 -0.064673 0.075487
v -0.246341 -0.064808 0.075487
v -0.246095 -0.064988 0.075487
v -0.245883 -0.065208 0.075487
v -0.245714 -0.065461 0.075487
v -0.245591 -0.065740 0.075487
v -0.245518 -0.066037 0.075487
v -0.245497 -0.066341 0.075487
v -0.245530 -0.066644 0.075487
v -0.245615 -0.066937 0.075487
v -0.245750 -0.067211 0.075487
v -0.245930 -0.067457 0.075487
v -0.246150 -0.067668 0.075487
v -0.246404 -0.067838 0.075487
v -0.246683 -0.067961 0.075487
v -0.246979 -0.068034 0.075487
v -0.247283 -0.068054 0.075487
v -0.247587 -0.068021 0.075487
v -0.247880 -0.067936 0.075487
v -0.248153 -0.067802 0.075487
v -0.248400 -0.067622 0.075487
v -0.248611 -0.067401 0.075487
v -0.248780 -0.067148 0.075487
v -0.248904 -0.066869 0.075487
v -0.248976 -0.066573 0.075487
v -0.248997 -0.066268 0.075487
v -0.248964 -0.065965 0.075487
v -0.248879 -0.065672 0.075487
v -0.248744 -0.065398 0.075487
v -0.248564 -0.065152 0.075487
v -0.248344 -0.064941 0.075487
v -0.248090 -0.064771 0.075487
v -0.247811 -0.064648 0.075487
v -0.247515 -0.064575 0.075487
v -0.247211 -0.064555 0.075487
v -0.232018 -0.045107 0.095487
v -0.298234 -0.032006 0.095487
v -0.235051 -0.044778 0.095487
v -0.238094 -0.044981 0.095487
v -0.241057 -0.045709 0.095487
v -0.243848 -0.046940 0.095487
v -0.246382 -0.048638 0.095487
v -0.248584 -0.050749 0.095487
v -0.250385 -0.053211 0.095487
v -0.251731 -0.055949 0.095487
v -0.252582 -0.058878 0.095487
v -0.252911 -0.061911 0.095487
v -0.252708 -0.064954 0.095487
v -0.251980 -0.067917 0.095487
v -0.250749 -0.070708 0.095487
v -0.249051 -0.073242 0.095487
v -0.246940 -0.075444 0.095487
v -0.244478 -0.077245 0.095487
v -0.241741 -0.078591 0.095487
v -0.238811 -0.079442 0.095487
v -0.305028 -0.066341 0.095487
v -0.238811 -0.079442 0.095487
v -0.238811 -0.079442 0.098487
v -0.238811 -0.079442 0.075487
v -0.232018 -0.045107 0.075487
v -0.229089 -0.045958 0.075487
v -0.226351 -0.047304 0.075487
v -0.223889 -0.049106 0.075487
v -0.221778 -0.051307 0.075487
v -0.220080 -0.053842 0.075487
v -0.218849 -0.056632 0.075487
v -0.218121 -0.059595 0.075487
v -0.217918 -0.062638 0.075487
v -0.218247 -0.065671 0.075487
v -0.219098 -0.068601 0.075487
v -0.220444 -0.071338 0.075487
v -0.222246 -0.073800 0.075487
v -0.224447 -0.075911 0.075487
v -0.226982 -0.077609 0.075487
v -0.229772 -0.078840 0.075487
v -0.232735 -0.079568 0.075487
v -0.235778 -0.079771 0.075487
v -0.232018 -0.045107 0.095487
v -0.232018 -0.045107 0.098487
v -0.235778 -0.079771 0.098487
v -0.232735 -0.079568 0.098487
v -0.229772 -0.078840 0.098487
v -0.226982 -0.077609 0.098487
v -0.224447 -0.075911 0.098487
v -0.222246 -0.073800 0.098487
v -0.220444 -0.071338 0.098487
v -0.219098 -0.068601 0.098487
v -0.218247 -0.065671 0.098487
v -0.217918 -0.062638 0.098487
v -0.218121 -0.059595 0.098487
v -0.218849 -0.056632 0.098487
v -0.220080 -0.053842 0.098487
v -0.221778 -0.051307 0.098487
v -0.223889 -0.049106 0.098487
v -0.226351 -0.047304 0.098487
v -0.229089 -0.045958 0.098487
v -0.305028 -0.066341 0.075487
v -0.305028 -0.066341 0.095487
v -0.238811 -0.079442 0.095487
v -0.238811 -0.079442 0.075487
v -0.283446 -0.070611 0.075487
v -0.305028 -0.066341 0.075487
v -0.305028 -0.066341 0.095487
v -0.312284 -0.103020 0.025163
v -0.312284 -0.103020 -0.048283
v -0.304113 -0.061720 -0.048283
v -0.298234 -0.032006 -0.011560
v -0.298234 -0.032006 0.095487
v -0.311314 -0.098115 0.001140
v -0.311305 -0.098070 0.001661
v -0.311279 -0.097937 0.002166
v -0.311236 -0.097721 0.002640
v -0.311178 -0.097426 0.003068
v -0.311106 -0.097064 0.003438
v -0.311023 -0.096643 0.003738
v -0.310931 -0.096179 0.003959
v -0.310833 -0.095683 0.004094
v -0.310732 -0.095172 0.004140
v -0.310631 -0.094661 0.004094
v -0.310533 -0.094165 0.003959
v -0.310441 -0.093701 0.003738
v -0.310357 -0.093280 0.003438
v -0.310286 -0.092918 0.003068
v -0.310228 -0.092623 0.002640
v -0.310185 -0.092407 0.002166
v -0.310158 -0.092274 0.001661
v -0.310150 -0.092229 0.001140
v -0.310158 -0.092274 0.000619
v -0.310185 -0.092407 0.000114
v -0.310228 -0.092623 -0.000360
v -0.310286 -0.092918 -0.000788
v -0.310357 -0.093280 -0.001158
v -0.310441 -0.093701 -0.001458
v -0.310533 -0.094165 -0.001679
v -0.310631 -0.094661 -0.001815
v -0.310732 -0.095172 -0.001860
v -0.310833 -0.095683 -0.001815
v -0.310931 -0.096179 -0.001679
v -0.311023 -0.096643 -0.001458
v -0.311106 -0.097064 -0.001158
v -0.311178 -0.097426 -0.000788
v -0.311236 -0.097721 -0.000360
v -0.311279 -0.097937 0.000114
v -0.311305 -0.098070 0.000619
v -0.311314 -0.098115 -0.024260
v -0.311305 -0.098070 -0.023739
v -0.311279 -0.097937 -0.023234
v -0.311236 -0.097721 -0.022760
v -0.311178 -0.097426 -0.022332
v -0.311106 -0.097064 -0.021962
v -0.311023 -0.096643 -0.021662
v -0.310931 -0.096179 -0.021441
v -0.310833 -0.095683 -0.021306
v -0.310732 -0.095172 -0.021260
v -0.310631 -0.094661 -0.021306
v -0.310533 -0.094165 -0.021441
v -0.310441 -0.093701 -0.021662
v -0.310357 -0.093280 -0.021962
v -0.310286 -0.092918 -0.022332
v -0.310228 -0.092623 -0.022760
v -0.310185 -0.092407 -0.023234
v -0.310158 -0.092274 -0.023739
v -0.310150 -0.092229 -0.024260
v -0.310158 -0.092274 -0.024781
v -0.310185 -0.092407 -0.025286
v -0.310228 -0.092623 -0.025760
v -0.310286 -0.092918 -0.026188
v -0.310357 -0.093280 -0.026558
v -0.310441 -0.093701 -0.026858
v -0.310533 -0.094165 -0.027079
v -0.310631 -0.094661 -0.027215
v -0.310732 -0.095172 -0.027260
v -0.310833 -0.095683 -0.027215
v -0.310931 -0.096179 -0.027079
v -0.311023 -0.096643 -0.026858
v -0.311106 -0.097064 -0.026558
v -0.311178 -0.097426 -0.026188
v -0.311236 -0.097721 -0.025760
v -0.311279 -0.097937 -0.025286
v -0.311305 -0.098070 -0.024781
v -0.306384 -0.073198 -0.011560
v -0.306375 -0.073153 -0.011039
v -0.306349 -0.073020 -0.010534
v -0.306306 -0.072804 -0.010060
v -0.306248 -0.072509 -0.009632
v -0.306176 -0.072147 -0.009262
v -0.306093 -0.071726 -0.008962
v -0.306001 -0.071262 -0.008741
v -0.305903 -0.070766 -0.008606
v -0.305802 -0.070255 -0.008560
v -0.305701 -0.069744 -0.008606
v -0.305603 -0.069248 -0.008741
v -0.305511 -0.068784 -0.008962
v -0.305428 -0.068363 -0.009262
v -0.305356 -0.068001 -0.009632
v -0.305298 -0.067706 -0.010060
v -0.305255 -0.067490 -0.010534
v -0.305229 -0.067357 -0.011039
v -0.305220 -0.067312 -0.011560
v -0.305229 -0.067357 -0.012081
v -0.305255 -0.067490 -0.012586
v -0.305298 -0.067706 -0.013060
v -0.305356 -0.068001 -0.013488
v -0.305428 -0.068363 -0.013858
v -0.305511 -0.068784 -0.014158
v -0.305603 -0.069248 -0.014379
v -0.305701 -0.069744 -0.014515
v -0.305802 -0.070255 -0.014560
v -0.305903 -0.070766 -0.014515
v -0.306001 -0.071262 -0.014379
v -0.306093 -0.071726 -0.014158
v -0.306176 -0.072147 -0.013858
v -0.306248 -0.072509 -0.013488
v -0.306306 -0.072804 -0.013060
v -0.306349 -0.073020 -0.012586
v -0.306375 -0.073153 -0.012081
v -0.298234 -0.032006 -0.011560
v -0.298234 -0.032006 0.095487
v -0.232018 -0.045107 0.095487
v -0.232018 -0.045107 0.075487
v -0.276653 -0.036276 0.075487
v -0.278356 -0.035939 0.075335
v -0.280008 -0.035613 0.074884
v -0.281558 -0.035306 0.074147
v -0.282958 -0.035029 0.073148
v -0.284168 -0.034790 0.071915
v -0.285148 -0.034596 0.070487
v -0.285871 -0.034453 0.068907
v -0.286314 -0.034365 0.067224
v -0.286463 -0.034335 0.065487
v -0.286463 -0.034335 -0.011560
v -0.232018 -0.045107 0.098487
v -0.235051 -0.044778 0.098487
v -0.238094 -0.044981 0.098487
v -0.241057 -0.045709 0.098487
v -0.243848 -0.046940 0.098487
v -0.246382 -0.048638 0.098487
v -0.248584 -0.050749 0.098487
v -0.250385 -0.053211 0.098487
v -0.251731 -0.055949 0.098487
v -0.252582 -0.058878 0.098487
v -0.252911 -0.061911 0.098487
v -0.252708 -0.064954 0.098487
v -0.251980 -0.067917 0.098487
v -0.250749 -0.070708 0.098487
v -0.249051 -0.073242 0.098487
v -0.246940 -0.075444 0.098487
v -0.244478 -0.077245 0.098487
v -0.241741 -0.078591 0.098487
v -0.238811 -0.079442 0.098487
v -0.235778 -0.079771 0.098487
v -0.232735 -0.079568 0.098487
v -0.229772 -0.078840 0.098487
v -0.226982 -0.077609 0.098487
v -0.224447 -0.075911 0.098487
v -0.222246 -0.073800 0.098487
v -0.220444 -0.071338 0.098487
v -0.219098 -0.068601 0.098487
v -0.218247 -0.065671 0.098487
v -0.217918 -0.062638 0.098487
v -0.218121 -0.059595 0.098487
v -0.218849 -0.056632 0.098487
v -0.220080 -0.053842 0.098487
v -0.221778 -0.051307 0.098487
v -0.223889 -0.049106 0.098487
v -0.226351 -0.047304 0.098487
v -0.229089 -0.045958 0.098487
v -0.237501 -0.072820 0.098487
v -0.237804 -0.072787 0.098487
v -0.238109 -0.072808 0.098487
v -0.238405 -0.072880 0.098487
v -0.238684 -0.073003 0.098487
v -0.238937 -0.073173 0.098487
v -0.239158 -0.073384 0.098487
v -0.239338 -0.073631 0.098487
v -0.239472 -0.073904 0.098487
v -0.239557 -0.074197 0.098487
v -0.239590 -0.074500 0.098487
v -0.239570 -0.074805 0.098487
v -0.239497 -0.075101 0.098487
v -0.239374 -0.075380 0.098487
v -0.239204 -0.075634 0.098487
v -0.238993 -0.075854 0.098487
v -0.238747 -0.076034 0.098487
v -0.238473 -0.076169 0.098487
v -0.238180 -0.076254 0.098487
v -0.237877 -0.076287 0.098487
v -0.237573 -0.076266 0.098487
v -0.237276 -0.076193 0.098487
v -0.236997 -0.076070 0.098487
v -0.236744 -0.075901 0.098487
v -0.236524 -0.075689 0.098487
v -0.236344 -0.075443 0.098487
v -0.236209 -0.075169 0.098487
v -0.236124 -0.074877 0.098487
v -0.236091 -0.074573 0.098487
v -0.236111 -0.074269 0.098487
v -0.236184 -0.073973 0.098487
v -0.236307 -0.073694 0.098487
v -0.236477 -0.073440 0.098487
v -0.236688 -0.073220 0.098487
v -0.236934 -0.073040 0.098487
v -0.237208 -0.072905 0.098487
v -0.225668 -0.068790 0.098487
v -0.225972 -0.068757 0.098487
v -0.226276 -0.068777 0.098487
v -0.226572 -0.068850 0.098487
v -0.226851 -0.068973 0.098487
v -0.227105 -0.069143 0.098487
v -0.227325 -0.069354 0.098487
v -0.227505 -0.069600 0.098487
v -0.227640 -0.069874 0.098487
v -0.227725 -0.070167 0.098487
v -0.227758 -0.070470 0.098487
v -0.227738 -0.070775 0.098487
v -0.227665 -0.071071 0.098487
v -0.227542 -0.071350 0.098487
v -0.227372 -0.071604 0.098487
v -0.227161 -0.071824 0.098487
v -0.226914 -0.072004 0.098487
v -0.226641 -0.072138 0.098487
v -0.226348 -0.072224 0.098487
v -0.226045 -0.072256 0.098487
v -0.225740 -0.072236 0.098487
v -0.225444 -0.072163 0.098487
v -0.225165 -0.072040 0.098487
v -0.224911 -0.071870 0.098487
v -0.224691 -0.071659 0.098487
v -0.224511 -0.071413 0.098487
v -0.224376 -0.071139 0.098487
v -0.224291 -0.070846 0.098487
v -0.224259 -0.070543 0.098487
v -0.224279 -0.070239 0.098487
v -0.224352 -0.069943 0.098487
v -0.224475 -0.069663 0.098487
v -0.224644 -0.069410 0.098487
v -0.224856 -0.069190 0.098487
v -0.225102 -0.069010 0.098487
v -0.225376 -0.068875 0.098487
v -0.223242 -0.056528 0.098487
v -0.223546 -0.056495 0.098487
v -0.223850 -0.056515 0.098487
v -0.224146 -0.056588 0.098487
v -0.224425 -0.056711 0.098487
v -0.224679 -0.056881 0.098487
v -0.224899 -0.057092 0.098487
v -0.225079 -0.057338 0.098487
v -0.225214 -0.057612 0.098487
v -0.225299 -0.057905 0.098487
v -0.225332 -0.058208 0.098487
v -0.225311 -0.058512 0.098487
v -0.225239 -0.058809 0.098487
v -0.225115 -0.059088 0.098487
v -0.224946 -0.059341 0.098487
v -0.224735 -0.059561 0.098487
v -0.224488 -0.059742 0.098487
v -0.224215 -0.059876 0.098487
v -0.223922 -0.059961 0.098487
v -0.223618 -0.059994 0.098487
v -0.223314 -0.059974 0.098487
v -0.223018 -0.059901 0.098487
v -0.222739 -0.059778 0.098487
v -0.222485 -0.059608 0.098487
v -0.222265 -0.059397 0.098487
v -0.222085 -0.059151 0.098487
v -0.221950 -0.058877 0.098487
v -0.221865 -0.058584 0.098487
v -0.221832 -0.058281 0.098487
v -0.221853 -0.057977 0.098487
v -0.221925 -0.057680 0.098487
v -0.222049 -0.057401 0.098487
v -0.222218 -0.057148 0.098487
v -0.222430 -0.056928 0.098487
v -0.222676 -0.056747 0.098487
v -0.222949 -0.056613 0.098487
v -0.232649 -0.048296 0.098487
v -0.232952 -0.048263 0.098487
v -0.233256 -0.048283 0.098487
v -0.233553 -0.048356 0.098487
v -0.233832 -0.048479 0.098487
v -0.234085 -0.048649 0.098487
v -0.234305 -0.048860 0.098487
v -0.234485 -0.049106 0.098487
v -0.234620 -0.049380 0.098487
v -0.234705 -0.049673 0.098487
v -0.234738 -0.049976 0.098487
v -0.234718 -0.050280 0.098487
v -0.234645 -0.050576 0.098487
v -0.234522 -0.050856 0.098487
v -0.234352 -0.051109 0.098487
v -0.234141 -0.051329 0.098487
v -0.233895 -0.051509 0.098487
v -0.233621 -0.051644 0.098487
v -0.233328 -0.051729 0.098487
v -0.233025 -0.051762 0.098487
v -0.232720 -0.051742 0.098487
v -0.232424 -0.051669 0.098487
v -0.232145 -0.051546 0.098487
v -0.231892 -0.051376 0.098487
v -0.231672 -0.051165 0.098487
v -0.231491 -0.050919 0.098487
v -0.231357 -0.050645 0.098487
v -0.231272 -0.050352 0.098487
v -0.231239 -0.050049 0.098487
v -0.231259 -0.049744 0.098487
v -0.231332 -0.049448 0.098487
v -0.231455 -0.049169 0.098487
v -0.231625 -0.048916 0.098487
v -0.231836 -0.048695 0.098487
v -0.232082 -0.048515 0.098487
v -0.232356 -0.048381 0.098487
v -0.244481 -0.052326 0.098487
v -0.244785 -0.052293 0.098487
v -0.245089 -0.052313 0.098487
v -0.245385 -0.052386 0.098487
v -0.245664 -0.052509 0.098487
v -0.245918 -0.052679 0.098487
v -0.246138 -0.052890 0.098487
v -0.246318 -0.053136 0.098487
v -0.246453 -0.053410 0.098487
v -0.246538 -0.053703 0.098487
v -0.246571 -0.054006 0.098487
v -0.246550 -0.054310 0.098487
v -0.246478 -0.054607 0.098487
v -0.246354 -0.054886 0.098487
v -0.246185 -0.055139 0.098487
v -0.245973 -0.055359 0.098487
v -0.245727 -0.055539 0.098487
v -0.245454 -0.055674 0.098487
v -0.245161 -0.055759 0.098487
v -0.244857 -0.055792 0.098487
v -0.244553 -0.055772 0.098487
v -0.244257 -0.055699 0.098487
v -0.243978 -0.055576 0.098487
v -0.243724 -0.055406 0.098487
v -0.243504 -0.055195 0.098487
v -0.243324 -0.054949 0.098487
v -0.243189 -0.054675 0.098487
v -0.243104 -0.054382 0.098487
v -0.243071 -0.054079 0.098487
v -0.243092 -0.053774 0.098487
v -0.243164 -0.053478 0.098487
v -0.243288 -0.053199 0.098487
v -0.243457 -0.052946 0.098487
v -0.243668 -0.052725 0.098487
v -0.243915 -0.052545 0.098487
v -0.244188 -0.052411 0.098487
v -0.246907 -0.064588 0.098487
v -0.247211 -0.064555 0.098487
v -0.247515 -0.064575 0.098487
v -0.247811 -0.064648 0.098487
v -0.248090 -0.064771 0.098487
v -0.248344 -0.064941 0.098487
v -0.248564 -0.065152 0.098487
v -0.248744 -0.065398 0.098487
v -0.248879 -0.065672 0.098487
v -0.248964 -0.065965 0.098487
v -0.248997 -0.066268 0.098487
v -0.248976 -0.066573 0.098487
v -0.248904 -0.066869 0.098487
v -0.248780 -0.067148 0.098487
v -0.248611 -0.067401 0.098487
v -0.248400 -0.067622 0.098487
v -0.248153 -0.067802 0.098487
v -0.247880 -0.067936 0.098487
v -0.247587 -0.068021 0.098487
v -0.247283 -0.068054 0.098487
v -0.246979 -0.068034 0.098487
v -0.246683 -0.067961 0.098487
v -0.246404 -0.067838 0.098487
v -0.246150 -0.067668 0.098487
v -0.245930 -0.067457 0.098487
v -0.245750 -0.067211 0.098487
v -0.245615 -0.066937 0.098487
v -0.245530 -0.066644 0.098487
v -0.245497 -0.066341 0.098487
v -0.245518 -0.066037 0.098487
v -0.245591 -0.065740 0.098487
v -0.245714 -0.065461 0.098487
v -0.245883 -0.065208 0.098487
v -0.246095 -0.064988 0.098487
v -0.246341 -0.064808 0.098487
v -0.246614 -0.064673 0.098487
v -0.283446 -0.070611 0.075487
v -0.305028 -0.066341 0.075487
v -0.294698 -0.075958 0.065487
v -0.294189 -0.074496 0.067551
v -0.293327 -0.073233 0.069444
v -0.292220 -0.072219 0.071072
v -0.290983 -0.071460 0.072396
v -0.289715 -0.070935 0.073421
v -0.288348 -0.070577 0.074251
v -0.286933 -0.070390 0.074868
v -0.285518 -0.070367 0.075268
v -0.284460 -0.070450 0.075434
v -0.300513 -0.105349 0.025163
v -0.312284 -0.103020 0.025163
v -0.300513 -0.105349 0.025163
v -0.312284 -0.103020 0.025163
v -0.300513 -0.105349 -0.048283
v -0.312284 -0.103020 -0.048283
v -0.300513 -0.105349 -0.048283
v -0.312284 -0.103020 -0.048283
v -0.292342 -0.064049 -0.048283
v -0.304113 -0.061720 -0.048283
v -0.292342 -0.064049 -0.048283
v -0.304113 -0.061720 -0.048283
v -0.286463 -0.034335 -0.011560
v -0.298234 -0.032006 -0.011560
v -0.292342 -0.064049 -0.048283
v -0.286463 -0.034335 -0.011560
v -0.300513 -0.105349 -0.048283
v -0.300513 -0.105349 0.025163
v -0.294698 -0.075958 0.065487
v -0.286463 -0.034335 0.065487
v -0.299542 -0.100444 0.001140
v -0.299533 -0.100399 0.001661
v -0.299507 -0.100267 0.002166
v -0.299464 -0.100050 0.002640
v -0.299406 -0.099755 0.003068
v -0.299334 -0.099393 0.003438
v -0.299251 -0.098973 0.003738
v -0.299159 -0.098508 0.003959
v -0.299061 -0.098012 0.004094
v -0.298960 -0.097501 0.004140
v -0.298859 -0.096990 0.004094
v -0.298761 -0.096495 0.003959
v -0.298669 -0.096030 0.003738
v -0.298586 -0.095609 0.003438
v -0.298514 -0.095247 0.003068
v -0.298456 -0.094952 0.002640
v -0.298413 -0.094736 0.002166
v -0.298387 -0.094603 0.001661
v -0.298378 -0.094558 0.001140
v -0.298387 -0.094603 0.000619
v -0.298413 -0.094736 0.000114
v -0.298456 -0.094952 -0.000360
v -0.298514 -0.095247 -0.000788
v -0.298586 -0.095609 -0.001158
v -0.298669 -0.096030 -0.001458
v -0.298761 -0.096495 -0.001679
v -0.298859 -0.096990 -0.001815
v -0.298960 -0.097501 -0.001860
v -0.299061 -0.098012 -0.001815
v -0.299159 -0.098508 -0.001679
v -0.299251 -0.098973 -0.001458
v -0.299334 -0.099393 -0.001158
v -0.299406 -0.099755 -0.000788
v -0.299464 -0.100050 -0.000360
v -0.299507 -0.100267 0.000114
v -0.299533 -0.100399 0.000619
v -0.299542 -0.100444 -0.024260
v -0.299533 -0.100399 -0.023739
v -0.299507 -0.100267 -0.023234
v -0.299464 -0.100050 -0.022760
v -0.299406 -0.099755 -0.022332
v -0.299334 -0.099393 -0.021962
v -0.299251 -0.098973 -0.021662
v -0.299159 -0.098508 -0.021441
v -0.299061 -0.098012 -0.021306
v -0.298960 -0.097501 -0.021260
v -0.298859 -0.096990 -0.021306
v -0.298761 -0.096495 -0.021441
v -0.298669 -0.096030 -0.021662
v -0.298586 -0.095609 -0.021962
v -0.298514 -0.095247 -0.022332
v -0.298456 -0.094952 -0.022760
v -0.298413 -0.094736 -0.023234
v -0.298387 -0.094603 -0.023739
v -0.298378 -0.094558 -0.024260
v -0.298387 -0.094603 -0.024781
v -0.298413 -0.094736 -0.025286
v -0.298456 -0.094952 -0.025760
v -0.298514 -0.095247 -0.026188
v -0.298586 -0.095609 -0.026558
v -0.298669 -0.096030 -0.026858
v -0.298761 -0.096495 -0.027079
v -0.298859 -0.096990 -0.027215
v -0.298960 -0.097501 -0.027260
v -0.299061 -0.098012 -0.027215
v -0.299159 -0.098508 -0.027079
v -0.299251 -0.098973 -0.026858
v -0.299334 -0.099393 -0.026558
v -0.299406 -0.099755 -0.026188
v -0.299464 -0.100050 -0.025760
v -0.299507 -0.100267 -0.025286
v -0.299533 -0.100399 -0.024781
v -0.294612 -0.075527 -0.011560
v -0.294604 -0.075482 -0.011039
v -0.294577 -0.075350 -0.010534
v -0.294534 -0.075133 -0.010060
v -0.294476 -0.074838 -0.009632
v -0.294404 -0.074476 -0.009262
v -0.294321 -0.074056 -0.008962
v -0.294229 -0.073591 -0.008741
v -0.294131 -0.073095 -0.008606
v -0.294030 -0.072584 -0.008560
v -0.293929 -0.072073 -0.008606
v -0.293831 -0.071578 -0.008741
v -0.293739 -0.071113 -0.008962
v -0.293656 -0.070692 -0.009262
v -0.293584 -0.070330 -0.009632
v -0.293526 -0.070035 -0.010060
v -0.293483 -0.069819 -0.010534
v -0.293457 -0.069686 -0.011039
v -0.293448 -0.069641 -0.011560
v -0.293457 -0.069686 -0.012081
v -0.293483 -0.069819 -0.012586
v -0.293526 -0.070035 -0.013060
v -0.293584 -0.070330 -0.013488
v -0.293656 -0.070692 -0.013858
v -0.293739 -0.071113 -0.014158
v -0.293831 -0.071578 -0.014379
v -0.293929 -0.072073 -0.014515
v -0.294030 -0.072584 -0.014560
v -0.294131 -0.073095 -0.014515
v -0.294229 -0.073591 -0.014379
v -0.294321 -0.074056 -0.014158
v -0.294404 -0.074476 -0.013858
v -0.294476 -0.074838 -0.013488
v -0.294534 -0.075133 -0.013060
v -0.294577 -0.075350 -0.012586
v -0.294604 -0.075482 -0.012081
v -0.305220 -0.067312 -0.011560
v -0.305229 -0.067357 -0.012081
v -0.305255 -0.067490 -0.012586
v -0.305298 -0.067706 -0.013060
v -0.305356 -0.068001 -0.013488
v -0.305428 -0.068363 -0.013858
v -0.305511 -0.068784 -0.014158
v -0.305603 -0.069248 -0.014379
v -0.305701 -0.069744 -0.014515
v -0.305802 -0.070255 -0.014560
v -0.305903 -0.070766 -0.014515
v -0.306001 -0.071262 -0.014379
v -0.306093 -0.071726 -0.014158
v -0.306176 -0.072147 -0.013858
v -0.306248 -0.072509 -0.013488
v -0.306306 -0.072804 -0.013060
v -0.306349 -0.073020 -0.012586
v -0.306375 -0.073153 -0.012081
v -0.306384 -0.073198 -0.011560
v -0.293448 -0.069641 -0.011560
v -0.293457 -0.069686 -0.012081
v -0.293483 -0.069819 -0.012586
v -0.293526 -0.070035 -0.013060
v -0.293584 -0.070330 -0.013488
v -0.293656 -0.070692 -0.013858
v -0.293739 -0.071113 -0.014158
v -0.293831 -0.071578 -0.014379
v -0.293929 -0.072073 -0.014515
v -0.294030 -0.072584 -0.014560
v -0.294131 -0.073095 -0.014515
v -0.294229 -0.073591 -0.014379
v -0.294321 -0.074056 -0.014158
v -0.294404 -0.074476 -0.013858
v -0.294476 -0.074838 -0.013488
v -0.294534 -0.075133 -0.013060
v -0.294577 -0.075350 -0.012586
v -0.294604 -0.075482 -0.012081
v -0.294612 -0.075527 -0.011560
v -0.310150 -0.092229 -0.024260
v -0.310158 -0.092274 -0.024781
v -0.310185 -0.092407 -0.025286
v -0.310228 -0.092623 -0.025760
v -0.310286 -0.092918 -0.026188
v -0.310357 -0.093280 -0.026558
v -0.310441 -0.093701 -0.026858
v -0.310533 -0.094165 -0.027079
v -0.310631 -0.094661 -0.027215
v -0.310732 -0.095172 -0.027260
v -0.310833 -0.095683 -0.027215
v -0.310931 -0.096179 -0.027079
v -0.311023 -0.096643 -0.026858
v -0.311106 -0.097064 -0.026558
v -0.311178 -0.097426 -0.026188
v -0.311236 -0.097721 -0.025760
v -0.311279 -0.097937 -0.025286
v -0.311305 -0.098070 -0.024781
v -0.311314 -0.098115 -0.024260
v -0.298378 -0.094558 -0.024260
v -0.298387 -0.094603 -0.024781
v -0.298413 -0.094736 -0.025286
v -0.298456 -0.094952 -0.025760
v -0.298514 -0.095247 -0.026188
v -0.298586 -0.095609 -0.026558
v -0.298669 -0.096030 -0.026858
v -0.298761 -0.096495 -0.027079
v -0.298859 -0.096990 -0.027215
v -0.298960 -0.097501 -0.027260
v -0.299061 -0.098012 -0.027215
v -0.299159 -0.098508 -0.027079
v -0.299251 -0.098973 -0.026858
v -0.299334 -0.099393 -0.026558
v -0.299406 -0.099755 -0.026188
v -0.299464 -0.100050 -0.025760
v -0.299507 -0.100267 -0.025286
v -0.299533 -0.100399 -0.024781
v -0.299542 -0.100444 -0.024260
v -0.310150 -0.092229 0.001140
v -0.310158 -0.092274 0.000619
v -0.310185 -0.092407 0.000114
v -0.310228 -0.092623 -0.000360
v -0.310286 -0.092918 -0.000788
v -0.310357 -0.093280 -0.001158
v -0.310441 -0.093701 -0.001458
v -0.310533 -0.094165 -0.001679
v -0.310631 -0.094661 -0.001815
v -0.310732 -0.095172 -0.001860
v -0.310833 -0.095683 -0.001815
v -0.310931 -0.096179 -0.001679
v -0.311023 -0.096643 -0.001458
v -0.311106 -0.097064 -0.001158
v -0.311178 -0.097426 -0.000788
v -0.311236 -0.097721 -0.000360
v -0.311279 -0.097937 0.000114
v -0.311305 -0.098070 0.000619
v -0.311314 -0.098115 0.001140
v -0.298378 -0.094558 0.001140
v -0.298387 -0.094603 0.000619
v -0.298413 -0.094736 0.000114
v -0.298456 -0.094952 -0.000360
v -0.298514 -0.095247 -0.000788
v -0.298586 -0.095609 -0.001158
v -0.298669 -0.096030 -0.001458
v -0.298761 -0.096495 -0.001679
v -0.298859 -0.096990 -0.001815
v -0.298960 -0.097501 -0.001860
v -0.299061 -0.098012 -0.001815
v -0.299159 -0.098508 -0.001679
v -0.299251 -0.098973 -0.001458
v -0.299334 -0.099393 -0.001158
v -0.299406 -0.099755 -0.000788
v -0.299464 -0.100050 -0.000360
v -0.299507 -0.100267 0.000114
v -0.299533 -0.100399 0.000619
v -0.299542 -0.100444 0.001140
v -0.246907 -0.064588 0.098487
v -0.247211 -0.064555 0.098487
v -0.247515 -0.064575 0.098487
v -0.247811 -0.064648 0.098487
v -0.248090 -0.064771 0.098487
v -0.248344 -0.064941 0.098487
v -0.248564 -0.065152 0.098487
v -0.248744 -0.065398 0.098487
v -0.248879 -0.065672 0.098487
v -0.248964 -0.065965 0.098487
v -0.248997 -0.066268 0.098487
v -0.248976 -0.066573 0.098487
v -0.248904 -0.066869 0.098487
v -0.248780 -0.067148 0.098487
v -0.248611 -0.067401 0.098487
v -0.248400 -0.067622 0.098487
v -0.248153 -0.067802 0.098487
v -0.247880 -0.067936 0.098487
v -0.247587 -0.068021 0.098487
v -0.246907 -0.064588 0.075487
v -0.247587 -0.068021 0.075487
v -0.247880 -0.067936 0.075487
v -0.248153 -0.067802 0.075487
v -0.248400 -0.067622 0.075487
v -0.248611 -0.067401 0.075487
v -0.248780 -0.067148 0.075487
v -0.248904 -0.066869 0.075487
v -0.248976 -0.066573 0.075487
v -0.248997 -0.066268 0.075487
v -0.248964 -0.065965 0.075487
v -0.248879 -0.065672 0.075487
v -0.248744 -0.065398 0.075487
v -0.248564 -0.065152 0.075487
v -0.248344 -0.064941 0.075487
v -0.248090 -0.064771 0.075487
v -0.247811 -0.064648 0.075487
v -0.247515 -0.064575 0.075487
v -0.247211 -0.064555 0.075487
v -0.244481 -0.052326 0.098487
v -0.244785 -0.052293 0.098487
v -0.245089 -0.052313 0.098487
v -0.245385 -0.052386 0.098487
v -0.245664 -0.052509 0.098487
v -0.245918 -0.052679 0.098487
v -0.246138 -0.052890 0.098487
v -0.246318 -0.053136 0.098487
v -0.246453 -0.053410 0.098487
v -0.246538 -0.053703 0.098487
v -0.246571 -0.054006 0.098487
v -0.246550 -0.054310 0.098487
v -0.246478 -0.054607 0.098487
v -0.246354 -0.054886 0.098487
v -0.246185 -0.055139 0.098487
v -0.245973 -0.055359 0.098487
v -0.245727 -0.055539 0.098487
v -0.245454 -0.055674 0.098487
v -0.245161 -0.055759 0.098487
v -0.244481 -0.052326 0.075487
v -0.245161 -0.055759 0.075487
v -0.245454 -0.055674 0.075487
v -0.245727 -0.055539 0.075487
v -0.245973 -0.055359 0.075487
v -0.246185 -0.055139 0.075487
v -0.246354 -0.054886 0.075487
v -0.246478 -0.054607 0.075487
v -0.246550 -0.054310 0.075487
v -0.246571 -0.054006 0.075487
v -0.246538 -0.053703 0.075487
v -0.246453 -0.053410 0.075487
v -0.246318 -0.053136 0.075487
v -0.246138 -0.052890 0.075487
v -0.245918 -0.052679 0.075487
v -0.245664 -0.052509 0.075487
v -0.245385 -0.052386 0.075487
v -0.245089 -0.052313 0.075487
v -0.244785 -0.052293 0.075487
v -0.232649 -0.048296 0.098487
v -0.232952 -0.048263 0.098487
v -0.233256 -0.048283 0.098487
v -0.233553 -0.048356 0.098487
v -0.233832 -0.048479 0.098487
v -0.234085 -0.048649 0.098487
v -0.234305 -0.048860 0.098487
v -0.234485 -0.049106 0.098487
v -0.234620 -0.049380 0.098487
v -0.234705 -0.049673 0.098487
v -0.234738 -0.049976 0.098487
v -0.234718 -0.050280 0.098487
v -0.234645 -0.050576 0.098487
v -0.234522 -0.050856 0.098487
v -0.234352 -0.051109 0.098487
v -0.234141 -0.051329 0.098487
v -0.233895 -0.051509 0.098487
v -0.233621 -0.051644 0.098487
v -0.233328 -0.051729 0.098487
v -0.232649 -0.048296 0.075487
v -0.233328 -0.051729 0.075487
v -0.233621 -0.051644 0.075487
v -0.233895 -0.051509 0.075487
v -0.234141 -0.051329 0.075487
v -0.234352 -0.051109 0.075487
v -0.234522 -0.050856 0.075487
v -0.234645 -0.050576 0.075487
v -0.234718 -0.050280 0.075487
v -0.234738 -0.049976 0.075487
v -0.234705 -0.049673 0.075487
v -0.234620 -0.049380 0.075487
v -0.234485 -0.049106 0.075487
v -0.234305 -0.048860 0.075487
v -0.234085 -0.048649 0.075487
v -0.233832 -0.048479 0.075487
v -0.233553 -0.048356 0.075487
v -0.233256 -0.048283 0.075487
v -0.232952 -0.048263 0.075487
v -0.223242 -0.056528 0.098487
v -0.223546 -0.056495 0.098487
v -0.223850 -0.056515 0.098487
v -0.224146 -0.056588 0.098487
v -0.224425 -0.056711 0.098487
v -0.224679 -0.056881 0.098487
v -0.224899 -0.057092 0.098487
v -0.225079 -0.057338 0.098487
v -0.225214 -0.057612 0.098487
v -0.225299 -0.057905 0.098487
v -0.225332 -0.058208 0.098487
v -0.225311 -0.058512 0.098487
v -0.225239 -0.058809 0.098487
v -0.225115 -0.059088 0.098487
v -0.224946 -0.059341 0.098487
v -0.224735 -0.059561 0.098487
v -0.224488 -0.059742 0.098487
v -0.224215 -0.059876 0.098487
v -0.223922 -0.059961 0.098487
v -0.223242 -0.056528 0.075487
v -0.223922 -0.059961 0.075487
v -0.224215 -0.059876 0.075487
v -0.224488 -0.059742 0.075487
v -0.224735 -0.059561 0.075487
v -0.224946 -0.059341 0.075487
v -0.225115 -0.059088 0.075487
v -0.225239 -0.058809 0.075487
v -0.225311 -0.058512 0.075487
v -0.225332 -0.058208 0.075487
v -0.225299 -0.057905 0.075487
v -0.225214 -0.057612 0.075487
v -0.225079 -0.057338 0.075487
v -0.224899 -0.057092 0.075487
v -0.224679 -0.056881 0.075487
v -0.224425 -0.056711 0.075487
v -0.224146 -0.056588 0.075487
v -0.223850 -0.056515 0.075487
v -0.223546 -0.056495 0.075487
v -0.225668 -0.068790 0.098487
v -0.225972 -0.068757 0.098487
v -0.226276 -0.068777 0.098487
v -0.226572 -0.068850 0.098487
v -0.226851 -0.068973 0.098487
v -0.227105 -0.069143 0.098487
v -0.227325 -0.069354 0.098487
v -0.227505 -0.069600 0.098487
v -0.227640 -0.069874 0.098487
v -0.227725 -0.070167 0.098487
v -0.227758 -0.070470 0.098487
v -0.227738 -0.070775 0.098487
v -0.227665 -0.071071 0.098487
v -0.227542 -0.071350 0.098487
v -0.227372 -0.071604 0.098487
v -0.227161 -0.071824 0.098487
v -0.226914 -0.072004 0.098487
v -0.226641 -0.072138 0.098487
v -0.226348 -0.072224 0.098487
v -0.225668 -0.068790 0.075487
v -0.226348 -0.072224 0.075487
v -0.226641 -0.072138 0.075487
v -0.226914 -0.072004 0.075487
v -0.227161 -0.071824 0.075487
v -0.227372 -0.071604 0.075487
v -0.227542 -0.071350 0.075487
v -0.227665 -0.071071 0.075487
v -0.227738 -0.070775 0.075487
v -0.227758 -0.070470 0.075487
v -0.227725 -0.070167 0.075487
v -0.227640 -0.069874 0.075487
v -0.227505 -0.069600 0.075487
v -0.227325 -0.069354 0.075487
v -0.227105 -0.069143 0.075487
v -0.226851 -0.068973 0.075487
v -0.226572 -0.068850 0.075487
v -0.226276 -0.068777 0.075487
v -0.225972 -0.068757 0.075487
v -0.237501 -0.072820 0.098487
v -0.237804 -0.072787 0.098487
v -0.238109 -0.072808 0.098487
v -0.238405 -0.072880 0.098487
v -0.238684 -0.073003 0.098487
v -0.238937 -0.073173 0.098487
v -0.239158 -0.073384 0.098487
v -0.239338 -0.073631 0.098487
v -0.239472 -0.073904 0.098487
v -0.239557 -0.074197 0.098487
v -0.239590 -0.074500 0.098487
v -0.239570 -0.074805 0.098487
v -0.239497 -0.075101 0.098487
v -0.239374 -0.075380 0.098487
v -0.239204 -0.075634 0.098487
v -0.238993 -0.075854 0.098487
v -0.238747 -0.076034 0.098487
v -0.238473 -0.076169 0.098487
v -0.238180 -0.076254 0.098487
v -0.237501 -0.072820 0.075487
v -0.238180 -0.076254 0.075487
v -0.238473 -0.076169 0.075487
v -0.238747 -0.076034 0.075487
v -0.238993 -0.075854 0.075487
v -0.239204 -0.075634 0.075487
v -0.239374 -0.075380 0.075487
v -0.239497 -0.075101 0.075487
v -0.239570 -0.074805 0.075487
v -0.239590 -0.074500 0.075487
v -0.239557 -0.074197 0.075487
v -0.239472 -0.073904 0.075487
v -0.239338 -0.073631 0.075487
v -0.239158 -0.073384 0.075487
v -0.238937 -0.073173 0.075487
v -0.238684 -0.073003 0.075487
v -0.238405 -0.072880 0.075487
v -0.238109 -0.072808 0.075487
v -0.237804 -0.072787 0.075487
v -0.283446 -0.070611 0.075487
v -0.276653 -0.036276 0.075487
v -0.278356 -0.035939 0.075335
v -0.280008 -0.035613 0.074884
v -0.281558 -0.035306 0.074147
v -0.282958 -0.035029 0.073148
v -0.284168 -0.034790 0.071915
v -0.285148 -0.034596 0.070487
v -0.285871 -0.034453 0.068907
v -0.286314 -0.034365 0.067224
v -0.286463 -0.034335 0.065487
v -0.294698 -0.075958 0.065487
v -0.294189 -0.074496 0.067551
v -0.293327 -0.073233 0.069444
v -0.292220 -0.072219 0.071072
v -0.290983 -0.071460 0.072396
v -0.289715 -0.070935 0.073421
v -0.288348 -0.070577 0.074251
v -0.286933 -0.070390 0.074868
v -0.285518 -0.070367 0.075268
v -0.284460 -0.070450 0.075434
f 4 21 3
f 4 38 21
f 5 37 38
f 5 38 4
f 6 36 37
f 6 37 5
f 7 35 36
f 7 36 6
f 8 34 35
f 8 35 7
f 9 33 34
f 9 34 8
f 10 32 33
f 10 33 9
f 11 31 32
f 11 32 10
f 12 30 31
f 12 31 11
f 13 29 30
f 13 30 12
f 14 28 29
f 14 29 13
f 15 27 28
f 15 28 14
f 16 26 27
f 16 27 15
f 17 25 26
f 17 26 16
f 18 25 17
f 18 24 25
f 19 24 18
f 19 23 24
f 20 23 19
f 20 22 23
f 2 22 20
f 2 1 22
f 42 59 41
f 42 76 59
f 43 75 76
f 43 76 42
f 44 74 75
f 44 75 43
f 45 73 74
f 45 74 44
f 46 72 73
f 46 73 45
f 47 71 72
f 47 72 46
f 48 70 71
f 48 71 47
f 49 69 70
f 49 70 48
f 50 68 69
f 50 69 49
f 51 67 68
f 51 68 50
f 52 66 67
f 52 67 51
f 53 65 66
f 53 66 52
f 54 64 65
f 54 65 53
f 55 63 64
f 55 64 54
f 56 63 55
f 56 62 63
f 57 62 56
f 57 61 62
f 58 61 57
f 58 60 61
f 40 60 58
f 40 39 60
f 80 97 79
f 80 114 97
f 81 113 114
f 81 114 80
f 82 112 113
f 82 113 81
f 83 111 112
f 83 112 82
f 84 110 111
f 84 111 83
f 85 109 110
f 85 110 84
f 86 108 109
f 86 109 85
f 87 107 108
f 87 108 86
f 88 106 107
f 88 107 87
f 89 105 106
f 89 106 88
f 90 104 105
f 90 105 89
f 91 103 104
f 91 104 90
f 92 102 103
f 92 103 91
f 93 101 102
f 93 102 92
f 94 101 93
f 94 100 101
f 95 100 94
f 95 99 100
f 96 99 95
f 96 98 99
f 78 98 96
f 78 77 98
f 118 135 117
f 118 152 135
f 119 151 152
f 119 152 118
f 120 150 151
f 120 151 119
f 121 149 150
f 121 150 120
f 122 148 149
f 122 149 121
f 123 147 148
f 123 148 122
f 124 146 147
f 124 147 123
f 125 145 146
f 125 146 124
f 126 144 145
f 126 145 125
f 127 143 144
f 127 144 126
f 128 142 143
f 128 143 127
f 129 141 142
f 129 142 128
f 130 140 141
f 130 141 129
f 131 139 140
f 131 140 130
f 132 139 131
f 132 138 139
f 133 138 132
f 133 137 138
f 134 137 133
f 134 136 137
f 116 136 134
f 116 115 136
f 156 173 155
f 156 190 173
f 157 189 190
f 157 190 156
f 158 188 189
f 158 189 157
f 159 187 188
f 159 188 158
f 160 186 187
f 160 187 159
f 161 185 186
f 161 186 160
f 162 184 185
f 162 185 161
f 163 183 184
f 163 184 162
f 164 182 183
f 164 183 163
f 165 181 182
f 165 182 164
f 166 180 181
f 166 181 165
f 167 179 180
f 167 180 166
f 168 178 179
f 168 179 167
f 169 177 178
f 169 178 168
f 170 177 169
f 170 176 177
f 171 176 170
f 171 175 176
f 172 175 171
f 172 174 175
f 154 174 172
f 154 153 174
f 194 211 193
f 194 228 211
f 195 227 228
f 195 228 194
f 196 226 227
f 196 227 195
f 197 225 226
f 197 226 196
f 198 224 225
f 198 225 197
f 199 223 224
f 199 224 198
f 200 222 223
f 200 223 199
f 201 221 222
f 201 222 200
f 202 220 221
f 202 221 201
f 203 219 220
f 203 220 202
f 204 218 219
f 204 219 203
f 205 217 218
f 205 218 204
f 206 216 217
f 206 217 205
f 207 215 216
f 207 216 206
f 208 215 207
f 208 214 215
f 209 214 208
f 209 213 214
f 210 213 209
f 210 212 213
f 192 212 210
f 192 191 212
f 232 249 231
f 232 250 249
f 233 251 250
f 233 250 232
f 234 252 251
f 234 251 233
f 235 253 252
f 235 252 234
f 236 254 253
f 236 255 254
f 236 253 235
f 237 255 236
f 238 256 255
f 238 255 237
f 239 257 256
f 239 256 238
f 240 258 257
f 240 257 239
f 241 259 258
f 241 258 240
f 242 260 259
f 242 261 260
f 242 259 241
f 243 261 242
f 244 262 261
f 244 261 243
f 245 263 262
f 245 262 244
f 246 263 245
f 246 264 263
f 247 264 246
f 247 265 264
f 248 265 247
f 248 266 265
f 230 266 248
f 230 229 266
f 270 287 269
f 270 288 287
f 271 289 288
f 271 288 270
f 272 290 289
f 272 289 271
f 273 291 290
f 273 290 272
f 274 292 291
f 274 293 292
f 274 291 273
f 275 293 274
f 276 294 293
f 276 293 275
f 277 295 294
f 277 294 276
f 278 296 295
f 278 295 277
f 279 297 296
f 279 296 278
f 280 298 297
f 280 299 298
f 280 297 279
f 281 299 280
f 282 300 299
f 282 299 281
f 283 301 300
f 283 300 282
f 284 301 283
f 284 302 301
f 285 302 284
f 285 303 302
f 286 303 285
f 286 304 303
f 268 304 286
f 268 267 304
f 308 325 307
f 308 326 325
f 309 327 326
f 309 326 308
f 310 328 327
f 310 327 309
f 311 329 328
f 311 328 310
f 312 330 329
f 312 331 330
f 312 329 311
f 313 331 312
f 314 332 331
f 314 331 313
f 315 333 332
f 315 332 314
f 316 334 333
f 316 333 315
f 317 335 334
f 317 334 316
f 318 336 335
f 318 337 336
f 318 335 317
f 319 337 318
f 320 338 337
f 320 337 319
f 321 339 338
f 321 338 320
f 322 339 321
f 322 340 339
f 323 340 322
f 323 341 340
f 324 341 323
f 324 342 341
f 306 342 324
f 306 305 342
f 364 343 344
f 364 363 343
f 365 344 345
f 365 364 344
f 366 345 346
f 366 365 345
f 367 346 347
f 367 366 346
f 368 347 348
f 368 367 347
f 369 348 349
f 369 368 348
f 370 349 350
f 370 369 349
f 371 350 351
f 371 370 350
f 372 351 352
f 372 371 351
f 373 352 353
f 373 372 352
f 374 353 354
f 374 373 353
f 375 354 355
f 375 374 354
f 376 355 356
f 376 375 355
f 377 356 357
f 377 376 356
f 378 377 357
f 378 357 358
f 379 378 358
f 379 358 359
f 379 359 360
f 380 379 360
f 362 380 360
f 362 360 361
f 478 389 390
f 478 390 479
f 477 389 478
f 480 479 390
f 481 480 390
f 476 389 477
f 482 390 391
f 482 481 390
f 475 389 476
f 483 482 391
f 474 388 389
f 474 389 475
f 484 483 391
f 509 388 474
f 485 484 391
f 508 388 509
f 486 391 392
f 486 485 391
f 507 387 388
f 507 388 508
f 487 486 392
f 506 387 507
f 488 487 392
f 489 392 393
f 489 488 392
f 490 489 393
f 514 385 515
f 516 385 386
f 516 515 385
f 513 385 514
f 517 516 386
f 512 384 385
f 512 385 513
f 518 517 386
f 511 384 512
f 519 386 387
f 519 518 386
f 510 384 511
f 520 519 387
f 520 387 506
f 545 384 510
f 521 520 506
f 521 506 505
f 544 384 545
f 522 505 504
f 522 521 505
f 543 384 544
f 523 522 504
f 523 504 503
f 542 384 543
f 524 503 502
f 524 523 503
f 541 384 542
f 525 502 501
f 525 524 502
f 540 384 541
f 526 501 500
f 526 525 501
f 527 500 499
f 527 526 500
f 528 499 498
f 528 527 499
f 442 394 443
f 444 394 395
f 444 443 394
f 441 393 394
f 441 394 442
f 445 444 395
f 440 491 490
f 440 490 393
f 440 393 441
f 446 445 395
f 439 492 491
f 439 491 440
f 447 446 395
f 438 492 439
f 448 395 396
f 448 447 395
f 473 493 492
f 473 494 493
f 473 492 438
f 449 448 396
f 472 495 494
f 472 494 473
f 450 449 396
f 471 495 472
f 451 450 396
f 470 496 495
f 470 497 496
f 470 495 471
f 452 451 396
f 469 497 470
f 468 497 469
f 468 498 497
f 468 528 498
f 397 452 396
f 397 453 452
f 397 454 453
f 397 455 454
f 397 456 455
f 551 536 535
f 550 536 551
f 398 456 397
f 398 457 456
f 398 458 457
f 398 459 458
f 552 535 534
f 552 551 535
f 549 537 536
f 549 538 537
f 549 536 550
f 548 539 538
f 548 538 549
f 553 534 533
f 553 552 534
f 547 540 539
f 547 539 548
f 554 533 532
f 554 553 533
f 555 532 531
f 555 554 532
f 546 384 540
f 546 540 547
f 556 531 530
f 556 555 531
f 581 384 546
f 557 556 530
f 557 530 529
f 580 384 581
f 558 529 528
f 558 557 529
f 399 459 398
f 399 460 459
f 406 464 463
f 406 465 464
f 407 406 463
f 408 407 463
f 408 463 462
f 405 465 406
f 409 408 462
f 409 462 461
f 404 465 405
f 404 466 465
f 410 409 461
f 410 461 460
f 410 460 399
f 403 466 404
f 403 467 466
f 403 468 467
f 402 558 528
f 402 528 468
f 402 468 403
f 411 399 400
f 411 410 399
f 412 411 400
f 413 412 400
f 414 413 400
f 401 415 414
f 401 416 415
f 401 417 416
f 401 418 417
f 401 414 400
f 586 559 587
f 586 560 559
f 585 560 586
f 585 561 560
f 585 562 561
f 588 587 559
f 588 558 402
f 588 559 558
f 584 562 585
f 584 563 562
f 589 588 402
f 589 402 437
f 590 589 437
f 590 437 436
f 583 563 584
f 591 590 436
f 591 436 435
f 582 563 583
f 582 564 563
f 592 591 435
f 592 435 434
f 617 564 582
f 617 565 564
f 593 434 433
f 593 592 434
f 616 565 617
f 616 566 565
f 594 433 432
f 594 593 433
f 615 566 616
f 615 567 566
f 595 594 432
f 595 432 431
f 614 567 615
f 614 568 567
f 596 430 429
f 596 431 430
f 596 595 431
f 613 568 614
f 613 569 568
f 381 419 418
f 381 420 419
f 381 421 420
f 381 422 421
f 381 423 422
f 381 424 423
f 381 425 424
f 381 426 425
f 381 418 401
f 597 596 429
f 612 569 613
f 612 570 569
f 612 571 570
f 598 428 427
f 598 429 428
f 598 597 429
f 611 571 612
f 599 598 427
f 600 427 426
f 600 426 381
f 600 599 427
f 601 600 381
f 602 601 381
f 383 384 580
f 383 571 611
f 383 572 571
f 383 573 572
f 383 574 573
f 383 575 574
f 383 576 575
f 383 577 576
f 383 578 577
f 383 579 578
f 383 580 579
f 382 603 602
f 382 604 603
f 382 605 604
f 382 606 605
f 382 607 606
f 382 608 607
f 382 609 608
f 382 610 609
f 382 611 610
f 382 383 611
f 382 602 381
f 619 622 621
f 619 623 622
f 619 624 623
f 619 625 624
f 619 626 625
f 619 627 626
f 619 628 627
f 638 629 628
f 638 630 629
f 638 631 630
f 638 632 631
f 638 633 632
f 638 634 633
f 638 635 634
f 638 628 619
f 619 620 618
f 619 621 620
f 637 636 638
f 636 635 638
f 639 641 659
f 662 640 639
f 662 639 659
f 663 659 658
f 663 662 659
f 664 658 657
f 664 663 658
f 665 657 656
f 665 664 657
f 666 656 655
f 666 665 656
f 667 655 654
f 667 666 655
f 668 654 653
f 668 667 654
f 669 653 652
f 669 668 653
f 670 652 651
f 670 669 652
f 671 651 650
f 671 670 651
f 672 650 649
f 672 671 650
f 673 649 648
f 673 672 649
f 674 648 647
f 674 673 648
f 675 674 647
f 675 647 646
f 676 646 645
f 676 675 646
f 677 645 644
f 677 676 645
f 678 644 643
f 678 677 644
f 660 643 642
f 660 678 643
f 661 678 660
f 683 680 679
f 681 680 683
f 682 681 683
f 684 685 690
f 689 684 690
f 776 689 777
f 778 777 689
f 775 684 689
f 775 689 776
f 779 778 689
f 774 684 775
f 773 684 774
f 780 779 689
f 686 684 773
f 781 780 689
f 782 781 689
f 783 782 689
f 784 783 689
f 785 784 689
f 705 686 773
f 705 704 686
f 705 773 772
f 703 686 704
f 706 705 772
f 706 772 771
f 707 706 771
f 707 771 770
f 702 686 703
f 708 707 770
f 708 770 769
f 701 686 702
f 700 686 701
f 709 708 769
f 709 769 768
f 699 686 700
f 710 709 768
f 710 768 767
f 711 710 767
f 711 767 766
f 698 686 699
f 697 686 698
f 712 711 766
f 712 766 765
f 696 686 697
f 713 712 765
f 713 765 764
f 695 686 696
f 714 713 764
f 714 764 763
f 694 686 695
f 693 686 694
f 692 686 693
f 691 686 692
f 726 686 691
f 688 786 785
f 688 787 786
f 688 788 787
f 688 789 788
f 688 790 789
f 688 791 790
f 688 785 689
f 740 714 763
f 740 763 798
f 741 798 797
f 741 740 798
f 739 715 714
f 739 714 740
f 742 797 796
f 742 741 797
f 738 716 715
f 738 715 739
f 743 796 795
f 743 742 796
f 737 717 716
f 737 716 738
f 744 795 794
f 744 743 795
f 736 718 717
f 736 717 737
f 745 794 793
f 745 744 794
f 735 719 718
f 735 720 719
f 735 718 736
f 746 793 792
f 746 745 793
f 747 792 791
f 747 791 688
f 747 746 792
f 734 720 735
f 748 747 688
f 733 721 720
f 733 722 721
f 733 720 734
f 749 748 688
f 732 722 733
f 750 749 688
f 731 723 722
f 731 722 732
f 751 750 688
f 730 724 723
f 730 725 724
f 730 723 731
f 729 725 730
f 728 725 729
f 728 726 725
f 687 751 688
f 687 726 728
f 687 728 727
f 687 686 726
f 687 752 751
f 687 753 752
f 687 754 753
f 687 755 754
f 687 756 755
f 687 757 756
f 687 758 757
f 687 759 758
f 687 760 759
f 687 761 760
f 687 762 761
f 687 727 762
f 808 800 807
f 809 800 808
f 806 807 800
f 810 800 809
f 805 806 800
f 811 800 810
f 804 805 800
f 803 804 800
f 812 800 811
f 801 803 800
f 802 803 801
f 799 800 812
f 813 799 812
f 908 837 838
f 908 838 909
f 910 909 838
f 907 837 908
f 911 910 838
f 906 837 907
f 912 838 839
f 912 911 838
f 905 837 906
f 913 912 839
f 904 836 837
f 904 837 905
f 914 913 839
f 903 836 904
f 915 914 839
f 902 836 903
f 916 839 840
f 916 915 839
f 901 835 836
f 901 836 902
f 917 916 840
f 900 835 901
f 918 917 840
f 919 918 840
f 919 840 841
f 920 919 841
f 873 872 833
f 874 833 834
f 874 873 833
f 871 833 872
f 875 874 834
f 870 833 871
f 870 832 833
f 876 875 834
f 869 832 870
f 877 834 835
f 877 876 834
f 868 832 869
f 878 877 835
f 878 835 900
f 867 832 868
f 879 878 900
f 879 900 899
f 866 831 832
f 866 832 867
f 880 879 899
f 880 899 898
f 865 831 866
f 881 880 898
f 881 898 897
f 864 831 865
f 882 897 896
f 882 881 897
f 863 831 864
f 883 895 894
f 883 896 895
f 883 882 896
f 862 831 863
f 884 883 894
f 884 894 893
f 885 884 893
f 850 893 892
f 850 885 893
f 830 860 859
f 830 861 860
f 830 862 861
f 830 831 862
f 945 944 842
f 946 945 842
f 946 842 843
f 943 841 842
f 943 842 944
f 947 946 843
f 942 841 943
f 942 920 841
f 948 947 843
f 941 921 920
f 941 920 942
f 829 859 858
f 829 830 859
f 949 948 843
f 940 886 921
f 940 921 941
f 950 843 844
f 950 949 843
f 939 886 940
f 939 887 886
f 951 950 844
f 938 887 939
f 938 888 887
f 952 951 844
f 937 888 938
f 937 889 888
f 953 952 844
f 936 889 937
f 936 890 889
f 954 953 844
f 935 890 936
f 935 891 890
f 934 891 935
f 934 892 891
f 845 955 954
f 845 956 955
f 845 957 956
f 845 922 957
f 845 954 844
f 1052 829 858
f 1053 1052 858
f 1053 858 857
f 846 923 922
f 846 924 923
f 846 925 924
f 846 922 845
f 1051 828 829
f 1051 829 1052
f 1054 1053 857
f 1054 857 856
f 1050 828 1051
f 1055 1054 856
f 1055 856 855
f 1049 828 1050
f 1056 1055 855
f 1056 855 854
f 1057 1056 854
f 1057 853 852
f 1057 854 853
f 1048 828 1049
f 1048 827 828
f 1058 1057 852
f 1058 852 851
f 1047 827 1048
f 1059 851 850
f 1059 1058 851
f 1046 827 1047
f 1060 1059 850
f 1045 827 1046
f 1044 827 1045
f 847 925 846
f 847 926 925
f 826 1041 1040
f 826 1042 1041
f 826 1043 1042
f 826 1044 1043
f 826 827 1044
f 980 930 929
f 981 980 929
f 979 931 930
f 979 932 931
f 979 930 980
f 982 928 927
f 982 929 928
f 982 981 929
f 978 932 979
f 983 982 927
f 825 1037 1036
f 825 1038 1037
f 825 1039 1038
f 825 1040 1039
f 825 826 1040
f 984 927 926
f 984 926 847
f 984 983 927
f 977 933 932
f 977 932 978
f 985 847 848
f 985 984 847
f 976 934 933
f 976 933 977
f 976 892 934
f 986 985 848
f 987 986 848
f 988 987 848
f 849 988 848
f 849 989 988
f 849 990 989
f 849 991 990
f 849 992 991
f 824 1034 1033
f 824 1035 1034
f 824 1036 1035
f 824 825 1036
f 1017 1016 1062
f 1017 1061 1060
f 1017 1062 1061
f 1015 1062 1016
f 1015 1063 1062
f 1018 1017 1060
f 1018 1060 850
f 1018 850 892
f 1018 892 976
f 1019 1018 976
f 1019 976 975
f 1014 1063 1015
f 1014 1064 1063
f 1013 1065 1064
f 1013 1064 1014
f 1020 975 974
f 1020 1019 975
f 1012 1065 1013
f 1012 1030 1065
f 1021 974 973
f 1021 1020 974
f 1022 1021 973
f 1022 973 972
f 1011 1031 1030
f 1011 1030 1012
f 1023 1022 972
f 1023 972 971
f 1010 1032 1031
f 1010 1031 1011
f 1024 1023 971
f 1024 970 969
f 1024 971 970
f 1025 1024 969
f 1026 969 968
f 1026 1025 969
f 823 824 1033
f 823 1033 1032
f 823 1032 1010
f 823 1010 1009
f 814 992 849
f 814 959 958
f 814 960 959
f 814 993 992
f 814 958 993
f 815 961 960
f 815 962 961
f 815 963 962
f 815 964 963
f 815 960 814
f 822 823 1009
f 822 1007 1006
f 822 1008 1007
f 822 1009 1008
f 821 822 1006
f 821 1003 1002
f 821 1004 1003
f 821 1005 1004
f 821 1006 1005
f 816 964 815
f 816 965 964
f 816 966 965
f 816 967 966
f 817 1027 1026
f 817 1026 968
f 817 968 967
f 817 967 816
f 820 821 1002
f 820 999 998
f 820 1000 999
f 820 1001 1000
f 820 1002 1001
f 818 1027 817
f 818 1028 1027
f 818 1029 1028
f 818 994 1029
f 819 820 998
f 819 994 818
f 819 995 994
f 819 996 995
f 819 997 996
f 819 998 997
f 1067 1069 1070
f 1067 1070 1071
f 1067 1071 1072
f 1067 1072 1073
f 1067 1073 1074
f 1067 1074 1075
f 1067 1075 1076
f 1068 1069 1067
f 1079 1078 1068
f 1079 1068 1067
f 1067 1077 1066
f 1067 1076 1077
f 1082 1080 1081
f 1082 1081 1083
f 1087 1084 1085
f 1087 1086 1084
f 1090 1088 1089
f 1091 1090 1089
f 1103 1095 1102
f 1104 1095 1103
f 1101 1102 1095
f 1105 1095 1104
f 1100 1101 1095
f 1099 1100 1095
f 1106 1095 1105
f 1107 1095 1106
f 1098 1099 1095
f 1108 1095 1107
f 1133 1098 1095
f 1109 1095 1108
f 1110 1095 1109
f 1111 1095 1110
f 1112 1096 1095
f 1112 1095 1111
f 1138 1130 1131
f 1139 1128 1129
f 1139 1129 1130
f 1139 1130 1138
f 1137 1138 1131
f 1137 1131 1132
f 1140 1127 1128
f 1140 1128 1139
f 1136 1137 1132
f 1141 1127 1140
f 1135 1136 1132
f 1135 1132 1133
f 1142 1127 1141
f 1142 1126 1127
f 1143 1125 1126
f 1143 1126 1142
f 1144 1124 1125
f 1144 1125 1143
f 1145 1124 1144
f 1145 1123 1124
f 1146 1122 1123
f 1146 1123 1145
f 1147 1121 1122
f 1147 1122 1146
f 1174 1117 1118
f 1175 1116 1117
f 1175 1117 1174
f 1173 1118 1119
f 1173 1174 1118
f 1176 1115 1116
f 1176 1116 1175
f 1172 1119 1120
f 1172 1173 1119
f 1177 1114 1115
f 1177 1115 1176
f 1171 1120 1121
f 1171 1172 1120
f 1178 1113 1114
f 1178 1114 1177
f 1170 1121 1147
f 1170 1171 1121
f 1179 1112 1113
f 1179 1113 1178
f 1180 1112 1179
f 1180 1096 1112
f 1205 1147 1148
f 1205 1170 1147
f 1181 1097 1096
f 1181 1096 1180
f 1204 1148 1149
f 1204 1205 1148
f 1182 1097 1181
f 1203 1149 1150
f 1203 1204 1149
f 1202 1150 1151
f 1202 1203 1150
f 1201 1151 1152
f 1201 1202 1151
f 1200 1201 1152
f 1200 1152 1153
f 1199 1153 1154
f 1199 1200 1153
f 1198 1199 1154
f 1094 1135 1133
f 1094 1134 1135
f 1094 1133 1095
f 1094 1158 1159
f 1094 1159 1160
f 1094 1160 1161
f 1094 1161 1162
f 1094 1162 1163
f 1094 1163 1164
f 1094 1164 1165
f 1094 1165 1166
f 1094 1166 1167
f 1094 1167 1168
f 1094 1168 1169
f 1094 1169 1134
f 1093 1097 1182
f 1093 1182 1183
f 1093 1183 1184
f 1093 1184 1185
f 1093 1185 1186
f 1093 1186 1187
f 1093 1187 1188
f 1093 1188 1189
f 1093 1189 1190
f 1093 1190 1191
f 1093 1191 1192
f 1092 1192 1193
f 1092 1193 1194
f 1092 1194 1195
f 1092 1195 1196
f 1092 1196 1197
f 1092 1197 1198
f 1092 1198 1154
f 1092 1093 1192
f 1092 1158 1094
f 1092 1154 1155
f 1092 1155 1156
f 1092 1156 1157
f 1092 1157 1158
f 1207 1225 1206
f 1207 1226 1225
f 1208 1227 1226
f 1208 1226 1207
f 1209 1228 1227
f 1209 1227 1208
f 1210 1229 1228
f 1210 1228 1209
f 1211 1230 1229
f 1211 1229 1210
f 1212 1231 1230
f 1212 1230 1211
f 1213 1232 1231
f 1213 1231 1212
f 1214 1233 1232
f 1214 1232 1213
f 1215 1234 1233
f 1215 1233 1214
f 1216 1235 1234
f 1216 1234 1215
f 1217 1236 1235
f 1217 1235 1216
f 1218 1237 1236
f 1218 1236 1217
f 1219 1238 1237
f 1219 1237 1218
f 1220 1239 1238
f 1220 1238 1219
f 1221 1239 1220
f 1221 1240 1239
f 1222 1240 1221
f 1222 1241 1240
f 1222 1242 1241
f 1223 1242 1222
f 1224 1242 1223
f 1224 1243 1242
f 1245 1263 1244
f 1245 1264 1263
f 1246 1265 1264
f 1246 1264 1245
f 1247 1266 1265
f 1247 1265 1246
f 1248 1267 1266
f 1248 1266 1247
f 1249 1268 1267
f 1249 1267 1248
f 1250 1269 1268
f 1250 1268 1249
f 1251 1270 1269
f 1251 1269 1250
f 1252 1271 1270
f 1252 1270 1251
f 1253 1272 1271
f 1253 1271 1252
f 1254 1273 1272
f 1254 1272 1253
f 1255 1274 1273
f 1255 1273 1254
f 1256 1275 1274
f 1256 1274 1255
f 1257 1276 1275
f 1257 1275 1256
f 1258 1277 1276
f 1258 1276 1257
f 1259 1277 1258
f 1259 1278 1277
f 1260 1278 1259
f 1260 1279 1278
f 1260 1280 1279
f 1261 1280 1260
f 1262 1280 1261
f 1262 1281 1280
f 1283 1301 1282
f 1283 1302 1301
f 1284 1303 1302
f 1284 1302 1283
f 1285 1304 1303
f 1285 1303 1284
f 1286 1305 1304
f 1286 1304 1285
f 1287 1306 1305
f 1287 1305 1286
f 1288 1307 1306
f 1288 1306 1287
f 1289 1308 1307
f 1289 1307 1288
f 1290 1309 1308
f 1290 1308 1289
f 1291 1310 1309
f 1291 1309 1290
f 1292 1311 1310
f 1292 1310 1291
f 1293 1312 1311
f 1293 1311 1292
f 1294 1313 1312
f 1294 1312 1293
f 1295 1314 1313
f 1295 1313 1294
f 1296 1315 1314
f 1296 1314 1295
f 1297 1315 1296
f 1297 1316 1315
f 1298 1316 1297
f 1298 1317 1316
f 1298 1318 1317
f 1299 1318 1298
f 1300 1318 1299
f 1300 1319 1318
f 1321 1339 1320
f 1321 1357 1339
f 1322 1356 1357
f 1322 1357 1321
f 1323 1355 1356
f 1323 1356 1322
f 1324 1354 1355
f 1324 1355 1323
f 1325 1353 1354
f 1325 1354 1324
f 1326 1352 1353
f 1326 1353 1325
f 1327 1351 1352
f 1327 1352 1326
f 1328 1349 1350
f 1328 1350 1351
f 1328 1351 1327
f 1329 1349 1328
f 1330 1348 1349
f 1330 1349 1329
f 1331 1347 1348
f 1331 1348 1330
f 1332 1346 1347
f 1332 1347 1331
f 1333 1344 1345
f 1333 1345 1346
f 1333 1346 1332
f 1334 1344 1333
f 1335 1344 1334
f 1335 1343 1344
f 1336 1343 1335
f 1336 1342 1343
f 1337 1342 1336
f 1337 1340 1341
f 1337 1341 1342
f 1338 1340 1337
f 1359 1377 1358
f 1359 1395 1377
f 1360 1394 1395
f 1360 1395 1359
f 1361 1393 1394
f 1361 1394 1360
f 1362 1392 1393
f 1362 1393 1361
f 1363 1391 1392
f 1363 1392 1362
f 1364 1390 1391
f 1364 1391 1363
f 1365 1389 1390
f 1365 1390 1364
f 1366 1387 1388
f 1366 1388 1389
f 1366 1389 1365
f 1367 1387 1366
f 1368 1386 1387
f 1368 1387 1367
f 1369 1385 1386
f 1369 1386 1368
f 1370 1384 1385
f 1370 1385 1369
f 1371 1382 1383
f 1371 1383 1384
f 1371 1384 1370
f 1372 1382 1371
f 1373 1382 1372
f 1373 1381 1382
f 1374 1381 1373
f 1374 1380 1381
f 1375 1380 1374
f 1375 1378 1379
f 1375 1379 1380
f 1376 1378 1375
f 1397 1415 1396
f 1397 1433 1415
f 1398 1432 1433
f 1398 1433 1397
f 1399 1431 1432
f 1399 1432 1398
f 1400 1430 1431
f 1400 1431 1399
f 1401 1429 1430
f 1401 1430 1400
f 1402 1428 1429
f 1402 1429 1401
f 1403 1427 1428
f 1403 1428 1402
f 1404 1425 1426
f 1404 1426 1427
f 1404 1427 1403
f 1405 1425 1404
f 1406 1424 1425
f 1406 1425 1405
f 1407 1423 1424
f 1407 1424 1406
f 1408 1422 1423
f 1408 1423 1407
f 1409 1420 1421
f 1409 1421 1422
f 1409 1422 1408
f 1410 1420 1409
f 1411 1420 1410
f 1411 1419 1420
f 1412 1419 1411
f 1412 1418 1419
f 1413 1418 1412
f 1413 1416 1417
f 1413 1417 1418
f 1414 1416 1413
f 1435 1453 1434
f 1435 1471 1453
f 1436 1470 1471
f 1436 1471 1435
f 1437 1469 1470
f 1437 1470 1436
f 1438 1468 1469
f 1438 1469 1437
f 1439 1467 1468
f 1439 1468 1438
f 1440 1466 1467
f 1440 1467 1439
f 1441 1465 1466
f 1441 1466 1440
f 1442 1463 1464
f 1442 1464 1465
f 1442 1465 1441
f 1443 1463 1442
f 1444 1462 1463
f 1444 1463 1443
f 1445 1461 1462
f 1445 1462 1444
f 1446 1460 1461
f 1446 1461 1445
f 1447 1458 1459
f 1447 1459 1460
f 1447 1460 1446
f 1448 1458 1447
f 1449 1458 1448
f 1449 1457 1458
f 1450 1457 1449
f 1450 1456 1457
f 1451 1456 1450
f 1451 1454 1455
f 1451 1455 1456
f 1452 1454 1451
f 1473 1491 1472
f 1473 1509 1491
f 1474 1508 1509
f 1474 1509 1473
f 1475 1507 1508
f 1475 1508 1474
f 1476 1506 1507
f 1476 1507 1475
f 1477 1505 1506
f 1477 1506 1476
f 1478 1504 1505
f 1478 1505 1477
f 1479 1503 1504
f 1479 1504 1478
f 1480 1501 1502
f 1480 1502 1503
f 1480 1503 1479
f 1481 1501 1480
f 1482 1500 1501
f 1482 1501 1481
f 1483 1499 1500
f 1483 1500 1482
f 1484 1498 1499
f 1484 1499 1483
f 1485 1496 1497
f 1485 1497 1498
f 1485 1498 1484
f 1486 1496 1485
f 1487 1496 1486
f 1487 1495 1496
f 1488 1495 1487
f 1488 1494 1495
f 1489 1494 1488
f 1489 1492 1493
f 1489 1493 1494
f 1490 1492 1489
f 1511 1529 1510
f 1511 1547 1529
f 1512 1546 1547
f 1512 1547 1511
f 1513 1545 1546
f 1513 1546 1512
f 1514 1544 1545
f 1514 1545 1513
f 1515 1543 1544
f 1515 1544 1514
f 1516 1542 1543
f 1516 1543 1515
f 1517 1541 1542
f 1517 1542 1516
f 1518 1539 1540
f 1518 1540 1541
f 1518 1541 1517
f 1519 1539 1518
f 1520 1538 1539
f 1520 1539 1519
f 1521 1537 1538
f 1521 1538 1520
f 1522 1536 1537
f 1522 1537 1521
f 1523 1534 1535
f 1523 1535 1536
f 1523 1536 1522
f 1524 1534 1523
f 1525 1534 1524
f 1525 1533 1534
f 1526 1533 1525
f 1526 1532 1533
f 1527 1532 1526
f 1527 1530 1531
f 1527 1531 1532
f 1528 1530 1527
f 1557 1559 1558
f 1557 1560 1559
f 1556 1561 1560
f 1556 1560 1557
f 1555 1562 1561
f 1555 1561 1556
f 1554 1563 1562
f 1554 1562 1555
f 1553 1564 1563
f 1553 1563 1554
f 1552 1565 1564
f 1552 1564 1553
f 1551 1566 1565
f 1551 1567 1566
f 1551 1565 1552
f 1550 1568 1567
f 1550 1567 1551
f 1549 1548 1568
f 1549 1568 1550
