# generated by step_to_parts.py -- 1568 verts, 1540 tris
v 0.083957 -0.072944 0.075487
v 0.083957 -0.072944 0.098487
v 0.084262 -0.072934 0.098487
v 0.084564 -0.072976 0.098487
v 0.084854 -0.073071 0.098487
v 0.085123 -0.073214 0.098487
v 0.085364 -0.073402 0.098487
v 0.085568 -0.073628 0.098487
v 0.085730 -0.073887 0.098487
v 0.085844 -0.074170 0.098487
v 0.085907 -0.074468 0.098487
v 0.085918 -0.074773 0.098487
v 0.085875 -0.075075 0.098487
v 0.085781 -0.075365 0.098487
v 0.085638 -0.075635 0.098487
v 0.085450 -0.075875 0.098487
v 0.085223 -0.076079 0.098487
v 0.084965 -0.076241 0.098487
v 0.084682 -0.076355 0.098487
v 0.084384 -0.076418 0.098487
v 0.084384 -0.076418 0.075487
v 0.084682 -0.076355 0.075487
v 0.084965 -0.076241 0.075487
v 0.085223 -0.076079 0.075487
v 0.085450 -0.075875 0.075487
v 0.085638 -0.075635 0.075487
v 0.085781 -0.075365 0.075487
v 0.085875 -0.075075 0.075487
v 0.085918 -0.074773 0.075487
v 0.085907 -0.074468 0.075487
v 0.085844 -0.074170 0.075487
v 0.085730 -0.073887 0.075487
v 0.085568 -0.073628 0.075487
v 0.085364 -0.073402 0.075487
v 0.085123 -0.073214 0.075487
v 0.084854 -0.073071 0.075487
v 0.084564 -0.072976 0.075487
v 0.084262 -0.072934 0.075487
v 0.072451 -0.068060 0.075487
v 0.072451 -0.068060 0.098487
v 0.072756 -0.068050 0.098487
v 0.073058 -0.068092 0.098487
v 0.073348 -0.068186 0.098487
v 0.073617 -0.068330 0.098487
v 0.073857 -0.068517 0.098487
v 0.074062 -0.068744 0.098487
v 0.074223 -0.069003 0.098487
v 0.074337 -0.069286 0.098487
v 0.074401 -0.069584 0.098487
v 0.074412 -0.069889 0.098487
v 0.074369 -0.070191 0.098487
v 0.074275 -0.070481 0.098487
v 0.074132 -0.070750 0.098487
v 0.073944 -0.070991 0.098487
v 0.073717 -0.071195 0.098487
v 0.073458 -0.071357 0.098487
v 0.073176 -0.071471 0.098487
v 0.072877 -0.071534 0.098487
v 0.072877 -0.071534 0.075487
v 0.073176 -0.071471 0.075487
v 0.073458 -0.071357 0.075487
v 0.073717 -0.071195 0.075487
v 0.073944 -0.070991 0.075487
v 0.074132 -0.070750 0.075487
v 0.074275 -0.070481 0.075487
v 0.074369 -0.070191 0.075487
v 0.074412 -0.069889 0.075487
v 0.074401 -0.069584 0.075487
v 0.074337 -0.069286 0.075487
v 0.074223 -0.069003 0.075487
v 0.074062 -0.068744 0.075487
v 0.073857 -0.068517 0.075487
v 0.073617 -0.068330 0.075487
v 0.073348 -0.068186 0.075487
v 0.073058 -0.068092 0.075487
v 0.072756 -0.068050 0.075487
v 0.070927 -0.055653 0.075487
v 0.070927 -0.055653 0.098487
v 0.071232 -0.055643 0.098487
v 0.071534 -0.055685 0.098487
v 0.071824 -0.055780 0.098487
v 0.072094 -0.055923 0.098487
v 0.072334 -0.056111 0.098487
v 0.072538 -0.056337 0.098487
v 0.072700 -0.056596 0.098487
v 0.072814 -0.056879 0.098487
v 0.072878 -0.057177 0.098487
v 0.072888 -0.057482 0.098487
v 0.072846 -0.057784 0.098487
v 0.072751 -0.058074 0.098487
v 0.072608 -0.058344 0.098487
v 0.072420 -0.058584 0.098487
v 0.072194 -0.058788 0.098487
v 0.071935 -0.058950 0.098487
v 0.071652 -0.059064 0.098487
v 0.071354 -0.059127 0.098487
v 0.071354 -0.059127 0.075487
v 0.071652 -0.059064 0.075487
v 0.071935 -0.058950 0.075487
v 0.072194 -0.058788 0.075487
v 0.072420 -0.058584 0.075487
v 0.072608 -0.058344 0.075487
v 0.072751 -0.058074 0.075487
v 0.072846 -0.057784 0.075487
v 0.072888 -0.057482 0.075487
v 0.072878 -0.057177 0.075487
v 0.072814 -0.056879 0.075487
v 0.072700 -0.056596 0.075487
v 0.072538 -0.056337 0.075487
v 0.072334 -0.056111 0.075487
v 0.072094 -0.055923 0.075487
v 0.071824 -0.055780 0.075487
v 0.071534 -0.055685 0.075487
v 0.071232 -0.055643 0.075487
v 0.080910 -0.048131 0.075487
v 0.080910 -0.048131 0.098487
v 0.081215 -0.048120 0.098487
v 0.081517 -0.048163 0.098487
v 0.081807 -0.048257 0.098487
v 0.082077 -0.048400 0.098487
v 0.082317 -0.048588 0.098487
v 0.082521 -0.048815 0.098487
v 0.082683 -0.049073 0.098487
v 0.082797 -0.049356 0.098487
v 0.082860 -0.049654 0.098487
v 0.082871 -0.049959 0.098487
v 0.082829 -0.050261 0.098487
v 0.082734 -0.050552 0.098487
v 0.082591 -0.050821 0.098487
v 0.082403 -0.051061 0.098487
v 0.082177 -0.051265 0.098487
v 0.081918 -0.051427 0.098487
v 0.081635 -0.051541 0.098487
v 0.081337 -0.051605 0.098487
v 0.081337 -0.051605 0.075487
v 0.081635 -0.051541 0.075487
v 0.081918 -0.051427 0.075487
v 0.082177 -0.051265 0.075487
v 0.082403 -0.051061 0.075487
v 0.082591 -0.050821 0.075487
v 0.082734 -0.050552 0.075487
v 0.082829 -0.050261 0.075487
v 0.082871 -0.049959 0.075487
v 0.082860 -0.049654 0.075487
v 0.082797 -0.049356 0.075487
v 0.082683 -0.049073 0.075487
v 0.082521 -0.048815 0.075487
v 0.082317 -0.048588 0.075487
v 0.082077 -0.048400 0.075487
v 0.081807 -0.048257 0.075487
v 0.081517 -0.048163 0.075487
v 0.081215 -0.048120 0.075487
v 0.092417 -0.053015 0.075487
v 0.092417 -0.053015 0.098487
v 0.092721 -0.053004 0.098487
v 0.093024 -0.053047 0.098487
v 0.093314 -0.053141 0.098487
v 0.093583 -0.053284 0.098487
v 0.093823 -0.053472 0.098487
v 0.094027 -0.053699 0.098487
v 0.094189 -0.053957 0.098487
v 0.094303 -0.054240 0.098487
v 0.094367 -0.054539 0.098487
v 0.094377 -0.054843 0.098487
v 0.094335 -0.055146 0.098487
v 0.094241 -0.055436 0.098487
v 0.094098 -0.055705 0.098487
v 0.093910 -0.055945 0.098487
v 0.093683 -0.056150 0.098487
v 0.093424 -0.056311 0.098487
v 0.093141 -0.056425 0.098487
v 0.092843 -0.056489 0.098487
v 0.092843 -0.056489 0.075487
v 0.093141 -0.056425 0.075487
v 0.093424 -0.056311 0.075487
v 0.093683 -0.056150 0.075487
v 0.093910 -0.055945 0.075487
v 0.094098 -0.055705 0.075487
v 0.094241 -0.055436 0.075487
v 0.094335 -0.055146 0.075487
v 0.094377 -0.054843 0.075487
v 0.094367 -0.054539 0.075487
v 0.094303 -0.054240 0.075487
v 0.094189 -0.053957 0.075487
v 0.094027 -0.053699 0.075487
v 0.093823 -0.053472 0.075487
v 0.093583 -0.053284 0.075487
v 0.093314 -0.053141 0.075487
v 0.093024 -0.053047 0.075487
v 0.092721 -0.053004 0.075487
v 0.093940 -0.065422 0.075487
v 0.093940 -0.065422 0.098487
v 0.094245 -0.065411 0.098487
v 0.094547 -0.065454 0.098487
v 0.094837 -0.065548 0.098487
v 0.095106 -0.065691 0.098487
v 0.095347 -0.065879 0.098487
v 0.095551 -0.066106 0.098487
v 0.095712 -0.066364 0.098487
v 0.095827 -0.066647 0.098487
v 0.095890 -0.066945 0.098487
v 0.095901 -0.067250 0.098487
v 0.095858 -0.067552 0.098487
v 0.095764 -0.067843 0.098487
v 0.095621 -0.068112 0.098487
v 0.095433 -0.068352 0.098487
v 0.095206 -0.068556 0.098487
v 0.094948 -0.068718 0.098487
v 0.094665 -0.068832 0.098487
v 0.094366 -0.068896 0.098487
v 0.094366 -0.068896 0.075487
v 0.094665 -0.068832 0.075487
v 0.094948 -0.068718 0.075487
v 0.095206 -0.068556 0.075487
v 0.095433 -0.068352 0.075487
v 0.095621 -0.068112 0.075487
v 0.095764 -0.067843 0.075487
v 0.095858 -0.067552 0.075487
v 0.095901 -0.067250 0.075487
v 0.095890 -0.066945 0.075487
v 0.095827 -0.066647 0.075487
v 0.095712 -0.066364 0.075487
v 0.095551 -0.066106 0.075487
v 0.095347 -0.065879 0.075487
v 0.095106 -0.065691 0.075487
v 0.094837 -0.065548 0.075487
v 0.094547 -0.065454 0.075487
v 0.094245 -0.065411 0.075487
v 0.143082 -0.099074 0.001140
v 0.154993 -0.097611 0.001140
v 0.154998 -0.097656 0.000619
v 0.155015 -0.097791 0.000114
v 0.155042 -0.098010 -0.000360
v 0.155078 -0.098308 -0.000788
v 0.155123 -0.098675 -0.001158
v 0.155175 -0.099100 -0.001458
v 0.155233 -0.099570 -0.001679
v 0.155295 -0.100072 -0.001815
v 0.155358 -0.100589 -0.001860
v 0.155422 -0.101106 -0.001815
v 0.155483 -0.101607 -0.001679
v 0.155541 -0.102078 -0.001458
v 0.155593 -0.102503 -0.001158
v 0.155638 -0.102870 -0.000788
v 0.155675 -0.103168 -0.000360
v 0.155702 -0.103387 0.000114
v 0.155718 -0.103521 0.000619
v 0.155724 -0.103567 0.001140
v 0.143813 -0.105029 0.001140
v 0.143088 -0.099119 0.000619
v 0.143104 -0.099253 0.000114
v 0.143131 -0.099473 -0.000360
v 0.143168 -0.099770 -0.000788
v 0.143213 -0.100137 -0.001158
v 0.143265 -0.100563 -0.001458
v 0.143323 -0.101033 -0.001679
v 0.143384 -0.101534 -0.001815
v 0.143448 -0.102051 -0.001860
v 0.143511 -0.102568 -0.001815
v 0.143573 -0.103070 -0.001679
v 0.143630 -0.103540 -0.001458
v 0.143683 -0.103965 -0.001158
v 0.143728 -0.104332 -0.000788
v 0.143764 -0.104630 -0.000360
v 0.143791 -0.104849 0.000114
v 0.143808 -0.104984 0.000619
v 0.143082 -0.099074 -0.024260
v 0.154993 -0.097611 -0.024260
v 0.154998 -0.097656 -0.024781
v 0.155015 -0.097791 -0.025286
v 0.155042 -0.098010 -0.025760
v 0.155078 -0.098308 -0.026188
v 0.155123 -0.098675 -0.026558
v 0.155175 -0.099100 -0.026858
v 0.155233 -0.099570 -0.027079
v 0.155295 -0.100072 -0.027215
v 0.155358 -0.100589 -0.027260
v 0.155422 -0.101106 -0.027215
v 0.155483 -0.101607 -0.027079
v 0.155541 -0.102078 -0.026858
v 0.155593 -0.102503 -0.026558
v 0.155638 -0.102870 -0.026188
v 0.155675 -0.103168 -0.025760
v 0.155702 -0.103387 -0.025286
v 0.155718 -0.103521 -0.024781
v 0.155724 -0.103567 -0.024260
v 0.143813 -0.105029 -0.024260
v 0.143088 -0.099119 -0.024781
v 0.143104 -0.099253 -0.025286
v 0.143131 -0.099473 -0.025760
v 0.143168 -0.099770 -0.026188
v 0.143213 -0.100137 -0.026558
v 0.143265 -0.100563 -0.026858
v 0.143323 -0.101033 -0.027079
v 0.143384 -0.101534 -0.027215
v 0.143448 -0.102051 -0.027260
v 0.143511 -0.102568 -0.027215
v 0.143573 -0.103070 -0.027079
v 0.143630 -0.103540 -0.026858
v 0.143683 -0.103965 -0.026558
v 0.143728 -0.104332 -0.026188
v 0.143764 -0.104630 -0.025760
v 0.143791 -0.104849 -0.025286
v 0.143808 -0.104984 -0.024781
v 0.139987 -0.073863 -0.011560
v 0.151897 -0.072401 -0.011560
v 0.151903 -0.072446 -0.012081
v 0.151919 -0.072580 -0.012586
v 0.151946 -0.072800 -0.013060
v 0.151983 -0.073097 -0.013488
v 0.152028 -0.073464 -0.013858
v 0.152080 -0.073889 -0.014158
v 0.152138 -0.074360 -0.014379
v 0.152199 -0.074861 -0.014515
v 0.152263 -0.075378 -0.014560
v 0.152326 -0.075895 -0.014515
v 0.152388 -0.076397 -0.014379
v 0.152446 -0.076867 -0.014158
v 0.152498 -0.077292 -0.013858
v 0.152543 -0.077659 -0.013488
v 0.152579 -0.077957 -0.013060
v 0.152606 -0.078176 -0.012586
v 0.152623 -0.078311 -0.012081
v 0.152628 -0.078356 -0.011560
v 0.140718 -0.079818 -0.011560
v 0.139992 -0.073908 -0.012081
v 0.140009 -0.074043 -0.012586
v 0.140036 -0.074262 -0.013060
v 0.140072 -0.074560 -0.013488
v 0.140117 -0.074927 -0.013858
v 0.140169 -0.075352 -0.014158
v 0.140227 -0.075822 -0.014379
v 0.140289 -0.076324 -0.014515
v 0.140352 -0.076841 -0.014560
v 0.140416 -0.077358 -0.014515
v 0.140477 -0.077859 -0.014379
v 0.140535 -0.078329 -0.014158
v 0.140587 -0.078755 -0.013858
v 0.140632 -0.079122 -0.013488
v 0.140669 -0.079419 -0.013060
v 0.140696 -0.079639 -0.012586
v 0.140712 -0.079773 -0.012081
v 0.084780 -0.079644 0.075487
v 0.084780 -0.079644 0.095487
v 0.084780 -0.079644 0.098487
v 0.081731 -0.079751 0.098487
v 0.078710 -0.079326 0.098487
v 0.075809 -0.078383 0.098487
v 0.073116 -0.076951 0.098487
v 0.070712 -0.075073 0.098487
v 0.068671 -0.072806 0.098487
v 0.067054 -0.070219 0.098487
v 0.065912 -0.067391 0.098487
v 0.065277 -0.064407 0.098487
v 0.065171 -0.061359 0.098487
v 0.065595 -0.058338 0.098487
v 0.066538 -0.055437 0.098487
v 0.067970 -0.052743 0.098487
v 0.069848 -0.050340 0.098487
v 0.072115 -0.048298 0.098487
v 0.074702 -0.046682 0.098487
v 0.077530 -0.045539 0.098487
v 0.080514 -0.044905 0.098487
v 0.080514 -0.044905 0.095487
v 0.080514 -0.044905 0.075487
v 0.077530 -0.045539 0.075487
v 0.074702 -0.046682 0.075487
v 0.072115 -0.048298 0.075487
v 0.069848 -0.050340 0.075487
v 0.067970 -0.052743 0.075487
v 0.066538 -0.055437 0.075487
v 0.065595 -0.058338 0.075487
v 0.065171 -0.061359 0.075487
v 0.065277 -0.064407 0.075487
v 0.065912 -0.067391 0.075487
v 0.067054 -0.070219 0.075487
v 0.068671 -0.072806 0.075487
v 0.070712 -0.075073 0.075487
v 0.073116 -0.076951 0.075487
v 0.075809 -0.078383 0.075487
v 0.078710 -0.079326 0.075487
v 0.081731 -0.079751 0.075487
v 0.084780 -0.079644 0.075487
v 0.129940 -0.074099 0.075487
v 0.080514 -0.044905 0.075487
v 0.077530 -0.045539 0.075487
v 0.074702 -0.046682 0.075487
v 0.072115 -0.048298 0.075487
v 0.069848 -0.050340 0.075487
v 0.067970 -0.052743 0.075487
v 0.066538 -0.055437 0.075487
v 0.065595 -0.058338 0.075487
v 0.065171 -0.061359 0.075487
v 0.065277 -0.064407 0.075487
v 0.065912 -0.067391 0.075487
v 0.067054 -0.070219 0.075487
v 0.068671 -0.072806 0.075487
v 0.070712 -0.075073 0.075487
v 0.073116 -0.076951 0.075487
v 0.075809 -0.078383 0.075487
v 0.078710 -0.079326 0.075487
v 0.081731 -0.079751 0.075487
v 0.125675 -0.039360 0.075487
v 0.083957 -0.072944 0.075487
v 0.083659 -0.073008 0.075487
v 0.083376 -0.073122 0.075487
v 0.083117 -0.073284 0.075487
v 0.082890 -0.073488 0.075487
v 0.082703 -0.073728 0.075487
v 0.082559 -0.073998 0.075487
v 0.082465 -0.074288 0.075487
v 0.082423 -0.074590 0.075487
v 0.082433 -0.074895 0.075487
v 0.082497 -0.075193 0.075487
v 0.082611 -0.075476 0.075487
v 0.082773 -0.075735 0.075487
v 0.082977 -0.075961 0.075487
v 0.083217 -0.076149 0.075487
v 0.083486 -0.076292 0.075487
v 0.083777 -0.076387 0.075487
v 0.084079 -0.076429 0.075487
v 0.084384 -0.076418 0.075487
v 0.084682 -0.076355 0.075487
v 0.084965 -0.076241 0.075487
v 0.085223 -0.076079 0.075487
v 0.085450 -0.075875 0.075487
v 0.085638 -0.075635 0.075487
v 0.085781 -0.075365 0.075487
v 0.085875 -0.075075 0.075487
v 0.085918 -0.074773 0.075487
v 0.085907 -0.074468 0.075487
v 0.085844 -0.074170 0.075487
v 0.085730 -0.073887 0.075487
v 0.085568 -0.073628 0.075487
v 0.085364 -0.073402 0.075487
v 0.085123 -0.073214 0.075487
v 0.084854 -0.073071 0.075487
v 0.084564 -0.072976 0.075487
v 0.084262 -0.072934 0.075487
v 0.072451 -0.068060 0.075487
v 0.072152 -0.068124 0.075487
v 0.071869 -0.068238 0.075487
v 0.071611 -0.068400 0.075487
v 0.071384 -0.068604 0.075487
v 0.071196 -0.068844 0.075487
v 0.071053 -0.069113 0.075487
v 0.070959 -0.069404 0.075487
v 0.070916 -0.069706 0.075487
v 0.070927 -0.070011 0.075487
v 0.070990 -0.070309 0.075487
v 0.071105 -0.070592 0.075487
v 0.071266 -0.070850 0.075487
v 0.071470 -0.071077 0.075487
v 0.071711 -0.071265 0.075487
v 0.071980 -0.071408 0.075487
v 0.072270 -0.071502 0.075487
v 0.072572 -0.071545 0.075487
v 0.072877 -0.071534 0.075487
v 0.073176 -0.071471 0.075487
v 0.073458 -0.071357 0.075487
v 0.073717 -0.071195 0.075487
v 0.073944 -0.070991 0.075487
v 0.074132 -0.070750 0.075487
v 0.074275 -0.070481 0.075487
v 0.074369 -0.070191 0.075487
v 0.074412 -0.069889 0.075487
v 0.074401 -0.069584 0.075487
v 0.074337 -0.069286 0.075487
v 0.074223 -0.069003 0.075487
v 0.074062 -0.068744 0.075487
v 0.073857 -0.068517 0.075487
v 0.073617 -0.068330 0.075487
v 0.073348 -0.068186 0.075487
v 0.073058 -0.068092 0.075487
v 0.072756 -0.068050 0.075487
v 0.070927 -0.055653 0.075487
v 0.070629 -0.055717 0.075487
v 0.070346 -0.055831 0.075487
v 0.070087 -0.055993 0.075487
v 0.069861 -0.056197 0.075487
v 0.069673 -0.056437 0.075487
v 0.069530 -0.056707 0.075487
v 0.069435 -0.056997 0.075487
v 0.069393 -0.057299 0.075487
v 0.069404 -0.057604 0.075487
v 0.069467 -0.057902 0.075487
v 0.069581 -0.058185 0.075487
v 0.069743 -0.058444 0.075487
v 0.069947 -0.058670 0.075487
v 0.070187 -0.058858 0.075487
v 0.070457 -0.059001 0.075487
v 0.070747 -0.059096 0.075487
v 0.071049 -0.059138 0.075487
v 0.071354 -0.059127 0.075487
v 0.071652 -0.059064 0.075487
v 0.071935 -0.058950 0.075487
v 0.072194 -0.058788 0.075487
v 0.072420 -0.058584 0.075487
v 0.072608 -0.058344 0.075487
v 0.072751 -0.058074 0.075487
v 0.072846 -0.057784 0.075487
v 0.072888 -0.057482 0.075487
v 0.072878 -0.057177 0.075487
v 0.072814 -0.056879 0.075487
v 0.072700 -0.056596 0.075487
v 0.072538 -0.056337 0.075487
v 0.072334 -0.056111 0.075487
v 0.072094 -0.055923 0.075487
v 0.071824 -0.055780 0.075487
v 0.071534 -0.055685 0.075487
v 0.071232 -0.055643 0.075487
v 0.080910 -0.048131 0.075487
v 0.080612 -0.048194 0.075487
v 0.080329 -0.048308 0.075487
v 0.080070 -0.048470 0.075487
v 0.079844 -0.048674 0.075487
v 0.079656 -0.048915 0.075487
v 0.079513 -0.049184 0.075487
v 0.079418 -0.049474 0.075487
v 0.079376 -0.049776 0.075487
v 0.079387 -0.050081 0.075487
v 0.079450 -0.050379 0.075487
v 0.079564 -0.050662 0.075487
v 0.079726 -0.050921 0.075487
v 0.079930 -0.051148 0.075487
v 0.080170 -0.051335 0.075487
v 0.080440 -0.051479 0.075487
v 0.080730 -0.051573 0.075487
v 0.081032 -0.051615 0.075487
v 0.081337 -0.051605 0.075487
v 0.081635 -0.051541 0.075487
v 0.081918 -0.051427 0.075487
v 0.082177 -0.051265 0.075487
v 0.082403 -0.051061 0.075487
v 0.082591 -0.050821 0.075487
v 0.082734 -0.050552 0.075487
v 0.082829 -0.050261 0.075487
v 0.082871 -0.049959 0.075487
v 0.082860 -0.049654 0.075487
v 0.082797 -0.049356 0.075487
v 0.082683 -0.049073 0.075487
v 0.082521 -0.048815 0.075487
v 0.082317 -0.048588 0.075487
v 0.082077 -0.048400 0.075487
v 0.081807 -0.048257 0.075487
v 0.081517 -0.048163 0.075487
v 0.081215 -0.048120 0.075487
v 0.092417 -0.053015 0.075487
v 0.092118 -0.053078 0.075487
v 0.091835 -0.053193 0.075487
v 0.091577 -0.053354 0.075487
v 0.091350 -0.053558 0.075487
v 0.091162 -0.053799 0.075487
v 0.091019 -0.054068 0.075487
v 0.090925 -0.054358 0.075487
v 0.090882 -0.054660 0.075487
v 0.090893 -0.054965 0.075487
v 0.090956 -0.055264 0.075487
v 0.091071 -0.055546 0.075487
v 0.091232 -0.055805 0.075487
v 0.091436 -0.056032 0.075487
v 0.091677 -0.056220 0.075487
v 0.091946 -0.056363 0.075487
v 0.092236 -0.056457 0.075487
v 0.092538 -0.056499 0.075487
v 0.092843 -0.056489 0.075487
v 0.093141 -0.056425 0.075487
v 0.093424 -0.056311 0.075487
v 0.093683 -0.056150 0.075487
v 0.093910 -0.055945 0.075487
v 0.094098 -0.055705 0.075487
v 0.094241 -0.055436 0.075487
v 0.094335 -0.055146 0.075487
v 0.094377 -0.054843 0.075487
v 0.094367 -0.054539 0.075487
v 0.094303 -0.054240 0.075487
v 0.094189 -0.053957 0.075487
v 0.094027 -0.053699 0.075487
v 0.093823 -0.053472 0.075487
v 0.093583 -0.053284 0.075487
v 0.093314 -0.053141 0.075487
v 0.093024 -0.053047 0.075487
v 0.092721 -0.053004 0.075487
v 0.093940 -0.065422 0.075487
v 0.093642 -0.065485 0.075487
v 0.093359 -0.065599 0.075487
v 0.093100 -0.065761 0.075487
v 0.092873 -0.065965 0.075487
v 0.092686 -0.066206 0.075487
v 0.092542 -0.066475 0.075487
v 0.092448 -0.066765 0.075487
v 0.092406 -0.067067 0.075487
v 0.092416 -0.067372 0.075487
v 0.092480 -0.067670 0.075487
v 0.092594 -0.067953 0.075487
v 0.092756 -0.068212 0.075487
v 0.092960 -0.068439 0.075487
v 0.093200 -0.068626 0.075487
v 0.093469 -0.068770 0.075487
v 0.093760 -0.068864 0.075487
v 0.094062 -0.068906 0.075487
v 0.094366 -0.068896 0.075487
v 0.094665 -0.068832 0.075487
v 0.094948 -0.068718 0.075487
v 0.095206 -0.068556 0.075487
v 0.095433 -0.068352 0.075487
v 0.095621 -0.068112 0.075487
v 0.095764 -0.067843 0.075487
v 0.095858 -0.067552 0.075487
v 0.095901 -0.067250 0.075487
v 0.095890 -0.066945 0.075487
v 0.095827 -0.066647 0.075487
v 0.095712 -0.066364 0.075487
v 0.095551 -0.066106 0.075487
v 0.095347 -0.065879 0.075487
v 0.095106 -0.065691 0.075487
v 0.094837 -0.065548 0.075487
v 0.094547 -0.065454 0.075487
v 0.094245 -0.065411 0.075487
v 0.084780 -0.079644 0.095487
v 0.151776 -0.071418 0.095487
v 0.080514 -0.044905 0.095487
v 0.083563 -0.044799 0.095487
v 0.086584 -0.045223 0.095487
v 0.089485 -0.046166 0.095487
v 0.092178 -0.047598 0.095487
v 0.094582 -0.049476 0.095487
v 0.096623 -0.051743 0.095487
v 0.098240 -0.054330 0.095487
v 0.099382 -0.057158 0.095487
v 0.100016 -0.060142 0.095487
v 0.100123 -0.063190 0.095487
v 0.099698 -0.066211 0.095487
v 0.098756 -0.069112 0.095487
v 0.097324 -0.071806 0.095487
v 0.095446 -0.074210 0.095487
v 0.093179 -0.076251 0.095487
v 0.090592 -0.077867 0.095487
v 0.087763 -0.079010 0.095487
v 0.147511 -0.036679 0.095487
v 0.084780 -0.079644 0.095487
v 0.084780 -0.079644 0.098487
v 0.080514 -0.044905 0.095487
v 0.083563 -0.044799 0.095487
v 0.086584 -0.045223 0.095487
v 0.089485 -0.046166 0.095487
v 0.092178 -0.047598 0.095487
v 0.094582 -0.049476 0.095487
v 0.096623 -0.051743 0.095487
v 0.098240 -0.054330 0.095487
v 0.099382 -0.057158 0.095487
v 0.100016 -0.060142 0.095487
v 0.100123 -0.063190 0.095487
v 0.099698 -0.066211 0.095487
v 0.098756 -0.069112 0.095487
v 0.097324 -0.071806 0.095487
v 0.095446 -0.074210 0.095487
v 0.093179 -0.076251 0.095487
v 0.090592 -0.077867 0.095487
v 0.087763 -0.079010 0.095487
v 0.080514 -0.044905 0.098487
v 0.083563 -0.044799 0.098487
v 0.086584 -0.045223 0.098487
v 0.089485 -0.046166 0.098487
v 0.092178 -0.047598 0.098487
v 0.094582 -0.049476 0.098487
v 0.096623 -0.051743 0.098487
v 0.098240 -0.054330 0.098487
v 0.099382 -0.057158 0.098487
v 0.100016 -0.060142 0.098487
v 0.100123 -0.063190 0.098487
v 0.099698 -0.066211 0.098487
v 0.098756 -0.069112 0.098487
v 0.097324 -0.071806 0.098487
v 0.095446 -0.074210 0.098487
v 0.093179 -0.076251 0.098487
v 0.090592 -0.077867 0.098487
v 0.087763 -0.079010 0.098487
v 0.084780 -0.079644 0.075487
v 0.129940 -0.074099 0.075487
v 0.084780 -0.079644 0.095487
v 0.151776 -0.071418 0.095487
v 0.151776 -0.071418 0.075487
v 0.147511 -0.036679 -0.011560
v 0.147511 -0.036679 0.095487
v 0.151202 -0.066743 -0.048283
v 0.156333 -0.108529 -0.048283
v 0.156333 -0.108529 0.025163
v 0.151776 -0.071418 0.075487
v 0.151776 -0.071418 0.095487
v 0.155724 -0.103567 0.001140
v 0.155718 -0.103521 0.001661
v 0.155702 -0.103387 0.002166
v 0.155675 -0.103168 0.002640
v 0.155638 -0.102870 0.003068
v 0.155593 -0.102503 0.003438
v 0.155541 -0.102078 0.003738
v 0.155483 -0.101607 0.003959
v 0.155422 -0.101106 0.004094
v 0.155358 -0.100589 0.004140
v 0.155295 -0.100072 0.004094
v 0.155233 -0.099570 0.003959
v 0.155175 -0.099100 0.003738
v 0.155123 -0.098675 0.003438
v 0.155078 -0.098308 0.003068
v 0.155042 -0.098010 0.002640
v 0.155015 -0.097791 0.002166
v 0.154998 -0.097656 0.001661
v 0.154993 -0.097611 0.001140
v 0.154998 -0.097656 0.000619
v 0.155015 -0.097791 0.000114
v 0.155042 -0.098010 -0.000360
v 0.155078 -0.098308 -0.000788
v 0.155123 -0.098675 -0.001158
v 0.155175 -0.099100 -0.001458
v 0.155233 -0.099570 -0.001679
v 0.155295 -0.100072 -0.001815
v 0.155358 -0.100589 -0.001860
v 0.155422 -0.101106 -0.001815
v 0.155483 -0.101607 -0.001679
v 0.155541 -0.102078 -0.001458
v 0.155593 -0.102503 -0.001158
v 0.155638 -0.102870 -0.000788
v 0.155675 -0.103168 -0.000360
v 0.155702 -0.103387 0.000114
v 0.155718 -0.103521 0.000619
v 0.155724 -0.103567 -0.024260
v 0.155718 -0.103521 -0.023739
v 0.155702 -0.103387 -0.023234
v 0.155675 -0.103168 -0.022760
v 0.155638 -0.102870 -0.022332
v 0.155593 -0.102503 -0.021962
v 0.155541 -0.102078 -0.021662
v 0.155483 -0.101607 -0.021441
v 0.155422 -0.101106 -0.021306
v 0.155358 -0.100589 -0.021260
v 0.155295 -0.100072 -0.021306
v 0.155233 -0.099570 -0.021441
v 0.155175 -0.099100 -0.021662
v 0.155123 -0.098675 -0.021962
v 0.155078 -0.098308 -0.022332
v 0.155042 -0.098010 -0.022760
v 0.155015 -0.097791 -0.023234
v 0.154998 -0.097656 -0.023739
v 0.154993 -0.097611 -0.024260
v 0.154998 -0.097656 -0.024781
v 0.155015 -0.097791 -0.025286
v 0.155042 -0.098010 -0.025760
v 0.155078 -0.098308 -0.026188
v 0.155123 -0.098675 -0.026558
v 0.155175 -0.099100 -0.026858
v 0.155233 -0.099570 -0.027079
v 0.155295 -0.100072 -0.027215
v 0.155358 -0.100589 -0.027260
v 0.155422 -0.101106 -0.027215
v 0.155483 -0.101607 -0.027079
v 0.155541 -0.102078 -0.026858
v 0.155593 -0.102503 -0.026558
v 0.155638 -0.102870 -0.026188
v 0.155675 -0.103168 -0.025760
v 0.155702 -0.103387 -0.025286
v 0.155718 -0.103521 -0.024781
v 0.152628 -0.078356 -0.011560
v 0.152623 -0.078311 -0.011039
v 0.152606 -0.078176 -0.010534
v 0.152579 -0.077957 -0.010060
v 0.152543 -0.077659 -0.009632
v 0.152498 -0.077292 -0.009262
v 0.152446 -0.076867 -0.008962
v 0.152388 -0.076397 -0.008741
v 0.152326 -0.075895 -0.008606
v 0.152263 -0.075378 -0.008560
v 0.152199 -0.074861 -0.008606
v 0.152138 -0.074360 -0.008741
v 0.152080 -0.073889 -0.008962
v 0.152028 -0.073464 -0.009262
v 0.151983 -0.073097 -0.009632
v 0.151946 -0.072800 -0.010060
v 0.151919 -0.072580 -0.010534
v 0.151903 -0.072446 -0.011039
v 0.151897 -0.072401 -0.011560
v 0.151903 -0.072446 -0.012081
v 0.151919 -0.072580 -0.012586
v 0.151946 -0.072800 -0.013060
v 0.151983 -0.073097 -0.013488
v 0.152028 -0.073464 -0.013858
v 0.152080 -0.073889 -0.014158
v 0.152138 -0.074360 -0.014379
v 0.152199 -0.074861 -0.014515
v 0.152263 -0.075378 -0.014560
v 0.152326 -0.075895 -0.014515
v 0.152388 -0.076397 -0.014379
v 0.152446 -0.076867 -0.014158
v 0.152498 -0.077292 -0.013858
v 0.152543 -0.077659 -0.013488
v 0.152579 -0.077957 -0.013060
v 0.152606 -0.078176 -0.012586
v 0.152623 -0.078311 -0.012081
v 0.147511 -0.036679 -0.011560
v 0.147511 -0.036679 0.095487
v 0.135600 -0.038141 -0.011560
v 0.135600 -0.038141 0.065487
v 0.125675 -0.039360 0.075487
v 0.127399 -0.039148 0.075335
v 0.129070 -0.038943 0.074884
v 0.130638 -0.038751 0.074147
v 0.132055 -0.038577 0.073148
v 0.133278 -0.038426 0.071915
v 0.134271 -0.038305 0.070487
v 0.135002 -0.038215 0.068907
v 0.135450 -0.038160 0.067224
v 0.080514 -0.044905 0.075487
v 0.080514 -0.044905 0.095487
v 0.080514 -0.044905 0.098487
v 0.083563 -0.044799 0.098487
v 0.086584 -0.045223 0.098487
v 0.089485 -0.046166 0.098487
v 0.092178 -0.047598 0.098487
v 0.094582 -0.049476 0.098487
v 0.096623 -0.051743 0.098487
v 0.098240 -0.054330 0.098487
v 0.099382 -0.057158 0.098487
v 0.100016 -0.060142 0.098487
v 0.100123 -0.063190 0.098487
v 0.099698 -0.066211 0.098487
v 0.098756 -0.069112 0.098487
v 0.097324 -0.071806 0.098487
v 0.095446 -0.074210 0.098487
v 0.093179 -0.076251 0.098487
v 0.090592 -0.077867 0.098487
v 0.087763 -0.079010 0.098487
v 0.084780 -0.079644 0.098487
v 0.081731 -0.079751 0.098487
v 0.078710 -0.079326 0.098487
v 0.075809 -0.078383 0.098487
v 0.073116 -0.076951 0.098487
v 0.070712 -0.075073 0.098487
v 0.068671 -0.072806 0.098487
v 0.067054 -0.070219 0.098487
v 0.065912 -0.067391 0.098487
v 0.065277 -0.064407 0.098487
v 0.065171 -0.061359 0.098487
v 0.065595 -0.058338 0.098487
v 0.066538 -0.055437 0.098487
v 0.067970 -0.052743 0.098487
v 0.069848 -0.050340 0.098487
v 0.072115 -0.048298 0.098487
v 0.074702 -0.046682 0.098487
v 0.077530 -0.045539 0.098487
v 0.083957 -0.072944 0.098487
v 0.084262 -0.072934 0.098487
v 0.084564 -0.072976 0.098487
v 0.084854 -0.073071 0.098487
v 0.085123 -0.073214 0.098487
v 0.085364 -0.073402 0.098487
v 0.085568 -0.073628 0.098487
v 0.085730 -0.073887 0.098487
v 0.085844 -0.074170 0.098487
v 0.085907 -0.074468 0.098487
v 0.085918 -0.074773 0.098487
v 0.085875 -0.075075 0.098487
v 0.085781 -0.075365 0.098487
v 0.085638 -0.075635 0.098487
v 0.085450 -0.075875 0.098487
v 0.085223 -0.076079 0.098487
v 0.084965 -0.076241 0.098487
v 0.084682 -0.076355 0.098487
v 0.084384 -0.076418 0.098487
v 0.084079 -0.076429 0.098487
v 0.083777 -0.076387 0.098487
v 0.083486 -0.076292 0.098487
v 0.083217 -0.076149 0.098487
v 0.082977 -0.075961 0.098487
v 0.082773 -0.075735 0.098487
v 0.082611 -0.075476 0.098487
v 0.082497 -0.075193 0.098487
v 0.082433 -0.074895 0.098487
v 0.082423 -0.074590 0.098487
v 0.082465 -0.074288 0.098487
v 0.082559 -0.073998 0.098487
v 0.082703 -0.073728 0.098487
v 0.082890 -0.073488 0.098487
v 0.083117 -0.073284 0.098487
v 0.083376 -0.073122 0.098487
v 0.083659 -0.073008 0.098487
v 0.072451 -0.068060 0.098487
v 0.072756 -0.068050 0.098487
v 0.073058 -0.068092 0.098487
v 0.073348 -0.068186 0.098487
v 0.073617 -0.068330 0.098487
v 0.073857 -0.068517 0.098487
v 0.074062 -0.068744 0.098487
v 0.074223 -0.069003 0.098487
v 0.074337 -0.069286 0.098487
v 0.074401 -0.069584 0.098487
v 0.074412 -0.069889 0.098487
v 0.074369 -0.070191 0.098487
v 0.074275 -0.070481 0.098487
v 0.074132 -0.070750 0.098487
v 0.073944 -0.070991 0.098487
v 0.073717 -0.071195 0.098487
v 0.073458 -0.071357 0.098487
v 0.073176 -0.071471 0.098487
v 0.072877 -0.071534 0.098487
v 0.072572 -0.071545 0.098487
v 0.072270 -0.071502 0.098487
v 0.071980 -0.071408 0.098487
v 0.071711 -0.071265 0.098487
v 0.071470 -0.071077 0.098487
v 0.071266 -0.070850 0.098487
v 0.071105 -0.070592 0.098487
v 0.070990 -0.070309 0.098487
v 0.070927 -0.070011 0.098487
v 0.070916 -0.069706 0.098487
v 0.070959 -0.069404 0.098487
v 0.071053 -0.069113 0.098487
v 0.071196 -0.068844 0.098487
v 0.071384 -0.068604 0.098487
v 0.071611 -0.068400 0.098487
v 0.071869 -0.068238 0.098487
v 0.072152 -0.068124 0.098487
v 0.070927 -0.055653 0.098487
v 0.071232 -0.055643 0.098487
v 0.071534 -0.055685 0.098487
v 0.071824 -0.055780 0.098487
v 0.072094 -0.055923 0.098487
v 0.072334 -0.056111 0.098487
v 0.072538 -0.056337 0.098487
v 0.072700 -0.056596 0.098487
v 0.072814 -0.056879 0.098487
v 0.072878 -0.057177 0.098487
v 0.072888 -0.057482 0.098487
v 0.072846 -0.057784 0.098487
v 0.072751 -0.058074 0.098487
v 0.072608 -0.058344 0.098487
v 0.072420 -0.058584 0.098487
v 0.072194 -0.058788 0.098487
v 0.071935 -0.058950 0.098487
v 0.071652 -0.059064 0.098487
v 0.071354 -0.059127 0.098487
v 0.071049 -0.059138 0.098487
v 0.070747 -0.059096 0.098487
v 0.070457 -0.059001 0.098487
v 0.070187 -0.058858 0.098487
v 0.069947 -0.058670 0.098487
v 0.069743 -0.058444 0.098487
v 0.069581 -0.058185 0.098487
v 0.069467 -0.057902 0.098487
v 0.069404 -0.057604 0.098487
v 0.069393 -0.057299 0.098487
v 0.069435 -0.056997 0.098487
v 0.069530 -0.056707 0.098487
v 0.069673 -0.056437 0.098487
v 0.069861 -0.056197 0.098487
v 0.070087 -0.055993 0.098487
v 0.070346 -0.055831 0.098487
v 0.070629 -0.055717 0.098487
v 0.080910 -0.048131 0.098487
v 0.081215 -0.048120 0.098487
v 0.081517 -0.048163 0.098487
v 0.081807 -0.048257 0.098487
v 0.082077 -0.048400 0.098487
v 0.082317 -0.048588 0.098487
v 0.082521 -0.048815 0.098487
v 0.082683 -0.049073 0.098487
v 0.082797 -0.049356 0.098487
v 0.082860 -0.049654 0.098487
v 0.082871 -0.049959 0.098487
v 0.082829 -0.050261 0.098487
v 0.082734 -0.050552 0.098487
v 0.082591 -0.050821 0.098487
v 0.082403 -0.051061 0.098487
v 0.082177 -0.051265 0.098487
v 0.081918 -0.051427 0.098487
v 0.081635 -0.051541 0.098487
v 0.081337 -0.051605 0.098487
v 0.081032 -0.051615 0.098487
v 0.080730 -0.051573 0.098487
v 0.080440 -0.051479 0.098487
v 0.080170 -0.051335 0.098487
v 0.079930 -0.051148 0.098487
v 0.079726 -0.050921 0.098487
v 0.079564 -0.050662 0.098487
v 0.079450 -0.050379 0.098487
v 0.079387 -0.050081 0.098487
v 0.079376 -0.049776 0.098487
v 0.079418 -0.049474 0.098487
v 0.079513 -0.049184 0.098487
v 0.079656 -0.048915 0.098487
v 0.079844 -0.048674 0.098487
v 0.080070 -0.048470 0.098487
v 0.080329 -0.048308 0.098487
v 0.080612 -0.048194 0.098487
v 0.092417 -0.053015 0.098487
v 0.092721 -0.053004 0.098487
v 0.093024 -0.053047 0.098487
v 0.093314 -0.053141 0.098487
v 0.093583 -0.053284 0.098487
v 0.093823 -0.053472 0.098487
v 0.094027 -0.053699 0.098487
v 0.094189 -0.053957 0.098487
v 0.094303 -0.054240 0.098487
v 0.094367 -0.054539 0.098487
v 0.094377 -0.054843 0.098487
v 0.094335 -0.055146 0.098487
v 0.094241 -0.055436 0.098487
v 0.094098 -0.055705 0.098487
v 0.093910 -0.055945 0.098487
v 0.093683 -0.056150 0.098487
v 0.093424 -0.056311 0.098487
v 0.093141 -0.056425 0.098487
v 0.092843 -0.056489 0.098487
v 0.092538 -0.056499 0.098487
v 0.092236 -0.056457 0.098487
v 0.091946 -0.056363 0.098487
v 0.091677 -0.056220 0.098487
v 0.091436 -0.056032 0.098487
v 0.091232 -0.055805 0.098487
v 0.091071 -0.055546 0.098487
v 0.090956 -0.055264 0.098487
v 0.090893 -0.054965 0.098487
v 0.090882 -0.054660 0.098487
v 0.090925 -0.054358 0.098487
v 0.091019 -0.054068 0.098487
v 0.091162 -0.053799 0.098487
v 0.091350 -0.053558 0.098487
v 0.091577 -0.053354 0.098487
v 0.091835 -0.053193 0.098487
v 0.092118 -0.053078 0.098487
v 0.093940 -0.065422 0.098487
v 0.094245 -0.065411 0.098487
v 0.094547 -0.065454 0.098487
v 0.094837 -0.065548 0.098487
v 0.095106 -0.065691 0.098487
v 0.095347 -0.065879 0.098487
v 0.095551 -0.066106 0.098487
v 0.095712 -0.066364 0.098487
v 0.095827 -0.066647 0.098487
v 0.095890 -0.066945 0.098487
v 0.095901 -0.067250 0.098487
v 0.095858 -0.067552 0.098487
v 0.095764 -0.067843 0.098487
v 0.095621 -0.068112 0.098487
v 0.095433 -0.068352 0.098487
v 0.095206 -0.068556 0.098487
v 0.094948 -0.068718 0.098487
v 0.094665 -0.068832 0.098487
v 0.094366 -0.068896 0.098487
v 0.094062 -0.068906 0.098487
v 0.093760 -0.068864 0.098487
v 0.093469 -0.068770 0.098487
v 0.093200 -0.068626 0.098487
v 0.092960 -0.068439 0.098487
v 0.092756 -0.068212 0.098487
v 0.092594 -0.067953 0.098487
v 0.092480 -0.067670 0.098487
v 0.092416 -0.067372 0.098487
v 0.092406 -0.067067 0.098487
v 0.092448 -0.066765 0.098487
v 0.092542 -0.066475 0.098487
v 0.092686 -0.066206 0.098487
v 0.092873 -0.065965 0.098487
v 0.093100 -0.065761 0.098487
v 0.093359 -0.065599 0.098487
v 0.093642 -0.065485 0.098487
v 0.144423 -0.109992 0.025163
v 0.156333 -0.108529 0.025163
v 0.140771 -0.080255 0.065487
v 0.140371 -0.078759 0.067551
v 0.139603 -0.077437 0.069444
v 0.138574 -0.076344 0.071072
v 0.137396 -0.075497 0.072396
v 0.136170 -0.074881 0.073421
v 0.134832 -0.074424 0.074251
v 0.133434 -0.074133 0.074868
v 0.132025 -0.074007 0.075268
v 0.130964 -0.074013 0.075434
v 0.129940 -0.074099 0.075487
v 0.151776 -0.071418 0.075487
v 0.144423 -0.109992 -0.048283
v 0.156333 -0.108529 -0.048283
v 0.144423 -0.109992 0.025163
v 0.156333 -0.108529 0.025163
v 0.139292 -0.068205 -0.048283
v 0.151202 -0.066743 -0.048283
v 0.144423 -0.109992 -0.048283
v 0.156333 -0.108529 -0.048283
v 0.135600 -0.038141 -0.011560
v 0.147511 -0.036679 -0.011560
v 0.139292 -0.068205 -0.048283
v 0.151202 -0.066743 -0.048283
v 0.135600 -0.038141 0.065487
v 0.140771 -0.080255 0.065487
v 0.144423 -0.109992 0.025163
v 0.144423 -0.109992 -0.048283
v 0.139292 -0.068205 -0.048283
v 0.135600 -0.038141 -0.011560
v 0.143813 -0.105029 0.001140
v 0.143808 -0.104984 0.001661
v 0.143791 -0.104849 0.002166
v 0.143764 -0.104630 0.002640
v 0.143728 -0.104332 0.003068
v 0.143683 -0.103965 0.003438
v 0.143630 -0.103540 0.003738
v 0.143573 -0.103070 0.003959
v 0.143511 -0.102568 0.004094
v 0.143448 -0.102051 0.004140
v 0.143384 -0.101534 0.004094
v 0.143323 -0.101033 0.003959
v 0.143265 -0.100563 0.003738
v 0.143213 -0.100137 0.003438
v 0.143168 -0.099770 0.003068
v 0.143131 -0.099473 0.002640
v 0.143104 -0.099253 0.002166
v 0.143088 -0.099119 0.001661
v 0.143082 -0.099074 0.001140
v 0.143088 -0.099119 0.000619
v 0.143104 -0.099253 0.000114
v 0.143131 -0.099473 -0.000360
v 0.143168 -0.099770 -0.000788
v 0.143213 -0.100137 -0.001158
v 0.143265 -0.100563 -0.001458
v 0.143323 -0.101033 -0.001679
v 0.143384 -0.101534 -0.001815
v 0.143448 -0.102051 -0.001860
v 0.143511 -0.102568 -0.001815
v 0.143573 -0.103070 -0.001679
v 0.143630 -0.103540 -0.001458
v 0.143683 -0.103965 -0.001158
v 0.143728 -0.104332 -0.000788
v 0.143764 -0.104630 -0.000360
v 0.143791 -0.104849 0.000114
v 0.143808 -0.104984 0.000619
v 0.143813 -0.105029 -0.024260
v 0.143808 -0.104984 -0.023739
v 0.143791 -0.104849 -0.023234
v 0.143764 -0.104630 -0.022760
v 0.143728 -0.104332 -0.022332
v 0.143683 -0.103965 -0.021962
v 0.143630 -0.103540 -0.021662
v 0.143573 -0.103070 -0.021441
v 0.143511 -0.102568 -0.021306
v 0.143448 -0.102051 -0.021260
v 0.143384 -0.101534 -0.021306
v 0.143323 -0.101033 -0.021441
v 0.143265 -0.100563 -0.021662
v 0.143213 -0.100137 -0.021962
v 0.143168 -0.099770 -0.022332
v 0.143131 -0.099473 -0.022760
v 0.143104 -0.099253 -0.023234
v 0.143088 -0.099119 -0.023739
v 0.143082 -0.099074 -0.024260
v 0.143088 -0.099119 -0.024781
v 0.143104 -0.099253 -0.025286
v 0.143131 -0.099473 -0.025760
v 0.143168 -0.099770 -0.026188
v 0.143213 -0.100137 -0.026558
v 0.143265 -0.100563 -0.026858
v 0.143323 -0.101033 -0.027079
v 0.143384 -0.101534 -0.027215
v 0.143448 -0.102051 -0.027260
v 0.143511 -0.102568 -0.027215
v 0.143573 -0.103070 -0.027079
v 0.143630 -0.103540 -0.026858
v 0.143683 -0.103965 -0.026558
v 0.143728 -0.104332 -0.026188
v 0.143764 -0.104630 -0.025760
v 0.143791 -0.104849 -0.025286
v 0.143808 -0.104984 -0.024781
v 0.140718 -0.079818 -0.011560
v 0.140712 -0.079773 -0.011039
v 0.140696 -0.079639 -0.010534
v 0.140669 -0.079419 -0.010060
v 0.140632 -0.079122 -0.009632
v 0.140587 -0.078755 -0.009262
v 0.140535 -0.078329 -0.008962
v 0.140477 -0.077859 -0.008741
v 0.140416 -0.077358 -0.008606
v 0.140352 -0.076841 -0.008560
v 0.140289 -0.076324 -0.008606
v 0.140227 -0.075822 -0.008741
v 0.140169 -0.075352 -0.008962
v 0.140117 -0.074927 -0.009262
v 0.140072 -0.074560 -0.009632
v 0.140036 -0.074262 -0.010060
v 0.140009 -0.074043 -0.010534
v 0.139992 -0.073908 -0.011039
v 0.139987 -0.073863 -0.011560
v 0.139992 -0.073908 -0.012081
v 0.140009 -0.074043 -0.012586
v 0.140036 -0.074262 -0.013060
v 0.140072 -0.074560 -0.013488
v 0.140117 -0.074927 -0.013858
v 0.140169 -0.075352 -0.014158
v 0.140227 -0.075822 -0.014379
v 0.140289 -0.076324 -0.014515
v 0.140352 -0.076841 -0.014560
v 0.140416 -0.077358 -0.014515
v 0.140477 -0.077859 -0.014379
v 0.140535 -0.078329 -0.014158
v 0.140587 -0.078755 -0.013858
v 0.140632 -0.079122 -0.013488
v 0.140669 -0.079419 -0.013060
v 0.140696 -0.079639 -0.012586
v 0.140712 -0.079773 -0.012081
v 0.152628 -0.078356 -0.011560
v 0.152623 -0.078311 -0.011039
v 0.152606 -0.078176 -0.010534
v 0.152579 -0.077957 -0.010060
v 0.152543 -0.077659 -0.009632
v 0.152498 -0.077292 -0.009262
v 0.152446 -0.076867 -0.008962
v 0.152388 -0.076397 -0.008741
v 0.152326 -0.075895 -0.008606
v 0.152263 -0.075378 -0.008560
v 0.152199 -0.074861 -0.008606
v 0.152138 -0.074360 -0.008741
v 0.152080 -0.073889 -0.008962
v 0.152028 -0.073464 -0.009262
v 0.151983 -0.073097 -0.009632
v 0.151946 -0.072800 -0.010060
v 0.151919 -0.072580 -0.010534
v 0.151903 -0.072446 -0.011039
v 0.151897 -0.072401 -0.011560
v 0.139987 -0.073863 -0.011560
v 0.140718 -0.079818 -0.011560
v 0.140712 -0.079773 -0.011039
v 0.140696 -0.079639 -0.010534
v 0.140669 -0.079419 -0.010060
v 0.140632 -0.079122 -0.009632
v 0.140587 -0.078755 -0.009262
v 0.140535 -0.078329 -0.008962
v 0.140477 -0.077859 -0.008741
v 0.140416 -0.077358 -0.008606
v 0.140352 -0.076841 -0.008560
v 0.140289 -0.076324 -0.008606
v 0.140227 -0.075822 -0.008741
v 0.140169 -0.075352 -0.008962
v 0.140117 -0.074927 -0.009262
v 0.140072 -0.074560 -0.009632
v 0.140036 -0.074262 -0.010060
v 0.140009 -0.074043 -0.010534
v 0.139992 -0.073908 -0.011039
v 0.155724 -0.103567 -0.024260
v 0.155718 -0.103521 -0.023739
v 0.155702 -0.103387 -0.023234
v 0.155675 -0.103168 -0.022760
v 0.155638 -0.102870 -0.022332
v 0.155593 -0.102503 -0.021962
v 0.155541 -0.102078 -0.021662
v 0.155483 -0.101607 -0.021441
v 0.155422 -0.101106 -0.021306
v 0.155358 -0.100589 -0.021260
v 0.155295 -0.100072 -0.021306
v 0.155233 -0.099570 -0.021441
v 0.155175 -0.099100 -0.021662
v 0.155123 -0.098675 -0.021962
v 0.155078 -0.098308 -0.022332
v 0.155042 -0.098010 -0.022760
v 0.155015 -0.097791 -0.023234
v 0.154998 -0.097656 -0.023739
v 0.154993 -0.097611 -0.024260
v 0.143082 -0.099074 -0.024260
v 0.143813 -0.105029 -0.024260
v 0.143808 -0.104984 -0.023739
v 0.143791 -0.104849 -0.023234
v 0.143764 -0.104630 -0.022760
v 0.143728 -0.104332 -0.022332
v 0.143683 -0.103965 -0.021962
v 0.143630 -0.103540 -0.021662
v 0.143573 -0.103070 -0.021441
v 0.143511 -0.102568 -0.021306
v 0.143448 -0.102051 -0.021260
v 0.143384 -0.101534 -0.021306
v 0.143323 -0.101033 -0.021441
v 0.143265 -0.100563 -0.021662
v 0.143213 -0.100137 -0.021962
v 0.143168 -0.099770 -0.022332
v 0.143131 -0.099473 -0.022760
v 0.143104 -0.099253 -0.023234
v 0.143088 -0.099119 -0.023739
v 0.155724 -0.103567 0.001140
v 0.155718 -0.103521 0.001661
v 0.155702 -0.103387 0.002166
v 0.155675 -0.103168 0.002640
v 0.155638 -0.102870 0.003068
v 0.155593 -0.102503 0.003438
v 0.155541 -0.102078 0.003738
v 0.155483 -0.101607 0.003959
v 0.155422 -0.101106 0.004094
v 0.155358 -0.100589 0.004140
v 0.155295 -0.100072 0.004094
v 0.155233 -0.099570 0.003959
v 0.155175 -0.099100 0.003738
v 0.155123 -0.098675 0.003438
v 0.155078 -0.098308 0.003068
v 0.155042 -0.098010 0.002640
v 0.155015 -0.097791 0.002166
v 0.154998 -0.097656 0.001661
v 0.154993 -0.097611 0.001140
v 0.143082 -0.099074 0.001140
v 0.143813 -0.105029 0.001140
v 0.143808 -0.104984 0.001661
v 0.143791 -0.104849 0.002166
v 0.143764 -0.104630 0.002640
v 0.143728 -0.104332 0.003068
v 0.143683 -0.103965 0.003438
v 0.143630 -0.103540 0.003738
v 0.143573 -0.103070 0.003959
v 0.143511 -0.102568 0.004094
v 0.143448 -0.102051 0.004140
v 0.143384 -0.101534 0.004094
v 0.143323 -0.101033 0.003959
v 0.143265 -0.100563 0.003738
v 0.143213 -0.100137 0.003438
v 0.143168 -0.099770 0.003068
v 0.143131 -0.099473 0.002640
v 0.143104 -0.099253 0.002166
v 0.143088 -0.099119 0.001661
v 0.094366 -0.068896 0.098487
v 0.094062 -0.068906 0.098487
v 0.093760 -0.068864 0.098487
v 0.093469 -0.068770 0.098487
v 0.093200 -0.068626 0.098487
v 0.092960 -0.068439 0.098487
v 0.092756 -0.068212 0.098487
v 0.092594 -0.067953 0.098487
v 0.092480 -0.067670 0.098487
v 0.092416 -0.067372 0.098487
v 0.092406 -0.067067 0.098487
v 0.092448 -0.066765 0.098487
v 0.092542 -0.066475 0.098487
v 0.092686 -0.066206 0.098487
v 0.092873 -0.065965 0.098487
v 0.093100 -0.065761 0.098487
v 0.093359 -0.065599 0.098487
v 0.093642 -0.065485 0.098487
v 0.093940 -0.065422 0.098487
v 0.093940 -0.065422 0.075487
v 0.093642 -0.065485 0.075487
v 0.093359 -0.065599 0.075487
v 0.093100 -0.065761 0.075487
v 0.092873 -0.065965 0.075487
v 0.092686 -0.066206 0.075487
v 0.092542 -0.066475 0.075487
v 0.092448 -0.066765 0.075487
v 0.092406 -0.067067 0.075487
v 0.092416 -0.067372 0.075487
v 0.092480 -0.067670 0.075487
v 0.092594 -0.067953 0.075487
v 0.092756 -0.068212 0.075487
v 0.092960 -0.068439 0.075487
v 0.093200 -0.068626 0.075487
v 0.093469 -0.068770 0.075487
v 0.093760 -0.068864 0.075487
v 0.094062 -0.068906 0.075487
v 0.094366 -0.068896 0.075487
v 0.092843 -0.056489 0.098487
v 0.092538 -0.056499 0.098487
v 0.092236 -0.056457 0.098487
v 0.091946 -0.056363 0.098487
v 0.091677 -0.056220 0.098487
v 0.091436 -0.056032 0.098487
v 0.091232 -0.055805 0.098487
v 0.091071 -0.055546 0.098487
v 0.090956 -0.055264 0.098487
v 0.090893 -0.054965 0.098487
v 0.090882 -0.054660 0.098487
v 0.090925 -0.054358 0.098487
v 0.091019 -0.054068 0.098487
v 0.091162 -0.053799 0.098487
v 0.091350 -0.053558 0.098487
v 0.091577 -0.053354 0.098487
v 0.091835 -0.053193 0.098487
v 0.092118 -0.053078 0.098487
v 0.092417 -0.053015 0.098487
v 0.092417 -0.053015 0.075487
v 0.092118 -0.053078 0.075487
v 0.091835 -0.053193 0.075487
v 0.091577 -0.053354 0.075487
v 0.091350 -0.053558 0.075487
v 0.091162 -0.053799 0.075487
v 0.091019 -0.054068 0.075487
v 0.090925 -0.054358 0.075487
v 0.090882 -0.054660 0.075487
v 0.090893 -0.054965 0.075487
v 0.090956 -0.055264 0.075487
v 0.091071 -0.055546 0.075487
v 0.091232 -0.055805 0.075487
v 0.091436 -0.056032 0.075487
v 0.091677 -0.056220 0.075487
v 0.091946 -0.056363 0.075487
v 0.092236 -0.056457 0.075487
v 0.092538 -0.056499 0.075487
v 0.092843 -0.056489 0.075487
v 0.081337 -0.051605 0.098487
v 0.081032 -0.051615 0.098487
v 0.080730 -0.051573 0.098487
v 0.080440 -0.051479 0.098487
v 0.080170 -0.051335 0.098487
v 0.079930 -0.051148 0.098487
v 0.079726 -0.050921 0.098487
v 0.079564 -0.050662 0.098487
v 0.079450 -0.050379 0.098487
v 0.079387 -0.050081 0.098487
v 0.079376 -0.049776 0.098487
v 0.079418 -0.049474 0.098487
v 0.079513 -0.049184 0.098487
v 0.079656 -0.048915 0.098487
v 0.079844 -0.048674 0.098487
v 0.080070 -0.048470 0.098487
v 0.080329 -0.048308 0.098487
v 0.080612 -0.048194 0.098487
v 0.080910 -0.048131 0.098487
v 0.080910 -0.048131 0.075487
v 0.080612 -0.048194 0.075487
v 0.080329 -0.048308 0.075487
v 0.080070 -0.048470 0.075487
v 0.079844 -0.048674 0.075487
v 0.079656 -0.048915 0.075487
v 0.079513 -0.049184 0.075487
v 0.079418 -0.049474 0.075487
v 0.079376 -0.049776 0.075487
v 0.079387 -0.050081 0.075487
v 0.079450 -0.050379 0.075487
v 0.079564 -0.050662 0.075487
v 0.079726 -0.050921 0.075487
v 0.079930 -0.051148 0.075487
v 0.080170 -0.051335 0.075487
v 0.080440 -0.051479 0.075487
v 0.080730 -0.051573 0.075487
v 0.081032 -0.051615 0.075487
v 0.081337 -0.051605 0.075487
v 0.071354 -0.059127 0.098487
v 0.071049 -0.059138 0.098487
v 0.070747 -0.059096 0.098487
v 0.070457 -0.059001 0.098487
v 0.070187 -0.058858 0.098487
v 0.069947 -0.058670 0.098487
v 0.069743 -0.058444 0.098487
v 0.069581 -0.058185 0.098487
v 0.069467 -0.057902 0.098487
v 0.069404 -0.057604 0.098487
v 0.069393 -0.057299 0.098487
v 0.069435 -0.056997 0.098487
v 0.069530 -0.056707 0.098487
v 0.069673 -0.056437 0.098487
v 0.069861 -0.056197 0.098487
v 0.070087 -0.055993 0.098487
v 0.070346 -0.055831 0.098487
v 0.070629 -0.055717 0.098487
v 0.070927 -0.055653 0.098487
v 0.070927 -0.055653 0.075487
v 0.070629 -0.055717 0.075487
v 0.070346 -0.055831 0.075487
v 0.070087 -0.055993 0.075487
v 0.069861 -0.056197 0.075487
v 0.069673 -0.056437 0.075487
v 0.069530 -0.056707 0.075487
v 0.069435 -0.056997 0.075487
v 0.069393 -0.057299 0.075487
v 0.069404 -0.057604 0.075487
v 0.069467 -0.057902 0.075487
v 0.069581 -0.058185 0.075487
v 0.069743 -0.058444 0.075487
v 0.069947 -0.058670 0.075487
v 0.070187 -0.058858 0.075487
v 0.070457 -0.059001 0.075487
v 0.070747 -0.059096 0.075487
v 0.071049 -0.059138 0.075487
v 0.071354 -0.059127 0.075487
v 0.072877 -0.071534 0.098487
v 0.072572 -0.071545 0.098487
v 0.072270 -0.071502 0.098487
v 0.071980 -0.071408 0.098487
v 0.071711 -0.071265 0.098487
v 0.071470 -0.071077 0.098487
v 0.071266 -0.070850 0.098487
v 0.071105 -0.070592 0.098487
v 0.070990 -0.070309 0.098487
v 0.070927 -0.070011 0.098487
v 0.070916 -0.069706 0.098487
v 0.070959 -0.069404 0.098487
v 0.071053 -0.069113 0.098487
v 0.071196 -0.068844 0.098487
v 0.071384 -0.068604 0.098487
v 0.071611 -0.068400 0.098487
v 0.071869 -0.068238 0.098487
v 0.072152 -0.068124 0.098487
v 0.072451 -0.068060 0.098487
v 0.072451 -0.068060 0.075487
v 0.072152 -0.068124 0.075487
v 0.071869 -0.068238 0.075487
v 0.071611 -0.068400 0.075487
v 0.071384 -0.068604 0.075487
v 0.071196 -0.068844 0.075487
v 0.071053 -0.069113 0.075487
v 0.070959 -0.069404 0.075487
v 0.070916 -0.069706 0.075487
v 0.070927 -0.070011 0.075487
v 0.070990 -0.070309 0.075487
v 0.071105 -0.070592 0.075487
v 0.071266 -0.070850 0.075487
v 0.071470 -0.071077 0.075487
v 0.071711 -0.071265 0.075487
v 0.071980 -0.071408 0.075487
v 0.072270 -0.071502 0.075487
v 0.072572 -0.071545 0.075487
v 0.072877 -0.071534 0.075487
v 0.084384 -0.076418 0.098487
v 0.084079 -0.076429 0.098487
v 0.083777 -0.076387 0.098487
v 0.083486 -0.076292 0.098487
v 0.083217 -0.076149 0.098487
v 0.082977 -0.075961 0.098487
v 0.082773 -0.075735 0.098487
v 0.082611 -0.075476 0.098487
v 0.082497 -0.075193 0.098487
v 0.082433 -0.074895 0.098487
v 0.082423 -0.074590 0.098487
v 0.082465 -0.074288 0.098487
v 0.082559 -0.073998 0.098487
v 0.082703 -0.073728 0.098487
v 0.082890 -0.073488 0.098487
v 0.083117 -0.073284 0.098487
v 0.083376 -0.073122 0.098487
v 0.083659 -0.073008 0.098487
v 0.083957 -0.072944 0.098487
v 0.083957 -0.072944 0.075487
v 0.083659 -0.073008 0.075487
v 0.083376 -0.073122 0.075487
v 0.083117 -0.073284 0.075487
v 0.082890 -0.073488 0.075487
v 0.082703 -0.073728 0.075487
v 0.082559 -0.073998 0.075487
v 0.082465 -0.074288 0.075487
v 0.082423 -0.074590 0.075487
v 0.082433 -0.074895 0.075487
v 0.082497 -0.075193 0.075487
v 0.082611 -0.075476 0.075487
v 0.082773 -0.075735 0.075487
v 0.082977 -0.075961 0.075487
v 0.083217 -0.076149 0.075487
v 0.083486 -0.076292 0.075487
v 0.083777 -0.076387 0.075487
v 0.084079 -0.076429 0.075487
v 0.084384 -0.076418 0.075487
v 0.135600 -0.038141 0.065487
v 0.140771 -0.080255 0.065487
v 0.125675 -0.039360 0.075487
v 0.127399 -0.039148 0.075335
v 0.129070 -0.038943 0.074884
v 0.130638 -0.038751 0.074147
v 0.132055 -0.038577 0.073148
v 0.133278 -0.038426 0.071915
v 0.134271 -0.038305 0.070487
v 0.135002 -0.038215 0.068907
v 0.135450 -0.038160 0.067224
v 0.129940 -0.074099 0.075487
v 0.140371 -0.078759 0.067551
v 0.139603 -0.077437 0.069444
v 0.138574 -0.076344 0.071072
v 0.137396 -0.075497 0.072396
v 0.136170 -0.074881 0.073421
v 0.134832 -0.074424 0.074251
v 0.133434 -0.074133 0.074868
v 0.132025 -0.074007 0.075268
v 0.130964 -0.074013 0.075434
f 20 22 21
f 19 23 22
f 19 22 20
f 18 24 23
f 18 23 19
f 17 25 24
f 17 24 18
f 16 26 25
f 16 25 17
f 15 27 26
f 15 26 16
f 14 28 27
f 14 27 15
f 13 29 28
f 13 28 14
f 12 29 13
f 11 30 29
f 11 29 12
f 10 31 30
f 10 30 11
f 9 32 31
f 9 31 10
f 8 33 32
f 8 34 33
f 8 32 9
f 7 34 8
f 6 35 34
f 6 36 35
f 6 34 7
f 5 36 6
f 4 36 5
f 4 37 36
f 4 38 37
f 3 38 4
f 2 38 3
f 2 1 38
f 58 60 59
f 57 61 60
f 57 60 58
f 56 62 61
f 56 61 57
f 55 63 62
f 55 62 56
f 54 64 63
f 54 63 55
f 53 65 64
f 53 64 54
f 52 66 65
f 52 65 53
f 51 67 66
f 51 66 52
f 50 67 51
f 49 68 67
f 49 67 50
f 48 69 68
f 48 68 49
f 47 70 69
f 47 69 48
f 46 71 70
f 46 72 71
f 46 70 47
f 45 72 46
f 44 73 72
f 44 74 73
f 44 72 45
f 43 74 44
f 42 74 43
f 42 75 74
f 42 76 75
f 41 76 42
f 40 76 41
f 40 39 76
f 96 98 97
f 95 99 98
f 95 98 96
f 94 100 99
f 94 99 95
f 93 101 100
f 93 100 94
f 92 102 101
f 92 101 93
f 91 103 102
f 91 102 92
f 90 104 103
f 90 103 91
f 89 105 104
f 89 104 90
f 88 105 89
f 87 106 105
f 87 105 88
f 86 107 106
f 86 106 87
f 85 108 107
f 85 107 86
f 84 109 108
f 84 110 109
f 84 108 85
f 83 110 84
f 82 111 110
f 82 112 111
f 82 110 83
f 81 112 82
f 80 112 81
f 80 113 112
f 80 114 113
f 79 114 80
f 78 114 79
f 78 77 114
f 134 136 135
f 133 137 136
f 133 136 134
f 132 138 137
f 132 137 133
f 131 139 138
f 131 138 132
f 130 140 139
f 130 139 131
f 129 141 140
f 129 140 130
f 128 142 141
f 128 141 129
f 127 143 142
f 127 142 128
f 126 143 127
f 125 144 143
f 125 143 126
f 124 145 144
f 124 144 125
f 123 146 145
f 123 145 124
f 122 147 146
f 122 148 147
f 122 146 123
f 121 148 122
f 120 149 148
f 120 150 149
f 120 148 121
f 119 150 120
f 118 150 119
f 118 151 150
f 118 152 151
f 117 152 118
f 116 152 117
f 116 115 152
f 172 174 173
f 171 175 174
f 171 174 172
f 170 176 175
f 170 175 171
f 169 177 176
f 169 176 170
f 168 178 177
f 168 177 169
f 167 179 178
f 167 178 168
f 166 180 179
f 166 179 167
f 165 181 180
f 165 180 166
f 164 181 165
f 163 182 181
f 163 181 164
f 162 183 182
f 162 182 163
f 161 184 183
f 161 183 162
f 160 185 184
f 160 186 185
f 160 184 161
f 159 186 160
f 158 187 186
f 158 188 187
f 158 186 159
f 157 188 158
f 156 188 157
f 156 189 188
f 156 190 189
f 155 190 156
f 154 190 155
f 154 153 190
f 210 212 211
f 209 213 212
f 209 212 210
f 208 214 213
f 208 213 209
f 207 215 214
f 207 214 208
f 206 216 215
f 206 215 207
f 205 217 216
f 205 216 206
f 204 218 217
f 204 217 205
f 203 219 218
f 203 218 204
f 202 219 203
f 201 220 219
f 201 219 202
f 200 221 220
f 200 220 201
f 199 222 221
f 199 221 200
f 198 223 222
f 198 224 223
f 198 222 199
f 197 224 198
f 196 225 224
f 196 226 225
f 196 224 197
f 195 226 196
f 194 226 195
f 194 227 226
f 194 228 227
f 193 228 194
f 192 228 193
f 192 191 228
f 247 249 248
f 247 265 266
f 247 266 249
f 246 265 247
f 245 264 265
f 245 265 246
f 244 263 264
f 244 264 245
f 243 262 263
f 243 263 244
f 242 261 262
f 242 262 243
f 241 260 261
f 241 261 242
f 240 259 260
f 240 260 241
f 239 258 259
f 239 259 240
f 238 257 258
f 238 258 239
f 237 256 257
f 237 257 238
f 236 255 256
f 236 256 237
f 235 254 255
f 235 255 236
f 234 252 253
f 234 253 254
f 234 254 235
f 233 252 234
f 232 252 233
f 232 250 251
f 232 251 252
f 231 250 232
f 230 250 231
f 230 229 250
f 285 287 286
f 285 303 304
f 285 304 287
f 284 303 285
f 283 302 303
f 283 303 284
f 282 301 302
f 282 302 283
f 281 300 301
f 281 301 282
f 280 299 300
f 280 300 281
f 279 298 299
f 279 299 280
f 278 297 298
f 278 298 279
f 277 296 297
f 277 297 278
f 276 295 296
f 276 296 277
f 275 294 295
f 275 295 276
f 274 293 294
f 274 294 275
f 273 292 293
f 273 293 274
f 272 290 291
f 272 291 292
f 272 292 273
f 271 290 272
f 270 290 271
f 270 288 289
f 270 289 290
f 269 288 270
f 268 288 269
f 268 267 288
f 323 325 324
f 323 341 342
f 323 342 325
f 322 341 323
f 321 340 341
f 321 341 322
f 320 339 340
f 320 340 321
f 319 338 339
f 319 339 320
f 318 337 338
f 318 338 319
f 317 336 337
f 317 337 318
f 316 335 336
f 316 336 317
f 315 334 335
f 315 335 316
f 314 333 334
f 314 334 315
f 313 332 333
f 313 333 314
f 312 331 332
f 312 332 313
f 311 330 331
f 311 331 312
f 310 328 329
f 310 329 330
f 310 330 311
f 309 328 310
f 308 328 309
f 308 326 327
f 308 327 328
f 307 326 308
f 306 326 307
f 306 305 326
f 364 365 366
f 362 363 364
f 362 366 367
f 362 364 366
f 361 367 368
f 361 362 367
f 360 368 369
f 360 361 368
f 359 369 370
f 359 360 369
f 358 370 371
f 358 359 370
f 357 371 372
f 357 358 371
f 356 372 373
f 356 357 372
f 355 373 374
f 355 356 373
f 354 374 375
f 354 355 374
f 353 375 376
f 353 354 375
f 352 376 377
f 352 353 376
f 351 352 377
f 350 377 378
f 350 378 379
f 350 351 377
f 349 350 379
f 349 379 380
f 348 349 380
f 347 348 380
f 347 380 381
f 347 381 382
f 346 347 382
f 344 346 382
f 344 382 343
f 345 346 344
f 580 403 579
f 578 579 403
f 581 403 580
f 582 403 581
f 577 578 403
f 576 577 403
f 575 576 403
f 574 575 403
f 573 574 403
f 385 403 582
f 385 582 583
f 385 583 548
f 543 544 385
f 542 543 385
f 542 385 548
f 545 385 544
f 541 548 549
f 541 549 550
f 541 542 548
f 546 385 545
f 547 385 546
f 540 541 550
f 512 385 547
f 539 550 551
f 539 551 552
f 539 540 550
f 538 539 552
f 538 552 553
f 513 385 512
f 537 538 553
f 514 386 385
f 514 385 513
f 515 386 514
f 536 537 553
f 536 553 554
f 516 386 515
f 535 536 554
f 535 554 555
f 517 386 516
f 534 535 555
f 534 555 556
f 518 386 517
f 533 534 556
f 533 556 557
f 532 533 557
f 532 557 558
f 531 532 558
f 531 558 559
f 531 559 560
f 530 531 560
f 387 518 519
f 387 519 520
f 387 520 521
f 387 386 518
f 615 570 571
f 615 616 570
f 617 569 570
f 617 570 616
f 614 571 572
f 614 572 573
f 614 615 571
f 618 569 617
f 618 568 569
f 613 403 384
f 613 614 573
f 613 573 403
f 619 568 618
f 619 567 568
f 612 613 384
f 388 521 522
f 388 387 521
f 611 612 384
f 584 567 619
f 584 566 567
f 610 611 384
f 585 566 584
f 585 565 566
f 586 565 585
f 586 564 565
f 609 610 384
f 608 609 384
f 587 564 586
f 587 562 563
f 587 563 564
f 607 608 384
f 588 562 587
f 589 562 588
f 589 561 562
f 606 607 384
f 605 606 384
f 590 561 589
f 590 560 561
f 604 605 384
f 508 522 523
f 508 388 522
f 508 523 507
f 506 523 524
f 506 507 523
f 509 389 388
f 509 388 508
f 510 389 509
f 505 524 525
f 505 525 526
f 505 506 524
f 511 389 510
f 504 526 527
f 504 505 526
f 476 390 389
f 476 389 511
f 503 504 527
f 477 390 476
f 502 527 528
f 502 528 529
f 502 503 527
f 478 390 477
f 501 502 529
f 479 390 478
f 500 529 530
f 500 501 529
f 480 390 479
f 391 483 484
f 391 390 480
f 391 480 481
f 391 481 482
f 391 482 483
f 436 595 435
f 436 594 595
f 434 435 595
f 434 595 596
f 437 594 436
f 437 593 594
f 433 596 597
f 433 434 596
f 438 592 593
f 438 593 437
f 392 484 485
f 392 485 486
f 392 486 487
f 392 487 488
f 392 391 484
f 432 597 598
f 432 598 599
f 432 433 597
f 439 591 592
f 439 592 438
f 404 590 591
f 404 591 439
f 431 432 599
f 430 599 600
f 430 600 601
f 430 431 599
f 429 430 601
f 428 429 601
f 428 601 602
f 393 488 489
f 393 489 490
f 393 490 491
f 393 392 488
f 471 498 499
f 472 498 471
f 470 499 500
f 470 590 404
f 470 404 405
f 470 560 590
f 470 530 560
f 470 500 530
f 470 471 499
f 473 498 472
f 473 497 498
f 469 470 405
f 474 496 497
f 474 497 473
f 468 469 405
f 468 405 406
f 475 496 474
f 475 494 495
f 475 495 496
f 467 468 406
f 467 406 407
f 467 407 408
f 440 494 475
f 441 493 494
f 441 494 440
f 466 467 408
f 465 408 409
f 465 466 408
f 442 492 493
f 442 493 441
f 464 409 410
f 464 465 409
f 463 410 411
f 463 411 412
f 463 464 410
f 462 463 412
f 394 491 492
f 394 492 442
f 394 442 443
f 394 393 491
f 383 602 603
f 383 603 604
f 383 604 384
f 383 420 421
f 383 421 422
f 383 422 423
f 383 423 424
f 383 424 425
f 383 425 426
f 383 426 427
f 383 427 428
f 383 428 602
f 395 394 443
f 395 443 444
f 395 444 445
f 395 445 446
f 402 416 417
f 402 417 418
f 402 418 419
f 402 419 420
f 402 420 383
f 396 446 447
f 396 447 448
f 396 448 449
f 396 449 450
f 396 395 446
f 401 413 414
f 401 414 415
f 401 415 416
f 401 416 402
f 397 396 450
f 397 450 451
f 397 451 452
f 397 452 453
f 397 453 454
f 400 413 401
f 400 412 413
f 400 462 412
f 400 461 462
f 398 397 454
f 398 454 455
f 398 455 456
f 398 456 457
f 398 457 458
f 399 461 400
f 399 398 458
f 399 458 459
f 399 459 460
f 399 460 461
f 626 627 640
f 628 640 627
f 625 626 640
f 624 625 640
f 629 640 628
f 630 640 629
f 631 621 640
f 631 640 630
f 632 621 631
f 633 621 632
f 634 621 633
f 635 621 634
f 636 621 635
f 637 621 636
f 638 621 637
f 621 639 620
f 621 638 639
f 622 623 640
f 623 624 640
f 678 642 641
f 678 660 659
f 678 641 660
f 677 678 659
f 676 658 657
f 676 659 658
f 676 677 659
f 675 676 657
f 674 657 656
f 674 675 657
f 673 656 655
f 673 674 656
f 672 655 654
f 672 673 655
f 671 654 653
f 671 672 654
f 670 653 652
f 670 671 653
f 669 652 651
f 669 670 652
f 668 650 649
f 668 651 650
f 668 669 651
f 667 668 649
f 666 649 648
f 666 667 649
f 665 648 647
f 665 666 648
f 664 646 645
f 664 647 646
f 664 665 647
f 663 664 645
f 662 645 644
f 662 663 645
f 661 644 643
f 661 662 644
f 680 683 682
f 681 679 680
f 681 680 682
f 785 686 684
f 785 786 686
f 787 686 786
f 784 785 684
f 783 784 684
f 788 686 787
f 789 686 788
f 782 783 684
f 790 686 789
f 781 782 684
f 791 686 790
f 780 781 684
f 779 780 684
f 778 779 684
f 777 778 684
f 776 777 684
f 775 776 684
f 750 686 749
f 748 749 686
f 751 687 686
f 751 686 750
f 747 791 792
f 747 686 791
f 747 748 686
f 752 687 751
f 753 687 752
f 746 747 792
f 746 792 793
f 754 687 753
f 745 746 793
f 745 793 794
f 755 687 754
f 744 745 794
f 744 794 795
f 756 687 755
f 743 795 796
f 743 744 795
f 757 687 756
f 742 796 797
f 742 743 796
f 758 687 757
f 741 797 798
f 741 742 797
f 759 687 758
f 740 741 798
f 740 798 763
f 760 687 759
f 761 687 760
f 762 687 761
f 727 687 762
f 728 687 727
f 713 764 765
f 714 740 763
f 714 763 764
f 714 764 713
f 715 739 740
f 715 740 714
f 712 713 765
f 712 765 766
f 711 712 766
f 711 766 767
f 716 738 739
f 716 739 715
f 717 737 738
f 717 738 716
f 710 711 767
f 710 767 768
f 718 735 736
f 718 736 737
f 718 737 717
f 709 710 768
f 709 768 769
f 719 735 718
f 708 709 769
f 708 769 770
f 720 733 734
f 720 734 735
f 720 735 719
f 707 708 770
f 707 770 771
f 721 732 733
f 721 733 720
f 706 707 771
f 706 771 772
f 722 732 721
f 705 772 773
f 705 706 772
f 723 732 722
f 723 731 732
f 724 731 723
f 724 729 730
f 724 730 731
f 725 728 729
f 725 729 724
f 726 728 725
f 688 705 773
f 688 691 692
f 688 692 693
f 688 693 694
f 688 694 695
f 688 695 696
f 688 696 697
f 688 697 698
f 688 698 699
f 688 699 700
f 688 700 701
f 688 701 702
f 688 702 703
f 688 703 704
f 688 704 705
f 688 726 691
f 688 687 728
f 688 728 726
f 689 684 685
f 689 688 773
f 689 775 684
f 689 773 774
f 689 774 775
f 690 689 685
f 802 799 801
f 800 806 805
f 800 807 806
f 800 808 807
f 800 809 808
f 800 810 809
f 800 811 810
f 800 802 811
f 800 799 802
f 804 800 805
f 803 800 804
f 813 803 812
f 813 800 803
f 1044 827 826
f 1043 1044 826
f 1042 1043 826
f 1045 827 1044
f 1046 827 1045
f 1041 1042 826
f 1047 827 1046
f 1040 826 825
f 1040 1041 826
f 1039 1040 825
f 1048 828 827
f 1048 827 1047
f 1049 828 1048
f 1038 1039 825
f 1050 828 1049
f 1037 1038 825
f 1036 825 824
f 1036 1037 825
f 1051 829 828
f 1051 828 1050
f 1052 829 1051
f 1035 1036 824
f 1034 1035 824
f 1033 824 823
f 1033 1034 824
f 1032 1033 823
f 863 864 831
f 862 831 830
f 862 863 831
f 865 831 864
f 861 862 830
f 866 832 831
f 866 831 865
f 860 861 830
f 867 832 866
f 859 830 829
f 859 860 830
f 868 832 867
f 858 1052 1053
f 858 859 829
f 858 829 1052
f 869 832 868
f 857 858 1053
f 870 833 832
f 870 832 869
f 871 833 870
f 856 1053 1054
f 856 857 1053
f 855 1054 1055
f 855 1055 1056
f 855 856 1054
f 872 833 871
f 873 833 872
f 854 855 1056
f 874 833 873
f 853 1056 1057
f 853 854 1056
f 852 1057 1058
f 852 853 1057
f 851 1058 1059
f 851 852 1058
f 850 1059 1060
f 850 851 1059
f 834 874 875
f 834 875 876
f 834 876 877
f 834 833 874
f 1008 822 1007
f 1006 822 821
f 1006 1007 822
f 1009 823 822
f 1009 822 1008
f 1010 823 1009
f 1010 1032 823
f 1005 1006 821
f 1004 1005 821
f 1011 1031 1032
f 1011 1032 1010
f 835 834 877
f 835 877 878
f 1012 1031 1011
f 1012 1030 1031
f 1003 1004 821
f 1013 1030 1012
f 1013 1064 1065
f 1013 1065 1030
f 1002 821 820
f 1002 1003 821
f 1014 1064 1013
f 1001 1002 820
f 1000 1001 820
f 1015 1064 1014
f 1015 1062 1063
f 1015 1063 1064
f 999 1000 820
f 1016 1062 1015
f 1016 1061 1062
f 998 999 820
f 1017 1061 1016
f 1017 1060 1061
f 1018 1060 1017
f 819 998 820
f 819 994 995
f 819 995 996
f 819 996 997
f 819 997 998
f 900 835 878
f 900 878 879
f 900 879 899
f 818 1027 1028
f 818 1028 1029
f 818 1029 994
f 818 994 819
f 898 879 880
f 898 880 881
f 898 899 879
f 901 836 835
f 901 835 900
f 897 898 881
f 902 836 901
f 903 836 902
f 896 897 881
f 896 881 882
f 895 896 882
f 895 882 883
f 895 883 884
f 904 836 903
f 904 837 836
f 894 895 884
f 905 837 904
f 893 894 884
f 893 884 885
f 906 837 905
f 907 837 906
f 892 850 1060
f 892 893 885
f 892 885 850
f 908 837 907
f 838 837 908
f 838 908 909
f 838 909 910
f 838 910 911
f 838 911 912
f 817 1026 1027
f 817 1027 818
f 972 1022 1023
f 972 1023 971
f 970 1023 1024
f 970 971 1023
f 973 1020 1021
f 973 1021 1022
f 973 1022 972
f 969 1024 1025
f 969 1025 1026
f 969 970 1024
f 974 1020 973
f 839 914 915
f 839 915 916
f 839 838 912
f 839 912 913
f 839 913 914
f 968 1026 817
f 968 969 1026
f 975 1018 1019
f 975 1019 1020
f 975 1020 974
f 967 817 816
f 967 968 817
f 976 1060 1018
f 976 892 1060
f 976 1018 975
f 966 967 816
f 965 966 816
f 964 965 816
f 840 916 917
f 840 917 918
f 840 918 919
f 840 839 916
f 815 964 816
f 815 960 961
f 815 961 962
f 815 962 963
f 815 963 964
f 935 890 891
f 936 890 935
f 934 892 976
f 934 935 891
f 934 891 892
f 937 890 936
f 937 888 889
f 937 889 890
f 933 976 977
f 933 934 976
f 938 888 937
f 932 933 977
f 932 977 978
f 932 978 979
f 939 888 938
f 939 886 887
f 939 887 888
f 931 932 979
f 940 886 939
f 941 920 921
f 941 921 886
f 941 886 940
f 930 931 979
f 930 979 980
f 942 920 941
f 929 980 981
f 929 930 980
f 928 929 981
f 928 981 982
f 927 982 983
f 927 928 982
f 926 983 984
f 926 927 983
f 841 919 920
f 841 840 919
f 841 942 943
f 841 920 942
f 814 960 815
f 814 958 959
f 814 959 960
f 814 992 993
f 814 993 958
f 842 943 944
f 842 944 945
f 842 945 946
f 842 841 943
f 849 992 814
f 849 988 989
f 849 989 990
f 849 990 991
f 849 991 992
f 843 842 946
f 843 946 947
f 843 947 948
f 843 948 949
f 843 949 950
f 848 988 849
f 848 985 986
f 848 986 987
f 848 987 988
f 844 843 950
f 844 950 951
f 844 951 952
f 844 952 953
f 844 953 954
f 847 925 926
f 847 926 984
f 847 985 848
f 847 984 985
f 845 844 954
f 845 954 955
f 845 955 956
f 845 956 957
f 845 957 922
f 846 922 923
f 846 923 924
f 846 924 925
f 846 925 847
f 846 845 922
f 1072 1079 1073
f 1074 1073 1079
f 1071 1079 1072
f 1075 1074 1079
f 1076 1075 1079
f 1070 1079 1071
f 1069 1079 1070
f 1068 1079 1069
f 1067 1079 1068
f 1066 1067 1068
f 1078 1077 1079
f 1077 1076 1079
f 1082 1080 1081
f 1082 1081 1083
f 1085 1087 1086
f 1084 1085 1086
f 1088 1091 1090
f 1088 1089 1091
f 1165 1095 1166
f 1164 1095 1165
f 1167 1166 1095
f 1168 1167 1095
f 1163 1095 1164
f 1169 1168 1095
f 1162 1095 1163
f 1161 1095 1162
f 1134 1169 1095
f 1135 1134 1095
f 1160 1095 1161
f 1159 1095 1160
f 1158 1095 1159
f 1096 1095 1158
f 1096 1155 1154
f 1096 1156 1155
f 1096 1157 1156
f 1096 1158 1157
f 1130 1138 1137
f 1130 1139 1138
f 1129 1139 1130
f 1128 1140 1139
f 1128 1141 1140
f 1128 1139 1129
f 1131 1130 1137
f 1132 1131 1137
f 1132 1137 1136
f 1127 1141 1128
f 1133 1132 1136
f 1133 1135 1095
f 1133 1136 1135
f 1126 1142 1141
f 1126 1141 1127
f 1125 1143 1142
f 1125 1144 1143
f 1125 1142 1126
f 1124 1145 1144
f 1124 1144 1125
f 1123 1145 1124
f 1122 1145 1123
f 1122 1146 1145
f 1121 1147 1146
f 1121 1146 1122
f 1201 1152 1151
f 1202 1151 1150
f 1202 1201 1151
f 1200 1153 1152
f 1200 1152 1201
f 1203 1150 1149
f 1203 1202 1150
f 1204 1203 1149
f 1204 1149 1148
f 1199 1154 1153
f 1199 1153 1200
f 1198 1096 1154
f 1198 1154 1199
f 1205 1204 1148
f 1205 1148 1147
f 1170 1147 1121
f 1170 1205 1147
f 1197 1096 1198
f 1171 1121 1120
f 1171 1170 1121
f 1196 1096 1197
f 1195 1096 1196
f 1172 1120 1119
f 1172 1171 1120
f 1194 1096 1195
f 1173 1119 1118
f 1173 1172 1119
f 1174 1118 1117
f 1174 1173 1118
f 1193 1096 1194
f 1175 1117 1116
f 1175 1174 1117
f 1192 1096 1193
f 1176 1116 1115
f 1176 1175 1116
f 1177 1115 1114
f 1177 1176 1115
f 1178 1114 1113
f 1178 1177 1114
f 1179 1113 1112
f 1179 1178 1113
f 1094 1099 1098
f 1094 1100 1099
f 1094 1101 1100
f 1094 1102 1101
f 1094 1103 1102
f 1094 1104 1103
f 1094 1105 1104
f 1094 1106 1105
f 1094 1107 1106
f 1094 1108 1107
f 1094 1109 1108
f 1094 1110 1109
f 1094 1111 1110
f 1094 1112 1111
f 1094 1098 1133
f 1094 1133 1095
f 1180 1179 1112
f 1097 1096 1192
f 1097 1183 1182
f 1097 1184 1183
f 1097 1185 1184
f 1097 1186 1185
f 1097 1187 1186
f 1097 1188 1187
f 1097 1189 1188
f 1097 1190 1189
f 1097 1191 1190
f 1097 1192 1191
f 1093 1180 1112
f 1093 1112 1094
f 1093 1181 1180
f 1092 1097 1182
f 1092 1181 1093
f 1092 1182 1181
f 1223 1225 1224
f 1223 1243 1225
f 1222 1241 1242
f 1222 1242 1243
f 1222 1243 1223
f 1221 1241 1222
f 1220 1239 1240
f 1220 1240 1241
f 1220 1241 1221
f 1219 1239 1220
f 1218 1238 1239
f 1218 1239 1219
f 1217 1236 1237
f 1217 1237 1238
f 1217 1238 1218
f 1216 1236 1217
f 1215 1235 1236
f 1215 1236 1216
f 1214 1233 1234
f 1214 1234 1235
f 1214 1235 1215
f 1213 1233 1214
f 1212 1232 1233
f 1212 1233 1213
f 1211 1231 1232
f 1211 1232 1212
f 1210 1230 1231
f 1210 1231 1211
f 1209 1230 1210
f 1209 1228 1229
f 1209 1229 1230
f 1208 1228 1209
f 1208 1227 1228
f 1207 1227 1208
f 1206 1227 1207
f 1206 1226 1227
f 1261 1263 1262
f 1261 1281 1263
f 1260 1279 1280
f 1260 1280 1281
f 1260 1281 1261
f 1259 1279 1260
f 1258 1277 1278
f 1258 1278 1279
f 1258 1279 1259
f 1257 1277 1258
f 1256 1276 1277
f 1256 1277 1257
f 1255 1274 1275
f 1255 1275 1276
f 1255 1276 1256
f 1254 1274 1255
f 1253 1273 1274
f 1253 1274 1254
f 1252 1271 1272
f 1252 1272 1273
f 1252 1273 1253
f 1251 1271 1252
f 1250 1270 1271
f 1250 1271 1251
f 1249 1269 1270
f 1249 1270 1250
f 1248 1268 1269
f 1248 1269 1249
f 1247 1268 1248
f 1247 1266 1267
f 1247 1267 1268
f 1246 1266 1247
f 1246 1265 1266
f 1245 1265 1246
f 1244 1265 1245
f 1244 1264 1265
f 1299 1301 1300
f 1299 1319 1301
f 1298 1317 1318
f 1298 1318 1319
f 1298 1319 1299
f 1297 1317 1298
f 1296 1315 1316
f 1296 1316 1317
f 1296 1317 1297
f 1295 1315 1296
f 1294 1314 1315
f 1294 1315 1295
f 1293 1312 1313
f 1293 1313 1314
f 1293 1314 1294
f 1292 1312 1293
f 1291 1311 1312
f 1291 1312 1292
f 1290 1309 1310
f 1290 1310 1311
f 1290 1311 1291
f 1289 1309 1290
f 1288 1308 1309
f 1288 1309 1289
f 1287 1307 1308
f 1287 1308 1288
f 1286 1306 1307
f 1286 1307 1287
f 1285 1306 1286
f 1285 1304 1305
f 1285 1305 1306
f 1284 1304 1285
f 1284 1303 1304
f 1283 1303 1284
f 1282 1303 1283
f 1282 1302 1303
f 1338 1340 1339
f 1337 1341 1340
f 1337 1340 1338
f 1336 1342 1341
f 1336 1341 1337
f 1335 1343 1342
f 1335 1342 1336
f 1334 1344 1343
f 1334 1343 1335
f 1333 1345 1344
f 1333 1344 1334
f 1332 1346 1345
f 1332 1345 1333
f 1331 1347 1346
f 1331 1346 1332
f 1330 1348 1347
f 1330 1347 1331
f 1329 1349 1348
f 1329 1348 1330
f 1328 1350 1349
f 1328 1349 1329
f 1327 1351 1350
f 1327 1350 1328
f 1326 1352 1351
f 1326 1351 1327
f 1325 1353 1352
f 1325 1352 1326
f 1324 1354 1353
f 1324 1353 1325
f 1323 1354 1324
f 1323 1355 1354
f 1322 1355 1323
f 1322 1356 1355
f 1321 1357 1356
f 1321 1356 1322
f 1320 1357 1321
f 1376 1378 1377
f 1375 1379 1378
f 1375 1378 1376
f 1374 1380 1379
f 1374 1379 1375
f 1373 1381 1380
f 1373 1380 1374
f 1372 1382 1381
f 1372 1381 1373
f 1371 1383 1382
f 1371 1382 1372
f 1370 1384 1383
f 1370 1383 1371
f 1369 1385 1384
f 1369 1384 1370
f 1368 1386 1385
f 1368 1385 1369
f 1367 1387 1386
f 1367 1386 1368
f 1366 1388 1387
f 1366 1387 1367
f 1365 1389 1388
f 1365 1388 1366
f 1364 1390 1389
f 1364 1389 1365
f 1363 1391 1390
f 1363 1390 1364
f 1362 1392 1391
f 1362 1391 1363
f 1361 1392 1362
f 1361 1393 1392
f 1360 1393 1361
f 1360 1394 1393
f 1359 1395 1394
f 1359 1394 1360
f 1358 1395 1359
f 1414 1416 1415
f 1413 1417 1416
f 1413 1416 1414
f 1412 1418 1417
f 1412 1417 1413
f 1411 1419 1418
f 1411 1418 1412
f 1410 1420 1419
f 1410 1419 1411
f 1409 1421 1420
f 1409 1420 1410
f 1408 1422 1421
f 1408 1421 1409
f 1407 1423 1422
f 1407 1422 1408
f 1406 1424 1423
f 1406 1423 1407
f 1405 1425 1424
f 1405 1424 1406
f 1404 1426 1425
f 1404 1425 1405
f 1403 1427 1426
f 1403 1426 1404
f 1402 1428 1427
f 1402 1427 1403
f 1401 1429 1428
f 1401 1428 1402
f 1400 1430 1429
f 1400 1429 1401
f 1399 1430 1400
f 1399 1431 1430
f 1398 1431 1399
f 1398 1432 1431
f 1397 1433 1432
f 1397 1432 1398
f 1396 1433 1397
f 1452 1454 1453
f 1451 1455 1454
f 1451 1454 1452
f 1450 1456 1455
f 1450 1455 1451
f 1449 1457 1456
f 1449 1456 1450
f 1448 1458 1457
f 1448 1457 1449
f 1447 1459 1458
f 1447 1458 1448
f 1446 1460 1459
f 1446 1459 1447
f 1445 1461 1460
f 1445 1460 1446
f 1444 1462 1461
f 1444 1461 1445
f 1443 1463 1462
f 1443 1462 1444
f 1442 1464 1463
f 1442 1463 1443
f 1441 1465 1464
f 1441 1464 1442
f 1440 1466 1465
f 1440 1465 1441
f 1439 1467 1466
f 1439 1466 1440
f 1438 1468 1467
f 1438 1467 1439
f 1437 1468 1438
f 1437 1469 1468
f 1436 1469 1437
f 1436 1470 1469
f 1435 1471 1470
f 1435 1470 1436
f 1434 1471 1435
f 1490 1492 1491
f 1489 1493 1492
f 1489 1492 1490
f 1488 1494 1493
f 1488 1493 1489
f 1487 1495 1494
f 1487 1494 1488
f 1486 1496 1495
f 1486 1495 1487
f 1485 1497 1496
f 1485 1496 1486
f 1484 1498 1497
f 1484 1497 1485
f 1483 1499 1498
f 1483 1498 1484
f 1482 1500 1499
f 1482 1499 1483
f 1481 1501 1500
f 1481 1500 1482
f 1480 1502 1501
f 1480 1501 1481
f 1479 1503 1502
f 1479 1502 1480
f 1478 1504 1503
f 1478 1503 1479
f 1477 1505 1504
f 1477 1504 1478
f 1476 1506 1505
f 1476 1505 1477
f 1475 1506 1476
f 1475 1507 1506
f 1474 1507 1475
f 1474 1508 1507
f 1473 1509 1508
f 1473 1508 1474
f 1472 1509 1473
f 1528 1530 1529
f 1527 1531 1530
f 1527 1530 1528
f 1526 1532 1531
f 1526 1531 1527
f 1525 1533 1532
f 1525 1532 1526
f 1524 1534 1533
f 1524 1533 1525
f 1523 1535 1534
f 1523 1534 1524
f 1522 1536 1535
f 1522 1535 1523
f 1521 1537 1536
f 1521 1536 1522
f 1520 1538 1537
f 1520 1537 1521
f 1519 1539 1538
f 1519 1538 1520
f 1518 1540 1539
f 1518 1539 1519
f 1517 1541 1540
f 1517 1540 1518
f 1516 1542 1541
f 1516 1541 1517
f 1515 1543 1542
f 1515 1542 1516
f 1514 1544 1543
f 1514 1543 1515
f 1513 1544 1514
f 1513 1545 1544
f 1512 1545 1513
f 1512 1546 1545
f 1511 1547 1546
f 1511 1546 1512
f 1510 1547 1511
f 1550 1568 1559
f 1551 1567 1568
f 1551 1568 1550
f 1552 1565 1566
f 1552 1566 1567
f 1552 1567 1551
f 1553 1564 1565
f 1553 1565 1552
f 1554 1563 1564
f 1554 1564 1553
f 1555 1562 1563
f 1555 1563 1554
f 1556 1561 1562
f 1556 1562 1555
f 1557 1560 1561
f 1557 1561 1556
f 1558 1549 1560
f 1558 1560 1557
f 1548 1549 1558
