# generated by step_to_parts.py -- 608 verts, 592 tris
v -0.398457 -0.569992 -0.096852
v -0.388647 -0.571933 -0.096852
v -0.388690 -0.572150 -0.096991
v -0.388737 -0.572388 -0.097089
v -0.388786 -0.572638 -0.097144
v -0.388837 -0.572895 -0.097153
v -0.388887 -0.573149 -0.097117
v -0.388936 -0.573393 -0.097037
v -0.388981 -0.573619 -0.096915
v -0.389021 -0.573822 -0.096754
v -0.389055 -0.573994 -0.096560
v -0.389082 -0.574130 -0.096339
v -0.389101 -0.574227 -0.096096
v -0.389111 -0.574280 -0.095841
v -0.389113 -0.574290 -0.095579
v -0.389106 -0.574255 -0.095321
v -0.389091 -0.574176 -0.095072
v -0.389067 -0.574056 -0.094841
v -0.389036 -0.573898 -0.094634
v -0.388998 -0.573708 -0.094459
v -0.398808 -0.571767 -0.094459
v -0.398500 -0.570209 -0.096991
v -0.398547 -0.570447 -0.097089
v -0.398596 -0.570697 -0.097144
v -0.398647 -0.570954 -0.097153
v -0.398697 -0.571208 -0.097117
v -0.398746 -0.571452 -0.097037
v -0.398790 -0.571679 -0.096915
v -0.398830 -0.571881 -0.096754
v -0.398864 -0.572053 -0.096560
v -0.398891 -0.572189 -0.096339
v -0.398910 -0.572286 -0.096096
v -0.398921 -0.572340 -0.095841
v -0.398923 -0.572349 -0.095579
v -0.398916 -0.572314 -0.095321
v -0.398900 -0.572235 -0.095072
v -0.398877 -0.572115 -0.094841
v -0.398846 -0.571957 -0.094634
v -0.387866 -0.516463 -0.055581
v -0.378056 -0.518404 -0.055581
v -0.378099 -0.518621 -0.055720
v -0.378146 -0.518859 -0.055819
v -0.378196 -0.519109 -0.055874
v -0.378246 -0.519366 -0.055883
v -0.378297 -0.519620 -0.055847
v -0.378345 -0.519864 -0.055767
v -0.378390 -0.520091 -0.055644
v -0.378430 -0.520293 -0.055484
v -0.378464 -0.520465 -0.055290
v -0.378491 -0.520601 -0.055068
v -0.378510 -0.520698 -0.054826
v -0.378521 -0.520751 -0.054570
v -0.378522 -0.520761 -0.054309
v -0.378515 -0.520726 -0.054050
v -0.378500 -0.520647 -0.053801
v -0.378476 -0.520527 -0.053570
v -0.378445 -0.520369 -0.053364
v -0.378407 -0.520179 -0.053189
v -0.388217 -0.518238 -0.053189
v -0.387909 -0.516680 -0.055720
v -0.387956 -0.516918 -0.055819
v -0.388006 -0.517169 -0.055874
v -0.388056 -0.517425 -0.055883
v -0.388107 -0.517679 -0.055847
v -0.388155 -0.517923 -0.055767
v -0.388200 -0.518150 -0.055644
v -0.388240 -0.518352 -0.055484
v -0.388274 -0.518524 -0.055290
v -0.388301 -0.518660 -0.055068
v -0.388320 -0.518757 -0.054826
v -0.388330 -0.518811 -0.054570
v -0.388332 -0.518820 -0.054309
v -0.388325 -0.518785 -0.054050
v -0.388310 -0.518706 -0.053801
v -0.388286 -0.518586 -0.053570
v -0.388255 -0.518428 -0.053364
v -0.389345 -0.523939 -0.051759
v -0.379535 -0.525880 -0.051759
v -0.379382 -0.525104 -0.057175
v -0.379402 -0.525208 -0.062646
v -0.379596 -0.526188 -0.068027
v -0.379959 -0.528019 -0.073172
v -0.380479 -0.530651 -0.077942
v -0.381145 -0.534014 -0.082209
v -0.381936 -0.538015 -0.085857
v -0.391746 -0.536074 -0.085857
v -0.389192 -0.523163 -0.057175
v -0.389212 -0.523267 -0.062646
v -0.389406 -0.524247 -0.068027
v -0.389768 -0.526078 -0.073172
v -0.390289 -0.528711 -0.077942
v -0.390954 -0.532073 -0.082209
v -0.390849 -0.531540 -0.091969
v -0.381039 -0.533481 -0.091969
v -0.381082 -0.533698 -0.092108
v -0.381129 -0.533936 -0.092206
v -0.381179 -0.534187 -0.092261
v -0.381229 -0.534443 -0.092270
v -0.381280 -0.534697 -0.092234
v -0.381328 -0.534941 -0.092154
v -0.381373 -0.535168 -0.092032
v -0.381413 -0.535370 -0.091871
v -0.381447 -0.535542 -0.091677
v -0.381474 -0.535679 -0.091456
v -0.381493 -0.535775 -0.091213
v -0.381504 -0.535829 -0.090958
v -0.381505 -0.535838 -0.090696
v -0.381499 -0.535803 -0.090437
v -0.381483 -0.535724 -0.090189
v -0.381459 -0.535604 -0.089957
v -0.381428 -0.535447 -0.089751
v -0.381390 -0.535256 -0.089576
v -0.391200 -0.533315 -0.089576
v -0.390892 -0.531757 -0.092108
v -0.390939 -0.531995 -0.092206
v -0.390989 -0.532246 -0.092261
v -0.391039 -0.532502 -0.092270
v -0.391090 -0.532756 -0.092234
v -0.391138 -0.533000 -0.092154
v -0.391183 -0.533227 -0.092032
v -0.391223 -0.533429 -0.091871
v -0.391257 -0.533601 -0.091677
v -0.391284 -0.533738 -0.091456
v -0.391303 -0.533834 -0.091213
v -0.391313 -0.533888 -0.090958
v -0.391315 -0.533897 -0.090696
v -0.391308 -0.533862 -0.090437
v -0.391293 -0.533783 -0.090189
v -0.391269 -0.533663 -0.089957
v -0.391238 -0.533506 -0.089751
v -0.390259 -0.528559 -0.095986
v -0.391499 -0.534827 -0.100039
v -0.392852 -0.541662 -0.102991
v -0.394280 -0.548879 -0.104762
v -0.395744 -0.556283 -0.105303
v -0.397207 -0.563674 -0.104601
v -0.398627 -0.570853 -0.102674
v -0.399967 -0.577624 -0.099574
v -0.401190 -0.583807 -0.095386
v -0.402263 -0.589232 -0.090222
v -0.403158 -0.593755 -0.084221
v -0.403850 -0.597252 -0.077547
v -0.380449 -0.530500 -0.095986
v -0.381690 -0.536768 -0.100039
v -0.383042 -0.543603 -0.102991
v -0.384470 -0.550820 -0.104762
v -0.385935 -0.558224 -0.105303
v -0.387397 -0.565615 -0.104601
v -0.388817 -0.572794 -0.102674
v -0.390157 -0.579565 -0.099574
v -0.391380 -0.585747 -0.095386
v -0.392454 -0.591173 -0.090222
v -0.393348 -0.595696 -0.084221
v -0.394040 -0.599193 -0.077547
v -0.386943 -0.511801 -0.048899
v -0.389345 -0.523939 -0.051759
v -0.386732 -0.510729 -0.056377
v -0.386760 -0.510872 -0.063933
v -0.387028 -0.512227 -0.071364
v -0.387528 -0.514755 -0.078469
v -0.388247 -0.518390 -0.085056
v -0.389166 -0.523033 -0.090948
v -0.390259 -0.528559 -0.095986
v -0.391499 -0.534827 -0.100039
v -0.392852 -0.541662 -0.102991
v -0.394280 -0.548879 -0.104762
v -0.395744 -0.556283 -0.105303
v -0.397207 -0.563674 -0.104601
v -0.398627 -0.570853 -0.102674
v -0.399967 -0.577624 -0.099574
v -0.401190 -0.583807 -0.095386
v -0.402263 -0.589232 -0.090222
v -0.403158 -0.593755 -0.084221
v -0.403850 -0.597252 -0.077547
v -0.401588 -0.585817 -0.072505
v -0.391746 -0.536074 -0.085857
v -0.392644 -0.540614 -0.088792
v -0.393623 -0.545563 -0.090930
v -0.394657 -0.550789 -0.092212
v -0.395718 -0.556151 -0.092604
v -0.396777 -0.561503 -0.092095
v -0.397806 -0.566701 -0.090700
v -0.398776 -0.571604 -0.088455
v -0.399661 -0.576081 -0.085422
v -0.400439 -0.580010 -0.081683
v -0.401087 -0.583285 -0.077338
v -0.389192 -0.523163 -0.057175
v -0.389212 -0.523267 -0.062646
v -0.389406 -0.524247 -0.068027
v -0.389768 -0.526078 -0.073172
v -0.390289 -0.528711 -0.077942
v -0.390954 -0.532073 -0.082209
v -0.390849 -0.531540 -0.091969
v -0.390892 -0.531757 -0.092108
v -0.390939 -0.531995 -0.092206
v -0.390989 -0.532246 -0.092261
v -0.391039 -0.532502 -0.092270
v -0.391090 -0.532756 -0.092234
v -0.391138 -0.533000 -0.092154
v -0.391183 -0.533227 -0.092032
v -0.391223 -0.533429 -0.091871
v -0.391257 -0.533601 -0.091677
v -0.391284 -0.533738 -0.091456
v -0.391303 -0.533834 -0.091213
v -0.391313 -0.533888 -0.090958
v -0.391315 -0.533897 -0.090696
v -0.391308 -0.533862 -0.090437
v -0.391293 -0.533783 -0.090189
v -0.391269 -0.533663 -0.089957
v -0.391238 -0.533506 -0.089751
v -0.391200 -0.533315 -0.089576
v -0.391157 -0.533098 -0.089437
v -0.391110 -0.532860 -0.089339
v -0.391061 -0.532610 -0.089284
v -0.391010 -0.532353 -0.089274
v -0.390960 -0.532099 -0.089310
v -0.390911 -0.531855 -0.089390
v -0.390866 -0.531628 -0.089513
v -0.390826 -0.531426 -0.089673
v -0.390792 -0.531254 -0.089867
v -0.390765 -0.531118 -0.090089
v -0.390746 -0.531021 -0.090331
v -0.390736 -0.530968 -0.090587
v -0.390734 -0.530958 -0.090848
v -0.390741 -0.530993 -0.091107
v -0.390756 -0.531072 -0.091356
v -0.390780 -0.531192 -0.091587
v -0.390811 -0.531350 -0.091793
v -0.387866 -0.516463 -0.055581
v -0.387909 -0.516680 -0.055720
v -0.387956 -0.516918 -0.055819
v -0.388006 -0.517169 -0.055874
v -0.388056 -0.517425 -0.055883
v -0.388107 -0.517679 -0.055847
v -0.388155 -0.517923 -0.055767
v -0.388200 -0.518150 -0.055644
v -0.388240 -0.518352 -0.055484
v -0.388274 -0.518524 -0.055290
v -0.388301 -0.518660 -0.055068
v -0.388320 -0.518757 -0.054826
v -0.388330 -0.518811 -0.054570
v -0.388332 -0.518820 -0.054309
v -0.388325 -0.518785 -0.054050
v -0.388310 -0.518706 -0.053801
v -0.388286 -0.518586 -0.053570
v -0.388255 -0.518428 -0.053364
v -0.388217 -0.518238 -0.053189
v -0.388174 -0.518021 -0.053050
v -0.388127 -0.517783 -0.052951
v -0.388078 -0.517532 -0.052897
v -0.388027 -0.517276 -0.052887
v -0.387977 -0.517022 -0.052923
v -0.387928 -0.516778 -0.053003
v -0.387883 -0.516551 -0.053126
v -0.387843 -0.516349 -0.053286
v -0.387809 -0.516177 -0.053480
v -0.387782 -0.516040 -0.053702
v -0.387763 -0.515944 -0.053944
v -0.387753 -0.515890 -0.054200
v -0.387751 -0.515881 -0.054461
v -0.387758 -0.515916 -0.054720
v -0.387773 -0.515995 -0.054969
v -0.387797 -0.516115 -0.055200
v -0.387828 -0.516272 -0.055406
v -0.398457 -0.569992 -0.096852
v -0.398500 -0.570209 -0.096991
v -0.398547 -0.570447 -0.097089
v -0.398596 -0.570697 -0.097144
v -0.398647 -0.570954 -0.097153
v -0.398697 -0.571208 -0.097117
v -0.398746 -0.571452 -0.097037
v -0.398790 -0.571679 -0.096915
v -0.398830 -0.571881 -0.096754
v -0.398864 -0.572053 -0.096560
v -0.398891 -0.572189 -0.096339
v -0.398910 -0.572286 -0.096096
v -0.398921 -0.572340 -0.095841
v -0.398923 -0.572349 -0.095579
v -0.398916 -0.572314 -0.095321
v -0.398900 -0.572235 -0.095072
v -0.398877 -0.572115 -0.094841
v -0.398846 -0.571957 -0.094634
v -0.398808 -0.571767 -0.094459
v -0.398765 -0.571550 -0.094320
v -0.398718 -0.571312 -0.094222
v -0.398668 -0.571061 -0.094167
v -0.398618 -0.570805 -0.094157
v -0.398567 -0.570551 -0.094193
v -0.398519 -0.570307 -0.094274
v -0.398474 -0.570080 -0.094396
v -0.398434 -0.569878 -0.094557
v -0.398400 -0.569706 -0.094751
v -0.398373 -0.569569 -0.094972
v -0.398354 -0.569473 -0.095214
v -0.398343 -0.569419 -0.095470
v -0.398341 -0.569410 -0.095731
v -0.398348 -0.569445 -0.095990
v -0.398364 -0.569524 -0.096239
v -0.398388 -0.569644 -0.096470
v -0.398419 -0.569801 -0.096676
v -0.380449 -0.530500 -0.095986
v -0.381690 -0.536768 -0.100039
v -0.383042 -0.543603 -0.102991
v -0.384470 -0.550820 -0.104762
v -0.385935 -0.558224 -0.105303
v -0.387397 -0.565615 -0.104601
v -0.388817 -0.572794 -0.102674
v -0.390157 -0.579565 -0.099574
v -0.391380 -0.585747 -0.095386
v -0.392454 -0.591173 -0.090222
v -0.393348 -0.595696 -0.084221
v -0.394040 -0.599193 -0.077547
v -0.391778 -0.587758 -0.072505
v -0.381936 -0.538015 -0.085857
v -0.382834 -0.542554 -0.088792
v -0.383814 -0.547504 -0.090930
v -0.384848 -0.552730 -0.092212
v -0.385908 -0.558091 -0.092604
v -0.386967 -0.563444 -0.092095
v -0.387996 -0.568642 -0.090700
v -0.388966 -0.573545 -0.088455
v -0.389852 -0.578022 -0.085422
v -0.390629 -0.581951 -0.081683
v -0.391277 -0.585226 -0.077338
v -0.379535 -0.525880 -0.051759
v -0.379382 -0.525104 -0.057175
v -0.379402 -0.525208 -0.062646
v -0.379596 -0.526188 -0.068027
v -0.379959 -0.528019 -0.073172
v -0.380479 -0.530651 -0.077942
v -0.381145 -0.534014 -0.082209
v -0.377134 -0.513741 -0.048899
v -0.376922 -0.512670 -0.056377
v -0.376950 -0.512813 -0.063933
v -0.377218 -0.514168 -0.071364
v -0.377718 -0.516696 -0.078469
v -0.378437 -0.520331 -0.085056
v -0.379356 -0.524974 -0.090948
v -0.381390 -0.535256 -0.089576
v -0.381347 -0.535039 -0.089437
v -0.381300 -0.534801 -0.089339
v -0.381251 -0.534551 -0.089284
v -0.381200 -0.534294 -0.089274
v -0.381150 -0.534040 -0.089310
v -0.381101 -0.533796 -0.089390
v -0.381057 -0.533569 -0.089513
v -0.381017 -0.533367 -0.089673
v -0.380983 -0.533195 -0.089867
v -0.380956 -0.533059 -0.090089
v -0.380936 -0.532962 -0.090331
v -0.380926 -0.532908 -0.090587
v -0.380924 -0.532899 -0.090848
v -0.380931 -0.532934 -0.091107
v -0.380947 -0.533013 -0.091356
v -0.380970 -0.533133 -0.091587
v -0.381001 -0.533291 -0.091793
v -0.381039 -0.533481 -0.091969
v -0.381082 -0.533698 -0.092108
v -0.381129 -0.533936 -0.092206
v -0.381179 -0.534187 -0.092261
v -0.381229 -0.534443 -0.092270
v -0.381280 -0.534697 -0.092234
v -0.381328 -0.534941 -0.092154
v -0.381373 -0.535168 -0.092032
v -0.381413 -0.535370 -0.091871
v -0.381447 -0.535542 -0.091677
v -0.381474 -0.535679 -0.091456
v -0.381493 -0.535775 -0.091213
v -0.381504 -0.535829 -0.090958
v -0.381505 -0.535838 -0.090696
v -0.381499 -0.535803 -0.090437
v -0.381483 -0.535724 -0.090189
v -0.381459 -0.535604 -0.089957
v -0.381428 -0.535447 -0.089751
v -0.378407 -0.520179 -0.053189
v -0.378364 -0.519962 -0.053050
v -0.378317 -0.519724 -0.052951
v -0.378268 -0.519473 -0.052897
v -0.378217 -0.519217 -0.052887
v -0.378167 -0.518963 -0.052923
v -0.378118 -0.518719 -0.053003
v -0.378074 -0.518492 -0.053126
v -0.378034 -0.518290 -0.053286
v -0.377999 -0.518118 -0.053480
v -0.377973 -0.517981 -0.053702
v -0.377953 -0.517885 -0.053944
v -0.377943 -0.517831 -0.054200
v -0.377941 -0.517822 -0.054461
v -0.377948 -0.517857 -0.054720
v -0.377964 -0.517936 -0.054969
v -0.377987 -0.518056 -0.055200
v -0.378018 -0.518213 -0.055406
v -0.378056 -0.518404 -0.055581
v -0.378099 -0.518621 -0.055720
v -0.378146 -0.518859 -0.055819
v -0.378196 -0.519109 -0.055874
v -0.378246 -0.519366 -0.055883
v -0.378297 -0.519620 -0.055847
v -0.378345 -0.519864 -0.055767
v -0.378390 -0.520091 -0.055644
v -0.378430 -0.520293 -0.055484
v -0.378464 -0.520465 -0.055290
v -0.378491 -0.520601 -0.055068
v -0.378510 -0.520698 -0.054826
v -0.378521 -0.520751 -0.054570
v -0.378522 -0.520761 -0.054309
v -0.378515 -0.520726 -0.054050
v -0.378500 -0.520647 -0.053801
v -0.378476 -0.520527 -0.053570
v -0.378445 -0.520369 -0.053364
v -0.388998 -0.573708 -0.094459
v -0.388955 -0.573491 -0.094320
v -0.388908 -0.573253 -0.094222
v -0.388858 -0.573002 -0.094167
v -0.388808 -0.572746 -0.094157
v -0.388757 -0.572492 -0.094193
v -0.388709 -0.572248 -0.094274
v -0.388664 -0.572021 -0.094396
v -0.388624 -0.571819 -0.094557
v -0.388590 -0.571647 -0.094751
v -0.388563 -0.571510 -0.094972
v -0.388544 -0.571414 -0.095214
v -0.388533 -0.571360 -0.095470
v -0.388532 -0.571351 -0.095731
v -0.388539 -0.571386 -0.095990
v -0.388554 -0.571465 -0.096239
v -0.388578 -0.571585 -0.096470
v -0.388609 -0.571742 -0.096676
v -0.388647 -0.571933 -0.096852
v -0.388690 -0.572150 -0.096991
v -0.388737 -0.572388 -0.097089
v -0.388786 -0.572638 -0.097144
v -0.388837 -0.572895 -0.097153
v -0.388887 -0.573149 -0.097117
v -0.388936 -0.573393 -0.097037
v -0.388981 -0.573619 -0.096915
v -0.389021 -0.573822 -0.096754
v -0.389055 -0.573994 -0.096560
v -0.389082 -0.574130 -0.096339
v -0.389101 -0.574227 -0.096096
v -0.389111 -0.574280 -0.095841
v -0.389113 -0.574290 -0.095579
v -0.389106 -0.574255 -0.095321
v -0.389091 -0.574176 -0.095072
v -0.389067 -0.574056 -0.094841
v -0.389036 -0.573898 -0.094634
v -0.390259 -0.528559 -0.095986
v -0.380449 -0.530500 -0.095986
v -0.386943 -0.511801 -0.048899
v -0.386732 -0.510729 -0.056377
v -0.386760 -0.510872 -0.063933
v -0.387028 -0.512227 -0.071364
v -0.387528 -0.514755 -0.078469
v -0.388247 -0.518390 -0.085056
v -0.389166 -0.523033 -0.090948
v -0.377134 -0.513741 -0.048899
v -0.376922 -0.512670 -0.056377
v -0.376950 -0.512813 -0.063933
v -0.377218 -0.514168 -0.071364
v -0.377718 -0.516696 -0.078469
v -0.378437 -0.520331 -0.085056
v -0.379356 -0.524974 -0.090948
v -0.381390 -0.535256 -0.089576
v -0.381347 -0.535039 -0.089437
v -0.381300 -0.534801 -0.089339
v -0.381251 -0.534551 -0.089284
v -0.381200 -0.534294 -0.089274
v -0.381150 -0.534040 -0.089310
v -0.381101 -0.533796 -0.089390
v -0.381057 -0.533569 -0.089513
v -0.381017 -0.533367 -0.089673
v -0.380983 -0.533195 -0.089867
v -0.380956 -0.533059 -0.090089
v -0.380936 -0.532962 -0.090331
v -0.380926 -0.532908 -0.090587
v -0.380924 -0.532899 -0.090848
v -0.380931 -0.532934 -0.091107
v -0.380947 -0.533013 -0.091356
v -0.380970 -0.533133 -0.091587
v -0.381001 -0.533291 -0.091793
v -0.381039 -0.533481 -0.091969
v -0.390849 -0.531540 -0.091969
v -0.391200 -0.533315 -0.089576
v -0.391157 -0.533098 -0.089437
v -0.391110 -0.532860 -0.089339
v -0.391061 -0.532610 -0.089284
v -0.391010 -0.532353 -0.089274
v -0.390960 -0.532099 -0.089310
v -0.390911 -0.531855 -0.089390
v -0.390866 -0.531628 -0.089513
v -0.390826 -0.531426 -0.089673
v -0.390792 -0.531254 -0.089867
v -0.390765 -0.531118 -0.090089
v -0.390746 -0.531021 -0.090331
v -0.390736 -0.530968 -0.090587
v -0.390734 -0.530958 -0.090848
v -0.390741 -0.530993 -0.091107
v -0.390756 -0.531072 -0.091356
v -0.390780 -0.531192 -0.091587
v -0.390811 -0.531350 -0.091793
v -0.381936 -0.538015 -0.085857
v -0.382834 -0.542554 -0.088792
v -0.383814 -0.547504 -0.090930
v -0.384848 -0.552730 -0.092212
v -0.385908 -0.558091 -0.092604
v -0.386967 -0.563444 -0.092095
v -0.387996 -0.568642 -0.090700
v -0.388966 -0.573545 -0.088455
v -0.389852 -0.578022 -0.085422
v -0.390629 -0.581951 -0.081683
v -0.391277 -0.585226 -0.077338
v -0.391778 -0.587758 -0.072505
v -0.401588 -0.585817 -0.072505
v -0.391746 -0.536074 -0.085857
v -0.392644 -0.540614 -0.088792
v -0.393623 -0.545563 -0.090930
v -0.394657 -0.550789 -0.092212
v -0.395718 -0.556151 -0.092604
v -0.396777 -0.561503 -0.092095
v -0.397806 -0.566701 -0.090700
v -0.398776 -0.571604 -0.088455
v -0.399661 -0.576081 -0.085422
v -0.400439 -0.580010 -0.081683
v -0.401087 -0.583285 -0.077338
v -0.378407 -0.520179 -0.053189
v -0.378364 -0.519962 -0.053050
v -0.378317 -0.519724 -0.052951
v -0.378268 -0.519473 -0.052897
v -0.378217 -0.519217 -0.052887
v -0.378167 -0.518963 -0.052923
v -0.378118 -0.518719 -0.053003
v -0.378074 -0.518492 -0.053126
v -0.378034 -0.518290 -0.053286
v -0.377999 -0.518118 -0.053480
v -0.377973 -0.517981 -0.053702
v -0.377953 -0.517885 -0.053944
v -0.377943 -0.517831 -0.054200
v -0.377941 -0.517822 -0.054461
v -0.377948 -0.517857 -0.054720
v -0.377964 -0.517936 -0.054969
v -0.377987 -0.518056 -0.055200
v -0.378018 -0.518213 -0.055406
v -0.378056 -0.518404 -0.055581
v -0.387866 -0.516463 -0.055581
v -0.388217 -0.518238 -0.053189
v -0.388174 -0.518021 -0.053050
v -0.388127 -0.517783 -0.052951
v -0.388078 -0.517532 -0.052897
v -0.388027 -0.517276 -0.052887
v -0.387977 -0.517022 -0.052923
v -0.387928 -0.516778 -0.053003
v -0.387883 -0.516551 -0.053126
v -0.387843 -0.516349 -0.053286
v -0.387809 -0.516177 -0.053480
v -0.387782 -0.516040 -0.053702
v -0.387763 -0.515944 -0.053944
v -0.387753 -0.515890 -0.054200
v -0.387751 -0.515881 -0.054461
v -0.387758 -0.515916 -0.054720
v -0.387773 -0.515995 -0.054969
v -0.387797 -0.516115 -0.055200
v -0.387828 -0.516272 -0.055406
v -0.388998 -0.573708 -0.094459
v -0.388955 -0.573491 -0.094320
v -0.388908 -0.573253 -0.094222
v -0.388858 -0.573002 -0.094167
v -0.388808 -0.572746 -0.094157
v -0.388757 -0.572492 -0.094193
v -0.388709 -0.572248 -0.094274
v -0.388664 -0.572021 -0.094396
v -0.388624 -0.571819 -0.094557
v -0.388590 -0.571647 -0.094751
v -0.388563 -0.571510 -0.094972
v -0.388544 -0.571414 -0.095214
v -0.388533 -0.571360 -0.095470
v -0.388532 -0.571351 -0.095731
v -0.388539 -0.571386 -0.095990
v -0.388554 -0.571465 -0.096239
v -0.388578 -0.571585 -0.096470
v -0.388609 -0.571742 -0.096676
v -0.388647 -0.571933 -0.096852
v -0.398457 -0.569992 -0.096852
v -0.398808 -0.571767 -0.094459
v -0.398765 -0.571550 -0.094320
v -0.398718 -0.571312 -0.094222
v -0.398668 -0.571061 -0.094167
v -0.398618 -0.570805 -0.094157
v -0.398567 -0.570551 -0.094193
v -0.398519 -0.570307 -0.094274
v -0.398474 -0.570080 -0.094396
v -0.398434 -0.569878 -0.094557
v -0.398400 -0.569706 -0.094751
v -0.398373 -0.569569 -0.094972
v -0.398354 -0.569473 -0.095214
v -0.398343 -0.569419 -0.095470
v -0.398341 -0.569410 -0.095731
v -0.398348 -0.569445 -0.095990
v -0.398364 -0.569524 -0.096239
v -0.398388 -0.569644 -0.096470
v -0.398419 -0.569801 -0.096676
v -0.391778 -0.587758 -0.072505
v -0.394040 -0.599193 -0.077547
v -0.403850 -0.597252 -0.077547
v -0.401588 -0.585817 -0.072505
v -0.386943 -0.511801 -0.048899
v -0.389345 -0.523939 -0.051759
v -0.377134 -0.513741 -0.048899
v -0.379535 -0.525880 -0.051759
f 19 21 20
f 19 38 21
f 18 37 38
f 18 38 19
f 17 35 36
f 17 36 37
f 17 37 18
f 16 35 17
f 15 34 35
f 15 35 16
f 14 33 34
f 14 34 15
f 13 32 33
f 13 33 14
f 12 31 32
f 12 32 13
f 11 29 30
f 11 30 31
f 11 31 12
f 10 29 11
f 9 28 29
f 9 29 10
f 8 27 28
f 8 28 9
f 7 26 27
f 7 27 8
f 6 25 26
f 6 26 7
f 5 25 6
f 5 24 25
f 4 24 5
f 4 22 23
f 4 23 24
f 3 22 4
f 2 22 3
f 2 1 22
f 57 59 58
f 57 76 59
f 56 75 76
f 56 76 57
f 55 73 74
f 55 74 75
f 55 75 56
f 54 73 55
f 53 72 73
f 53 73 54
f 52 71 72
f 52 72 53
f 51 70 71
f 51 71 52
f 50 69 70
f 50 70 51
f 49 67 68
f 49 68 69
f 49 69 50
f 48 67 49
f 47 66 67
f 47 67 48
f 46 65 66
f 46 66 47
f 45 64 65
f 45 65 46
f 44 63 64
f 44 64 45
f 43 63 44
f 43 62 63
f 42 62 43
f 42 60 61
f 42 61 62
f 41 60 42
f 40 60 41
f 40 39 60
f 84 86 85
f 84 91 92
f 84 92 86
f 83 91 84
f 82 90 91
f 82 91 83
f 81 88 89
f 81 89 90
f 81 90 82
f 80 88 81
f 79 87 88
f 79 88 80
f 78 77 87
f 78 87 79
f 111 113 112
f 111 130 113
f 110 129 130
f 110 130 111
f 109 127 128
f 109 128 129
f 109 129 110
f 108 127 109
f 107 126 127
f 107 127 108
f 106 125 126
f 106 126 107
f 105 124 125
f 105 125 106
f 104 123 124
f 104 124 105
f 103 121 122
f 103 122 123
f 103 123 104
f 102 121 103
f 101 120 121
f 101 121 102
f 100 119 120
f 100 120 101
f 99 118 119
f 99 119 100
f 98 117 118
f 98 118 99
f 97 117 98
f 97 116 117
f 96 116 97
f 96 114 115
f 96 115 116
f 95 114 96
f 94 114 95
f 94 93 114
f 153 142 141
f 153 154 142
f 152 141 140
f 152 153 141
f 151 139 138
f 151 140 139
f 151 152 140
f 150 151 138
f 149 138 137
f 149 150 138
f 148 136 135
f 148 137 136
f 148 149 137
f 147 148 135
f 146 135 134
f 146 147 135
f 145 133 132
f 145 134 133
f 145 146 134
f 144 132 131
f 144 145 132
f 143 144 131
f 270 269 169
f 268 169 269
f 271 270 169
f 272 169 170
f 272 271 169
f 267 169 268
f 273 272 170
f 266 169 267
f 274 273 170
f 265 169 266
f 275 274 170
f 300 168 169
f 300 169 265
f 299 168 300
f 276 275 170
f 277 276 170
f 298 168 299
f 278 277 170
f 279 170 171
f 279 278 170
f 280 279 171
f 181 296 295
f 181 297 296
f 181 298 297
f 181 168 298
f 180 166 167
f 180 167 168
f 180 168 181
f 182 289 288
f 182 290 289
f 182 291 290
f 182 292 291
f 182 293 292
f 182 294 293
f 182 295 294
f 182 181 295
f 179 166 180
f 183 182 288
f 183 282 281
f 183 283 282
f 183 284 283
f 183 285 284
f 183 286 285
f 183 287 286
f 183 288 287
f 178 164 165
f 178 165 166
f 178 166 179
f 197 163 164
f 198 197 164
f 199 198 164
f 196 163 197
f 200 199 164
f 195 163 196
f 201 200 164
f 194 163 195
f 193 163 194
f 202 201 164
f 228 163 193
f 184 280 171
f 184 281 280
f 184 183 281
f 227 163 228
f 226 163 227
f 225 163 226
f 177 164 178
f 177 203 202
f 177 204 203
f 177 205 204
f 177 206 205
f 177 207 206
f 177 202 164
f 162 221 220
f 162 222 221
f 162 223 222
f 162 224 223
f 162 225 224
f 162 163 225
f 185 171 172
f 185 184 171
f 176 207 177
f 176 208 207
f 176 209 208
f 176 210 209
f 176 211 210
f 176 212 211
f 176 213 212
f 176 214 213
f 176 215 214
f 186 172 173
f 186 185 172
f 192 162 220
f 192 161 162
f 192 216 215
f 192 217 216
f 192 218 217
f 192 219 218
f 192 220 219
f 192 215 176
f 175 173 174
f 175 186 173
f 191 161 192
f 160 161 191
f 190 160 191
f 189 159 160
f 189 160 190
f 158 189 188
f 158 159 189
f 233 188 234
f 235 188 187
f 235 234 188
f 232 158 188
f 232 188 233
f 231 158 232
f 236 235 187
f 230 158 231
f 237 236 187
f 238 237 187
f 157 158 230
f 157 230 229
f 239 238 187
f 264 157 229
f 263 157 264
f 240 239 187
f 241 240 187
f 262 157 263
f 242 241 187
f 261 157 262
f 260 157 261
f 259 157 260
f 258 157 259
f 156 242 187
f 156 243 242
f 156 244 243
f 156 245 244
f 156 246 245
f 156 247 246
f 156 248 247
f 156 249 248
f 156 250 249
f 155 256 255
f 155 257 256
f 155 258 257
f 155 157 258
f 155 250 156
f 155 251 250
f 155 252 251
f 155 253 252
f 155 254 253
f 155 255 254
f 434 307 433
f 432 433 307
f 435 307 434
f 436 308 307
f 436 307 435
f 431 432 307
f 437 308 436
f 430 431 307
f 438 308 437
f 429 430 307
f 439 308 438
f 428 307 306
f 428 429 307
f 440 308 439
f 427 428 306
f 441 308 440
f 426 427 306
f 442 308 441
f 443 309 308
f 443 308 442
f 444 309 443
f 319 423 424
f 319 424 425
f 319 425 426
f 319 426 306
f 318 305 304
f 318 306 305
f 318 319 306
f 320 416 417
f 320 417 418
f 320 418 419
f 320 419 420
f 320 420 421
f 320 421 422
f 320 422 423
f 320 423 319
f 317 318 304
f 321 411 412
f 321 412 413
f 321 413 414
f 321 414 415
f 321 415 416
f 321 416 320
f 321 445 446
f 321 446 411
f 316 303 302
f 316 304 303
f 316 317 304
f 361 302 301
f 362 302 361
f 363 302 362
f 360 361 301
f 364 302 363
f 359 360 301
f 365 302 364
f 358 359 301
f 366 302 365
f 357 358 301
f 356 357 301
f 322 309 444
f 322 444 445
f 322 445 321
f 355 356 301
f 354 355 301
f 353 354 301
f 315 316 302
f 315 366 367
f 315 367 368
f 315 368 369
f 315 302 366
f 315 369 370
f 315 370 371
f 338 348 349
f 338 349 350
f 338 350 351
f 338 351 352
f 338 352 353
f 338 353 301
f 323 310 309
f 323 309 322
f 314 315 371
f 314 339 340
f 314 340 341
f 314 341 342
f 314 342 343
f 314 371 372
f 314 372 373
f 314 373 374
f 314 374 339
f 324 311 310
f 324 310 323
f 331 314 343
f 331 338 337
f 331 343 344
f 331 344 345
f 331 345 346
f 331 346 347
f 331 347 348
f 331 348 338
f 313 312 311
f 313 311 324
f 330 331 337
f 336 330 337
f 329 330 336
f 328 336 335
f 328 329 336
f 334 327 328
f 334 328 335
f 397 398 327
f 399 326 327
f 399 327 398
f 396 327 334
f 396 397 327
f 395 396 334
f 400 326 399
f 394 395 334
f 401 326 400
f 402 326 401
f 333 394 334
f 333 393 394
f 403 326 402
f 392 393 333
f 391 392 333
f 404 326 403
f 390 391 333
f 405 326 404
f 389 390 333
f 406 326 405
f 388 389 333
f 387 388 333
f 386 387 333
f 325 406 407
f 325 407 408
f 325 408 409
f 325 409 410
f 325 410 375
f 325 375 376
f 325 376 377
f 325 377 378
f 325 326 406
f 332 386 333
f 332 325 378
f 332 378 379
f 332 379 380
f 332 380 381
f 332 381 382
f 332 382 383
f 332 383 384
f 332 384 385
f 332 385 386
f 462 448 447
f 462 447 455
f 461 454 453
f 461 455 454
f 461 462 455
f 460 461 453
f 459 452 451
f 459 453 452
f 459 460 453
f 458 459 451
f 457 451 450
f 457 458 451
f 456 450 449
f 456 457 450
f 480 482 481
f 480 500 482
f 479 498 499
f 479 499 500
f 479 500 480
f 478 498 479
f 477 496 497
f 477 497 498
f 477 498 478
f 476 496 477
f 475 495 496
f 475 496 476
f 474 494 495
f 474 495 475
f 473 493 494
f 473 494 474
f 472 492 493
f 472 493 473
f 471 491 492
f 471 492 472
f 470 489 490
f 470 490 491
f 470 491 471
f 469 489 470
f 468 488 489
f 468 489 469
f 467 487 488
f 467 488 468
f 466 487 467
f 466 486 487
f 465 486 466
f 465 485 486
f 464 485 465
f 464 484 485
f 463 484 464
f 463 483 484
f 511 513 512
f 511 524 513
f 510 523 524
f 510 524 511
f 509 522 523
f 509 523 510
f 508 520 521
f 508 521 522
f 508 522 509
f 507 520 508
f 506 519 520
f 506 520 507
f 505 518 519
f 505 519 506
f 504 517 518
f 504 518 505
f 503 515 516
f 503 516 517
f 503 517 504
f 502 515 503
f 501 514 515
f 501 515 502
f 542 544 543
f 542 562 544
f 541 560 561
f 541 561 562
f 541 562 542
f 540 560 541
f 539 558 559
f 539 559 560
f 539 560 540
f 538 558 539
f 537 557 558
f 537 558 538
f 536 556 557
f 536 557 537
f 535 555 556
f 535 556 536
f 534 554 555
f 534 555 535
f 533 553 554
f 533 554 534
f 532 551 552
f 532 552 553
f 532 553 533
f 531 551 532
f 530 550 551
f 530 551 531
f 529 549 550
f 529 550 530
f 528 549 529
f 528 548 549
f 527 548 528
f 527 547 548
f 526 547 527
f 526 546 547
f 525 546 526
f 525 545 546
f 580 582 581
f 580 600 582
f 579 598 599
f 579 599 600
f 579 600 580
f 578 598 579
f 577 596 597
f 577 597 598
f 577 598 578
f 576 596 577
f 575 595 596
f 575 596 576
f 574 594 595
f 574 595 575
f 573 593 594
f 573 594 574
f 572 592 593
f 572 593 573
f 571 591 592
f 571 592 572
f 570 589 590
f 570 590 591
f 570 591 571
f 569 589 570
f 568 588 589
f 568 589 569
f 567 587 588
f 567 588 568
f 566 587 567
f 566 586 587
f 565 586 566
f 565 585 586
f 564 585 565
f 564 584 585
f 563 584 564
f 563 583 584
f 602 601 604
f 603 602 604
f 606 607 605
f 606 608 607
