# generated by step_to_parts.py -- 608 verts, 592 tris
v 0.198165 -0.581335 -0.098865
v 0.208091 -0.580116 -0.098865
v 0.208118 -0.580335 -0.099005
v 0.208147 -0.580575 -0.099105
v 0.208178 -0.580829 -0.099161
v 0.208210 -0.581088 -0.099172
v 0.208242 -0.581345 -0.099137
v 0.208272 -0.581593 -0.099058
v 0.208300 -0.581823 -0.098937
v 0.208326 -0.582028 -0.098777
v 0.208347 -0.582203 -0.098584
v 0.208364 -0.582342 -0.098364
v 0.208376 -0.582441 -0.098122
v 0.208383 -0.582497 -0.097866
v 0.208385 -0.582508 -0.097605
v 0.208380 -0.582473 -0.097346
v 0.208371 -0.582395 -0.097097
v 0.208356 -0.582274 -0.096865
v 0.208337 -0.582116 -0.096658
v 0.208313 -0.581924 -0.096482
v 0.198388 -0.583143 -0.096482
v 0.198192 -0.581554 -0.099005
v 0.198222 -0.581794 -0.099105
v 0.198253 -0.582047 -0.099161
v 0.198285 -0.582307 -0.099172
v 0.198316 -0.582564 -0.099137
v 0.198347 -0.582811 -0.099058
v 0.198375 -0.583041 -0.098937
v 0.198400 -0.583247 -0.098777
v 0.198422 -0.583422 -0.098584
v 0.198439 -0.583561 -0.098364
v 0.198451 -0.583660 -0.098122
v 0.198458 -0.583715 -0.097866
v 0.198459 -0.583726 -0.097605
v 0.198455 -0.583692 -0.097346
v 0.198445 -0.583613 -0.097097
v 0.198430 -0.583493 -0.096865
v 0.198411 -0.583335 -0.096658
v 0.191541 -0.527383 -0.057319
v 0.201467 -0.526165 -0.057319
v 0.201493 -0.526384 -0.057459
v 0.201523 -0.526624 -0.057558
v 0.201554 -0.526877 -0.057615
v 0.201586 -0.527137 -0.057626
v 0.201617 -0.527394 -0.057591
v 0.201648 -0.527641 -0.057512
v 0.201676 -0.527871 -0.057391
v 0.201701 -0.528077 -0.057231
v 0.201723 -0.528252 -0.057038
v 0.201740 -0.528391 -0.056817
v 0.201752 -0.528490 -0.056575
v 0.201759 -0.528545 -0.056320
v 0.201760 -0.528556 -0.056059
v 0.201756 -0.528522 -0.055800
v 0.201746 -0.528443 -0.055550
v 0.201732 -0.528323 -0.055319
v 0.201712 -0.528165 -0.055112
v 0.201689 -0.527973 -0.054935
v 0.191763 -0.529192 -0.054935
v 0.191568 -0.527603 -0.057459
v 0.191597 -0.527842 -0.057558
v 0.191629 -0.528096 -0.057615
v 0.191660 -0.528355 -0.057626
v 0.191692 -0.528612 -0.057591
v 0.191722 -0.528860 -0.057512
v 0.191751 -0.529090 -0.057391
v 0.191776 -0.529295 -0.057231
v 0.191797 -0.529470 -0.057038
v 0.191814 -0.529609 -0.056817
v 0.191827 -0.529708 -0.056575
v 0.191833 -0.529764 -0.056320
v 0.191835 -0.529775 -0.056059
v 0.191830 -0.529740 -0.055800
v 0.191821 -0.529662 -0.055550
v 0.191806 -0.529542 -0.055319
v 0.191787 -0.529383 -0.055112
v 0.192472 -0.534967 -0.053535
v 0.202398 -0.533748 -0.053535
v 0.202298 -0.532936 -0.058947
v 0.202307 -0.533013 -0.064419
v 0.202426 -0.533978 -0.069805
v 0.202650 -0.535805 -0.074959
v 0.202974 -0.538444 -0.079742
v 0.203389 -0.541824 -0.084026
v 0.203884 -0.545855 -0.087696
v 0.193959 -0.547074 -0.087696
v 0.192372 -0.534155 -0.058947
v 0.192382 -0.534232 -0.064419
v 0.192500 -0.535197 -0.069805
v 0.192725 -0.537024 -0.074959
v 0.193049 -0.539663 -0.079742
v 0.193464 -0.543043 -0.084026
v 0.193392 -0.542455 -0.093783
v 0.203317 -0.541236 -0.093783
v 0.203344 -0.541456 -0.093924
v 0.203373 -0.541696 -0.094023
v 0.203405 -0.541949 -0.094079
v 0.203436 -0.542208 -0.094090
v 0.203468 -0.542466 -0.094056
v 0.203498 -0.542713 -0.093976
v 0.203527 -0.542943 -0.093855
v 0.203552 -0.543148 -0.093696
v 0.203573 -0.543323 -0.093503
v 0.203590 -0.543462 -0.093282
v 0.203603 -0.543561 -0.093040
v 0.203609 -0.543617 -0.092785
v 0.203611 -0.543628 -0.092523
v 0.203607 -0.543593 -0.092264
v 0.203597 -0.543515 -0.092015
v 0.203582 -0.543395 -0.091783
v 0.203563 -0.543236 -0.091576
v 0.203539 -0.543045 -0.091400
v 0.193614 -0.544263 -0.091400
v 0.193419 -0.542674 -0.093924
v 0.193448 -0.542914 -0.094023
v 0.193479 -0.543168 -0.094079
v 0.193511 -0.543427 -0.094090
v 0.193543 -0.543684 -0.094056
v 0.193573 -0.543932 -0.093976
v 0.193601 -0.544162 -0.093855
v 0.193626 -0.544367 -0.093696
v 0.193648 -0.544542 -0.093503
v 0.193665 -0.544681 -0.093282
v 0.193677 -0.544780 -0.093040
v 0.193684 -0.544836 -0.092785
v 0.193685 -0.544846 -0.092523
v 0.193681 -0.544812 -0.092264
v 0.193671 -0.544734 -0.092015
v 0.193657 -0.544613 -0.091783
v 0.193637 -0.544455 -0.091576
v 0.193019 -0.539419 -0.097786
v 0.193795 -0.545741 -0.101871
v 0.194642 -0.552641 -0.104858
v 0.195538 -0.559934 -0.106666
v 0.196457 -0.567423 -0.107246
v 0.197376 -0.574904 -0.106582
v 0.198269 -0.582177 -0.104692
v 0.199112 -0.589044 -0.101627
v 0.199883 -0.595320 -0.097471
v 0.200560 -0.600835 -0.092335
v 0.201125 -0.605441 -0.086358
v 0.201564 -0.609013 -0.079702
v 0.202944 -0.538200 -0.097786
v 0.203721 -0.544522 -0.101871
v 0.204568 -0.551422 -0.104858
v 0.205463 -0.558716 -0.106666
v 0.206383 -0.566204 -0.107246
v 0.207301 -0.573685 -0.106582
v 0.208194 -0.580958 -0.104692
v 0.209037 -0.587825 -0.101627
v 0.209808 -0.594101 -0.097471
v 0.210485 -0.599617 -0.092335
v 0.211051 -0.604222 -0.086358
v 0.211489 -0.607794 -0.079702
v 0.190966 -0.522700 -0.050612
v 0.192472 -0.534967 -0.053535
v 0.190828 -0.521578 -0.058085
v 0.190841 -0.521685 -0.065642
v 0.191005 -0.523018 -0.073079
v 0.191315 -0.525541 -0.080197
v 0.191762 -0.529185 -0.086803
v 0.192335 -0.533853 -0.092719
v 0.193019 -0.539419 -0.097786
v 0.193795 -0.545741 -0.101871
v 0.194642 -0.552641 -0.104858
v 0.195538 -0.559934 -0.106666
v 0.196457 -0.567423 -0.107246
v 0.197376 -0.574904 -0.106582
v 0.198269 -0.582177 -0.104692
v 0.199112 -0.589044 -0.101627
v 0.199883 -0.595320 -0.097471
v 0.200560 -0.600835 -0.092335
v 0.201125 -0.605441 -0.086358
v 0.201564 -0.609013 -0.079702
v 0.200147 -0.597469 -0.074600
v 0.193959 -0.547074 -0.087696
v 0.194521 -0.551651 -0.090654
v 0.195134 -0.556648 -0.092817
v 0.195783 -0.561930 -0.094126
v 0.196449 -0.567352 -0.094546
v 0.197114 -0.572770 -0.094065
v 0.197760 -0.578036 -0.092697
v 0.198371 -0.583009 -0.090477
v 0.198929 -0.587554 -0.087468
v 0.199419 -0.591548 -0.083748
v 0.199829 -0.594883 -0.079420
v 0.192372 -0.534155 -0.058947
v 0.192382 -0.534232 -0.064419
v 0.192500 -0.535197 -0.069805
v 0.192725 -0.537024 -0.074959
v 0.193049 -0.539663 -0.079742
v 0.193464 -0.543043 -0.084026
v 0.193392 -0.542455 -0.093783
v 0.193419 -0.542674 -0.093924
v 0.193448 -0.542914 -0.094023
v 0.193479 -0.543168 -0.094079
v 0.193511 -0.543427 -0.094090
v 0.193543 -0.543684 -0.094056
v 0.193573 -0.543932 -0.093976
v 0.193601 -0.544162 -0.093855
v 0.193626 -0.544367 -0.093696
v 0.193648 -0.544542 -0.093503
v 0.193665 -0.544681 -0.093282
v 0.193677 -0.544780 -0.093040
v 0.193684 -0.544836 -0.092785
v 0.193685 -0.544846 -0.092523
v 0.193681 -0.544812 -0.092264
v 0.193671 -0.544734 -0.092015
v 0.193657 -0.544613 -0.091783
v 0.193637 -0.544455 -0.091576
v 0.193614 -0.544263 -0.091400
v 0.193587 -0.544044 -0.091260
v 0.193557 -0.543804 -0.091160
v 0.193526 -0.543551 -0.091104
v 0.193494 -0.543291 -0.091093
v 0.193463 -0.543034 -0.091128
v 0.193432 -0.542787 -0.091207
v 0.193404 -0.542557 -0.091328
v 0.193379 -0.542351 -0.091488
v 0.193357 -0.542176 -0.091681
v 0.193340 -0.542037 -0.091902
v 0.193328 -0.541938 -0.092143
v 0.193321 -0.541883 -0.092399
v 0.193320 -0.541872 -0.092660
v 0.193324 -0.541906 -0.092919
v 0.193334 -0.541985 -0.093168
v 0.193349 -0.542105 -0.093400
v 0.193368 -0.542263 -0.093607
v 0.191541 -0.527383 -0.057319
v 0.191568 -0.527603 -0.057459
v 0.191597 -0.527842 -0.057558
v 0.191629 -0.528096 -0.057615
v 0.191660 -0.528355 -0.057626
v 0.191692 -0.528612 -0.057591
v 0.191722 -0.528860 -0.057512
v 0.191751 -0.529090 -0.057391
v 0.191776 -0.529295 -0.057231
v 0.191797 -0.529470 -0.057038
v 0.191814 -0.529609 -0.056817
v 0.191827 -0.529708 -0.056575
v 0.191833 -0.529764 -0.056320
v 0.191835 -0.529775 -0.056059
v 0.191830 -0.529740 -0.055800
v 0.191821 -0.529662 -0.055550
v 0.191806 -0.529542 -0.055319
v 0.191787 -0.529383 -0.055112
v 0.191763 -0.529192 -0.054935
v 0.191736 -0.528972 -0.054795
v 0.191707 -0.528732 -0.054696
v 0.191676 -0.528479 -0.054640
v 0.191644 -0.528220 -0.054629
v 0.191612 -0.527962 -0.054663
v 0.191582 -0.527715 -0.054742
v 0.191554 -0.527485 -0.054864
v 0.191528 -0.527280 -0.055023
v 0.191507 -0.527105 -0.055216
v 0.191490 -0.526966 -0.055437
v 0.191478 -0.526867 -0.055679
v 0.191471 -0.526811 -0.055934
v 0.191469 -0.526800 -0.056195
v 0.191474 -0.526835 -0.056454
v 0.191483 -0.526913 -0.056704
v 0.191498 -0.527033 -0.056935
v 0.191518 -0.527192 -0.057143
v 0.198165 -0.581335 -0.098865
v 0.198192 -0.581554 -0.099005
v 0.198222 -0.581794 -0.099105
v 0.198253 -0.582047 -0.099161
v 0.198285 -0.582307 -0.099172
v 0.198316 -0.582564 -0.099137
v 0.198347 -0.582811 -0.099058
v 0.198375 -0.583041 -0.098937
v 0.198400 -0.583247 -0.098777
v 0.198422 -0.583422 -0.098584
v 0.198439 -0.583561 -0.098364
v 0.198451 -0.583660 -0.098122
v 0.198458 -0.583715 -0.097866
v 0.198459 -0.583726 -0.097605
v 0.198455 -0.583692 -0.097346
v 0.198445 -0.583613 -0.097097
v 0.198430 -0.583493 -0.096865
v 0.198411 -0.583335 -0.096658
v 0.198388 -0.583143 -0.096482
v 0.198361 -0.582924 -0.096342
v 0.198331 -0.582684 -0.096242
v 0.198300 -0.582431 -0.096186
v 0.198268 -0.582171 -0.096175
v 0.198237 -0.581914 -0.096210
v 0.198206 -0.581667 -0.096289
v 0.198178 -0.581437 -0.096410
v 0.198153 -0.581231 -0.096569
v 0.198131 -0.581056 -0.096763
v 0.198114 -0.580917 -0.096983
v 0.198102 -0.580818 -0.097225
v 0.198095 -0.580763 -0.097481
v 0.198094 -0.580752 -0.097742
v 0.198098 -0.580786 -0.098001
v 0.198108 -0.580865 -0.098250
v 0.198123 -0.580985 -0.098482
v 0.198142 -0.581143 -0.098689
v 0.202944 -0.538200 -0.097786
v 0.203721 -0.544522 -0.101871
v 0.204568 -0.551422 -0.104858
v 0.205463 -0.558716 -0.106666
v 0.206383 -0.566204 -0.107246
v 0.207301 -0.573685 -0.106582
v 0.208194 -0.580958 -0.104692
v 0.209037 -0.587825 -0.101627
v 0.209808 -0.594101 -0.097471
v 0.210485 -0.599617 -0.092335
v 0.211051 -0.604222 -0.086358
v 0.211489 -0.607794 -0.079702
v 0.210072 -0.596251 -0.074600
v 0.203884 -0.545855 -0.087696
v 0.204446 -0.550433 -0.090654
v 0.205060 -0.555430 -0.092817
v 0.205708 -0.560711 -0.094126
v 0.206374 -0.566134 -0.094546
v 0.207039 -0.571551 -0.094065
v 0.207686 -0.576817 -0.092697
v 0.208296 -0.581790 -0.090477
v 0.208855 -0.586335 -0.087468
v 0.209345 -0.590329 -0.083748
v 0.209754 -0.593664 -0.079420
v 0.202398 -0.533748 -0.053535
v 0.202298 -0.532936 -0.058947
v 0.202307 -0.533013 -0.064419
v 0.202426 -0.533978 -0.069805
v 0.202650 -0.535805 -0.074959
v 0.202974 -0.538444 -0.079742
v 0.203389 -0.541824 -0.084026
v 0.200891 -0.521481 -0.050612
v 0.200754 -0.520360 -0.058085
v 0.200767 -0.520467 -0.065642
v 0.200931 -0.521799 -0.073079
v 0.201240 -0.524322 -0.080197
v 0.201688 -0.527966 -0.086803
v 0.202261 -0.532634 -0.092719
v 0.203539 -0.543045 -0.091400
v 0.203512 -0.542825 -0.091260
v 0.203483 -0.542586 -0.091160
v 0.203452 -0.542332 -0.091104
v 0.203420 -0.542073 -0.091093
v 0.203388 -0.541816 -0.091128
v 0.203358 -0.541568 -0.091207
v 0.203330 -0.541338 -0.091328
v 0.203304 -0.541133 -0.091488
v 0.203283 -0.540958 -0.091681
v 0.203266 -0.540819 -0.091902
v 0.203254 -0.540720 -0.092143
v 0.203247 -0.540664 -0.092399
v 0.203246 -0.540653 -0.092660
v 0.203250 -0.540688 -0.092919
v 0.203259 -0.540766 -0.093168
v 0.203274 -0.540886 -0.093400
v 0.203294 -0.541045 -0.093607
v 0.203317 -0.541236 -0.093783
v 0.203344 -0.541456 -0.093924
v 0.203373 -0.541696 -0.094023
v 0.203405 -0.541949 -0.094079
v 0.203436 -0.542208 -0.094090
v 0.203468 -0.542466 -0.094056
v 0.203498 -0.542713 -0.093976
v 0.203527 -0.542943 -0.093855
v 0.203552 -0.543148 -0.093696
v 0.203573 -0.543323 -0.093503
v 0.203590 -0.543462 -0.093282
v 0.203603 -0.543561 -0.093040
v 0.203609 -0.543617 -0.092785
v 0.203611 -0.543628 -0.092523
v 0.203607 -0.543593 -0.092264
v 0.203597 -0.543515 -0.092015
v 0.203582 -0.543395 -0.091783
v 0.203563 -0.543236 -0.091576
v 0.201689 -0.527973 -0.054935
v 0.201662 -0.527754 -0.054795
v 0.201632 -0.527514 -0.054696
v 0.201601 -0.527260 -0.054640
v 0.201569 -0.527001 -0.054629
v 0.201538 -0.526744 -0.054663
v 0.201507 -0.526496 -0.054742
v 0.201479 -0.526266 -0.054864
v 0.201454 -0.526061 -0.055023
v 0.201432 -0.525886 -0.055216
v 0.201415 -0.525747 -0.055437
v 0.201403 -0.525648 -0.055679
v 0.201396 -0.525592 -0.055934
v 0.201395 -0.525582 -0.056195
v 0.201399 -0.525616 -0.056454
v 0.201409 -0.525694 -0.056704
v 0.201424 -0.525815 -0.056935
v 0.201443 -0.525973 -0.057143
v 0.201467 -0.526165 -0.057319
v 0.201493 -0.526384 -0.057459
v 0.201523 -0.526624 -0.057558
v 0.201554 -0.526877 -0.057615
v 0.201586 -0.527137 -0.057626
v 0.201617 -0.527394 -0.057591
v 0.201648 -0.527641 -0.057512
v 0.201676 -0.527871 -0.057391
v 0.201701 -0.528077 -0.057231
v 0.201723 -0.528252 -0.057038
v 0.201740 -0.528391 -0.056817
v 0.201752 -0.528490 -0.056575
v 0.201759 -0.528545 -0.056320
v 0.201760 -0.528556 -0.056059
v 0.201756 -0.528522 -0.055800
v 0.201746 -0.528443 -0.055550
v 0.201732 -0.528323 -0.055319
v 0.201712 -0.528165 -0.055112
v 0.208313 -0.581924 -0.096482
v 0.208286 -0.581705 -0.096342
v 0.208257 -0.581465 -0.096242
v 0.208225 -0.581212 -0.096186
v 0.208194 -0.580953 -0.096175
v 0.208162 -0.580695 -0.096210
v 0.208132 -0.580448 -0.096289
v 0.208103 -0.580218 -0.096410
v 0.208078 -0.580012 -0.096569
v 0.208057 -0.579837 -0.096763
v 0.208040 -0.579698 -0.096983
v 0.208028 -0.579600 -0.097225
v 0.208021 -0.579544 -0.097481
v 0.208019 -0.579533 -0.097742
v 0.208024 -0.579567 -0.098001
v 0.208033 -0.579646 -0.098250
v 0.208048 -0.579766 -0.098482
v 0.208067 -0.579925 -0.098689
v 0.208091 -0.580116 -0.098865
v 0.208118 -0.580335 -0.099005
v 0.208147 -0.580575 -0.099105
v 0.208178 -0.580829 -0.099161
v 0.208210 -0.581088 -0.099172
v 0.208242 -0.581345 -0.099137
v 0.208272 -0.581593 -0.099058
v 0.208300 -0.581823 -0.098937
v 0.208326 -0.582028 -0.098777
v 0.208347 -0.582203 -0.098584
v 0.208364 -0.582342 -0.098364
v 0.208376 -0.582441 -0.098122
v 0.208383 -0.582497 -0.097866
v 0.208385 -0.582508 -0.097605
v 0.208380 -0.582473 -0.097346
v 0.208371 -0.582395 -0.097097
v 0.208356 -0.582274 -0.096865
v 0.208337 -0.582116 -0.096658
v 0.193019 -0.539419 -0.097786
v 0.202944 -0.538200 -0.097786
v 0.190966 -0.522700 -0.050612
v 0.190828 -0.521578 -0.058085
v 0.190841 -0.521685 -0.065642
v 0.191005 -0.523018 -0.073079
v 0.191315 -0.525541 -0.080197
v 0.191762 -0.529185 -0.086803
v 0.192335 -0.533853 -0.092719
v 0.200891 -0.521481 -0.050612
v 0.200754 -0.520360 -0.058085
v 0.200767 -0.520467 -0.065642
v 0.200931 -0.521799 -0.073079
v 0.201240 -0.524322 -0.080197
v 0.201688 -0.527966 -0.086803
v 0.202261 -0.532634 -0.092719
v 0.203539 -0.543045 -0.091400
v 0.203512 -0.542825 -0.091260
v 0.203483 -0.542586 -0.091160
v 0.203452 -0.542332 -0.091104
v 0.203420 -0.542073 -0.091093
v 0.203388 -0.541816 -0.091128
v 0.203358 -0.541568 -0.091207
v 0.203330 -0.541338 -0.091328
v 0.203304 -0.541133 -0.091488
v 0.203283 -0.540958 -0.091681
v 0.203266 -0.540819 -0.091902
v 0.203254 -0.540720 -0.092143
v 0.203247 -0.540664 -0.092399
v 0.203246 -0.540653 -0.092660
v 0.203250 -0.540688 -0.092919
v 0.203259 -0.540766 -0.093168
v 0.203274 -0.540886 -0.093400
v 0.203294 -0.541045 -0.093607
v 0.203317 -0.541236 -0.093783
v 0.193392 -0.542455 -0.093783
v 0.193614 -0.544263 -0.091400
v 0.193587 -0.544044 -0.091260
v 0.193557 -0.543804 -0.091160
v 0.193526 -0.543551 -0.091104
v 0.193494 -0.543291 -0.091093
v 0.193463 -0.543034 -0.091128
v 0.193432 -0.542787 -0.091207
v 0.193404 -0.542557 -0.091328
v 0.193379 -0.542351 -0.091488
v 0.193357 -0.542176 -0.091681
v 0.193340 -0.542037 -0.091902
v 0.193328 -0.541938 -0.092143
v 0.193321 -0.541883 -0.092399
v 0.193320 -0.541872 -0.092660
v 0.193324 -0.541906 -0.092919
v 0.193334 -0.541985 -0.093168
v 0.193349 -0.542105 -0.093400
v 0.193368 -0.542263 -0.093607
v 0.203884 -0.545855 -0.087696
v 0.204446 -0.550433 -0.090654
v 0.205060 -0.555430 -0.092817
v 0.205708 -0.560711 -0.094126
v 0.206374 -0.566134 -0.094546
v 0.207039 -0.571551 -0.094065
v 0.207686 -0.576817 -0.092697
v 0.208296 -0.581790 -0.090477
v 0.208855 -0.586335 -0.087468
v 0.209345 -0.590329 -0.083748
v 0.209754 -0.593664 -0.079420
v 0.210072 -0.596251 -0.074600
v 0.200147 -0.597469 -0.074600
v 0.193959 -0.547074 -0.087696
v 0.194521 -0.551651 -0.090654
v 0.195134 -0.556648 -0.092817
v 0.195783 -0.561930 -0.094126
v 0.196449 -0.567352 -0.094546
v 0.197114 -0.572770 -0.094065
v 0.197760 -0.578036 -0.092697
v 0.198371 -0.583009 -0.090477
v 0.198929 -0.587554 -0.087468
v 0.199419 -0.591548 -0.083748
v 0.199829 -0.594883 -0.079420
v 0.201689 -0.527973 -0.054935
v 0.201662 -0.527754 -0.054795
v 0.201632 -0.527514 -0.054696
v 0.201601 -0.527260 -0.054640
v 0.201569 -0.527001 -0.054629
v 0.201538 -0.526744 -0.054663
v 0.201507 -0.526496 -0.054742
v 0.201479 -0.526266 -0.054864
v 0.201454 -0.526061 -0.055023
v 0.201432 -0.525886 -0.055216
v 0.201415 -0.525747 -0.055437
v 0.201403 -0.525648 -0.055679
v 0.201396 -0.525592 -0.055934
v 0.201395 -0.525582 -0.056195
v 0.201399 -0.525616 -0.056454
v 0.201409 -0.525694 -0.056704
v 0.201424 -0.525815 -0.056935
v 0.201443 -0.525973 -0.057143
v 0.201467 -0.526165 -0.057319
v 0.191541 -0.527383 -0.057319
v 0.191763 -0.529192 -0.054935
v 0.191736 -0.528972 -0.054795
v 0.191707 -0.528732 -0.054696
v 0.191676 -0.528479 -0.054640
v 0.191644 -0.528220 -0.054629
v 0.191612 -0.527962 -0.054663
v 0.191582 -0.527715 -0.054742
v 0.191554 -0.527485 -0.054864
v 0.191528 -0.527280 -0.055023
v 0.191507 -0.527105 -0.055216
v 0.191490 -0.526966 -0.055437
v 0.191478 -0.526867 -0.055679
v 0.191471 -0.526811 -0.055934
v 0.191469 -0.526800 -0.056195
v 0.191474 -0.526835 -0.056454
v 0.191483 -0.526913 -0.056704
v 0.191498 -0.527033 -0.056935
v 0.191518 -0.527192 -0.057143
v 0.208313 -0.581924 -0.096482
v 0.208286 -0.581705 -0.096342
v 0.208257 -0.581465 -0.096242
v 0.208225 -0.581212 -0.096186
v 0.208194 -0.580953 -0.096175
v 0.208162 -0.580695 -0.096210
v 0.208132 -0.580448 -0.096289
v 0.208103 -0.580218 -0.096410
v 0.208078 -0.580012 -0.096569
v 0.208057 -0.579837 -0.096763
v 0.208040 -0.579698 -0.096983
v 0.208028 -0.579600 -0.097225
v 0.208021 -0.579544 -0.097481
v 0.208019 -0.579533 -0.097742
v 0.208024 -0.579567 -0.098001
v 0.208033 -0.579646 -0.098250
v 0.208048 -0.579766 -0.098482
v 0.208067 -0.579925 -0.098689
v 0.208091 -0.580116 -0.098865
v 0.198165 -0.581335 -0.098865
v 0.198388 -0.583143 -0.096482
v 0.198361 -0.582924 -0.096342
v 0.198331 -0.582684 -0.096242
v 0.198300 -0.582431 -0.096186
v 0.198268 -0.582171 -0.096175
v 0.198237 -0.581914 -0.096210
v 0.198206 -0.581667 -0.096289
v 0.198178 -0.581437 -0.096410
v 0.198153 -0.581231 -0.096569
v 0.198131 -0.581056 -0.096763
v 0.198114 -0.580917 -0.096983
v 0.198102 -0.580818 -0.097225
v 0.198095 -0.580763 -0.097481
v 0.198094 -0.580752 -0.097742
v 0.198098 -0.580786 -0.098001
v 0.198108 -0.580865 -0.098250
v 0.198123 -0.580985 -0.098482
v 0.198142 -0.581143 -0.098689
v 0.210072 -0.596251 -0.074600
v 0.211489 -0.607794 -0.079702
v 0.201564 -0.609013 -0.079702
v 0.200147 -0.597469 -0.074600
v 0.190966 -0.522700 -0.050612
v 0.192472 -0.534967 -0.053535
v 0.200891 -0.521481 -0.050612
v 0.202398 -0.533748 -0.053535
f 19 21 20
f 19 38 21
f 18 37 38
f 18 38 19
f 17 36 37
f 17 37 18
f 16 35 36
f 16 36 17
f 15 33 34
f 15 34 35
f 15 35 16
f 14 33 15
f 13 32 33
f 13 33 14
f 12 31 32
f 12 32 13
f 11 30 31
f 11 31 12
f 10 29 30
f 10 30 11
f 9 28 29
f 9 29 10
f 8 27 28
f 8 28 9
f 7 26 27
f 7 27 8
f 6 24 25
f 6 25 26
f 6 26 7
f 5 24 6
f 4 24 5
f 4 23 24
f 3 23 4
f 3 1 22
f 3 22 23
f 2 1 3
f 57 59 58
f 57 76 59
f 56 75 76
f 56 76 57
f 55 73 74
f 55 74 75
f 55 75 56
f 54 73 55
f 53 72 73
f 53 73 54
f 52 71 72
f 52 72 53
f 51 70 71
f 51 71 52
f 50 69 70
f 50 70 51
f 49 67 68
f 49 68 69
f 49 69 50
f 48 67 49
f 47 66 67
f 47 67 48
f 46 65 66
f 46 66 47
f 45 64 65
f 45 65 46
f 44 63 64
f 44 64 45
f 43 63 44
f 43 62 63
f 42 62 43
f 42 60 61
f 42 61 62
f 41 60 42
f 40 60 41
f 40 39 60
f 84 86 85
f 84 91 92
f 84 92 86
f 83 91 84
f 82 90 91
f 82 91 83
f 81 88 89
f 81 89 90
f 81 90 82
f 80 88 81
f 79 87 88
f 79 88 80
f 78 77 87
f 78 87 79
f 111 113 112
f 111 130 113
f 110 129 130
f 110 130 111
f 109 128 129
f 109 129 110
f 108 127 128
f 108 128 109
f 107 125 126
f 107 126 127
f 107 127 108
f 106 125 107
f 105 124 125
f 105 125 106
f 104 123 124
f 104 124 105
f 103 122 123
f 103 123 104
f 102 121 122
f 102 122 103
f 101 120 121
f 101 121 102
f 100 119 120
f 100 120 101
f 99 118 119
f 99 119 100
f 98 116 117
f 98 117 118
f 98 118 99
f 97 116 98
f 96 116 97
f 96 115 116
f 95 115 96
f 95 93 114
f 95 114 115
f 94 93 95
f 153 142 141
f 153 154 142
f 152 141 140
f 152 153 141
f 151 139 138
f 151 140 139
f 151 152 140
f 150 151 138
f 149 138 137
f 149 150 138
f 148 136 135
f 148 137 136
f 148 149 137
f 147 148 135
f 146 135 134
f 146 147 135
f 145 133 132
f 145 134 133
f 145 146 134
f 144 132 131
f 144 145 132
f 143 144 131
f 270 269 169
f 268 169 269
f 271 270 169
f 272 169 170
f 272 271 169
f 267 169 268
f 266 169 267
f 273 272 170
f 265 169 266
f 274 273 170
f 275 274 170
f 300 168 169
f 300 169 265
f 276 275 170
f 299 168 300
f 277 276 170
f 298 168 299
f 278 277 170
f 279 170 171
f 279 278 170
f 280 279 171
f 181 296 295
f 181 297 296
f 181 298 297
f 181 168 298
f 180 167 168
f 180 168 181
f 182 289 288
f 182 290 289
f 182 291 290
f 182 292 291
f 182 293 292
f 182 294 293
f 182 295 294
f 182 181 295
f 179 166 167
f 179 167 180
f 183 182 288
f 183 282 281
f 183 283 282
f 183 284 283
f 183 285 284
f 183 286 285
f 183 287 286
f 183 288 287
f 178 165 166
f 178 166 179
f 197 163 164
f 198 197 164
f 196 163 197
f 199 198 164
f 195 163 196
f 200 199 164
f 201 200 164
f 194 163 195
f 193 163 194
f 202 201 164
f 228 163 193
f 184 280 171
f 184 183 281
f 184 171 172
f 184 281 280
f 227 163 228
f 226 163 227
f 225 163 226
f 177 164 165
f 177 165 178
f 177 203 202
f 177 204 203
f 177 205 204
f 177 206 205
f 177 207 206
f 177 202 164
f 162 221 220
f 162 222 221
f 162 223 222
f 162 224 223
f 162 225 224
f 162 163 225
f 185 184 172
f 176 208 207
f 176 209 208
f 176 210 209
f 176 211 210
f 176 212 211
f 176 213 212
f 176 214 213
f 176 215 214
f 176 207 177
f 186 172 173
f 186 173 174
f 186 185 172
f 192 161 162
f 192 162 220
f 192 216 215
f 192 217 216
f 192 218 217
f 192 219 218
f 192 220 219
f 192 215 176
f 175 186 174
f 191 161 192
f 160 161 191
f 190 160 191
f 189 159 160
f 189 160 190
f 158 189 188
f 158 159 189
f 234 233 188
f 232 158 188
f 232 188 233
f 235 188 187
f 235 234 188
f 231 158 232
f 236 235 187
f 230 158 231
f 237 236 187
f 238 237 187
f 157 230 229
f 157 158 230
f 239 238 187
f 264 157 229
f 240 239 187
f 263 157 264
f 241 240 187
f 262 157 263
f 242 241 187
f 261 157 262
f 260 157 261
f 259 157 260
f 258 157 259
f 156 243 242
f 156 244 243
f 156 242 187
f 156 245 244
f 156 246 245
f 156 247 246
f 156 248 247
f 156 249 248
f 156 250 249
f 155 256 255
f 155 257 256
f 155 258 257
f 155 157 258
f 155 250 156
f 155 251 250
f 155 252 251
f 155 253 252
f 155 254 253
f 155 255 254
f 433 434 307
f 432 433 307
f 435 307 434
f 431 432 307
f 436 308 307
f 436 307 435
f 437 308 436
f 430 431 307
f 438 308 437
f 429 430 307
f 439 308 438
f 428 307 306
f 428 429 307
f 440 308 439
f 427 428 306
f 441 308 440
f 426 427 306
f 442 308 441
f 443 309 308
f 443 308 442
f 444 309 443
f 319 423 424
f 319 424 425
f 319 425 426
f 319 426 306
f 318 306 305
f 318 319 306
f 320 416 417
f 320 417 418
f 320 418 419
f 320 419 420
f 320 420 421
f 320 421 422
f 320 422 423
f 320 423 319
f 317 305 304
f 317 318 305
f 321 411 412
f 321 416 320
f 321 412 413
f 321 413 414
f 321 414 415
f 321 415 416
f 321 445 446
f 321 446 411
f 316 304 303
f 316 317 304
f 361 302 301
f 362 302 361
f 360 361 301
f 363 302 362
f 364 302 363
f 359 360 301
f 365 302 364
f 358 359 301
f 366 302 365
f 357 358 301
f 356 357 301
f 322 309 444
f 322 310 309
f 322 444 445
f 322 445 321
f 355 356 301
f 354 355 301
f 353 354 301
f 315 303 302
f 315 316 303
f 315 302 366
f 315 366 367
f 315 367 368
f 315 368 369
f 315 369 370
f 315 370 371
f 338 348 349
f 338 349 350
f 338 350 351
f 338 351 352
f 338 352 353
f 338 353 301
f 323 310 322
f 314 339 340
f 314 340 341
f 314 341 342
f 314 342 343
f 314 315 371
f 314 371 372
f 314 372 373
f 314 373 374
f 314 374 339
f 324 310 323
f 324 311 310
f 324 312 311
f 331 314 343
f 331 338 337
f 331 343 344
f 331 344 345
f 331 345 346
f 331 346 347
f 331 347 348
f 331 348 338
f 313 312 324
f 330 331 337
f 336 330 337
f 329 330 336
f 328 329 336
f 328 336 335
f 334 328 335
f 334 327 328
f 398 327 397
f 396 327 334
f 396 397 327
f 399 326 327
f 399 327 398
f 395 396 334
f 400 326 399
f 394 395 334
f 401 326 400
f 402 326 401
f 333 394 334
f 333 393 394
f 392 393 333
f 403 326 402
f 404 326 403
f 391 392 333
f 405 326 404
f 390 391 333
f 406 326 405
f 389 390 333
f 388 389 333
f 387 388 333
f 386 387 333
f 325 406 407
f 325 407 408
f 325 408 409
f 325 409 410
f 325 410 375
f 325 326 406
f 325 375 376
f 325 376 377
f 325 377 378
f 332 325 378
f 332 378 379
f 332 379 380
f 332 380 381
f 332 381 382
f 332 382 383
f 332 383 384
f 332 384 385
f 332 385 386
f 332 386 333
f 462 448 447
f 462 447 455
f 461 454 453
f 461 455 454
f 461 462 455
f 460 461 453
f 459 452 451
f 459 453 452
f 459 460 453
f 458 459 451
f 457 451 450
f 457 458 451
f 456 450 449
f 456 457 450
f 480 482 481
f 480 500 482
f 479 498 499
f 479 499 500
f 479 500 480
f 478 498 479
f 477 496 497
f 477 497 498
f 477 498 478
f 476 496 477
f 475 495 496
f 475 496 476
f 474 494 495
f 474 495 475
f 473 493 494
f 473 494 474
f 472 492 493
f 472 493 473
f 471 491 492
f 471 492 472
f 470 489 490
f 470 490 491
f 470 491 471
f 469 489 470
f 468 488 489
f 468 489 469
f 467 487 488
f 467 488 468
f 466 487 467
f 466 486 487
f 465 486 466
f 465 485 486
f 464 485 465
f 464 484 485
f 463 484 464
f 463 483 484
f 511 513 512
f 511 524 513
f 510 522 523
f 510 523 524
f 510 524 511
f 509 522 510
f 508 520 521
f 508 521 522
f 508 522 509
f 507 519 520
f 507 520 508
f 506 519 507
f 505 518 519
f 505 519 506
f 504 517 518
f 504 518 505
f 503 516 517
f 503 517 504
f 502 515 516
f 502 516 503
f 501 514 515
f 501 515 502
f 542 544 543
f 542 562 544
f 541 560 561
f 541 561 562
f 541 562 542
f 540 560 541
f 539 558 559
f 539 559 560
f 539 560 540
f 538 558 539
f 537 557 558
f 537 558 538
f 536 556 557
f 536 557 537
f 535 555 556
f 535 556 536
f 534 554 555
f 534 555 535
f 533 553 554
f 533 554 534
f 532 551 552
f 532 552 553
f 532 553 533
f 531 551 532
f 530 550 551
f 530 551 531
f 529 549 550
f 529 550 530
f 528 549 529
f 528 548 549
f 527 548 528
f 527 547 548
f 526 547 527
f 526 546 547
f 525 546 526
f 525 545 546
f 580 582 581
f 580 600 582
f 579 598 599
f 579 599 600
f 579 600 580
f 578 598 579
f 577 596 597
f 577 597 598
f 577 598 578
f 576 596 577
f 575 595 596
f 575 596 576
f 574 594 595
f 574 595 575
f 573 593 594
f 573 594 574
f 572 592 593
f 572 593 573
f 571 591 592
f 571 592 572
f 570 589 590
f 570 590 591
f 570 591 571
f 569 589 570
f 568 588 589
f 568 589 569
f 567 587 588
f 567 588 568
f 566 587 567
f 566 586 587
f 565 586 566
f 565 585 586
f 564 585 565
f 564 584 585
f 563 584 564
f 563 583 584
f 603 602 601
f 603 601 604
f 606 607 605
f 606 608 607
